<?xml version="1.0" encoding="UTF-8"?>
<svg width="290px" height="207px" viewBox="0 0 290 207" version="1.1" xmlns="http://www.w3.org/2000/svg" xmlns:xlink="http://www.w3.org/1999/xlink">
    <title>Group 30</title>
    <defs>
        <polygon id="path-1" points="0.418138158 0.0521181818 8.75563816 0.0521181818 8.75563816 47.7272727 0.418138158 47.7272727"></polygon>
        <polygon id="path-3" points="0 206 289.418092 206 289.418092 0.16212963 0 0.16212963"></polygon>
    </defs>
    <g id="CoVerified-Website-😷📲---" stroke="none" stroke-width="1" fill="none" fill-rule="evenodd">
        <g id="CV-Website-Kontakt" transform="translate(-105.000000, -882.000000)">
            <g id="Group-30" transform="translate(105.000000, 882.000000)">
                <g id="Group-12" transform="translate(0.000000, 60.000000)">
                    <path d="M241.283625,69.8692727 C241.283625,68.8841818 241.05277,68.1873636 240.589151,67.7711818 C240.125533,67.3530909 239.583691,67.145 238.955993,67.145 C238.29777,67.145 237.725401,67.3530909 237.257967,67.7711818 C236.784809,68.1873636 236.54823,68.8841818 236.54823,69.8692727 C236.54823,70.8543636 236.784809,71.555 237.257967,71.9692727 C237.725401,72.3873636 238.278691,72.5935455 238.898757,72.5935455 C239.562704,72.5935455 240.125533,72.3873636 240.589151,71.9692727 C241.05277,71.555 241.283625,70.8543636 241.283625,69.8692727 L241.283625,69.8692727 Z M238.248164,78.8286364 C237.847507,78.8286364 237.504086,78.8038182 237.198822,78.7465455 C237.02902,78.8381818 236.861125,78.9527273 236.704678,79.0863636 C236.542507,79.22 236.397507,79.3803636 236.263954,79.5693636 C236.130401,79.7564545 236.021651,79.9836364 235.935796,80.2356364 C235.849941,80.4914545 235.809875,80.7911818 235.809875,81.1271818 C235.809875,82.5876364 236.611191,83.315 238.221454,83.315 C239.600862,83.315 240.615862,83.042 241.283625,82.5036364 C241.941849,81.9652727 242.27573,81.3467273 242.27573,80.648 C242.27573,79.9874545 242.069678,79.5197273 241.646125,79.241 C241.232112,78.968 240.678822,78.8286364 239.974809,78.8286364 L238.248164,78.8286364 Z M244.56902,67.4294545 L242.867178,67.4294545 C243.304086,68.1491818 243.519678,68.9586364 243.519678,69.8692727 C243.519678,70.589 243.403296,71.2361818 243.166717,71.8146364 C242.92823,72.3911818 242.598164,72.878 242.17652,73.2731818 C241.747243,73.6740909 241.247375,73.9738182 240.673099,74.1819091 C240.098822,74.39 239.478757,74.4969091 238.814809,74.4969091 L238.446586,74.4969091 C238.330204,74.4969091 238.211914,74.4835455 238.08027,74.4625455 C237.847507,74.5637273 237.614743,74.7107273 237.368625,74.9207273 C237.124414,75.1269091 237.002309,75.3999091 237.002309,75.7397273 C237.002309,76.0260909 237.109151,76.2532727 237.326651,76.4384545 C237.542243,76.6121818 237.89902,76.7057273 238.389349,76.7057273 L240.117901,76.7057273 C240.760862,76.7057273 241.358033,76.7706364 241.903691,76.9080909 C242.451257,77.0340909 242.92823,77.2440909 243.338428,77.5419091 C243.742901,77.834 244.059612,78.2062727 244.284743,78.6587273 C244.511783,79.1169091 244.630072,79.6648182 244.630072,80.3062727 C244.630072,81.0431818 244.471717,81.7151818 244.162638,82.3203636 C243.847836,82.9274545 243.407112,83.4429091 242.840467,83.8839091 C242.27573,84.3134545 241.585072,84.6570909 240.770401,84.9033636 C239.957638,85.1477273 239.051388,85.2699091 238.053559,85.2699091 C236.59402,85.2699091 235.489349,84.9510909 234.731914,84.3172727 C233.976388,83.6891818 233.600533,82.7766364 233.600533,81.5853636 C233.600533,81.0756364 233.688296,80.6327273 233.86573,80.2642727 C234.043164,79.8958182 234.258757,79.5750909 234.504875,79.2982727 C234.749086,79.0233636 235.002836,78.8095455 235.256586,78.6472727 C235.512243,78.4907273 235.71448,78.3551818 235.863296,78.2654545 L235.863296,78.2062727 C235.27948,77.7729091 234.987572,77.141 234.987572,76.3067273 C234.987572,75.9497273 235.056257,75.6366364 235.201257,75.3712727 C235.342441,75.1078182 235.504612,74.894 235.682046,74.7202727 C235.85948,74.5503636 236.04073,74.4129091 236.22198,74.3079091 C236.401322,74.2048182 236.538691,74.1322727 236.63027,74.0979091 L236.63027,74.0406364 C235.93198,73.7199091 235.371059,73.2120909 234.943691,72.5248182 C234.520138,71.8337273 234.308362,70.9479091 234.308362,69.8692727 C234.308362,69.1113636 234.430467,68.4450909 234.676586,67.8704545 C234.920796,67.292 235.250862,66.8128182 235.668691,66.4367273 C236.08652,66.0587273 236.571125,65.7761818 237.12823,65.5852727 C237.685336,65.3981818 238.28823,65.3008182 238.925467,65.3008182 C239.574151,65.3008182 240.177046,65.4153636 240.739875,65.6406364 L244.881914,65.6406364 L244.56902,67.4294545 Z M229.092178,79.2562727 L229.092178,70.4916364 C229.092178,69.3404545 228.895664,68.5119091 228.512178,68.0098182 C228.124875,67.5096364 227.533428,67.2595455 226.739743,67.2595455 C226.058625,67.2595455 225.49198,67.4294545 225.035993,67.7711818 C224.581914,68.111 224.227046,68.4412727 223.958033,68.762 L223.958033,79.2562727 L221.660928,79.2562727 L221.660928,65.6406364 L223.759612,65.6406364 L223.759612,67.1755455 L223.820664,67.1755455 C223.872178,67.0590909 223.996191,66.8949091 224.188888,66.6791818 C224.373954,66.4596364 224.623888,66.2515455 224.925336,66.053 C225.228691,65.8544545 225.583559,65.6807273 226.001388,65.5299091 C226.417309,65.3752727 226.890467,65.3008182 227.418954,65.3008182 C228.025664,65.3008182 228.57323,65.3924545 229.065467,65.57 C229.555796,65.7513636 229.969809,66.0415455 230.31323,66.4367273 C230.64902,66.8338182 230.914217,67.3492727 231.105007,67.985 C231.293888,68.615 231.387375,69.3977273 231.387375,70.3255455 L231.387375,79.2562727 L229.092178,79.2562727 Z M218.150401,79.2562727 L216.053625,79.2562727 L216.053625,77.7251818 L215.992572,77.7251818 C215.937243,77.8378182 215.81323,78.0058182 215.626257,78.2196364 C215.437375,78.4410909 215.19698,78.6472727 214.901257,78.8439091 C214.609349,79.0443636 214.256388,79.22 213.836651,79.3708182 C213.422638,79.5235455 212.95902,79.5999091 212.45152,79.5999091 C211.842901,79.5999091 211.304875,79.5101818 210.818362,79.3269091 C210.33948,79.1455455 209.923559,78.8591818 209.585862,78.4620909 C209.248164,78.0630909 208.986783,77.5495455 208.807441,76.9195455 C208.626191,76.2857273 208.538428,75.5068182 208.538428,74.5809091 L208.538428,65.6406364 L210.831717,65.6406364 L210.831717,74.4090909 C210.831717,75.5469091 211.020599,76.3506364 211.385007,76.8298182 C211.755138,77.3109091 212.329414,77.5533636 213.102112,77.5533636 C213.764151,77.5533636 214.323164,77.3891818 214.773428,77.0589091 C215.229414,76.7286364 215.588099,76.4079091 215.851388,76.0833636 L215.851388,65.6406364 L218.150401,65.6406364 L218.150401,79.2562727 Z M202.894875,79.2562727 L202.894875,70.4916364 C202.894875,69.3404545 202.702178,68.5119091 202.316783,68.0098182 C201.925664,67.5096364 201.336125,67.2595455 200.542441,67.2595455 C199.861322,67.2595455 199.298493,67.4294545 198.840599,67.7711818 C198.392243,68.111 198.031651,68.4412727 197.764546,68.762 L197.764546,79.2562727 L195.469349,79.2562727 L195.469349,59.2031818 L197.764546,58.9473636 L197.764546,67.0323636 L197.821783,67.0323636 C197.900007,66.9197273 198.016388,66.767 198.178559,66.578 C198.336914,66.389 198.55823,66.2 198.840599,66.0129091 C199.124875,65.8239091 199.472112,65.6578182 199.876586,65.5127273 C200.286783,65.3714545 200.761849,65.3008182 201.311322,65.3008182 C202.501849,65.3008182 203.444349,65.6902727 204.142638,66.4653636 C204.842836,67.2442727 205.193888,68.5271818 205.193888,70.3255455 L205.193888,79.2562727 L202.894875,79.2562727 Z M192.096191,68.2809091 C192.040862,68.2255455 191.951191,68.1377273 191.827178,68.0231818 C191.70698,67.9124545 191.550533,67.7979091 191.357836,67.6852727 C191.167046,67.5726364 190.943822,67.4714545 190.676717,67.3874545 C190.415336,67.3034545 190.11198,67.2595455 189.772375,67.2595455 C189.27823,67.2595455 188.820336,67.3492727 188.398691,67.5268182 C187.97323,67.7081818 187.601191,67.9983636 187.290204,68.3935455 C186.977309,68.7944545 186.733099,69.3060909 186.551849,69.9399091 C186.374414,70.5756364 186.286651,71.3430909 186.286651,72.2518182 C186.286651,73.2540909 186.364875,74.0979091 186.527046,74.7737273 C186.685401,75.4571818 186.908625,76.0012727 187.190993,76.4117273 C187.473362,76.8145455 187.820599,77.1047273 188.225072,77.2860909 C188.633362,77.4636364 189.079809,77.5533636 189.572046,77.5533636 C190.274151,77.5533636 190.804546,77.435 191.17277,77.1887273 C191.542901,76.9424545 191.804283,76.742 191.955007,76.5911818 L192.887967,78.1814545 C192.796388,78.2940909 192.657112,78.4315455 192.47777,78.5919091 C192.300336,78.7503636 192.06948,78.9069091 191.783296,79.0558182 C191.500928,79.2104545 191.155599,79.3364545 190.751125,79.4414545 C190.342836,79.5445455 189.873493,79.5999091 189.346914,79.5999091 C188.587572,79.5999091 187.881651,79.4758182 187.22152,79.2276364 C186.557572,78.9832727 185.983296,78.5785455 185.489151,78.0115455 C184.998822,77.4426364 184.613428,76.7057273 184.331059,75.8008182 C184.046783,74.894 183.901783,73.7657273 183.901783,72.4274545 C183.901783,71.1159091 184.073493,70.0124545 184.411191,69.1037273 C184.754612,68.1969091 185.199151,67.4619091 185.746717,66.9025455 C186.294283,66.3489091 186.904809,65.9403636 187.572572,65.6864545 C188.247967,65.4306364 188.92527,65.3008182 189.598757,65.3008182 C190.11198,65.3008182 190.560336,65.3504545 190.947638,65.444 C191.334941,65.5375455 191.663099,65.6578182 191.939743,65.7990909 C192.218296,65.9403636 192.439612,66.0911818 192.618954,66.2515455 C192.800204,66.4119091 192.945204,66.5512727 193.061586,66.6639091 L192.096191,68.2809091 Z M180.475204,68.3935455 C180.322572,68.2255455 180.051651,67.9926364 179.650993,67.6986364 C179.256059,67.4027273 178.733296,67.2595455 178.094151,67.2595455 C177.487441,67.2595455 177.023822,67.4008182 176.69948,67.6852727 C176.38277,67.9659091 176.218691,68.3076364 176.218691,68.7047273 C176.218691,69.2163636 176.369414,69.6382727 176.661322,69.9685455 C176.955138,70.3026364 177.401586,70.652 178.006388,71.03 L178.855401,71.5454545 C179.782638,72.0914545 180.509546,72.6851818 181.043757,73.3151818 C181.568428,73.949 181.835533,74.7641818 181.835533,75.7683636 C181.835533,76.8431818 181.461586,77.7538182 180.711783,78.4945455 C179.967704,79.2276364 178.893559,79.5999091 177.495072,79.5999091 C176.951322,79.5999091 176.464809,79.5407273 176.054612,79.4280909 C175.634875,79.3116364 175.274283,79.1837273 174.961388,79.031 C174.648493,78.8801818 174.387112,78.7121818 174.179151,78.5327273 C173.973099,78.3494545 173.801388,78.191 173.671651,78.0363636 L174.77823,76.2227273 C174.88698,76.3372727 175.026257,76.469 175.18652,76.616 C175.344875,76.7706364 175.541388,76.9195455 175.768428,77.0589091 C175.993559,77.2001818 176.251125,77.3166364 176.533493,77.414 C176.813954,77.5113636 177.149743,77.5533636 177.521783,77.5533636 C178.204809,77.5533636 178.725664,77.4063636 179.084349,77.1009091 C179.446849,76.8011818 179.622375,76.4346364 179.622375,75.9955455 C179.622375,75.6767273 179.578493,75.398 179.494546,75.1593636 C179.408691,74.9245455 179.28277,74.7107273 179.112967,74.5236364 C178.94698,74.3346364 178.733296,74.1513636 178.489086,73.9833636 C178.244875,73.8115455 177.962507,73.6263636 177.638164,73.4163636 L176.787243,72.878 C175.93823,72.3262727 175.274283,71.7516364 174.789678,71.1464545 C174.30698,70.5393636 174.070401,69.7661818 174.070401,68.8192727 C174.070401,68.3076364 174.165796,67.8418182 174.366125,67.4122727 C174.562638,66.9922727 174.841191,66.6219091 175.199875,66.3088182 C175.560467,65.9957273 175.978296,65.7513636 176.460993,65.57 C176.943691,65.3924545 177.458822,65.3008182 178.006388,65.3008182 C178.534875,65.3008182 178.990862,65.3542727 179.366717,65.4573636 C179.746388,65.5604545 180.07073,65.6940909 180.347375,65.8544545 C180.618296,66.0167273 180.845336,66.1770909 181.028493,66.3393636 C181.205928,66.4959091 181.350928,66.6390909 181.465401,66.7498182 L180.475204,68.3935455 Z M172.452507,67.6566364 C172.39527,67.6184545 172.273164,67.5726364 172.082375,67.5134545 C171.891586,67.4580909 171.635928,67.4294545 171.315401,67.4294545 C170.599941,67.4294545 170.035204,67.6241818 169.63073,68.0098182 C169.222441,68.3973636 168.936257,68.8192727 168.766454,69.2717273 L168.766454,79.2562727 L166.469349,79.2562727 L166.469349,65.6406364 L168.566125,65.6406364 L168.566125,67.4867273 L168.623362,67.4867273 C168.718757,67.2213636 168.837046,66.9617273 168.991586,66.7059091 C169.142309,66.452 169.333099,66.2229091 169.556322,66.0281818 C169.787178,65.8277273 170.054283,65.6711818 170.36527,65.5566364 C170.678164,65.444 171.050204,65.3848182 171.48902,65.3848182 C171.80573,65.3848182 172.070928,65.4153636 172.269349,65.4726364 C172.46777,65.5299091 172.618493,65.5757273 172.732967,65.612 L172.452507,67.6566364 Z M161.19402,72.4522727 C161.19402,70.6348182 160.932638,69.3156364 160.402243,68.4947273 C159.875664,67.67 159.135401,67.2595455 158.192901,67.2595455 C157.248493,67.2595455 156.513954,67.67 155.993099,68.4947273 C155.474151,69.3156364 155.216586,70.6348182 155.216586,72.4522727 C155.216586,74.2678182 155.477967,75.5717273 156.008362,76.3620909 C156.538757,77.1562727 157.277112,77.5533636 158.22152,77.5533636 C159.165928,77.5533636 159.896651,77.1562727 160.415599,76.3620909 C160.936454,75.5717273 161.19402,74.2678182 161.19402,72.4522727 L161.19402,72.4522727 Z M152.833625,72.4522727 C152.833625,71.2018182 152.980533,70.1250909 153.274349,69.2163636 C153.564349,68.3076364 153.963099,67.565 154.462967,66.9922727 C154.964743,66.4119091 155.540928,65.9880909 156.195336,65.7150909 C156.845928,65.4401818 157.538493,65.3008182 158.276849,65.3008182 C159.032375,65.3008182 159.732572,65.4401818 160.375533,65.7150909 C161.016586,65.9880909 161.575599,66.4119091 162.046849,66.9922727 C162.520007,67.565 162.895862,68.3076364 163.168691,69.2163636 C163.44152,70.1250909 163.57698,71.2018182 163.57698,72.4522727 C163.57698,73.7199091 163.437704,74.8080909 163.153428,75.7149091 C162.869151,76.616 162.478033,77.3586364 161.976257,77.939 C161.476388,78.5155455 160.892572,78.9355455 160.234349,79.2028182 C159.572309,79.4624545 158.872112,79.5999091 158.135664,79.5999091 C157.37823,79.5999091 156.679941,79.4624545 156.03698,79.2028182 C155.39402,78.9355455 154.838822,78.5155455 154.363757,77.939 C153.894414,77.3586364 153.520467,76.6236364 153.243822,75.7263636 C152.970993,74.8329091 152.833625,73.7370909 152.833625,72.4522727 L152.833625,72.4522727 Z M141.495007,79.2562727 L141.495007,59.6842727 L151.103164,59.6842727 L150.93527,61.6410909 L143.960007,61.6410909 L143.960007,68.8765455 L150.395336,68.8765455 L150.395336,70.8352727 L143.960007,70.8352727 L143.960007,79.2562727 L141.495007,79.2562727 Z M126.640138,77.5533636 C126.996914,77.5533636 127.321257,77.5113636 127.603625,77.414 C127.887901,77.3166364 128.13402,77.2001818 128.340072,77.0589091 C128.548033,76.9195455 128.723559,76.7706364 128.866651,76.616 C129.005928,76.469 129.116586,76.3372727 129.190993,76.2227273 L129.190993,67.8265455 C128.983033,67.6948182 128.742638,67.5821818 128.467901,67.4867273 C128.195072,67.3912727 127.847836,67.3454545 127.433822,67.3454545 C126.905336,67.3454545 126.409283,67.4332727 125.943757,67.6146364 C125.482046,67.7940909 125.081388,68.0919091 124.739875,68.5061818 C124.40027,68.9223636 124.133164,69.4626364 123.932836,70.1250909 C123.734414,70.7837273 123.635204,71.6008182 123.635204,72.5649091 C123.635204,73.5099091 123.715336,74.2983636 123.875599,74.936 C124.03777,75.5679091 124.259086,76.0776364 124.543362,76.4632727 C124.82573,76.8489091 125.146257,77.1276364 125.504941,77.2994545 C125.863625,77.4674545 126.243296,77.5533636 126.640138,77.5533636 L126.640138,77.5533636 Z M121.252243,72.6508182 C121.252243,71.2705455 121.433493,70.1155455 121.794086,69.1896364 C122.15277,68.2599091 122.61448,67.5134545 123.183033,66.9483636 C123.74777,66.3813636 124.39073,65.9766364 125.108099,65.7437273 C125.827375,65.5031818 126.544743,65.3848182 127.26402,65.3848182 C127.697112,65.3848182 128.076783,65.4210909 128.397309,65.4879091 C128.719743,65.5509091 128.983033,65.633 129.190993,65.7303636 L129.190993,59.2031818 L131.488099,58.9473636 L131.488099,79.2562727 L129.389414,79.2562727 L129.389414,77.8110909 L129.332178,77.8110909 C129.276849,77.9256364 129.173822,78.0802727 129.021191,78.2807273 C128.870467,78.4792727 128.662507,78.6759091 128.397309,78.8763636 C128.13402,79.073 127.802046,79.241 127.405204,79.3860909 C127.008362,79.5292727 126.544743,79.5999091 126.016257,79.5999091 C125.375204,79.5999091 124.764678,79.4700909 124.186586,79.2142727 C123.612309,78.9565455 123.106717,78.5518182 122.671717,77.9962727 C122.236717,77.4388182 121.891388,76.7190909 121.637638,75.8409091 C121.38198,74.9608182 121.252243,73.8974545 121.252243,72.6508182 L121.252243,72.6508182 Z M116.152441,79.2562727 L116.152441,70.4916364 C116.152441,69.3404545 115.957836,68.5119091 115.570533,68.0098182 C115.181322,67.5096364 114.591783,67.2595455 113.796191,67.2595455 C113.118888,67.2595455 112.552243,67.4294545 112.098164,67.7711818 C111.645993,68.111 111.285401,68.4412727 111.022112,68.762 L111.022112,79.2562727 L108.725007,79.2562727 L108.725007,65.6406364 L110.821783,65.6406364 L110.821783,67.1755455 L110.877112,67.1755455 C110.934349,67.0590909 111.056454,66.8949091 111.245336,66.6791818 C111.434217,66.4596364 111.682243,66.2515455 111.983691,66.053 C112.285138,65.8544545 112.643822,65.6807273 113.061651,65.5299091 C113.475664,65.3752727 113.946914,65.3008182 114.477309,65.3008182 C115.08402,65.3008182 115.631586,65.3924545 116.121914,65.57 C116.614151,65.7513636 117.028164,66.0415455 117.369678,66.4367273 C117.709283,66.8338182 117.97448,67.3492727 118.163362,67.985 C118.352243,68.615 118.447638,69.3977273 118.447638,70.3255455 L118.447638,79.2562727 L116.152441,79.2562727 Z M105.206849,79.2562727 L103.110072,79.2562727 L103.110072,77.7251818 L103.054743,77.7251818 C102.997507,77.8378182 102.873493,78.0058182 102.68652,78.2196364 C102.49573,78.4410909 102.255336,78.6472727 101.963428,78.8439091 C101.669612,79.0443636 101.314743,79.22 100.898822,79.3708182 C100.482901,79.5235455 100.021191,79.5999091 99.509875,79.5999091 C98.9069803,79.5999091 98.3613224,79.5101818 97.878625,79.3269091 C97.3978355,79.1455455 96.9857303,78.8591818 96.6480329,78.4620909 C96.3065197,78.0630909 96.0470461,77.5495455 95.8677039,76.9195455 C95.6864539,76.2857273 95.5986908,75.5068182 95.5986908,74.5809091 L95.5986908,65.6406364 L97.8938882,65.6406364 L97.8938882,74.4090909 C97.8938882,75.5469091 98.0770461,76.3506364 98.4452697,76.8298182 C98.8154013,77.3109091 99.3858618,77.5533636 100.162375,77.5533636 C100.822507,77.5533636 101.38152,77.3891818 101.833691,77.0589091 C102.289678,76.7286364 102.646454,76.4079091 102.911651,76.0833636 L102.911651,65.6406364 L105.206849,65.6406364 L105.206849,79.2562727 Z M202.669743,41.2634545 C202.669743,40.2802727 202.43698,39.5796364 201.973362,39.1653636 C201.513559,38.7491818 200.967901,38.543 200.34402,38.543 C199.68198,38.543 199.115336,38.7491818 198.644086,39.1653636 C198.174743,39.5796364 197.934349,40.2802727 197.934349,41.2634545 C197.934349,42.2466364 198.174743,42.9472727 198.644086,43.3634545 C199.115336,43.7796364 199.666717,43.9858182 200.290599,43.9858182 C200.948822,43.9858182 201.513559,43.7796364 201.973362,43.3634545 C202.43698,42.9472727 202.669743,42.2466364 202.669743,41.2634545 L202.669743,41.2634545 Z M199.636191,50.2266364 C199.241257,50.2266364 198.890204,50.1999091 198.586849,50.1426364 C198.418954,50.2380909 198.251059,50.3488182 198.092704,50.4824545 C197.930533,50.618 197.783625,50.7783636 197.650072,50.9654545 C197.520336,51.1525455 197.413493,51.374 197.32573,51.6317273 C197.239875,51.8856364 197.201717,52.1853636 197.201717,52.5251818 C197.201717,53.9818182 198.003033,54.7091818 199.607572,54.7091818 C200.990796,54.7091818 202.01152,54.44 202.669743,53.9035455 C203.331783,53.3632727 203.659941,52.7428182 203.659941,52.0440909 C203.659941,51.3778182 203.455796,50.9139091 203.037967,50.639 C202.622046,50.366 202.066849,50.2266364 201.364743,50.2266364 L199.636191,50.2266364 Z M205.957046,38.8236364 L204.257112,38.8236364 C204.692112,39.5433636 204.91152,40.3566364 204.91152,41.2634545 C204.91152,41.9831818 204.79323,42.6303636 204.556651,43.2069091 C204.32198,43.7834545 203.990007,44.2702727 203.564546,44.6673636 C203.137178,45.0663636 202.635401,45.3699091 202.061125,45.5760909 C201.486849,45.7841818 200.862967,45.8872727 200.206651,45.8872727 L199.832704,45.8872727 C199.722046,45.8872727 199.598033,45.8777273 199.468296,45.8567273 C199.241257,45.956 199.004678,46.1049091 198.754743,46.313 C198.512441,46.523 198.392243,46.796 198.392243,47.1358182 C198.392243,47.4202727 198.499086,47.6493636 198.714678,47.8326364 C198.934086,48.0082727 199.290862,48.1018182 199.779283,48.1018182 L201.507836,48.1018182 C202.148888,48.1018182 202.742243,48.1667273 203.295533,48.2984545 C203.841191,48.4320909 204.32198,48.644 204.722638,48.9360909 C205.130928,49.2281818 205.449546,49.6023636 205.676586,50.0567273 C205.901717,50.513 206.018099,51.0570909 206.018099,51.7023636 C206.018099,52.4411818 205.859743,53.1131818 205.548757,53.7183636 C205.233954,54.3216364 204.797046,54.8428182 204.228493,55.2761818 C203.659941,55.7114545 202.973099,56.0550909 202.160336,56.2994545 C201.343757,56.5438182 200.439414,56.6679091 199.43777,56.6679091 C197.983954,56.6679091 196.877375,56.351 196.121849,55.7171818 C195.366322,55.0814545 194.988559,54.1708182 194.988559,52.9776364 C194.988559,52.4698182 195.07823,52.0288182 195.255664,51.6584545 C195.436914,51.2919091 195.648691,50.9692727 195.896717,50.6962727 C196.140928,50.4194545 196.390862,50.2037273 196.64652,50.0433636 C196.90027,49.883 197.106322,49.7531818 197.257046,49.6634545 L197.257046,49.6023636 C196.667507,49.169 196.377507,48.5332727 196.377507,47.7028182 C196.377507,47.342 196.446191,47.0327273 196.589283,46.7654545 C196.730467,46.5000909 196.888822,46.2862727 197.068164,46.1144545 C197.249414,45.9445455 197.432572,45.8070909 197.610007,45.704 C197.789349,45.6009091 197.926717,45.5283636 198.022112,45.4901818 L198.022112,45.4348182 C197.321914,45.1121818 196.757178,44.6062727 196.335533,43.9151818 C195.910072,43.226 195.692572,42.3420909 195.692572,41.2634545 C195.692572,40.5074545 195.820401,39.8411818 196.064612,39.2646364 C196.31073,38.6880909 196.642704,38.2108182 197.054809,37.8309091 C197.474546,37.4529091 197.957243,37.1703636 198.518164,36.9794545 C199.073362,36.7923636 199.674349,36.6969091 200.319217,36.6969091 C200.96027,36.6969091 201.56698,36.8114545 202.131717,37.0386364 L206.273757,37.0386364 L205.957046,38.8236364 Z M190.480204,50.6542727 L190.480204,41.8877273 C190.480204,40.7346364 190.287507,39.9060909 189.89448,39.4059091 C189.512901,38.9038182 188.92527,38.6537273 188.131586,38.6537273 C187.446651,38.6537273 186.878099,38.8236364 186.429743,39.1653636 C185.973757,39.5051818 185.611257,39.8354545 185.351783,40.1580909 L185.351783,50.6542727 L183.05277,50.6542727 L183.05277,37.0386364 L185.149546,37.0386364 L185.149546,38.5697273 L185.208691,38.5697273 C185.26402,38.4551818 185.386125,38.2890909 185.575007,38.0714545 C185.76198,37.8538182 186.010007,37.6495455 186.31527,37.4490909 C186.614809,37.2505455 186.973493,37.073 187.391322,36.9240909 C187.807243,36.7713636 188.280401,36.6969091 188.80698,36.6969091 C189.413691,36.6969091 189.961257,36.7866364 190.453493,36.9660909 C190.943822,37.1474545 191.357836,37.4338182 191.697441,37.8309091 C192.040862,38.228 192.306059,38.7453636 192.493033,39.3753636 C192.680007,40.0110909 192.775401,40.7919091 192.775401,41.7159091 L192.775401,50.6542727 L190.480204,50.6542727 Z M179.538428,50.6542727 L177.439743,50.6542727 L177.439743,49.1231818 L177.382507,49.1231818 C177.32527,49.2339091 177.201257,49.4 177.014283,49.6195455 C176.825401,49.8333636 176.583099,50.0433636 176.293099,50.2438182 C175.999283,50.4385455 175.644414,50.618 175.226586,50.7669091 C174.812572,50.9196364 174.350862,50.9921818 173.837638,50.9921818 C173.234743,50.9921818 172.694809,50.9043636 172.212112,50.723 C171.727507,50.5454545 171.315401,50.2571818 170.977704,49.8581818 C170.636191,49.4610909 170.378625,48.9475455 170.197375,48.3118182 C170.018033,47.678 169.93027,46.901 169.93027,45.9731818 L169.93027,37.0386364 L172.225467,37.0386364 L172.225467,45.8032727 C172.225467,46.9372727 172.406717,47.7467273 172.776849,48.2278182 C173.145072,48.7089091 173.713625,48.9513636 174.492046,48.9513636 C175.155993,48.9513636 175.707375,48.7852727 176.16527,48.455 C176.615533,48.1266364 176.979941,47.7982727 177.241322,47.4756364 L177.241322,37.0386364 L179.538428,37.0386364 L179.538428,50.6542727 Z M161.650007,48.9513636 C162.010599,48.9513636 162.333033,48.9017273 162.615401,48.8100909 C162.899678,48.7165455 163.143888,48.5943636 163.351849,48.455 C163.559809,48.3118182 163.735336,48.1667273 163.87652,48.0120909 C164.019612,47.8631818 164.128362,47.7314545 164.204678,47.6169091 L164.204678,39.2207273 C163.996717,39.0909091 163.752507,38.9744545 163.479678,38.8809091 C163.206849,38.7854545 162.859612,38.7396364 162.445599,38.7396364 C161.913296,38.7396364 161.419151,38.8274545 160.957441,39.0088182 C160.491914,39.1901818 160.091257,39.4860909 159.751651,39.9022727 C159.412046,40.3184545 159.141125,40.8568182 158.944612,41.5173636 C158.742375,42.1817273 158.64698,42.9930909 158.64698,43.9571818 C158.64698,44.9021818 158.725204,45.6944545 158.885467,46.3282727 C159.04573,46.9601818 159.268954,47.4718182 159.555138,47.8593636 C159.837507,48.2469091 160.158033,48.5256364 160.516717,48.6955455 C160.875401,48.8654545 161.253164,48.9513636 161.650007,48.9513636 L161.650007,48.9513636 Z M156.26402,44.0430909 C156.26402,42.6647273 156.443362,41.5097273 156.803954,40.5819091 C157.162638,39.656 157.624349,38.9076364 158.192901,38.3425455 C158.757638,37.7736364 159.400599,37.3727273 160.117967,37.136 C160.839151,36.9011818 161.55652,36.7809091 162.273888,36.7809091 C162.710796,36.7809091 163.088559,36.8152727 163.409086,36.8801818 C163.729612,36.947 163.996717,37.0271818 164.204678,37.1226364 L164.204678,30.5992727 L166.497967,30.3415455 L166.497967,50.6542727 L164.399283,50.6542727 L164.399283,49.2052727 L164.343954,49.2052727 C164.290533,49.3217273 164.185599,49.4744545 164.032967,49.6768182 C163.880336,49.8734545 163.672375,50.072 163.409086,50.2724545 C163.143888,50.4671818 162.811914,50.639 162.415072,50.7821818 C162.020138,50.9234545 161.55652,50.9921818 161.026125,50.9921818 C160.383164,50.9921818 159.774546,50.8680909 159.198362,50.6122727 C158.622178,50.3545455 158.114678,49.9498182 157.681586,49.3904545 C157.248493,48.833 156.901257,48.1151818 156.647507,47.2350909 C156.391849,46.355 156.26402,45.2916364 156.26402,44.0430909 L156.26402,44.0430909 Z M152.694349,47.4756364 C152.694349,48.0426364 152.772572,48.4416364 152.932836,48.6688182 C153.091191,48.8921818 153.371651,49.0067273 153.770401,49.0067273 C153.976454,49.0067273 154.153888,48.9876364 154.295072,48.9513636 C154.434349,48.9112727 154.545007,48.875 154.617507,48.8368182 L154.819743,50.5397273 C154.707178,50.5950909 154.497309,50.6714545 154.195862,50.7669091 C153.894414,50.8623636 153.484217,50.9081818 152.974809,50.9081818 C152.200204,50.9081818 151.576322,50.6714545 151.103164,50.1999091 C150.631914,49.7283636 150.395336,48.8845455 150.395336,47.6741818 L150.395336,30.5992727 L152.694349,30.3415455 L152.694349,47.4756364 Z M145.774414,33.7454545 C145.303164,33.7454545 144.925401,33.5965455 144.641125,33.293 C144.356849,32.9894545 144.215664,32.5923636 144.215664,32.0998182 C144.215664,31.6301818 144.356849,31.2407273 144.641125,30.9371818 C144.925401,30.6355455 145.303164,30.4847273 145.774414,30.4847273 C146.228493,30.4847273 146.596717,30.6355455 146.880993,30.9371818 C147.163362,31.2407273 147.306454,31.6301818 147.306454,32.0998182 C147.306454,32.5923636 147.163362,32.9894545 146.880993,33.293 C146.596717,33.5965455 146.228493,33.7454545 145.774414,33.7454545 L145.774414,33.7454545 Z M144.612507,50.6542727 L146.909612,50.6542727 L146.909612,37.0386364 L144.612507,37.0386364 L144.612507,50.6542727 Z M138.942243,45.179 C138.942243,44.1175455 138.598822,43.2832727 137.908164,42.6685455 C137.219414,42.0538182 136.231125,41.7464545 134.945204,41.7464545 L133.273888,41.7464545 L133.273888,48.6096364 L134.80402,48.6096364 C136.259743,48.6096364 137.312901,48.3213636 137.963493,47.7467273 C138.617901,47.1701818 138.942243,46.313 138.942243,45.179 L138.942243,45.179 Z M138.57402,36.1585455 C138.57402,35.2517273 138.253493,34.5033636 137.612441,33.9172727 C136.967572,33.3292727 135.956388,33.0371818 134.57698,33.0371818 L133.273888,33.0371818 L133.273888,39.7896364 L134.552178,39.7896364 C135.870533,39.7896364 136.872178,39.467 137.555204,38.8236364 C138.236322,38.1802727 138.57402,37.2925455 138.57402,36.1585455 L138.57402,36.1585455 Z M141.069546,36.0726364 C141.069546,36.7541818 140.983691,37.3498182 140.815796,37.8595455 C140.644086,38.3692727 140.411322,38.8102727 140.119414,39.1787273 C139.827507,39.5490909 139.485993,39.8469091 139.098691,40.0721818 C138.711388,40.3012727 138.308822,40.4692727 137.894809,40.5819091 L137.894809,40.6410909 C138.404217,40.7346364 138.883099,40.9140909 139.32573,41.1794545 C139.77027,41.4448182 140.157572,41.7750909 140.487638,42.1721818 C140.819612,42.5673636 141.084809,43.037 141.281322,43.5791818 C141.479743,44.1156364 141.578954,44.7055455 141.578954,45.3508182 C141.578954,46.124 141.447309,46.8341818 141.18402,47.4756364 C140.916914,48.1209091 140.506717,48.6764545 139.949612,49.148 C139.392507,49.6233636 138.688493,49.9918182 137.837572,50.2571818 C136.986651,50.5206364 135.977375,50.6542727 134.80402,50.6542727 L130.808888,50.6542727 L130.808888,31.0803636 L134.57698,31.0803636 C135.729349,31.0803636 136.717638,31.1968182 137.539941,31.4335455 C138.362243,31.6721818 139.039546,32.0081818 139.568033,32.4415455 C140.094612,32.8768182 140.480007,33.4018182 140.716586,34.0165455 C140.951257,34.6312727 141.069546,35.3166364 141.069546,36.0726364 L141.069546,36.0726364 Z M122.700336,39.0508182 C122.643099,39.0126364 122.519086,38.9649091 122.332112,38.9076364 C122.14323,38.8522727 121.885664,38.8236364 121.565138,38.8236364 C120.84777,38.8236364 120.284941,39.0164545 119.878559,39.4059091 C119.47027,39.7953636 119.184086,40.2134545 119.014283,40.6678182 L119.014283,50.6542727 L116.717178,50.6542727 L116.717178,37.0386364 L118.815862,37.0386364 L118.815862,38.8809091 L118.873099,38.8809091 C118.966586,38.6155455 119.090599,38.3559091 119.241322,38.102 C119.393954,37.8461818 119.580928,37.6170909 119.807967,37.4204545 C120.035007,37.22 120.30402,37.0634545 120.615007,36.9508182 C120.927901,36.8381818 121.299941,36.7809091 121.734941,36.7809091 C122.057375,36.7809091 122.318757,36.8114545 122.51527,36.8668182 C122.713691,36.9240909 122.870138,36.9699091 122.982704,37.0080909 L122.700336,39.0508182 Z M111.928362,33.1230909 C111.928362,33.5583636 111.792901,33.9077273 111.53152,34.1730909 C111.266322,34.4365455 110.943888,34.5701818 110.566125,34.5701818 C110.188362,34.5701818 109.867836,34.4365455 109.602638,34.1730909 C109.337441,33.9077273 109.203888,33.5583636 109.203888,33.1230909 C109.203888,32.6859091 109.337441,32.3365455 109.602638,32.0730909 C109.867836,31.8077273 110.188362,31.676 110.566125,31.676 C110.943888,31.676 111.266322,31.8077273 111.53152,32.0730909 C111.792901,32.3365455 111.928362,32.6859091 111.928362,33.1230909 L111.928362,33.1230909 Z M107.563099,33.1230909 C107.563099,33.5583636 107.429546,33.9077273 107.164349,34.1730909 C106.899151,34.4365455 106.578625,34.5701818 106.200862,34.5701818 C105.823099,34.5701818 105.500664,34.4365455 105.237375,34.1730909 C104.974086,33.9077273 104.838625,33.5583636 104.838625,33.1230909 C104.838625,32.6859091 104.974086,32.3365455 105.237375,32.0730909 C105.500664,31.8077273 105.823099,31.676 106.200862,31.676 C106.578625,31.676 106.899151,31.8077273 107.164349,32.0730909 C107.429546,32.3365455 107.563099,32.6859091 107.563099,33.1230909 L107.563099,33.1230909 Z M113.202836,50.6542727 L111.106059,50.6542727 L111.106059,49.1231818 L111.048822,49.1231818 C110.989678,49.2339091 110.86948,49.4 110.678691,49.6195455 C110.489809,49.8333636 110.251322,50.0433636 109.955599,50.2438182 C109.665599,50.4385455 109.308822,50.618 108.892901,50.7669091 C108.478888,50.9196364 108.013362,50.9921818 107.503954,50.9921818 C106.899151,50.9921818 106.355401,50.9043636 105.874612,50.723 C105.393822,50.5454545 104.983625,50.2571818 104.642112,49.8581818 C104.300599,49.4610909 104.039217,48.9475455 103.861783,48.3118182 C103.684349,47.678 103.594678,46.901 103.594678,45.9731818 L103.594678,37.0386364 L105.889875,37.0386364 L105.889875,45.8032727 C105.889875,46.9372727 106.073033,47.7467273 106.441257,48.2278182 C106.811388,48.7089091 107.381849,48.9513636 108.156454,48.9513636 C108.816586,48.9513636 109.375599,48.7852727 109.82777,48.455 C110.281849,48.1266364 110.642441,47.7982727 110.907638,47.4756364 L110.907638,37.0386364 L113.202836,37.0386364 L113.202836,50.6542727 Z M101.410138,38.9076364 L98.6303355,38.9076364 L98.6303355,50.6542727 L96.3351382,50.6542727 L96.3351382,38.9076364 L94.6905329,38.9076364 L94.6905329,37.3765455 L96.3351382,37.0634545 L96.3351382,34.343 C96.3351382,33.6060909 96.4381645,32.9722727 96.6480329,32.4415455 C96.8540855,31.9127273 97.1288224,31.4774545 97.4684276,31.1376364 C97.8099408,30.7959091 98.2067829,30.5496364 98.6608618,30.3988182 C99.1130329,30.248 99.5957303,30.1735455 100.105138,30.1735455 C100.597375,30.1735455 101.013296,30.2384545 101.352901,30.3720909 C101.692507,30.5019091 101.919546,30.6088182 102.03402,30.6832727 L101.551322,32.5847273 C101.436849,32.5102727 101.276586,32.4281818 101.068625,32.3403636 C100.862572,32.2582727 100.606914,32.2143636 100.303559,32.2143636 C99.7559934,32.2143636 99.3400724,32.3861818 99.0557961,32.7240909 C98.7715197,33.0658182 98.6303355,33.6900909 98.6303355,34.5988182 L98.6303355,37.0386364 L101.692507,37.0386364 L101.410138,38.9076364 Z M279.97573,22.0484545 L279.97573,13.2819091 C279.97573,12.167 279.815467,11.3632727 279.493033,10.8726364 C279.174414,10.3800909 278.651651,10.1338182 277.936191,10.1338182 C277.558428,10.1338182 277.222638,10.1815455 276.926914,10.277 C276.635007,10.3705455 276.381257,10.4889091 276.150401,10.6301818 C275.919546,10.7714545 275.724941,10.928 275.555138,11.0979091 C275.385336,11.2697273 275.244151,11.4186364 275.129678,11.5541818 L275.129678,22.0484545 L272.830664,22.0484545 L272.830664,8.43090909 L274.929349,8.43090909 L274.929349,9.96390909 L274.988493,9.96390909 C275.08198,9.81309091 275.225072,9.62981818 275.412046,9.41218182 C275.600928,9.19263636 275.837507,8.98645455 276.121783,8.786 C276.404151,8.58745455 276.738033,8.42136364 277.11198,8.28963636 C277.493559,8.15790909 277.913296,8.093 278.39027,8.093 C279.93948,8.093 281.034612,8.69627273 281.677572,9.90663636 C281.807309,9.71954545 281.988559,9.51718182 282.219414,9.29572727 C282.44073,9.08 282.707836,8.88145455 283.007375,8.70009091 C283.312638,8.52254545 283.654151,8.37554545 284.030007,8.26290909 C284.409678,8.14645455 284.825599,8.093 285.281586,8.093 C288.038493,8.093 289.417901,9.69854545 289.417901,12.9134545 L289.417901,22.0484545 L287.120796,22.0484545 L287.120796,13.2819091 C287.120796,12.167 286.922375,11.3632727 286.527441,10.8726364 C286.130599,10.3800909 285.544875,10.1338182 284.766454,10.1338182 C284.125401,10.1338182 283.593099,10.2903636 283.167638,10.6015455 C282.74027,10.9146364 282.40448,11.2124545 282.162178,11.495 C282.19652,11.7069091 282.227046,11.9245455 282.246125,12.1631818 C282.263296,12.3999091 282.272836,12.65 282.272836,12.9134545 L282.272836,22.0484545 L279.97573,22.0484545 Z M269.31823,22.0484545 L267.223362,22.0484545 L267.223362,20.5154545 L267.162309,20.5154545 C267.10698,20.63 266.982967,20.7941818 266.797901,21.0118182 C266.607112,21.2313636 266.364809,21.4375455 266.070993,21.638 C265.779086,21.8346364 265.426125,22.0102727 265.010204,22.1610909 C264.592375,22.3119091 264.130664,22.3882727 263.623164,22.3882727 C263.016454,22.3882727 262.470796,22.2985455 261.988099,22.1190909 C261.507309,21.9396364 261.097112,21.6513636 260.753691,21.2542727 C260.417901,20.8571818 260.15652,20.3436364 259.973362,19.7079091 C259.799743,19.0740909 259.704349,18.2951818 259.704349,17.3692727 L259.704349,8.43090909 L262.001454,8.43090909 L262.001454,17.1974545 C262.001454,18.3314545 262.188428,19.1428182 262.554743,19.622 C262.924875,20.105 263.497243,20.3474545 264.271849,20.3474545 C264.933888,20.3474545 265.490993,20.1832727 265.943164,19.8491818 C266.399151,19.5189091 266.757836,19.1943636 267.021125,18.8698182 L267.021125,8.43090909 L269.31823,8.43090909 L269.31823,22.0484545 Z M255.148296,5.14154545 C254.671322,5.14154545 254.293559,4.99072727 254.007375,4.68718182 C253.725007,4.38554545 253.581914,3.99036364 253.581914,3.49781818 C253.581914,3.02436364 253.725007,2.63681818 254.007375,2.33518182 C254.293559,2.03163636 254.671322,1.88081818 255.148296,1.88081818 C255.596651,1.88081818 255.964875,2.03163636 256.252967,2.33518182 C256.535336,2.63681818 256.674612,3.02436364 256.674612,3.49781818 C256.674612,3.99036364 256.535336,4.38554545 256.252967,4.68718182 C255.964875,4.99072727 255.596651,5.14154545 255.148296,5.14154545 L255.148296,5.14154545 Z M253.978757,22.0484545 L256.27777,22.0484545 L256.27777,8.43281818 L253.978757,8.43281818 L253.978757,22.0484545 Z M251.714086,10.445 C251.656849,10.4087273 251.532836,10.3629091 251.34777,10.3056364 C251.155072,10.2483636 250.899414,10.2197273 250.580796,10.2197273 C249.863428,10.2197273 249.298691,10.4144545 248.892309,10.8000909 C248.485928,11.1876364 248.197836,11.6095455 248.028033,12.062 L248.028033,22.0484545 L245.732836,22.0484545 L245.732836,8.43090909 L247.83152,8.43090909 L247.83152,10.277 L247.883033,10.277 C247.982243,10.0116364 248.102441,9.75009091 248.255072,9.49618182 C248.403888,9.24036364 248.596586,9.01509091 248.821717,8.81463636 C249.052572,8.618 249.319678,8.46145455 249.628757,8.34690909 C249.941651,8.23427273 250.315599,8.177 250.750599,8.177 C251.073033,8.177 251.332507,8.20372727 251.52902,8.26290909 C251.727441,8.31827273 251.883888,8.36790909 251.994546,8.40227273 L251.714086,10.445 Z M238.362638,9.96390909 C237.549875,9.96390909 236.897375,10.3056364 236.407046,10.9852727 C235.914809,11.6649091 235.628625,12.65 235.552309,13.9348182 L240.516651,13.9348182 C240.533822,13.8393636 240.550993,13.7038182 240.560533,13.5243636 C240.568164,13.343 240.575796,13.1520909 240.575796,12.9420909 C240.575796,11.9970909 240.383099,11.264 240.003428,10.7428182 C239.625664,10.2235455 239.078099,9.96390909 238.362638,9.96390909 L238.362638,9.96390909 Z M242.672572,13.028 C242.672572,13.616 242.651586,14.12 242.61152,14.5457273 C242.577178,14.9695455 242.535204,15.3437273 242.500862,15.6644545 L235.552309,15.6644545 C235.628625,17.2719091 235.973954,18.4555455 236.590204,19.2115455 C237.204546,19.9675455 238.087901,20.3474545 239.24027,20.3474545 C239.635204,20.3474545 239.995796,20.2997273 240.31823,20.2042727 C240.638757,20.1107273 240.913493,19.9961818 241.153888,19.8644545 C241.388559,19.7327273 241.590796,19.5990909 241.747243,19.4654545 C241.909414,19.3356364 242.029612,19.2287273 242.105928,19.1561818 L242.953033,20.7712727 C242.857638,20.8667273 242.714546,21.0022727 242.527572,21.1836364 C242.342507,21.3611818 242.084941,21.5425455 241.760599,21.722 C241.44198,21.9014545 241.045138,22.058 240.575796,22.1897273 C240.102638,22.3214545 239.543625,22.3882727 238.898757,22.3882727 C238.053559,22.3882727 237.28277,22.2489091 236.590204,21.9625455 C235.901454,21.68 235.31573,21.239 234.831125,20.6452727 C234.350336,20.0496364 233.976388,19.2917273 233.711191,18.3734545 C233.447901,17.4570909 233.316257,16.3574545 233.316257,15.0707273 C233.316257,13.8603636 233.451717,12.8141818 233.724546,11.9340909 C234.001191,11.0578182 234.375138,10.3323636 234.846388,9.76727273 C235.319546,9.19836364 235.863296,8.77836364 236.489086,8.50345455 C237.111059,8.22854545 237.786454,8.093 238.50573,8.093 C239.806914,8.093 240.829546,8.50345455 241.567901,9.32627273 C242.302441,10.1471818 242.672572,11.3804545 242.672572,13.028 L242.672572,13.028 Z M231.530467,10.3056364 L228.552243,10.3056364 L228.552243,17.8503636 C228.552243,18.8144545 228.676257,19.4711818 228.922375,19.8205455 C229.164678,20.1699091 229.582507,20.3474545 230.16823,20.3474545 C230.511651,20.3474545 230.803559,20.2997273 231.04777,20.2042727 C231.293888,20.1107273 231.471322,20.0229091 231.585796,19.9503636 L231.896783,21.7926364 C231.805204,21.8670909 231.576257,21.9873636 231.217572,22.1477273 C230.85698,22.3061818 230.374283,22.3882727 229.773296,22.3882727 C228.603757,22.3882727 227.722309,22.0618182 227.134678,21.4108182 C226.547046,20.756 226.255138,19.6754545 226.255138,18.1634545 L226.255138,10.3056364 L224.612441,10.3056364 L224.612441,8.77263636 L226.255138,8.43090909 L226.512704,4.63181818 L228.552243,4.63181818 L228.552243,8.43090909 L231.814743,8.43090909 L231.530467,10.3056364 Z M221.660928,11.1838182 C221.51402,11.0139091 221.241191,10.781 220.844349,10.4889091 C220.443691,10.1949091 219.922836,10.0479091 219.283691,10.0479091 C218.67698,10.0479091 218.21527,10.1910909 217.892836,10.4755455 C217.570401,10.7580909 217.412046,11.0979091 217.412046,11.495 C217.412046,12.0085455 217.557046,12.4266364 217.850862,12.7588182 C218.144678,13.0890909 218.589217,13.4422727 219.197836,13.8221818 L220.050664,14.3319091 C220.974086,14.8798182 221.700993,15.4716364 222.231388,16.1054545 C222.757967,16.7392727 223.025072,17.5563636 223.025072,18.5586364 C223.025072,19.6372727 222.649217,20.5440909 221.90323,21.2829091 C221.157243,22.0217273 220.086914,22.3882727 218.68652,22.3882727 C218.138954,22.3882727 217.658164,22.3329091 217.242243,22.2183636 C216.826322,22.1057273 216.461914,21.9720909 216.150928,21.8212727 C215.838033,21.6685455 215.576651,21.5043636 215.370599,21.3268182 C215.164546,21.1473636 214.994743,20.9812727 214.859283,20.8285455 L215.965862,19.013 C216.080336,19.1256364 216.217704,19.2592727 216.376059,19.4100909 C216.53823,19.5628182 216.730928,19.7079091 216.959875,19.8491818 C217.185007,19.9923636 217.442572,20.1107273 217.723033,20.2042727 C218.005401,20.2997273 218.339283,20.3474545 218.715138,20.3474545 C219.392441,20.3474545 219.915204,20.1947273 220.273888,19.8930909 C220.63448,19.5914545 220.813822,19.2210909 220.813822,18.7858182 C220.813822,18.4631818 220.771849,18.1863636 220.682178,17.9477273 C220.59823,17.7129091 220.476125,17.4990909 220.304414,17.3100909 C220.132704,17.123 219.922836,16.9416364 219.676717,16.7717273 C219.436322,16.6037273 219.150138,16.4128182 218.829612,16.2066364 L217.978691,15.6644545 C217.129678,15.1165455 216.461914,14.5419091 215.977309,13.9348182 C215.49652,13.3296364 215.256125,12.5564545 215.256125,11.6095455 C215.256125,11.0979091 215.357243,10.6301818 215.553757,10.2063636 C215.754086,9.78063636 216.03073,9.41218182 216.389414,9.09718182 C216.750007,8.786 217.171651,8.53972727 217.652441,8.36218182 C218.135138,8.18081818 218.65027,8.093 219.197836,8.093 C219.730138,8.093 220.178493,8.14263636 220.558164,8.24763636 C220.935928,8.35072727 221.264086,8.48436364 221.538822,8.64663636 C221.811651,8.80509091 222.036783,8.96736364 222.216125,9.12963636 C222.393559,9.28809091 222.546191,9.42363636 222.654941,9.53818182 L221.660928,11.1838182 Z M211.144612,5.14154545 C210.673362,5.14154545 210.299414,4.99072727 210.011322,4.68718182 C209.727046,4.38554545 209.585862,3.99036364 209.585862,3.49781818 C209.585862,3.02436364 209.727046,2.63681818 210.011322,2.33518182 C210.299414,2.03163636 210.673362,1.88081818 211.144612,1.88081818 C211.596783,1.88081818 211.968822,2.03163636 212.256914,2.33518182 C212.539283,2.63681818 212.676651,3.02436364 212.676651,3.49781818 C212.676651,3.99036364 212.539283,4.38554545 212.256914,4.68718182 C211.968822,4.99072727 211.596783,5.14154545 211.144612,5.14154545 L211.144612,5.14154545 Z M209.98652,22.0484545 L212.283625,22.0484545 L212.283625,8.43281818 L209.98652,8.43281818 L209.98652,22.0484545 Z M204.257112,22.0484545 L204.257112,13.2819091 C204.257112,12.1288182 204.066322,11.3021818 203.67902,10.8000909 C203.291717,10.298 202.698362,10.0479091 201.90277,10.0479091 C201.223559,10.0479091 200.656914,10.2197273 200.206651,10.5614545 C199.748757,10.8993636 199.393888,11.2315455 199.124875,11.5541818 L199.124875,22.0484545 L196.831586,22.0484545 L196.831586,8.43090909 L198.93027,8.43090909 L198.93027,9.96390909 L198.985599,9.96390909 C199.040928,9.84936364 199.166849,9.68518182 199.350007,9.46754545 C199.540796,9.24990909 199.788822,9.04181818 200.09027,8.84327273 C200.393625,8.64663636 200.750401,8.471 201.16823,8.31827273 C201.584151,8.16745455 202.057309,8.093 202.585796,8.093 C203.190599,8.093 203.736257,8.18081818 204.228493,8.36218182 C204.718822,8.53972727 205.134743,8.82990909 205.476257,9.22509091 C205.815862,9.62409091 206.084875,10.1376364 206.273757,10.7714545 C206.458822,11.4052727 206.552309,12.1841818 206.552309,13.1139091 L206.552309,22.0484545 L204.257112,22.0484545 Z M192.180138,5.14154545 C191.710796,5.14154545 191.331125,4.99072727 191.048757,4.68718182 C190.76448,4.38554545 190.621388,3.99036364 190.621388,3.49781818 C190.621388,3.02436364 190.76448,2.63681818 191.048757,2.33518182 C191.331125,2.03163636 191.710796,1.88081818 192.180138,1.88081818 C192.632309,1.88081818 193.006257,2.03163636 193.290533,2.33518182 C193.569086,2.63681818 193.71027,3.02436364 193.71027,3.49781818 C193.71027,3.99036364 193.569086,4.38554545 193.290533,4.68718182 C193.006257,4.99072727 192.632309,5.14154545 192.180138,5.14154545 L192.180138,5.14154545 Z M191.022046,22.0484545 L193.315336,22.0484545 L193.315336,8.43281818 L191.022046,8.43281818 L191.022046,22.0484545 Z M178.14948,22.0484545 L178.14948,13.2819091 C178.14948,12.167 177.987309,11.3632727 177.664875,10.8726364 C177.344349,10.3800909 176.825401,10.1338182 176.106125,10.1338182 C175.73027,10.1338182 175.39448,10.1815455 175.102572,10.277 C174.808757,10.3705455 174.547375,10.4889091 174.318428,10.6301818 C174.095204,10.7714545 173.896783,10.928 173.725072,11.0979091 C173.55527,11.2697273 173.412178,11.4186364 173.30152,11.5541818 L173.30152,22.0484545 L171.006322,22.0484545 L171.006322,8.43090909 L173.101191,8.43090909 L173.101191,9.96390909 L173.160336,9.96390909 C173.253822,9.81309091 173.393099,9.62981818 173.585796,9.41218182 C173.774678,9.19263636 174.009349,8.98645455 174.295533,8.786 C174.575993,8.58745455 174.906059,8.42136364 175.287638,8.28963636 C175.663493,8.15790909 176.088954,8.093 176.560204,8.093 C178.111322,8.093 179.206454,8.69627273 179.849414,9.90663636 C179.981059,9.71954545 180.164217,9.51718182 180.385533,9.29572727 C180.61448,9.08 180.875862,8.88145455 181.183033,8.70009091 C181.482572,8.52254545 181.822178,8.37554545 182.201849,8.26290909 C182.575796,8.14645455 182.997441,8.093 183.449612,8.093 C186.210336,8.093 187.58402,9.69854545 187.58402,12.9134545 L187.58402,22.0484545 L185.29073,22.0484545 L185.29073,13.2819091 C185.29073,12.167 185.094217,11.3632727 184.695467,10.8726364 C184.300533,10.3800909 183.714809,10.1338182 182.940204,10.1338182 C182.299151,10.1338182 181.764941,10.2903636 181.337572,10.6015455 C180.912112,10.9146364 180.576322,11.2124545 180.332112,11.495 C180.368362,11.7069091 180.39698,11.9245455 180.417967,12.1631818 C180.435138,12.3999091 180.444678,12.65 180.444678,12.9134545 L180.444678,22.0484545 L178.14948,22.0484545 Z M166.952046,11.1838182 C166.801322,11.0139091 166.52277,10.781 166.129743,10.4889091 C165.730993,10.1949091 165.213954,10.0479091 164.569086,10.0479091 C163.970007,10.0479091 163.502572,10.1910909 163.180138,10.4755455 C162.859612,10.7580909 162.701257,11.0979091 162.701257,11.495 C162.701257,12.0085455 162.844349,12.4266364 163.140072,12.7588182 C163.43198,13.0890909 163.880336,13.4422727 164.485138,13.8221818 L165.336059,14.3319091 C166.263296,14.8798182 166.990204,15.4716364 167.518691,16.1054545 C168.049086,16.7392727 168.312375,17.5563636 168.312375,18.5586364 C168.312375,19.6372727 167.940336,20.5440909 167.194349,21.2829091 C166.446454,22.0217273 165.372309,22.3882727 163.977638,22.3882727 C163.426257,22.3882727 162.947375,22.3329091 162.529546,22.2183636 C162.113625,22.1057273 161.749217,21.9720909 161.436322,21.8212727 C161.125336,21.6685455 160.865862,21.5043636 160.659809,21.3268182 C160.451849,21.1473636 160.280138,20.9812727 160.148493,20.8285455 L161.253164,19.013 C161.367638,19.1256364 161.503099,19.2592727 161.66527,19.4100909 C161.827441,19.5628182 162.020138,19.7079091 162.247178,19.8491818 C162.474217,19.9923636 162.729875,20.1107273 163.012243,20.2042727 C163.29652,20.2997273 163.624678,20.3474545 164.004349,20.3474545 C164.683559,20.3474545 165.204414,20.1947273 165.559283,19.8930909 C165.919875,19.5914545 166.103033,19.2210909 166.103033,18.7858182 C166.103033,18.4631818 166.055336,18.1863636 165.973296,17.9477273 C165.887441,17.7129091 165.759612,17.4990909 165.589809,17.3100909 C165.418099,17.123 165.213954,16.9416364 164.967836,16.7717273 C164.721717,16.6037273 164.441257,16.4128182 164.118822,16.2066364 L163.267901,15.6644545 C162.415072,15.1165455 161.749217,14.5419091 161.268428,13.9348182 C160.787638,13.3296364 160.543428,12.5564545 160.543428,11.6095455 C160.543428,11.0979091 160.642638,10.6301818 160.842967,10.2063636 C161.03948,9.78063636 161.319941,9.41218182 161.680533,9.09718182 C162.037309,8.786 162.460862,8.53972727 162.939743,8.36218182 C163.422441,8.18081818 163.93948,8.093 164.485138,8.093 C165.013625,8.093 165.467704,8.14263636 165.845467,8.24763636 C166.22323,8.35072727 166.547572,8.48436364 166.822309,8.64663636 C167.097046,8.80509091 167.324086,8.96736364 167.505336,9.12963636 C167.684678,9.28809091 167.829678,9.42363636 167.946059,9.53818182 L166.952046,11.1838182 Z M153.711257,9.96390909 C152.900401,9.96390909 152.247901,10.3056364 151.757572,10.9852727 C151.263428,11.6649091 150.982967,12.65 150.906651,13.9348182 L155.869086,13.9348182 C155.888164,13.8393636 155.90152,13.7038182 155.909151,13.5243636 C155.918691,13.343 155.924414,13.1520909 155.924414,12.9420909 C155.924414,11.9970909 155.735533,11.264 155.355862,10.7428182 C154.980007,10.2235455 154.430533,9.96390909 153.711257,9.96390909 L153.711257,9.96390909 Z M158.023099,13.028 C158.023099,13.616 158.00402,14.12 157.965862,14.5457273 C157.927704,14.9695455 157.891454,15.3437273 157.853296,15.6644545 L150.906651,15.6644545 C150.982967,17.2719091 151.328296,18.4555455 151.94073,19.2115455 C152.55698,19.9675455 153.440336,20.3474545 154.592704,20.3474545 C154.989546,20.3474545 155.34823,20.2997273 155.666849,20.2042727 C155.989283,20.1107273 156.267836,19.9961818 156.504414,19.8644545 C156.740993,19.7327273 156.941322,19.5990909 157.103493,19.4654545 C157.261849,19.3356364 157.37823,19.2287273 157.454546,19.1561818 L158.303559,20.7712727 C158.210072,20.8667273 158.068888,21.0022727 157.881914,21.1836364 C157.693033,21.3611818 157.437375,21.5425455 157.116849,21.722 C156.794414,21.9014545 156.395664,22.058 155.924414,22.1897273 C155.453164,22.3214545 154.894151,22.3882727 154.251191,22.3882727 C153.40027,22.3882727 152.62948,22.2489091 151.94073,21.9625455 C151.25198,21.68 150.666257,21.239 150.183559,20.6452727 C149.70277,20.0496364 149.328822,19.2917273 149.063625,18.3734545 C148.798428,17.4570909 148.666783,16.3574545 148.666783,15.0707273 C148.666783,13.8603636 148.802243,12.8141818 149.078888,11.9340909 C149.351717,11.0578182 149.723757,10.3323636 150.196914,9.76727273 C150.668164,9.19836364 151.219546,8.77836364 151.843428,8.50345455 C152.463493,8.22854545 153.13698,8.093 153.854349,8.093 C155.159349,8.093 156.180072,8.50345455 156.91652,9.32627273 C157.652967,10.1471818 158.023099,11.3804545 158.023099,13.028 L158.023099,13.028 Z M140.928362,20.3474545 C141.285138,20.3474545 141.607572,20.2997273 141.889941,20.2042727 C142.176125,20.1107273 142.422243,19.9923636 142.630204,19.8491818 C142.836257,19.7079091 143.011783,19.5628182 143.154875,19.4100909 C143.296059,19.2592727 143.402901,19.1256364 143.477309,19.013 L143.477309,10.6168182 C143.271257,10.4850909 143.030862,10.3705455 142.754217,10.277 C142.481388,10.1815455 142.136059,10.1338182 141.722046,10.1338182 C141.193559,10.1338182 140.695599,10.2235455 140.233888,10.4049091 C139.77027,10.5824545 139.367704,10.8821818 139.028099,11.2945455 C138.688493,11.7145455 138.417572,12.2548182 138.217243,12.9134545 C138.022638,13.5759091 137.923428,14.3891818 137.923428,15.3532727 C137.923428,16.2982727 138.003559,17.0905455 138.163822,17.7224545 C138.324086,18.3562727 138.545401,18.866 138.82777,19.2535455 C139.112046,19.643 139.43448,19.9198182 139.795072,20.0916364 C140.153757,20.2615455 140.529612,20.3474545 140.928362,20.3474545 L140.928362,20.3474545 Z M135.542375,15.4410909 C135.542375,14.0589091 135.719809,12.9039091 136.080401,11.978 C136.440993,11.0520909 136.902704,10.3056364 137.467441,9.73672727 C138.035993,9.16972727 138.678954,8.76881818 139.396322,8.53209091 C140.115599,8.29536364 140.832967,8.177 141.552243,8.177 C141.985336,8.177 142.363099,8.21136364 142.685533,8.27627273 C143.007967,8.34118182 143.271257,8.42136364 143.477309,8.51872727 L143.477309,1.99345455 L145.774414,1.73763636 L145.774414,22.0484545 L143.677638,22.0484545 L143.677638,20.6013636 L143.622309,20.6013636 C143.565072,20.7159091 143.460138,20.8686364 143.309414,21.0690909 C143.158691,21.2676364 142.948822,21.4661818 142.685533,21.6647273 C142.422243,21.8632727 142.09027,22.0350909 141.693428,22.1763636 C141.296586,22.3176364 140.832967,22.3882727 140.30448,22.3882727 C139.663428,22.3882727 139.052901,22.2622727 138.474809,22.0064545 C137.898625,21.7506364 137.393033,21.3459091 136.958033,20.7865455 C136.523033,20.2271818 136.179612,19.5093636 135.923954,18.6311818 C135.670204,17.7510909 135.542375,16.6877273 135.542375,15.4410909 L135.542375,15.4410909 Z M130.436849,22.0484545 L130.436849,13.2819091 C130.436849,12.1288182 130.244151,11.3021818 129.858757,10.8000909 C129.469546,10.298 128.880007,10.0479091 128.084414,10.0479091 C127.405204,10.0479091 126.838559,10.2197273 126.38448,10.5614545 C125.932309,10.8993636 125.573625,11.2315455 125.308428,11.5541818 L125.308428,22.0484545 L123.011322,22.0484545 L123.011322,8.43090909 L125.108099,8.43090909 L125.108099,9.96390909 L125.165336,9.96390909 C125.222572,9.84936364 125.34277,9.68518182 125.535467,9.46754545 C125.722441,9.24990909 125.968559,9.04181818 126.271914,8.84327273 C126.573362,8.64663636 126.932046,8.471 127.347967,8.31827273 C127.765796,8.16745455 128.237046,8.093 128.765533,8.093 C129.370336,8.093 129.917901,8.18081818 130.412046,8.36218182 C130.902375,8.53972727 131.318296,8.82990909 131.657901,9.22509091 C131.997507,9.62409091 132.262704,10.1376364 132.449678,10.7714545 C132.640467,11.4052727 132.733954,12.1841818 132.733954,13.1139091 L132.733954,22.0484545 L130.436849,22.0484545 Z M119.49698,22.0484545 L117.396388,22.0484545 L117.396388,20.5154545 L117.342967,20.5154545 C117.28573,20.63 117.161717,20.7941818 116.972836,21.0118182 C116.783954,21.2313636 116.545467,21.4375455 116.249743,21.638 C115.957836,21.8346364 115.602967,22.0102727 115.185138,22.1610909 C114.771125,22.3119091 114.307507,22.3882727 113.796191,22.3882727 C113.191388,22.3882727 112.649546,22.2985455 112.168757,22.1190909 C111.686059,21.9396364 111.275862,21.6513636 110.934349,21.2542727 C110.592836,20.8571818 110.333362,20.3436364 110.155928,19.7079091 C109.974678,19.0740909 109.885007,18.2951818 109.885007,17.3692727 L109.885007,8.43090909 L112.182112,8.43090909 L112.182112,17.1974545 C112.182112,18.3314545 112.367178,19.1428182 112.733493,19.622 C113.103625,20.105 113.675993,20.3474545 114.448691,20.3474545 C115.11073,20.3474545 115.669743,20.1832727 116.121914,19.8491818 C116.575993,19.5189091 116.934678,19.1943636 117.199875,18.8698182 L117.199875,8.43090909 L119.49698,8.43090909 L119.49698,22.0484545 Z M104.300599,16.5731818 C104.300599,15.5136364 103.95527,14.6774545 103.26652,14.0627273 C102.575862,13.448 101.587572,13.1406364 100.303559,13.1406364 L98.6303355,13.1406364 L98.6303355,20.0057273 L100.162375,20.0057273 C101.618099,20.0057273 102.671257,19.7155455 103.321849,19.1428182 C103.974349,18.5624545 104.300599,17.7071818 104.300599,16.5731818 L104.300599,16.5731818 Z M103.932375,7.55081818 C103.932375,6.644 103.611849,5.89754545 102.96698,5.31145455 C102.325928,4.72536364 101.314743,4.43136364 99.9353355,4.43136364 L98.6303355,4.43136364 L98.6303355,11.1838182 L99.9067171,11.1838182 C101.228888,11.1838182 102.232441,10.8630909 102.911651,10.2197273 C103.594678,9.57636364 103.932375,8.68672727 103.932375,7.55081818 L103.932375,7.55081818 Z M106.425993,7.46681818 C106.425993,8.14645455 106.342046,8.744 106.172243,9.25754545 C106.002441,9.76727273 105.771586,10.2063636 105.47777,10.5748182 C105.183954,10.9413636 104.844349,11.2410909 104.457046,11.4682727 C104.071651,11.6935455 103.669086,11.8653636 103.253164,11.978 L103.253164,12.0352727 C103.762572,12.1288182 104.239546,12.3082727 104.684086,12.5736364 C105.128625,12.839 105.517836,13.1692727 105.845993,13.5663636 C106.177967,13.9634545 106.441257,14.4292727 106.639678,14.9695455 C106.838099,15.5117273 106.937309,16.1016364 106.937309,16.745 C106.937309,17.5200909 106.805664,18.2264545 106.540467,18.8698182 C106.277178,19.5131818 105.865072,20.0725455 105.306059,20.5440909 C104.750862,21.0156364 104.046849,21.386 103.195928,21.6513636 C102.345007,21.9148182 101.331914,22.0484545 100.162375,22.0484545 L96.1653355,22.0484545 L96.1653355,2.47645455 L99.9353355,2.47645455 C101.087704,2.47645455 102.075993,2.59481818 102.898296,2.82963636 C103.718691,3.06636364 104.394086,3.40045455 104.92448,3.83763636 C105.452967,4.271 105.836454,4.796 106.073033,5.41072727 C106.307704,6.02736364 106.425993,6.71272727 106.425993,7.46681818 L106.425993,7.46681818 Z" id="Fill-1" fill="#1D1D1B"></path>
                    <g id="Group-5" transform="translate(69.684211, 98.272727)">
                        <mask id="mask-2" fill="white">
                            <use xlink:href="#path-1"></use>
                        </mask>
                        <g id="Clip-4"></g>
                        <polygon id="Fill-3" fill="#F7D100" mask="url(#mask-2)" points="5.18405921 0.0521181818 8.75563816 0.0521181818 8.75563816 47.7278455 0.418138158 47.7278455 0.418138158 0.0521181818"></polygon>
                    </g>
                    <polygon id="Fill-6" fill="#E20714" points="74.8682697 50.4167818 78.4398487 50.4167818 78.4398487 98.3254182 70.1023487 98.3254182 70.1023487 50.4167818"></polygon>
                    <path d="M33.5913487,20.4715455 C33.6543092,19.9389091 33.6924671,19.3890909 33.6924671,18.824 C33.6924671,18.5185455 33.694375,18.1615455 33.6562171,17.7568182 C38.4030592,17.6880909 42.5699013,14.267 42.5699013,10.3304545 C42.5699013,8.32590909 41.2629934,6.81581818 40.5265461,5.91281818 C40.6925329,5.87845455 40.8585197,5.83836364 41.0264145,5.79636364 C41.7227961,6.39963636 43.6955592,8.55118182 43.6955592,11.2697273 C43.6955592,15.9909091 38.9773355,20.3741818 33.5913487,20.4715455 L33.5913487,20.4715455 Z M28.8063487,4.02663636 C28.7185855,3.49972727 28.5182566,3.02245455 28.2149013,2.61390909 C28.2282566,2.13281818 28.4266776,1.67272727 29.2012829,2.05072727 C28.7815461,2.48218182 29.1058882,3.24009091 29.1058882,3.24009091 C29.1058882,3.24009091 29.9644408,2.84109091 29.7850987,2.276 C31.0576645,2.58145455 30.1437829,4.28818182 28.8063487,4.02663636 L28.8063487,4.02663636 Z M27.7035855,6.44927273 C27.531875,5.74481818 27.1731908,5.02127273 26.7133882,4.47527273 C26.2917434,3.98081818 25.5991776,3.39090909 24.668125,3.39090909 C24.2407566,3.39090909 23.5252961,3.59136364 23.073125,3.78227273 C22.8995066,3.47490909 22.5694408,2.72845455 22.5694408,2.39054545 C22.5694408,2.045 23.1532566,1.69563636 24.269375,1.69563636 C26.7267434,1.69563636 28.1977303,2.80672727 28.1977303,4.67190909 C28.1977303,5.32481818 27.9382566,5.92236364 27.7035855,6.44927273 L27.7035855,6.44927273 Z M34.0168092,38.1554545 C34.3010855,38.1554545 34.4422697,38.2012727 34.6063487,38.2623636 C35.3141776,40.1905455 38.0424671,43.8235455 38.1550329,43.9781818 L38.1817434,44.0106364 L38.2237171,44.0010909 C38.8895724,43.8960909 40.5971382,43.6364545 42.0280592,43.6364545 L42.0624013,43.6364545 C42.2169408,43.6364545 42.3905592,43.6364545 42.5050329,43.7452727 C42.5966118,43.8407273 42.6424013,44.0010909 42.6424013,44.234 C42.6424013,44.5890909 42.4916776,45.1980909 42.3123355,45.4558182 C41.8124671,44.9098182 40.9977961,44.6654545 39.6985197,44.6654545 C39.3074013,44.6654545 38.8456908,44.7819091 38.5957566,44.8468182 L38.4927303,44.8697273 L38.3763487,44.9002727 L39.1280592,45.6524545 C40.2842434,46.8093636 41.2858882,47.8097273 41.2858882,48.4740909 C41.2858882,48.875 40.8947697,49.3942727 40.5360855,49.6290909 C40.4597697,48.4072727 39.2272697,46.7807273 38.0310197,45.8681818 L37.9279934,45.7918182 L37.9089145,46.2175455 C37.8917434,46.5096364 37.8650329,46.9487273 37.8650329,47.4126364 C37.8650329,49.7340909 37.6303618,50.0853636 36.8271382,50.0853636 C36.703125,50.0853636 36.5142434,50.0490909 36.3978618,50.0051818 C36.8519408,49.4458182 37.029375,48.707 37.029375,47.4107273 L37.0217434,46.8112727 L37.0141118,46.3301818 C37.0141118,45.7994545 37.0732566,45.4061818 37.1133224,45.0892727 L37.1362171,44.9098182 L37.0102961,44.8926364 C36.6344408,44.8410909 35.9361513,44.7456364 35.4019408,44.7456364 C34.2572039,44.7456364 33.4825987,44.8506364 32.9159539,45.3813636 C32.5458224,45.0816364 32.1642434,44.5623636 32.1642434,44.2359091 C32.1642434,43.751 32.4675987,43.7128182 32.860625,43.7128182 C33.0609539,43.7128182 33.2460197,43.7414545 33.5054934,43.7739091 C33.9977303,43.8464545 34.7399013,43.9571818 36.2643092,43.9571818 L36.3597039,43.9571818 L36.3329934,43.8617273 C35.9437829,42.7544545 34.8810855,41.1450909 33.1754276,39.0737273 C33.331875,38.5181818 33.4825987,38.1554545 34.0168092,38.1554545 L34.0168092,38.1554545 Z M19.3088487,43.8617273 L19.2783224,43.9571818 L19.3737171,43.9571818 C20.898125,43.9571818 21.6402961,43.8464545 22.1325329,43.7739091 C22.3920066,43.7414545 22.5789803,43.7128182 22.7774013,43.7128182 C23.1704276,43.7128182 23.4737829,43.751 23.4737829,44.2359091 C23.4737829,44.5623636 23.0902961,45.0816364 22.7201645,45.3813636 C22.1573355,44.8506364 21.3808224,44.7456364 20.2360855,44.7456364 C19.701875,44.7456364 19.0016776,44.8410909 18.6277303,44.8926364 L18.5666776,44.9002727 L18.4999013,44.9098182 L18.5227961,45.0892727 C18.5666776,45.4061818 18.6220066,45.7994545 18.6220066,46.3301818 L18.614375,46.8112727 L18.6086513,47.4107273 C18.6086513,48.707 18.7879934,49.4458182 19.2401645,50.0051818 C19.1237829,50.0490909 18.9329934,50.0853636 18.8108882,50.0853636 C18.0057566,50.0853636 17.7710855,49.7340909 17.7710855,47.4126364 C17.7710855,46.9487273 17.7462829,46.5096364 17.7310197,46.2175455 L17.708125,45.7899091 L17.6050987,45.8681818 C16.4107566,46.7807273 15.1782566,48.4072727 15.1057566,49.6290909 C14.7451645,49.3942727 14.3540461,48.875 14.3540461,48.4740909 C14.3540461,47.8097273 15.3537829,46.8093636 16.511875,45.6524545 L17.1777303,44.9880909 L17.2597697,44.9002727 L17.0422697,44.8468182 C16.7942434,44.7819091 16.3325329,44.6654545 15.9395066,44.6654545 C14.6383224,44.6654545 13.829375,44.9098182 13.3256908,45.4558182 C13.1463487,45.1980909 12.995625,44.5890909 12.995625,44.234 C12.995625,44.0010909 13.0414145,43.8407273 13.1310855,43.7452727 C13.2455592,43.6364545 13.4229934,43.6364545 13.575625,43.6364545 L13.6080592,43.6364545 C15.0408882,43.6364545 16.7484539,43.8960909 17.4162171,44.0010909 L17.4562829,44.0106364 L17.4829934,43.9781818 C17.5955592,43.8235455 20.3238487,40.1905455 21.0316776,38.2623636 C21.1938487,38.2012727 21.3369408,38.1554545 21.6212171,38.1554545 C22.1573355,38.1554545 22.3061513,38.5181818 22.4625987,39.0737273 C20.7550329,41.1450909 19.6961513,42.7544545 19.3088487,43.8617273 L19.3088487,43.8617273 Z M11.944375,11.2697273 C11.944375,8.55118182 13.9152303,6.39963636 14.6116118,5.79636364 C14.7775987,5.83836364 14.9474013,5.87845455 15.1114803,5.91281818 C14.373125,6.81581818 13.0700329,8.32590909 13.0700329,10.3304545 C13.0700329,14.3051818 17.3170066,17.7587273 22.1210855,17.7587273 C22.0905592,18.0985455 22.0752961,18.4555455 22.0752961,18.824 C22.0752961,19.4100909 22.1058224,19.9560909 22.166875,20.4715455 C16.729375,20.4390909 11.944375,16.0252727 11.944375,11.2697273 L11.944375,11.2697273 Z M48.4061513,19.6449091 C50.8444408,23.5031818 52.7523355,23.4382727 55.6351645,23.4382727 C53.2502961,21.6093636 51.6724671,19.2669091 50.9207566,18.0699091 L46.4677303,10.9356364 C46.0308224,8.73445455 44.8918092,6.67454545 43.1880592,5.14345455 C43.7604276,4.92581818 44.2374013,4.69672727 44.5254934,4.481 C41.6159539,4.481 38.733125,3.00336364 37.1457566,3.00336364 C36.1269408,3.00336364 35.470625,3.61045455 35.470625,4.418 C35.5374013,5.31718182 36.4608224,6.23163636 38.1683882,6.23163636 C38.5556908,6.23163636 39.0498355,6.18009091 39.5935855,6.09036364 C40.5189145,7.379 41.2629934,8.54354545 41.2629934,10.2082727 C41.2629934,13.3296364 37.5330592,15.7637273 33.7649671,15.7637273 C33.5531908,15.7637273 33.3509539,15.7560909 33.1372697,15.7389091 C32.7957566,14.9676364 31.6624671,13.6656364 31.6624671,12.188 C31.6624671,9.70809091 33.2765461,7.68063636 33.2765461,5.22363636 C33.2765461,3.69445455 32.534375,2.74945455 32.2462829,2.35618182 C32.7118092,1.92854545 33.2154934,1.39781818 33.3356908,1.03890909 C33.0666776,1.15345455 32.7480592,1.16872727 32.280625,1.16872727 C30.4757566,1.16872727 29.0047697,0.699090909 27.5700329,0.699090909 C26.7515461,0.699090909 26.5302303,0.951090909 26.5302303,1.19354545 C26.5302303,1.28136364 26.5435855,1.37109091 26.5683882,1.415 C26.263125,1.29472727 25.9750329,1.21645455 25.6335197,1.15345455 C25.211875,1.07327273 24.7558882,1.03318182 24.269375,1.03318182 C22.5274671,1.03318182 21.9074013,1.76245455 21.9074013,2.39054545 C21.9074013,2.92127273 22.3252303,3.88918182 22.7964803,4.628 C23.4775987,4.28436364 24.2922697,4.05145455 24.668125,4.05145455 C25.5915461,4.05145455 26.4157566,4.93345455 26.8526645,5.98154545 C26.2287829,6.05409091 26.1085855,6.08272727 25.4789803,6.08272727 C23.7809539,6.08272727 22.6266776,5.47563636 22.3900987,5.47563636 C22.3672039,5.47563636 22.3214145,5.48518182 22.3214145,5.52336364 C22.3214145,5.762 22.8022039,6.392 23.7504276,6.73945455 C25.0000987,7.19572727 26.8736513,7.38663636 27.1865461,7.43627273 C27.1865461,7.49354545 26.8698355,8.08536364 26.516875,8.19609091 C26.4405592,8.22281818 26.3814145,8.22472727 26.2936513,8.20754545 C24.9886513,7.946 24.6242434,7.83909091 22.9681908,7.20909091 C22.9166776,7.19 22.8880592,7.22245455 22.8880592,7.274 C22.8880592,7.92881818 24.5822697,9.37781818 26.1028618,9.93145455 C24.8341118,11.5541818 23.2467434,13.2112727 22.5007566,15.7389091 C22.2889803,15.7560909 22.0848355,15.7637273 21.8711513,15.7637273 C18.1049671,15.7637273 14.373125,13.3296364 14.373125,10.2082727 C14.373125,8.54354545 15.1191118,7.379 16.0463487,6.09036364 C16.5881908,6.18009091 17.0823355,6.23163636 17.4677303,6.23163636 C19.1772039,6.23163636 20.100625,5.31718182 20.1693092,4.418 C20.1693092,3.61045455 19.5129934,3.00336364 18.4903618,3.00336364 C16.9049013,3.00336364 14.0239803,4.481 11.1125329,4.481 C11.400625,4.69672727 11.8756908,4.92581818 12.4480592,5.14345455 C10.7443092,6.67454545 9.60720395,8.73445455 9.17029605,10.9356364 L4.71726974,18.0699091 C3.96746711,19.2669091 2.38582237,21.6093636 0.000953947369,23.4382727 C2.881875,23.4382727 4.79358553,23.5031818 7.231875,19.6449091 L9.515625,15.9851818 C9.68542763,16.4605455 9.89529605,16.9225455 10.1395066,17.375 L5.59490132,24.6486364 C4.84128289,25.8532727 3.27490132,28.1785455 0.880493421,30.017 C3.75950658,30.017 5.673125,30.0838182 8.11141447,26.2274545 L12.0206908,19.9618182 C12.3145066,20.273 12.6216776,20.5803636 12.9479276,20.8686364 L7.42838816,29.7096364 C6.67095395,30.9180909 5.11220395,33.2338182 2.71016447,35.0722727 C5.59490132,35.0722727 7.50661184,35.1429091 9.94299342,31.2827273 L15.3232566,22.6650909 C15.6762171,22.8903636 16.040625,23.108 16.4164803,23.3103636 L9.85141447,33.8237273 C9.09016447,35.0340909 7.53332237,37.3440909 5.13319079,39.1901818 C8.01792763,39.1901818 9.92773026,39.2550909 12.3660197,35.3987273 L19.1256908,24.5684545 C19.5282566,24.725 19.9327303,24.8681818 20.3448355,25.0018182 L12.705625,37.2371818 C11.9596382,38.4303636 10.3665461,40.7804545 7.99121711,42.6017273 C10.8740461,42.6017273 12.7857566,42.6666364 15.2221382,38.8121818 L23.3669408,25.7711818 C23.4489803,25.7845455 23.5310197,25.7979091 23.6111513,25.8131818 C23.834375,26.5214545 23.9870066,27.1762727 23.9870066,27.833 C23.9870066,31.9299091 21.3006908,35.5495455 18.0763487,38.3425455 C18.2804934,38.4360909 18.6410855,38.4628182 18.9730592,38.4628182 C19.6389145,38.4628182 20.0700987,38.4303636 20.3715461,38.375 C19.6217434,40.0740909 18.0172039,42.2695455 17.2063487,43.4054545 C16.1512829,43.2164545 14.6154276,43.0656364 13.6080592,43.0656364 C12.5587171,43.0656364 12.4385197,43.6841818 12.4385197,44.234 C12.4385197,45.1904545 12.8830592,45.9502727 13.4058224,46.3740909 C13.6004276,45.8872727 13.9934539,45.2324545 15.9395066,45.2324545 C15.9738487,45.2324545 16.0444408,45.2381818 16.1341118,45.2439091 C15.5636513,45.8777273 13.7854934,47.3152727 13.7854934,48.4740909 C13.7854934,49.2415455 14.626875,50.3927273 15.7372697,50.3927273 C15.6685855,50.1464545 15.678125,49.9173636 15.678125,49.7474545 C15.678125,48.8062727 16.5099671,47.7085455 17.2120724,46.943 C17.1910855,47.1720909 17.2025329,47.1491818 17.2025329,47.4126364 C17.2025329,49.6329091 17.4028618,50.6542727 18.8108882,50.6542727 C19.5015461,50.6542727 19.9785197,50.2743636 20.1425987,50.1598182 C19.2268092,49.3179091 19.1810197,48.6554545 19.1810197,47.4107273 C19.1829276,47.0861818 19.1829276,46.7711818 19.1886513,46.3320909 C19.1905592,46.0476364 19.1867434,45.6715455 19.1409539,45.3985455 C19.6446382,45.3298182 19.8487829,45.3298182 20.2360855,45.3298182 C20.2360855,45.3298182 22.2355592,45.1713636 22.7182566,46.2099091 C23.2620066,45.7116364 24.0499671,45.011 24.0499671,44.2359091 C24.0499671,43.7223636 23.8076645,43.142 22.7774013,43.142 C22.3862829,43.142 21.1595066,43.3825455 20.1330592,43.3825455 C20.4077961,42.7678182 21.6364803,40.9694545 22.7010855,39.6674545 C22.8613487,40.1733636 23.1131908,40.7193636 23.6702961,41.1660909 C23.7466118,40.328 24.2407566,37.6762727 25.5495724,36.1260909 C25.7041118,37.1722727 25.9101645,38.249 25.9101645,40.5150909 C25.9101645,46.0304545 24.5822697,50.1025455 21.7700329,50.8814545 C22.1344408,51.5190909 22.9090461,52.0899091 23.7141776,52.0899091 C24.740625,52.0899091 25.3034539,50.9272727 25.8739145,49.8295455 C26.1715461,50.639 26.9938487,52.6263636 27.8199671,52.6263636 C28.6422697,52.6263636 29.4645724,50.639 29.7622039,49.8295455 C30.3326645,50.9272727 30.8954934,52.0899091 31.9238487,52.0899091 C32.7251645,52.0899091 33.5035855,51.5190909 33.8699013,50.8814545 C31.0557566,50.1025455 29.7278618,46.0304545 29.7278618,40.5150909 C29.7278618,38.249 29.9339145,37.1722727 30.0865461,36.1260909 C31.3991776,37.6762727 31.8914145,40.328 31.9658224,41.1660909 C32.5229276,40.7193636 32.7747697,40.1733636 32.9388487,39.6674545 C33.9996382,40.9694545 35.2283224,42.7678182 35.5049671,43.3825455 C34.4785197,43.3825455 33.2498355,43.142 32.860625,43.142 C31.8303618,43.142 31.5899671,43.7223636 31.5899671,44.2359091 C31.5899671,45.011 32.3760197,45.7116364 32.9178618,46.2099091 C33.4005592,45.1713636 35.4019408,45.3298182 35.4019408,45.3298182 C35.7892434,45.3298182 35.9933882,45.3298182 36.4970724,45.3985455 C36.4531908,45.6715455 36.449375,46.0476364 36.4512829,46.3320909 C36.4550987,46.7711818 36.4550987,47.0861818 36.4570066,47.4107273 C36.4570066,48.6554545 36.4112171,49.3179091 35.4954276,50.1598182 C35.6595066,50.2743636 36.1364803,50.6542727 36.8271382,50.6542727 C38.2351645,50.6542727 38.4374013,49.6329091 38.4374013,47.4126364 C38.4374013,47.1491818 38.4450329,47.1720909 38.4278618,46.943 C39.1280592,47.7085455 39.9599013,48.8062727 39.9599013,49.7474545 C39.9599013,49.9173636 39.9694408,50.1464545 39.9007566,50.3927273 C41.0130592,50.3927273 41.8544408,49.2415455 41.8544408,48.4740909 C41.8544408,47.3152727 40.074375,45.8777273 39.5039145,45.2439091 C39.5954934,45.2381818 39.6622697,45.2324545 39.6985197,45.2324545 C41.6445724,45.2324545 42.0356908,45.8872727 42.2322039,46.3740909 C42.7511513,45.9502727 43.1995066,45.1904545 43.1995066,44.234 C43.1995066,43.6841818 43.083125,43.0656364 42.0280592,43.0656364 C41.0225987,43.0656364 39.4886513,43.2164545 38.4297697,43.4054545 C37.6189145,42.2695455 36.0162829,40.0740909 35.2664803,38.375 C35.5679276,38.4303636 35.9991118,38.4628182 36.6649671,38.4628182 C36.9988487,38.4628182 37.355625,38.4360909 37.5635855,38.3425455 C34.3392434,35.5495455 31.6491118,31.9299091 31.6491118,27.833 C31.6491118,27.1762727 31.8055592,26.5214545 32.0249671,25.8131818 C32.1070066,25.7979091 32.1928618,25.7845455 32.2729934,25.7711818 L40.4158882,38.8121818 C42.8522697,42.6666364 44.7639803,42.6017273 47.6449013,42.6017273 C45.2714803,40.7804545 43.6783882,38.4303636 42.9343092,37.2371818 L35.2912829,25.0018182 C35.7052961,24.8681818 36.1116776,24.725 36.5104276,24.5684545 L43.2720066,35.3987273 C45.7102961,39.2550909 47.6200987,39.1901818 50.5048355,39.1901818 C48.1047039,37.3440909 46.5478618,35.0340909 45.7904276,33.8237273 L39.2234539,23.3103636 C39.5954934,23.108 39.9599013,22.8903636 40.3128618,22.6650909 L45.6950329,31.2827273 C48.1333224,35.1429091 50.043125,35.0722727 52.9240461,35.0722727 C50.5258224,33.2338182 48.9689803,30.9180909 48.2096382,29.7096364 L42.6920066,20.8686364 C43.0163487,20.5803636 43.3254276,20.273 43.6154276,19.9618182 L47.5266118,26.2274545 C49.9668092,30.0838182 51.8747039,30.017 54.7575329,30.017 C52.3612171,28.1785455 50.8005592,25.8532727 50.043125,24.6486364 L45.5004276,17.375 C45.7446382,16.9225455 45.9525987,16.4605455 46.1204934,15.9851818 L48.4061513,19.6449091 Z" id="Fill-8" fill="#1D1D1B"></path>
                    <polygon id="Fill-10" fill="#1D1D1B" points="78.4398487 2.98121818 78.4398487 50.6531273 74.8682697 50.6531273 70.1023487 50.6531273 70.1023487 2.98121818"></polygon>
                </g>
                <g id="Group-29">
                    <path d="M101.651296,6.53611296 C101.651296,5.11890926 101.065572,4.35022407 99.5144539,4.35022407 C99.0298487,4.35022407 97.2955724,4.43224259 97.2955724,6.95383519 L97.2955724,11.02615 C97.2955724,13.662187 98.0606382,14.3297796 99.5144539,14.3297796 C100.617217,14.3297796 101.349849,14.0303167 101.668467,13.797613 L101.668467,10.1907056 L99.4476776,10.1907056 L99.4476776,8.85742778 L103.202414,8.85742778 L103.202414,14.7150759 C102.219849,15.24915 101.065572,15.6153722 99.5144539,15.6153722 C96.9597829,15.6153722 95.725375,14.2954463 95.725375,10.9574833 L95.725375,7.00342778 C95.725375,4.60009444 96.9597829,3.06463148 99.5144539,3.06463148 C102.11873,3.06463148 103.355046,4.01833519 103.253928,6.53611296 L101.651296,6.53611296 Z" id="Fill-13" fill="#1D1D1B"></path>
                    <polygon id="Fill-15" fill="#1D1D1B" points="106.074559 15.3653111 106.074559 3.31621852 112.284757 3.31621852 112.284757 4.6514037 107.610414 4.6514037 107.610414 8.52153333 111.950875 8.52153333 111.950875 9.85671852 107.610414 9.85671852 107.610414 14.0301259 112.385875 14.0301259 112.385875 15.3653111"></polygon>
                    <polygon id="Fill-17" fill="#1D1D1B" points="114.306171 15.3653111 114.306171 3.31621852 120.281697 3.31621852 120.281697 4.6514037 115.842026 4.6514037 115.842026 8.52153333 120.048934 8.52153333 120.048934 9.85671852 115.842026 9.85671852 115.842026 15.3653111"></polygon>
                    <mask id="mask-4" fill="white">
                        <use xlink:href="#path-3"></use>
                    </mask>
                    <g id="Clip-20"></g>
                    <path d="M126.275921,1.89596296 L127.844211,1.89596296 L127.844211,0.16212963 L126.275921,0.16212963 L126.275921,1.89596296 Z M127.792697,11.0267222 L127.792697,6.9525 C127.792697,4.43281481 126.056513,4.34888889 125.573816,4.34888889 C125.089211,4.34888889 123.353026,4.43281481 123.353026,6.9525 L123.353026,11.0267222 C123.353026,13.6627593 124.121908,14.3303519 125.573816,14.3303519 C127.025724,14.3303519 127.792697,13.6627593 127.792697,11.0267222 L127.792697,11.0267222 Z M123.337763,1.89596296 L124.906053,1.89596296 L124.906053,0.16212963 L123.337763,0.16212963 L123.337763,1.89596296 Z M121.782829,10.9580556 L121.782829,7.004 C121.782829,4.60066667 123.019145,3.0632963 125.573816,3.0632963 C128.126579,3.0632963 129.362895,4.60066667 129.362895,7.004 L129.362895,10.9580556 C129.362895,14.2960185 128.126579,15.614037 125.573816,15.614037 C123.019145,15.614037 121.782829,14.2960185 121.782829,10.9580556 L121.782829,10.9580556 Z" id="Fill-19" fill="#1D1D1B" mask="url(#mask-4)"></path>
                    <path d="M133.536033,8.49006111 L135.84077,8.49006111 C136.941625,8.49006111 137.475836,7.53826481 137.475836,6.48537593 C137.475836,5.61941296 137.042743,4.65045 135.856033,4.65045 L133.536033,4.65045 L133.536033,8.49006111 Z M133.536033,9.82333889 L133.536033,15.3643574 L132.000178,15.3643574 L132.000178,3.31526481 L136.15748,3.31526481 C138.294322,3.31526481 139.046033,4.81830185 139.046033,6.31943148 C139.046033,7.73663519 138.261888,8.82385741 136.840507,9.07372778 L136.840507,9.1061537 C138.227546,9.32359815 138.729322,9.79282037 138.81327,12.2095056 C138.826625,12.7283204 138.99452,14.6147463 139.227283,15.3643574 L137.626559,15.3643574 C137.191559,14.5308204 137.292678,12.9629315 137.159125,11.3588019 C137.042743,9.89009815 135.856033,9.82333889 135.338993,9.82333889 L133.536033,9.82333889 Z" id="Fill-21" fill="#1D1D1B" mask="url(#mask-4)"></path>
                    <path d="M142.885289,14.0297444 L144.337197,14.0297444 C146.474039,14.0297444 147.258184,13.2286333 147.258184,10.4247444 L147.258184,7.98898519 C147.258184,5.55131852 146.506474,4.65102222 144.90575,4.65102222 L142.885289,4.65102222 L142.885289,14.0297444 Z M141.347526,3.31583704 L145.056474,3.31583704 C146.590421,3.31583704 147.695092,3.86707778 148.294171,5.15076296 C148.778776,6.16931852 148.828382,8.57265185 148.828382,8.95604074 C148.828382,11.5272259 148.593711,13.0130963 148.091934,13.8142074 C147.44325,14.8480222 146.224105,15.3649296 144.119697,15.3649296 L141.347526,15.3649296 L141.347526,3.31583704 Z" id="Fill-22" fill="#1D1D1B" mask="url(#mask-4)"></path>
                    <polygon id="Fill-23" fill="#1D1D1B" mask="url(#mask-4)" points="151.515651 15.3653111 151.515651 3.31621852 157.725849 3.31621852 157.725849 4.6514037 153.051507 4.6514037 153.051507 8.52153333 157.391967 8.52153333 157.391967 9.85671852 153.051507 9.85671852 153.051507 14.0301259 157.826967 14.0301259 157.826967 15.3653111"></polygon>
                    <path d="M161.367257,8.49006111 L163.668178,8.49006111 C164.770941,8.49006111 165.303243,7.53826481 165.303243,6.48537593 C165.303243,5.61941296 164.870151,4.65045 163.681533,4.65045 L161.367257,4.65045 L161.367257,8.49006111 Z M161.367257,9.82333889 L161.367257,15.3643574 L159.829493,15.3643574 L159.829493,3.31526481 L163.984888,3.31526481 C166.123638,3.31526481 166.871533,4.81830185 166.871533,6.31943148 C166.871533,7.73663519 166.089296,8.82385741 164.669822,9.07372778 L164.669822,9.1061537 C166.053046,9.32359815 166.554822,9.79282037 166.636862,12.2095056 C166.655941,12.7283204 166.823836,14.6147463 167.058507,15.3643574 L165.455875,15.3643574 C165.020875,14.5308204 165.120086,12.9629315 164.986533,11.3588019 C164.870151,9.89009815 163.681533,9.82333889 163.168309,9.82333889 L161.367257,9.82333889 Z" id="Fill-24" fill="#1D1D1B" mask="url(#mask-4)"></path>
                    <polygon id="Fill-25" fill="#1D1D1B" mask="url(#mask-4)" points="175.904651 3.31545556 175.904651 4.65064074 172.73373 4.65064074 172.73373 15.3645481 171.197875 15.3645481 171.197875 4.65064074 168.023138 4.65064074 168.023138 3.31545556"></polygon>
                    <polygon id="Fill-26" fill="#1D1D1B" mask="url(#mask-4)" points="185.388224 15.3653111 183.550921 15.3653111 180.063289 3.31621852 181.728882 3.31621852 184.485789 13.9137741 184.516316 13.9137741 187.336184 3.31621852 188.910197 3.31621852"></polygon>
                    <path d="M196.436842,11.0271037 L196.436842,6.95288148 C196.436842,4.4331963 194.704474,4.34927037 194.219868,4.34927037 C193.735263,4.34927037 191.999079,4.4331963 191.999079,6.95288148 L191.999079,11.0271037 C191.999079,13.6631407 192.766053,14.3288259 194.219868,14.3288259 C195.669868,14.3288259 196.436842,13.6631407 196.436842,11.0271037 M190.430789,10.958437 L190.430789,7.00438148 C190.430789,4.60104815 191.663289,3.06367778 194.219868,3.06367778 C196.772632,3.06367778 198.005132,4.60104815 198.005132,7.00438148 L198.005132,10.958437 C198.005132,14.2964 196.772632,15.6144185 194.219868,15.6144185 C191.663289,15.6144185 190.430789,14.2964 190.430789,10.958437" id="Fill-27" fill="#1D1D1B" mask="url(#mask-4)"></path>
                    <polygon id="Fill-28" fill="#1D1D1B" mask="url(#mask-4)" points="202.130763 15.3653111 200.696026 15.3653111 200.696026 3.31621852 203.182013 3.31621852 206.219382 13.4292926 206.255632 13.4292926 209.325434 3.31621852 211.864842 3.31621852 211.864842 15.3653111 210.328987 15.3653111 210.328987 4.6514037 210.290829 4.6514037 206.923395 15.3653111 205.469579 15.3653111 202.165105 4.6514037 202.130763 4.6514037"></polygon>
                </g>
            </g>
        </g>
    </g>
</svg>