<svg width="290" height="207" xmlns="http://www.w3.org/2000/svg" xmlns:xlink="http://www.w3.org/1999/xlink"><defs><path id="a" d="M0.418138158 0.0521181818L8.75563816 0.0521181818 8.75563816 47.7272727 0.418138158 47.7272727z"/><path id="c" d="M0 206L289.418092 206 289.418092 0.16212963 0 0.16212963z"/></defs><g fill="none" fill-rule="evenodd"><g transform="translate(0 60)"><path d="M241.284 69.87c0-.986-.231-1.683-.695-2.099a2.355 2.355 0 0 0-1.633-.626c-.658 0-1.23.208-1.698.626-.473.416-.71 1.113-.71 2.098 0 .985.237 1.686.71 2.1.467.418 1.02.625 1.64.625.665 0 1.228-.207 1.691-.625.464-.414.695-1.115.695-2.1zm-3.036 8.959c-.4 0-.744-.025-1.05-.082a2.85 2.85 0 0 0-.493.34 2.447 2.447 0 0 0-.441.482 2.583 2.583 0 0 0-.328.667 2.818 2.818 0 0 0-.126.891c0 1.46.801 2.188 2.411 2.188 1.38 0 2.395-.273 3.063-.811.658-.539.992-1.157.992-1.856 0-.66-.206-1.128-.63-1.407-.414-.273-.967-.412-1.671-.412h-1.727zm6.321-11.4h-1.702c.437.72.653 1.53.653 2.44 0 .72-.117 1.367-.353 1.946a4.134 4.134 0 0 1-.99 1.458c-.43.401-.93.7-1.504.909a5.418 5.418 0 0 1-1.858.315h-.368c-.117 0-.235-.013-.367-.034a2.839 2.839 0 0 0-.711.458c-.245.206-.367.479-.367.819a.87.87 0 0 0 .325.698c.215.174.572.268 1.062.268h1.729c.643 0 1.24.065 1.786.202a3.893 3.893 0 0 1 1.434.634c.405.292.722.664.947 1.117.227.458.345 1.006.345 1.647 0 .737-.158 1.41-.467 2.014a4.721 4.721 0 0 1-1.323 1.564c-.564.43-1.255.773-2.07 1.02-.812.244-1.719.366-2.716.366-1.46 0-2.565-.319-3.322-.953-.756-.628-1.131-1.54-1.131-2.732 0-.51.087-.952.265-1.32.177-.37.393-.69.639-.967.244-.275.498-.488.752-.65.255-.157.457-.293.606-.383v-.059c-.584-.433-.875-1.065-.875-1.9 0-.356.068-.67.213-.935a2.657 2.657 0 0 1 1.021-1.063c.18-.103.317-.176.408-.21v-.057c-.698-.321-1.259-.829-1.686-1.516-.424-.691-.636-1.577-.636-2.656 0-.758.122-1.424.369-1.999a3.974 3.974 0 0 1 .992-1.433 4.15 4.15 0 0 1 1.46-.852 5.628 5.628 0 0 1 1.796-.284c.65 0 1.252.114 1.815.34h4.142l-.313 1.788zm-15.477 11.827v-8.764c0-1.152-.196-1.98-.58-2.482-.387-.5-.979-.75-1.772-.75-.681 0-1.248.17-1.704.511a6.41 6.41 0 0 0-1.078.991v10.494h-2.297V65.641h2.099v1.535h.06c.052-.117.176-.281.369-.497.185-.22.435-.427.736-.626a5.136 5.136 0 0 1 1.076-.523c.416-.155.89-.23 1.418-.23a4.82 4.82 0 0 1 1.646.27c.49.181.905.472 1.248.867.336.397.601.912.792 1.548.189.63.282 1.413.282 2.34v8.931h-2.295zm-10.942 0h-2.096v-1.53h-.061c-.056.112-.18.28-.367.494-.189.221-.429.427-.725.624-.292.2-.645.376-1.064.527-.414.153-.878.229-1.385.229-.61 0-1.147-.09-1.634-.273a2.98 2.98 0 0 1-1.232-.865c-.338-.399-.6-.912-.779-1.542-.18-.634-.269-1.413-.269-2.34v-8.94h2.294v8.77c0 1.137.189 1.94.553 2.42.37.48.944.723 1.717.723.662 0 1.221-.164 1.671-.494.456-.33.815-.651 1.078-.976V65.641h2.3v13.615zm-15.255 0v-8.764c0-1.152-.193-1.98-.578-2.482-.391-.5-.98-.75-1.775-.75-.68 0-1.244.17-1.701.511-.449.34-.81.67-1.076.991v10.494h-2.296V59.203l2.296-.256v8.085h.057c.078-.112.194-.265.357-.454.158-.189.38-.378.662-.565a4.807 4.807 0 0 1 1.036-.5c.41-.142.885-.212 1.434-.212 1.19 0 2.133.39 2.832 1.164.7.78 1.05 2.062 1.05 3.86v8.931h-2.298zm-10.799-10.975a9.357 9.357 0 0 0-.269-.258 2.723 2.723 0 0 0-.47-.338 3.242 3.242 0 0 0-.68-.298 2.963 2.963 0 0 0-.905-.127c-.494 0-.952.09-1.373.267a2.805 2.805 0 0 0-1.109.867c-.313.4-.557.912-.738 1.546-.178.636-.265 1.403-.265 2.312 0 1.002.078 1.846.24 2.522.158.683.382 1.227.664 1.638.282.403.63.693 1.034.874.408.178.855.267 1.347.267.702 0 1.233-.118 1.6-.364.37-.247.632-.447.783-.598l.933 1.59c-.092.113-.23.25-.41.41a3.395 3.395 0 0 1-.695.465c-.282.154-.627.28-1.032.385a5.757 5.757 0 0 1-1.404.159 5.98 5.98 0 0 1-2.125-.372 4.196 4.196 0 0 1-1.733-1.216c-.49-.57-.876-1.306-1.158-2.211-.284-.907-.43-2.035-.43-3.374 0-1.311.172-2.415.51-3.323.344-.907.788-1.642 1.336-2.201a5.132 5.132 0 0 1 1.826-1.217 5.696 5.696 0 0 1 2.026-.385c.513 0 .961.05 1.349.143a4.5 4.5 0 0 1 .992.355c.278.141.5.292.679.453.181.16.326.3.443.412l-.966 1.617zm-11.62.113c-.153-.168-.424-.401-.825-.695-.395-.296-.918-.44-1.557-.44-.607 0-1.07.142-1.395.426-.316.28-.48.623-.48 1.02 0 .511.15.933.442 1.264.294.334.74.683 1.345 1.061l.85.515c.927.546 1.654 1.14 2.188 1.77.524.634.792 1.45.792 2.453 0 1.075-.374 1.986-1.124 2.727-.744.733-1.818 1.105-3.217 1.105-.544 0-1.03-.06-1.44-.172a6.383 6.383 0 0 1-1.094-.397 3.563 3.563 0 0 1-.782-.498 5.082 5.082 0 0 1-.507-.497l1.106-1.813c.109.114.248.246.409.393.158.155.354.304.581.443.226.141.483.258.765.355.281.097.617.14.989.14.683 0 1.204-.148 1.562-.453.363-.3.538-.666.538-1.105 0-.32-.044-.598-.127-.837a1.916 1.916 0 0 0-.382-.635 3.391 3.391 0 0 0-.624-.54 27.418 27.418 0 0 0-.85-.568l-.852-.538c-.849-.552-1.513-1.126-1.997-1.732-.483-.607-.72-1.38-.72-2.327 0-.511.096-.977.296-1.407.197-.42.475-.79.834-1.103.36-.313.778-.558 1.261-.739.483-.178.998-.27 1.545-.27.529 0 .985.054 1.36.157.38.103.705.237.981.397.271.163.498.323.681.485.178.157.323.3.437.41l-.99 1.645zm-8.023-.737a1.727 1.727 0 0 0-.37-.144 2.842 2.842 0 0 0-.768-.084c-.715 0-1.28.195-1.684.58-.409.388-.695.81-.865 1.263v9.984h-2.297V65.641h2.097v1.846h.057c.096-.266.214-.525.369-.781a2.79 2.79 0 0 1 .564-.678c.231-.2.498-.357.81-.471a3.312 3.312 0 0 1 1.123-.172c.317 0 .582.03.78.088.199.057.35.103.464.139l-.28 2.045zm-11.259 4.795c0-1.817-.261-3.136-.792-3.957-.526-.825-1.267-1.235-2.21-1.235-.944 0-1.678.41-2.199 1.235-.519.82-.776 2.14-.776 3.957 0 1.816.261 3.12.791 3.91.53.794 1.27 1.191 2.214 1.191s1.675-.397 2.194-1.19c.52-.791.778-2.095.778-3.91zm-8.36 0c0-1.25.147-2.327.44-3.236.29-.908.69-1.651 1.189-2.224a4.63 4.63 0 0 1 1.732-1.277 5.29 5.29 0 0 1 2.082-.414c.755 0 1.456.14 2.099.414a4.31 4.31 0 0 1 1.67 1.277c.474.573.85 1.316 1.123 2.224.273.91.408 1.986.408 3.236 0 1.268-.14 2.356-.424 3.263-.284.901-.675 1.644-1.177 2.224a4.56 4.56 0 0 1-1.742 1.264 5.704 5.704 0 0 1-2.098.397 5.551 5.551 0 0 1-2.099-.397 4.276 4.276 0 0 1-1.673-1.264c-.47-.58-.844-1.315-1.12-2.213-.273-.893-.41-1.989-.41-3.274zm-11.339 6.804V59.684h9.608l-.168 1.957h-6.975v7.236h6.435v1.958h-6.435v8.421h-2.465zm-14.855-1.703a2.966 2.966 0 0 0 2.227-.937c.139-.147.25-.279.324-.393v-8.396a3.48 3.48 0 0 0-.723-.34c-.273-.096-.62-.142-1.034-.142-.529 0-1.025.088-1.49.27-.462.18-.863.477-1.204.891-.34.416-.607.957-.807 1.62-.199.658-.298 1.475-.298 2.439 0 .945.08 1.733.24 2.371.163.632.384 1.142.668 1.527.283.386.603.665.962.836a2.65 2.65 0 0 0 1.135.254zm-5.388-4.902c0-1.38.181-2.535.542-3.461.359-.93.82-1.677 1.389-2.242a4.787 4.787 0 0 1 1.925-1.204 6.754 6.754 0 0 1 2.156-.36c.433 0 .813.037 1.133.104.323.063.586.145.794.242v-6.527l2.297-.256v20.31h-2.099V77.81h-.057a3.19 3.19 0 0 1-.935 1.065 3.884 3.884 0 0 1-.992.51c-.397.143-.86.214-1.389.214-.64 0-1.251-.13-1.83-.386-.574-.257-1.08-.662-1.514-1.218-.435-.557-.78-1.277-1.034-2.155-.256-.88-.386-1.944-.386-3.19zm-5.1 6.605v-8.764c0-1.152-.194-1.98-.581-2.482-.39-.5-.98-.75-1.775-.75-.677 0-1.244.17-1.698.511-.452.34-.813.67-1.076.991v10.494h-2.297V65.641h2.097v1.535h.055c.057-.117.18-.281.368-.497.19-.22.437-.427.739-.626.301-.199.66-.372 1.078-.523.414-.155.885-.23 1.415-.23a4.8 4.8 0 0 1 1.645.27 2.99 2.99 0 0 1 1.248.867c.34.397.604.912.793 1.548.19.63.285 1.413.285 2.34v8.931h-2.296zm-10.945 0h-2.097v-1.53h-.055c-.057.112-.182.28-.368.494-.191.221-.432.427-.724.624-.293.2-.648.376-1.064.527a4 4 0 0 1-1.39.229c-.602 0-1.148-.09-1.63-.273a2.963 2.963 0 0 1-1.231-.865c-.341-.399-.601-.912-.78-1.542-.182-.634-.27-1.413-.27-2.34v-8.94h2.296v8.77c0 1.137.183 1.94.551 2.42.37.48.94.723 1.717.723.66 0 1.22-.164 1.672-.494.456-.33.812-.651 1.078-.976V65.641h2.295v13.615zm97.463-37.993c0-.983-.233-1.683-.697-2.098a2.35 2.35 0 0 0-1.629-.622c-.662 0-1.229.206-1.7.622-.47.415-.71 1.115-.71 2.098 0 .984.24 1.684.71 2.1a2.413 2.413 0 0 0 1.647.623c.658 0 1.223-.206 1.682-.623.464-.416.697-1.116.697-2.1zm-3.034 8.964c-.395 0-.746-.027-1.05-.084a3.258 3.258 0 0 0-.493.34c-.162.135-.31.295-.443.482-.13.188-.237.409-.324.667a2.808 2.808 0 0 0-.124.893c0 1.457.801 2.184 2.406 2.184 1.383 0 2.404-.269 3.062-.805.662-.54.99-1.161.99-1.86 0-.666-.204-1.13-.622-1.405-.416-.273-.971-.412-1.673-.412h-1.729zm6.321-11.403h-1.7c.435.72.655 1.533.655 2.44 0 .72-.119 1.366-.355 1.943a4.064 4.064 0 0 1-.992 1.46c-.428.4-.93.703-1.504.91a5.426 5.426 0 0 1-1.854.31h-.374c-.111 0-.235-.01-.365-.03-.227.099-.463.248-.713.456-.243.21-.363.483-.363.823a.87.87 0 0 0 .323.697c.22.175.576.269 1.064.269h1.729c.64 0 1.234.065 1.788.196a4.03 4.03 0 0 1 1.427.638c.408.292.727.666.954 1.12.225.457.341 1.001.341 1.646 0 .74-.158 1.411-.47 2.016a4.637 4.637 0 0 1-1.32 1.558c-.568.435-1.255.78-2.068 1.023-.816.245-1.72.369-2.722.369-1.454 0-2.56-.317-3.316-.95-.756-.637-1.133-1.547-1.133-2.74 0-.508.09-.95.267-1.32.18-.366.393-.689.64-.962.245-.277.495-.492.75-.653.254-.16.46-.29.611-.38v-.06c-.59-.434-.88-1.07-.88-1.9 0-.361.07-.67.212-.938.141-.265.3-.479.48-.65.18-.17.364-.308.541-.411.18-.103.317-.176.412-.214v-.055a3.819 3.819 0 0 1-1.686-1.52c-.426-.689-.643-1.573-.643-2.652 0-.756.127-1.422.372-1.998a4.119 4.119 0 0 1 .99-1.434c.42-.378.902-.66 1.463-.852a5.609 5.609 0 0 1 1.801-.282 4.82 4.82 0 0 1 1.813.342h4.142l-.317 1.785zm-15.477 11.83v-8.766c0-1.153-.192-1.982-.586-2.482-.381-.502-.969-.752-1.762-.752-.685 0-1.254.17-1.702.511-.456.34-.819.67-1.078.993v10.496h-2.3V37.04h2.098v1.53h.059c.055-.114.177-.28.366-.498.187-.217.435-.421.74-.622.3-.198.658-.376 1.076-.525.416-.153.89-.227 1.416-.227.607 0 1.154.09 1.646.27.49.18.905.467 1.244.864.344.397.61.914.796 1.544.187.636.282 1.417.282 2.34v8.94h-2.295zm-10.942 0h-2.098v-1.53h-.057c-.058.11-.182.276-.369.496a3.979 3.979 0 0 1-.72.624 4.914 4.914 0 0 1-1.067.523 3.986 3.986 0 0 1-1.39.225c-.602 0-1.142-.088-1.625-.269a2.9 2.9 0 0 1-1.234-.865c-.342-.397-.6-.91-.78-1.546-.18-.634-.268-1.411-.268-2.339V37.04h2.295v8.764c0 1.134.182 1.944.552 2.425.368.48.937.723 1.715.723.664 0 1.215-.166 1.673-.496.45-.328.815-.657 1.076-.98V37.04h2.297v13.615zm-17.888-1.703c.36 0 .683-.05.965-.14a3.002 3.002 0 0 0 1.262-.799c.143-.149.251-.28.328-.395V39.22a3.545 3.545 0 0 0-.725-.34c-.273-.096-.62-.141-1.034-.141-.533 0-1.027.087-1.489.269a2.896 2.896 0 0 0-1.205.893c-.34.416-.61.955-.807 1.615-.203.665-.298 1.476-.298 2.44 0 .945.078 1.737.238 2.371.16.632.384 1.144.67 1.531.283.388.603.667.962.837.358.17.736.255 1.133.255zm-5.386-4.908c0-1.378.18-2.533.54-3.461.359-.926.82-1.674 1.389-2.24a4.813 4.813 0 0 1 1.925-1.206 6.929 6.929 0 0 1 2.156-.355c.437 0 .815.034 1.135.1.32.066.588.146.796.242v-6.524l2.293-.257v20.312h-2.099v-1.449h-.055c-.053.117-.158.27-.311.472-.153.196-.36.395-.624.595a3.931 3.931 0 0 1-.994.51c-.395.141-.858.21-1.389.21a4.449 4.449 0 0 1-1.828-.38c-.576-.257-1.083-.662-1.516-1.222-.434-.557-.78-1.275-1.034-2.155-.256-.88-.384-1.943-.384-3.192zm-3.57 3.433c0 .567.079.966.239 1.193.158.223.439.338.837.338.206 0 .384-.02.525-.056.14-.04.25-.076.323-.114l.202 1.703a5.202 5.202 0 0 1-.624.227c-.302.095-.712.141-1.221.141-.775 0-1.399-.237-1.872-.708-.471-.472-.708-1.315-.708-2.526V30.6l2.3-.257v17.134zm-6.92-13.73c-.47 0-.849-.15-1.133-.453-.284-.304-.425-.7-.425-1.193 0-.47.14-.86.425-1.163.284-.301.662-.452 1.133-.452.454 0 .823.15 1.107.452.282.304.425.693.425 1.163 0 .492-.143.89-.425 1.193-.284.304-.653.452-1.107.452zm-1.161 16.908h2.297V37.04h-2.297v13.615zm-5.67-5.475c0-1.061-.344-1.896-1.035-2.51-.689-.615-1.677-.923-2.963-.923h-1.671v6.864h1.53c1.456 0 2.509-.289 3.16-.863.654-.577.978-1.434.978-2.568zm-.369-9.02c0-.907-.32-1.656-.962-2.242-.644-.588-1.656-.88-3.035-.88h-1.303v6.753h1.278c1.319 0 2.32-.323 3.003-.966.681-.644 1.019-1.531 1.019-2.665zm2.496-.086c0 .681-.086 1.277-.254 1.787-.172.51-.405.95-.697 1.319-.291.37-.633.668-1.02.893-.388.23-.79.397-1.204.51v.06c.51.093.988.272 1.43.537a4.494 4.494 0 0 1 1.956 2.4 5.07 5.07 0 0 1 .298 1.772c0 .773-.132 1.483-.395 2.125a4.343 4.343 0 0 1-1.234 1.672c-.557.475-1.262.844-2.112 1.11-.851.263-1.86.396-3.034.396h-3.995V31.08h3.768c1.152 0 2.14.117 2.963.354.822.238 1.5.574 2.028 1.008.527.435.912.96 1.149 1.575.234.614.353 1.3.353 2.056zM122.7 39.05a1.682 1.682 0 0 0-.368-.143 2.832 2.832 0 0 0-.767-.084c-.717 0-1.28.192-1.686.582-.409.39-.695.807-.865 1.262v9.986h-2.297V37.04h2.099v1.842h.057c.094-.265.218-.525.368-.779.153-.256.34-.485.567-.682.227-.2.496-.357.807-.47.313-.112.685-.17 1.12-.17.322 0 .584.031.78.087.199.057.355.103.468.141l-.283 2.043zm-10.772-5.928c0 .435-.135.785-.396 1.05a1.322 1.322 0 0 1-.966.397c-.378 0-.698-.133-.963-.397-.266-.265-.4-.615-.4-1.05 0-.437.134-.786.4-1.05a1.31 1.31 0 0 1 .963-.397c.378 0 .7.132.966.397.26.264.396.613.396 1.05zm-4.365 0c0 .435-.133.785-.399 1.05a1.317 1.317 0 0 1-.963.397c-.378 0-.7-.133-.964-.397-.263-.265-.398-.615-.398-1.05 0-.437.135-.786.398-1.05.264-.265.586-.397.964-.397s.698.132.963.397c.266.264.4.613.4 1.05zm5.64 17.531h-2.097v-1.53h-.057c-.06.11-.18.276-.37.496a3.808 3.808 0 0 1-.723.624c-.29.195-.647.374-1.063.523a4 4 0 0 1-1.389.225c-.605 0-1.149-.088-1.63-.269a2.941 2.941 0 0 1-1.232-.865c-.341-.397-.603-.91-.78-1.546-.178-.634-.267-1.411-.267-2.339V37.04h2.295v8.764c0 1.134.183 1.944.551 2.425.37.48.94.723 1.715.723.66 0 1.22-.166 1.672-.496a5.768 5.768 0 0 0 1.08-.98V37.04h2.295v13.615zM101.41 38.908h-2.78v11.746h-2.295V38.908h-1.644v-1.531l1.644-.314v-2.72c0-.737.103-1.37.313-1.901.206-.53.48-.965.82-1.304a3.002 3.002 0 0 1 1.193-.74 4.54 4.54 0 0 1 1.444-.224c.492 0 .908.064 1.248.198.34.13.567.237.681.311l-.483 1.902a3.176 3.176 0 0 0-.482-.245 2.075 2.075 0 0 0-.765-.126c-.548 0-.964.172-1.248.51-.284.342-.426.966-.426 1.875v2.44h3.063l-.283 1.869zm178.566-16.86v-8.766c0-1.115-.16-1.919-.483-2.41-.319-.492-.841-.738-1.557-.738a3.279 3.279 0 0 0-1.786.496 3.18 3.18 0 0 0-.595.468c-.17.172-.31.32-.425.456v10.494h-2.3V8.431h2.1v1.533h.058c.094-.15.237-.334.424-.552.189-.22.426-.426.71-.626.282-.199.616-.365.99-.496a3.873 3.873 0 0 1 1.278-.197c1.55 0 2.645.603 3.288 1.814.13-.187.31-.39.541-.611a4.37 4.37 0 0 1 .788-.596 4.729 4.729 0 0 1 1.023-.437 4.25 4.25 0 0 1 1.252-.17c2.756 0 4.136 1.606 4.136 4.82v9.135h-2.297v-8.766c0-1.115-.199-1.919-.594-2.41-.396-.492-.982-.738-1.76-.738-.642 0-1.174.156-1.6.468-.427.313-.763.61-1.005.893.035.212.065.43.084.668.017.237.027.487.027.75v9.135h-2.297zm-10.658 0h-2.095v-1.533h-.06c-.056.115-.18.28-.365.497a3.76 3.76 0 0 1-.727.626 4.862 4.862 0 0 1-1.06.523c-.419.15-.88.227-1.388.227a4.67 4.67 0 0 1-1.635-.269 2.994 2.994 0 0 1-1.234-.865c-.336-.397-.597-.91-.78-1.546-.174-.634-.27-1.413-.27-2.339V8.431h2.297v8.766c0 1.134.187 1.946.554 2.425.37.483.942.725 1.717.725.662 0 1.219-.164 1.671-.498.456-.33.815-.655 1.078-.98V8.432h2.297v13.617zm-14.17-16.906c-.477 0-.854-.151-1.14-.455-.283-.301-.426-.697-.426-1.19 0-.473.143-.86.425-1.162.287-.303.664-.454 1.141-.454.449 0 .817.15 1.105.454.282.302.422.69.422 1.163 0 .492-.14.888-.422 1.19-.288.303-.656.454-1.105.454zm-1.17 16.906h2.3V8.433h-2.3v13.615zm-2.264-11.603a1.871 1.871 0 0 0-.366-.14 2.775 2.775 0 0 0-.767-.085c-.718 0-1.282.194-1.689.58-.406.388-.694.81-.864 1.262v9.986h-2.295V8.431h2.099v1.846h.051a4.7 4.7 0 0 1 .372-.78c.149-.257.342-.482.567-.682a2.65 2.65 0 0 1 .807-.468c.313-.113.687-.17 1.122-.17.322 0 .582.027.778.086.198.055.355.105.466.14l-.28 2.042zm-13.351-.481c-.813 0-1.466.342-1.956 1.021-.492.68-.778 1.665-.855 2.95h4.965c.017-.096.034-.231.044-.41.007-.182.015-.373.015-.583 0-.945-.193-1.678-.573-2.2-.377-.518-.925-.778-1.64-.778zm4.31 3.064c0 .588-.021 1.092-.061 1.518-.035.424-.077.798-.111 1.118h-6.949c.077 1.608.422 2.792 1.038 3.548.615.756 1.498 1.135 2.65 1.135.395 0 .756-.047 1.078-.143a4.14 4.14 0 0 0 .836-.34 3.76 3.76 0 0 0 .593-.399 5.74 5.74 0 0 0 .359-.309l.847 1.615c-.095.096-.238.231-.425.413a3.714 3.714 0 0 1-.767.538c-.319.18-.716.336-1.185.468-.473.131-1.032.198-1.677.198-.845 0-1.616-.14-2.309-.425a4.403 4.403 0 0 1-1.759-1.318c-.48-.595-.855-1.353-1.12-2.272-.263-.916-.395-2.016-.395-3.302 0-1.21.136-2.257.409-3.137.276-.876.65-1.602 1.121-2.167a4.45 4.45 0 0 1 1.643-1.264 4.942 4.942 0 0 1 2.017-.41c1.3 0 2.324.41 3.062 1.233.734.821 1.105 2.054 1.105 3.702zm-11.143-2.722h-2.978v7.544c0 .964.124 1.621.37 1.97.243.35.66.527 1.246.527.344 0 .636-.047.88-.143.246-.093.423-.181.538-.254l.31 1.843c-.09.074-.32.194-.678.355-.361.158-.844.24-1.445.24-1.17 0-2.05-.326-2.638-.977-.588-.655-.88-1.736-.88-3.248v-7.857h-1.643V8.773l1.643-.342.258-3.8h2.04v3.8h3.262l-.285 1.875zm-9.87.878c-.146-.17-.419-.403-.816-.695-.4-.294-.921-.441-1.56-.441-.607 0-1.069.143-1.391.428-.323.282-.481.622-.481 1.019 0 .514.145.932.439 1.264.294.33.738.683 1.347 1.063l.853.51c.923.548 1.65 1.14 2.18 1.773.527.634.794 1.451.794 2.454 0 1.078-.376 1.985-1.122 2.724-.746.739-1.816 1.105-3.216 1.105a5.463 5.463 0 0 1-1.445-.17 6.259 6.259 0 0 1-1.091-.397 3.64 3.64 0 0 1-.78-.494 5.616 5.616 0 0 1-.512-.498l1.107-1.816c.114.113.252.246.41.397.162.153.355.298.584.44.225.142.483.26.763.354.282.096.616.143.992.143.677 0 1.2-.152 1.559-.454.36-.302.54-.672.54-1.107 0-.323-.042-.6-.132-.838a1.87 1.87 0 0 0-.378-.638 3.713 3.713 0 0 0-.627-.538c-.24-.168-.527-.36-.847-.565l-.851-.543c-.85-.547-1.517-1.122-2.002-1.73-.48-.604-.72-1.378-.72-2.324 0-.512.1-.98.297-1.404.2-.425.477-.794.835-1.109.361-.311.783-.557 1.263-.735.483-.181.998-.269 1.546-.269.532 0 .98.05 1.36.155.378.103.706.236.98.399.274.158.499.32.678.483.178.158.33.294.439.408l-.994 1.646zm-10.515-6.042c-.472 0-.846-.151-1.134-.455-.284-.301-.425-.697-.425-1.19 0-.473.141-.86.425-1.162.288-.303.662-.454 1.134-.454.452 0 .824.15 1.112.454.282.302.42.69.42 1.163 0 .492-.138.888-.42 1.19-.288.303-.66.454-1.112.454zm-1.158 16.906h2.297V8.433h-2.297v13.615zm-5.73 0v-8.766c0-1.153-.19-1.98-.578-2.482-.387-.502-.98-.752-1.776-.752-.68 0-1.246.172-1.696.513-.458.338-.813.67-1.082.993v10.494h-2.293V8.431h2.098v1.533h.056c.055-.115.18-.279.364-.496.19-.218.439-.426.74-.625a5.35 5.35 0 0 1 1.078-.525c.416-.15.89-.225 1.418-.225.605 0 1.15.088 1.642.27.49.177.907.467 1.248.862.34.4.609.913.798 1.546.185.634.278 1.413.278 2.343v8.934h-2.295zM192.18 5.142c-.47 0-.849-.151-1.131-.455-.285-.301-.428-.697-.428-1.19 0-.473.143-.86.428-1.162.282-.303.662-.454 1.131-.454.452 0 .826.15 1.11.454.28.302.42.69.42 1.163 0 .492-.14.888-.42 1.19-.284.303-.658.454-1.11.454zm-1.158 16.906h2.293V8.433h-2.293v13.615zm-12.873 0v-8.766c0-1.115-.162-1.919-.484-2.41-.32-.492-.84-.738-1.559-.738-.376 0-.712.048-1.003.143a3.523 3.523 0 0 0-.785.353 3.508 3.508 0 0 0-.593.468c-.17.172-.313.32-.423.456v10.494h-2.296V8.431h2.095v1.533h.06c.093-.15.232-.334.425-.552a3.8 3.8 0 0 1 .71-.626c.28-.199.61-.365.992-.496a3.838 3.838 0 0 1 1.272-.197c1.551 0 2.646.603 3.29 1.814.131-.187.314-.39.536-.611a4.452 4.452 0 0 1 1.816-1.033c.374-.117.795-.17 1.248-.17 2.76 0 4.134 1.606 4.134 4.82v9.135h-2.293v-8.766c0-1.115-.197-1.919-.596-2.41-.394-.492-.98-.738-1.755-.738-.64 0-1.175.156-1.602.468-.426.313-.762.61-1.006.893.036.212.065.43.086.668.017.237.027.487.027.75v9.135h-2.296zm-11.197-10.864c-.15-.17-.43-.403-.822-.695-.399-.294-.916-.441-1.56-.441-.6 0-1.067.143-1.39.428-.32.282-.479.622-.479 1.019 0 .514.143.932.44 1.264.291.33.74.683 1.344 1.063l.851.51c.927.548 1.654 1.14 2.183 1.773.53.634.793 1.451.793 2.454 0 1.078-.372 1.985-1.118 2.724-.748.739-1.822 1.105-3.216 1.105-.552 0-1.03-.055-1.448-.17a6.34 6.34 0 0 1-1.094-.397 3.656 3.656 0 0 1-.776-.494 4.957 4.957 0 0 1-.512-.498l1.105-1.816c.115.113.25.246.412.397a3.675 3.675 0 0 0 1.347.794c.285.096.613.143.992.143.68 0 1.2-.152 1.555-.454.36-.302.544-.672.544-1.107 0-.323-.048-.6-.13-.838a1.95 1.95 0 0 0-.383-.638 3.662 3.662 0 0 0-.622-.538 32.895 32.895 0 0 0-.85-.565l-.85-.543c-.853-.547-1.519-1.122-2-1.73-.48-.604-.725-1.378-.725-2.324 0-.512.1-.98.3-1.404.196-.425.477-.794.838-1.109.356-.311.78-.557 1.259-.735.482-.181 1-.269 1.545-.269.529 0 .983.05 1.36.155.378.103.703.236.977.399.275.158.502.32.683.483.18.158.325.294.441.408l-.994 1.646zm-13.24-1.22c-.812 0-1.464.342-1.954 1.021-.495.68-.775 1.665-.851 2.95h4.962c.02-.096.033-.231.04-.41.01-.182.015-.373.015-.583 0-.945-.188-1.678-.568-2.2-.376-.518-.925-.778-1.645-.778zm4.311 3.064c0 .588-.019 1.092-.057 1.518-.038.424-.075.798-.113 1.118h-6.946c.076 1.608.421 2.792 1.034 3.548.616.756 1.5 1.135 2.652 1.135.397 0 .755-.047 1.074-.143a4.026 4.026 0 0 0 1.436-.739c.159-.13.275-.236.352-.309l.849 1.615c-.094.096-.235.231-.422.413a3.916 3.916 0 0 1-.765.538c-.323.18-.721.336-1.193.468-.47.131-1.03.198-1.673.198-.85 0-1.622-.14-2.31-.425a4.384 4.384 0 0 1-1.757-1.318c-.481-.595-.855-1.353-1.12-2.272-.266-.916-.397-2.016-.397-3.302 0-1.21.135-2.257.412-3.137.273-.876.645-1.602 1.118-2.167a4.462 4.462 0 0 1 1.646-1.264 4.915 4.915 0 0 1 2.011-.41c1.305 0 2.326.41 3.063 1.233.736.821 1.106 2.054 1.106 3.702zm-17.095 7.32a3.003 3.003 0 0 0 2.227-.938c.141-.15.248-.284.322-.397v-8.396a3.3 3.3 0 0 0-.723-.34c-.273-.095-.618-.143-1.032-.143a4.04 4.04 0 0 0-1.488.27 2.899 2.899 0 0 0-1.206.89c-.34.42-.61.96-.81 1.62-.195.662-.295 1.475-.295 2.44 0 .944.08 1.737.24 2.368.161.634.382 1.144.665 1.532.284.389.606.666.967.838.359.17.735.255 1.133.255zm-5.386-4.907c0-1.382.178-2.537.538-3.463.361-.926.823-1.672 1.387-2.241a4.869 4.869 0 0 1 1.93-1.205 6.856 6.856 0 0 1 2.155-.355c.433 0 .811.034 1.134.1.322.064.585.144.791.242V1.993l2.297-.255v20.31h-2.096v-1.447h-.056a3.437 3.437 0 0 1-.313.468 3.19 3.19 0 0 1-.623.596c-.264.198-.596.37-.993.511-.396.142-.86.212-1.389.212a4.472 4.472 0 0 1-1.83-.382c-.575-.255-1.081-.66-1.516-1.22-.435-.559-.778-1.277-1.034-2.155-.254-.88-.382-1.943-.382-3.19zm-5.105 6.607v-8.766c0-1.153-.193-1.98-.578-2.482-.39-.502-.979-.752-1.775-.752-.679 0-1.245.172-1.7.513a6.17 6.17 0 0 0-1.076.993v10.494h-2.297V8.431h2.097v1.533h.057c.058-.115.178-.279.37-.496.187-.218.434-.426.737-.625.301-.196.66-.372 1.076-.525.418-.15.889-.225 1.418-.225.604 0 1.152.088 1.646.27.49.177.906.467 1.246.862.34.4.605.913.792 1.546.19.634.284 1.413.284 2.343v8.934h-2.297zm-10.94 0h-2.1v-1.533h-.054c-.057.115-.181.28-.37.497a3.62 3.62 0 0 1-.723.626 4.854 4.854 0 0 1-1.065.523c-.414.15-.877.227-1.389.227-.605 0-1.146-.09-1.627-.269a2.97 2.97 0 0 1-1.235-.865c-.341-.397-.6-.91-.778-1.546-.181-.634-.271-1.413-.271-2.339V8.431h2.297v8.766c0 1.134.185 1.946.551 2.425.37.483.943.725 1.716.725.662 0 1.22-.164 1.673-.498.454-.33.813-.655 1.078-.98V8.432h2.297v13.617zm-15.196-5.475c0-1.06-.346-1.896-1.034-2.51-.691-.615-1.68-.922-2.963-.922H98.63v6.865h1.532c1.456 0 2.51-.29 3.16-.863.652-.58.979-1.436.979-2.57zm-.369-9.022c0-.907-.32-1.653-.965-2.24-.641-.586-1.652-.88-3.032-.88H98.63v6.753h1.277c1.322 0 2.325-.32 3.005-.964.683-.644 1.02-1.533 1.02-2.67zm2.494-.084c0 .68-.084 1.277-.254 1.79-.17.51-.4.95-.694 1.318a3.716 3.716 0 0 1-1.021.893 4.949 4.949 0 0 1-1.204.51v.057c.51.094.987.273 1.431.539.445.265.834.595 1.162.992.332.397.595.863.794 1.404.198.542.297 1.132.297 1.775 0 .775-.131 1.481-.397 2.125a4.305 4.305 0 0 1-1.234 1.674c-.555.472-1.26.842-2.11 1.107-.851.264-1.864.397-3.034.397h-3.997V2.476h3.77c1.153 0 2.141.119 2.963.354.82.236 1.496.57 2.026 1.008.529.433.912.958 1.149 1.573.235.616.353 1.302.353 2.056z" fill="#1D1D1B"/><g transform="translate(69.684 98.273)"><mask id="b" fill="#fff"><use xlink:href="#a"/></mask><path fill="#F7D100" mask="url(#b)" d="M5.18405921 0.0521181818L8.75563816 0.0521181818 8.75563816 47.7278455 0.418138158 47.7278455 0.418138158 0.0521181818z"/></g><path fill="#E20714" d="M74.8682697 50.4167818L78.4398487 50.4167818 78.4398487 98.3254182 70.1023487 98.3254182 70.1023487 50.4167818z"/><path d="M33.591 20.472c.063-.533.101-1.083.101-1.648 0-.305.002-.662-.036-1.067 4.747-.069 8.914-3.49 8.914-7.427 0-2.004-1.307-3.514-2.043-4.417.166-.035.332-.075.5-.117.696.604 2.669 2.755 2.669 5.474 0 4.72-4.719 9.104-10.105 9.202zM28.806 4.027a3.242 3.242 0 0 0-.591-1.413c.013-.481.212-.941.986-.563-.42.431-.095 1.19-.095 1.19s.858-.4.68-.965c1.272.305.358 2.012-.98 1.75zm-1.102 2.422a5.01 5.01 0 0 0-.99-1.974c-.422-.494-1.115-1.084-2.046-1.084-.427 0-1.143.2-1.595.391-.173-.307-.504-1.054-.504-1.391 0-.346.584-.695 1.7-.695 2.458 0 3.929 1.11 3.929 2.976 0 .653-.26 1.25-.494 1.777zm6.313 31.706c.284 0 .425.046.59.107.707 1.929 3.435 5.562 3.548 5.716l.027.033.042-.01c.666-.105 2.373-.365 3.804-.365h.034c.155 0 .329 0 .443.11.092.095.137.255.137.488 0 .355-.15.964-.33 1.222-.5-.546-1.314-.79-2.613-.79-.392 0-.853.116-1.103.18l-.103.024-.117.03.752.752c1.156 1.157 2.158 2.158 2.158 2.822 0 .401-.391.92-.75 1.155-.076-1.222-1.309-2.848-2.505-3.76l-.103-.077-.02.426c-.016.292-.043.73-.043 1.195 0 2.321-.235 2.672-1.038 2.672-.124 0-.313-.036-.43-.08.455-.56.632-1.298.632-2.594l-.007-.6-.008-.48c0-.532.06-.925.1-1.242l.022-.18-.126-.016c-.376-.052-1.074-.147-1.608-.147-1.145 0-1.92.105-2.486.635-.37-.3-.752-.819-.752-1.145 0-.485.304-.523.697-.523.2 0 .385.028.644.06.493.073 1.235.184 2.76.184h.095l-.027-.095c-.39-1.108-1.452-2.717-3.158-4.788.157-.556.308-.919.842-.919zm-14.708 5.707l-.03.095h.095c1.524 0 2.266-.11 2.759-.183.259-.033.446-.061.644-.061.393 0 .697.038.697.523 0 .326-.384.846-.754 1.145-.563-.53-1.34-.635-2.484-.635-.534 0-1.234.095-1.608.147l-.061.007-.067.01.023.18c.044.316.099.71.099 1.24l-.008.481-.005.6c0 1.296.179 2.035.631 2.594-.116.044-.307.08-.43.08-.804 0-1.039-.35-1.039-2.672 0-.464-.025-.903-.04-1.195l-.023-.428-.103.078c-1.194.913-2.427 2.54-2.5 3.761-.36-.235-.751-.754-.751-1.155 0-.664 1-1.665 2.158-2.822l.666-.664.082-.088-.218-.053c-.248-.065-.71-.182-1.102-.182-1.302 0-2.11.245-2.614.79-.18-.257-.33-.866-.33-1.221 0-.233.045-.393.135-.489.115-.109.292-.109.445-.109h.032c1.433 0 3.14.26 3.808.365l.04.01.027-.033c.113-.154 2.84-3.787 3.549-5.716a1.45 1.45 0 0 1 .59-.107c.535 0 .684.363.84.919-1.707 2.071-2.766 3.68-3.153 4.788zM11.944 11.27c0-2.719 1.971-4.87 2.668-5.474.166.042.335.082.5.117-.739.903-2.042 2.413-2.042 4.417 0 3.975 4.247 7.429 9.051 7.429a13.988 13.988 0 0 0 .046 2.713c-5.438-.033-10.223-4.447-10.223-9.202zm36.462 8.375c2.438 3.858 4.346 3.793 7.23 3.793-2.386-1.829-3.964-4.171-4.715-5.368l-4.453-7.134a10.578 10.578 0 0 0-3.28-5.793c.572-.217 1.05-.446 1.337-.662-2.909 0-5.792-1.478-7.38-1.478-1.018 0-1.674.607-1.674 1.415.066.9.99 1.814 2.697 1.814.388 0 .882-.052 1.426-.142.925 1.289 1.669 2.454 1.669 4.118 0 3.122-3.73 5.556-7.498 5.556-.212 0-.414-.008-.628-.025-.341-.771-1.475-2.073-1.475-3.551 0-2.48 1.615-4.507 1.615-6.964 0-1.53-.743-2.475-1.03-2.868.465-.427.968-.958 1.089-1.317-.27.114-.588.13-1.055.13-1.805 0-3.276-.47-4.711-.47-.818 0-1.04.252-1.04.495 0 .087.014.177.038.221a4.85 4.85 0 0 0-.934-.262 7.314 7.314 0 0 0-1.365-.12c-1.742 0-2.362.73-2.362 1.358 0 .53.418 1.498.89 2.237.68-.344 1.495-.577 1.871-.577.924 0 1.748.882 2.185 1.93-.624.073-.744.102-1.374.102-1.698 0-2.852-.607-3.089-.607-.023 0-.069.01-.069.047 0 .239.481.869 1.43 1.216 1.25.457 3.123.648 3.436.697 0 .058-.317.65-.67.76a.383.383 0 0 1-.223.012c-1.305-.262-1.67-.369-3.326-.999-.051-.019-.08.013-.08.065 0 .655 1.694 2.104 3.215 2.657-1.269 1.623-2.856 3.28-3.602 5.808a7.678 7.678 0 0 1-.63.025c-3.766 0-7.498-2.434-7.498-5.556 0-1.664.746-2.829 1.673-4.118.542.09 1.036.142 1.422.142 1.71 0 2.633-.915 2.701-1.814 0-.808-.656-1.415-1.679-1.415-1.585 0-4.466 1.478-7.377 1.478.288.216.763.445 1.335.662a10.575 10.575 0 0 0-3.278 5.793L4.717 18.07c-.75 1.197-2.331 3.54-4.716 5.368 2.88 0 4.793.065 7.23-3.793l2.285-3.66c.17.476.38.938.624 1.39l-4.545 7.274c-.754 1.204-2.32 3.53-4.715 5.368 2.88 0 4.793.067 7.231-3.79l3.91-6.265c.294.311.6.618.927.907l-5.52 8.84c-.757 1.21-2.316 3.525-4.718 5.363 2.885 0 4.797.07 7.233-3.79l5.38-8.617c.353.225.718.443 1.093.645L9.851 33.824c-.76 1.21-2.318 3.52-4.718 5.366 2.885 0 4.795.065 7.233-3.791l6.76-10.83c.402.156.807.3 1.219.433l-7.64 12.235c-.745 1.193-2.338 3.543-4.714 5.365 2.883 0 4.795.065 7.231-3.79l8.145-13.04c.082.013.164.026.244.041.223.708.376 1.363.376 2.02 0 4.097-2.686 7.717-5.91 10.51.203.093.564.12.896.12.666 0 1.097-.033 1.399-.088-.75 1.7-2.355 3.895-3.166 5.03-1.055-.189-2.59-.34-3.598-.34-1.05 0-1.17.62-1.17 1.169 0 .956.445 1.716.968 2.14.194-.487.587-1.142 2.534-1.142.034 0 .104.006.194.012-.57.634-2.349 2.071-2.349 3.23 0 .768.842 1.919 1.952 1.919-.068-.247-.059-.476-.059-.646 0-.94.832-2.038 1.534-2.804-.02.23-.01.206-.01.47 0 2.22.2 3.241 1.609 3.241.69 0 1.168-.38 1.332-.494-.916-.842-.962-1.505-.962-2.75.002-.324.002-.639.008-1.078.002-.284-.002-.66-.048-.933.504-.07.708-.07 1.095-.07 0 0 2-.158 2.482.88.544-.497 1.332-1.198 1.332-1.973 0-.514-.242-1.094-1.273-1.094-.39 0-1.617.24-2.644.24.275-.614 1.503-2.413 2.568-3.715.16.506.412 1.052.97 1.5.076-.839.57-3.49 1.879-5.04.154 1.045.36 2.122.36 4.388 0 5.515-1.328 9.588-4.14 10.366.364.638 1.139 1.209 1.944 1.209 1.027 0 1.59-1.163 2.16-2.26.298.809 1.12 2.796 1.946 2.796.822 0 1.645-1.987 1.942-2.796.57 1.097 1.133 2.26 2.162 2.26.801 0 1.58-.57 1.946-1.209-2.814-.778-4.142-4.85-4.142-10.366 0-2.266.206-3.343.359-4.389 1.312 1.55 1.804 4.202 1.879 5.04.557-.447.809-.993.973-1.499 1.06 1.302 2.29 3.1 2.566 3.716-1.026 0-2.255-.241-2.644-.241-1.03 0-1.271.58-1.271 1.094 0 .775.786 1.476 1.328 1.974.483-1.039 2.484-.88 2.484-.88.387 0 .591 0 1.095.069-.044.273-.048.649-.046.933.004.44.004.754.006 1.079 0 1.244-.046 1.907-.962 2.749.165.114.641.494 1.332.494 1.408 0 1.61-1.021 1.61-3.241 0-.264.008-.24-.01-.47.701.766 1.533 1.863 1.533 2.804 0 .17.01.4-.06.646 1.113 0 1.954-1.151 1.954-1.919 0-1.159-1.78-2.596-2.35-3.23.091-.006.158-.012.195-.012 1.946 0 2.337.655 2.533 1.142.52-.424.968-1.184.968-2.14 0-.55-.117-1.168-1.172-1.168-1.005 0-2.54.15-3.598.34-.811-1.136-2.414-3.332-3.164-5.031.302.055.733.088 1.399.088.334 0 .69-.027.899-.12-3.225-2.793-5.915-6.413-5.915-10.51 0-.657.157-1.312.376-2.02.082-.015.168-.028.248-.042l8.143 13.041c2.436 3.855 4.348 3.79 7.229 3.79-2.374-1.822-3.967-4.172-4.71-5.365L35.29 25.002c.414-.134.82-.277 1.22-.434l6.761 10.83c2.438 3.857 4.348 3.792 7.233 3.792-2.4-1.846-3.957-4.156-4.715-5.366L39.223 23.31c.372-.202.737-.42 1.09-.645l5.382 8.618c2.438 3.86 4.348 3.79 7.229 3.79-2.398-1.84-3.955-4.155-4.714-5.363l-5.518-8.841c.324-.289.633-.596.923-.907l3.912 6.265c2.44 3.857 4.348 3.79 7.23 3.79-2.396-1.838-3.956-4.164-4.714-5.368L45.5 17.375c.245-.452.453-.914.62-1.39l2.286 3.66z" fill="#1D1D1B"/><path fill="#1D1D1B" d="M78.4398487 2.98121818L78.4398487 50.6531273 74.8682697 50.6531273 70.1023487 50.6531273 70.1023487 2.98121818z"/></g><path d="M101.651 6.536c0-1.417-.585-2.186-2.137-2.186-.484 0-2.218.082-2.218 2.604v4.072c0 2.636.765 3.304 2.218 3.304 1.103 0 1.836-.3 2.154-.532V10.19h-2.22V8.857h3.754v5.858c-.982.534-2.136.9-3.688.9-2.554 0-3.789-1.32-3.789-4.658V7.003c0-2.403 1.235-3.938 3.79-3.938 2.604 0 3.84.953 3.739 3.471h-1.603z" fill="#1D1D1B"/><path fill="#1D1D1B" d="M106.074559 15.3653111L106.074559 3.31621852 112.284757 3.31621852 112.284757 4.6514037 107.610414 4.6514037 107.610414 8.52153333 111.950875 8.52153333 111.950875 9.85671852 107.610414 9.85671852 107.610414 14.0301259 112.385875 14.0301259 112.385875 15.3653111z"/><path fill="#1D1D1B" d="M114.306171 15.3653111L114.306171 3.31621852 120.281697 3.31621852 120.281697 4.6514037 115.842026 4.6514037 115.842026 8.52153333 120.048934 8.52153333 120.048934 9.85671852 115.842026 9.85671852 115.842026 15.3653111z"/><mask id="d" fill="#fff"><use xlink:href="#c"/></mask><path d="M126.276 1.896h1.568V.162h-1.568v1.734zm1.517 9.13V6.953c0-2.52-1.736-2.603-2.22-2.603-.484 0-2.22.084-2.22 2.603v4.075c0 2.636.769 3.303 2.22 3.303 1.453 0 2.22-.667 2.22-3.303zm-4.455-9.13h1.568V.162h-1.568v1.734zm-1.555 9.062V7.004c0-2.403 1.236-3.94 3.79-3.94 2.554 0 3.79 1.537 3.79 3.94v3.954c0 3.338-1.236 4.656-3.79 4.656-2.554 0-3.79-1.318-3.79-4.656zm11.753-2.468h2.305c1.1 0 1.635-.952 1.635-2.005 0-.866-.433-1.835-1.62-1.835h-2.32v3.84zm0 1.333v5.541H132V3.315h4.157c2.137 0 2.889 1.503 2.889 3.004 0 1.418-.784 2.505-2.205 2.755v.032c1.387.218 1.888.687 1.972 3.104.014.518.182 2.405.414 3.154h-1.6c-.435-.833-.334-2.401-.468-4.005-.116-1.469-1.303-1.536-1.82-1.536h-1.803zm9.35 4.207h1.451c2.137 0 2.921-.801 2.921-3.605V7.989c0-2.438-.752-3.338-2.352-3.338h-2.02v9.379zm-1.538-10.714h3.708c1.534 0 2.64.551 3.238 1.835.485 1.018.534 3.422.534 3.805 0 2.571-.234 4.057-.736 4.858-.649 1.034-1.868 1.55-3.972 1.55h-2.772V3.317z" fill="#1D1D1B" mask="url(#d)"/><path fill="#1D1D1B" mask="url(#d)" d="M151.515651 15.3653111L151.515651 3.31621852 157.725849 3.31621852 157.725849 4.6514037 153.051507 4.6514037 153.051507 8.52153333 157.391967 8.52153333 157.391967 9.85671852 153.051507 9.85671852 153.051507 14.0301259 157.826967 14.0301259 157.826967 15.3653111z"/><path d="M161.367 8.49h2.301c1.103 0 1.635-.952 1.635-2.005 0-.866-.433-1.835-1.621-1.835h-2.315v3.84zm0 1.333v5.541h-1.538V3.315h4.156c2.139 0 2.887 1.503 2.887 3.004 0 1.418-.783 2.505-2.202 2.755v.032c1.383.218 1.885.687 1.967 3.104.019.518.187 2.405.422 3.154h-1.603c-.435-.833-.336-2.401-.47-4.005-.116-1.469-1.304-1.536-1.818-1.536h-1.8z" fill="#1D1D1B" mask="url(#d)"/><path fill="#1D1D1B" mask="url(#d)" d="M175.904651 3.31545556L175.904651 4.65064074 172.73373 4.65064074 172.73373 15.3645481 171.197875 15.3645481 171.197875 4.65064074 168.023138 4.65064074 168.023138 3.31545556z"/><path fill="#1D1D1B" mask="url(#d)" d="M185.388224 15.3653111L183.550921 15.3653111 180.063289 3.31621852 181.728882 3.31621852 184.485789 13.9137741 184.516316 13.9137741 187.336184 3.31621852 188.910197 3.31621852z"/><path d="M196.437 11.027V6.953c0-2.52-1.733-2.604-2.217-2.604-.485 0-2.22.084-2.22 2.604v4.074c0 2.636.766 3.302 2.22 3.302 1.45 0 2.217-.666 2.217-3.302m-6.006-.069V7.004c0-2.403 1.232-3.94 3.789-3.94 2.553 0 3.785 1.537 3.785 3.94v3.954c0 3.338-1.232 4.656-3.785 4.656-2.557 0-3.79-1.318-3.79-4.656" fill="#1D1D1B" mask="url(#d)"/><path fill="#1D1D1B" mask="url(#d)" d="M202.130763 15.3653111L200.696026 15.3653111 200.696026 3.31621852 203.182013 3.31621852 206.219382 13.4292926 206.255632 13.4292926 209.325434 3.31621852 211.864842 3.31621852 211.864842 15.3653111 210.328987 15.3653111 210.328987 4.6514037 210.290829 4.6514037 206.923395 15.3653111 205.469579 15.3653111 202.165105 4.6514037 202.130763 4.6514037z"/></g></svg>