<svg enable-background="new 0 0 357 225" viewBox="0 0 357 225" xmlns="http://www.w3.org/2000/svg" xmlns:xlink="http://www.w3.org/1999/xlink"><linearGradient id="a"><stop offset="0" stop-color="#050759"/><stop offset="1" stop-color="#151a8a"/></linearGradient><linearGradient id="b" gradientTransform="matrix(1 .0101 -.0101 1 -40.9231 -28.1816)" gradientUnits="userSpaceOnUse" x1="165.5575" x2="293.2216" xlink:href="#a" y1="119.0506" y2="119.0506"/><linearGradient id="c" gradientTransform="matrix(1 .0101 -.0101 1 -40.9231 -28.1816)" gradientUnits="userSpaceOnUse" x1="177.789" x2="174.1102" xlink:href="#a" y1="67.564" y2="88.2994"/><linearGradient id="d" gradientTransform="matrix(-.9235 .3836 .5598 1.3475 -2345.239 -1391.9288)" gradientUnits="userSpaceOnUse" x1="-1689.8604" x2="-1715.8289" xlink:href="#a" y1="1602.3412" y2="1629.0291"/><linearGradient id="e" gradientUnits="userSpaceOnUse" x1="175.4901" x2="133.0456" xlink:href="#a" y1="97.8562" y2="125.6647"/><linearGradient id="f" gradientUnits="userSpaceOnUse" x1="230.5561" x2="196.1614" xlink:href="#a" y1="84.2305" y2="97.037"/><linearGradient id="g" gradientTransform="matrix(-.9264 .3766 .3766 .9264 -1568.158 365.0149)" gradientUnits="userSpaceOnUse" x1="-1736.3804" x2="-1732.7552" xlink:href="#a" y1="418.7455" y2="415.5945"/><linearGradient id="h" gradientUnits="userSpaceOnUse" x1="207.5864" x2="204.5239" xlink:href="#a" y1="77.698" y2="82.6321"/><path d="m41.146 127.937s1.418-31.744 60.671-24.956 46.197 14.509 78.725 16.149 70.02-10.96 111.774 20.34 44.754 34.3 38.754 44.3-24 29-111 2-98.842 10.43-129.921 8.215-52.927-6.88-49.003-66.048z" fill="#dbe8ff" opacity=".33"/><path d="m274.118 159.352h-18.199l9.1-15.76 9.099-15.761 9.099 15.761 9.099 15.76z" fill="#59595b"/><circle cx="274.118" cy="120.326" fill="#c0b1b0" r="12.383"/><path d="m123.773 59.026-.636 62.756c-.052 5.163 3.617 9.422 8.272 9.602 20.675.801 92.993 2.967 112.684 2.845 3.384-.021 6.156-2.994 6.291-6.742.527-14.575 1.499-49.627-.617-65.926-.446-3.432-3.03-6.022-6.157-6.165-17.322-.79-93.98-3.518-113.662-3.228-3.396.051-6.137 3.096-6.175 6.858z" fill="url(#b)"/><path d="m131.036 59.785-.634 62.528c-.032 3.161 2.046 5.758 4.666 5.832l105.781 2.649c2.598.073 4.753-2.426 4.794-5.56l.805-61.967c.03-2.241-1.432-4.092-3.289-4.165l-108.29-3.737c-2.076-.083-3.808 1.914-3.833 4.42z" fill="#8098ec"/><path d="m135.1 62.272-.586 57.819c-.03 2.923 1.897 5.324 4.327 5.393l98.105 2.452c2.409.068 4.408-2.243 4.446-5.141l.745-57.301c.027-2.072-1.328-3.784-3.05-3.852l-100.432-3.459c-1.926-.075-3.532 1.772-3.555 4.089z" fill="#bfcff6"/><path d="m126.645 104.137c-.736-.007-1.332-.616-1.324-1.351l.234-23.076c.007-.736.616-1.332 1.351-1.324.736.007 1.332.616 1.324 1.351l-.234 23.076c-.007.735-.616 1.331-1.351 1.324z" fill="url(#c)"/><path d="m119.788 127.89 4.077-1.694c1.307-.543 1.926-2.042 1.383-3.349-.543-1.307-2.042-1.926-3.349-1.383l-4.077 1.694c-1.307.543-1.926 2.042-1.383 3.348.543 1.308 2.042 1.927 3.349 1.384z" fill="url(#d)"/><path d="m120.327 119.035 62.371-22.183 3.3 9.166-62.35 22.802c-1.324.484-2.802-.053-3.512-1.271-.729-1.252-1.425-3.207-1.467-6.136-.015-1.065.655-2.021 1.658-2.378z" fill="url(#e)"/><path d="m182.699 96.852c-.395 5.745 3.3 9.166 3.3 9.166l9.025-6.496c-1.314-1.76-1.467-2.444-1.476-3.63z" fill="url(#f)"/><path d="m193.69 97.95c.408 1.002 1.005 1.707 1.334 1.573s.266-1.055-.142-2.057-1.005-1.707-1.334-1.573c-.329.133-.266 1.054.142 2.057z" fill="url(#g)"/><path d="m194.929 98.286 1.656-.673c.397-.161.589-.618.428-1.014-.161-.397-.618-.589-1.014-.428l-1.656.673c-.397.161-.589.618-.428 1.014.161.397.618.59 1.014.428z" fill="url(#h)"/><path d="m209.215 71.713s-.017-.121-.049-.355c-.004-.029-.009-.06-.013-.093-.007-.027-.015-.056-.023-.086-.015-.06-.032-.126-.05-.198-.014-.071-.045-.152-.076-.237-.033-.085-.058-.179-.102-.273-.158-.381-.422-.829-.821-1.286-.396-.46-.951-.911-1.639-1.293-.347-.185-.725-.361-1.14-.487-.102-.036-.207-.068-.315-.092-.054-.014-.107-.027-.162-.041l-.081-.021-.02-.005c-.011-.003.027.006 0 0l-.046-.008c-.242-.043-.5-.095-.716-.109-.221-.03-.472-.034-.721-.045-.125-.005-.253.002-.381.003-.128.002-.257.002-.389.015-.524.024-1.067.107-1.623.206-.555.113-1.122.258-1.694.445-.569.194-1.145.419-1.711.696-.563.28-1.12.604-1.646.981-.527.375-1.017.813-1.427 1.306-.41.492-.736 1.044-.906 1.626-.165.583-.169 1.19-.007 1.796.043.151.078.304.15.453.064.15.115.303.206.449l.121.222c.021.037.039.075.061.111l.075.108.148.217.074.109.037.054c-.041-.054.002.002-.001-.002l.024.03.193.238.096.118.084.086.166.173c.055.058.129.119.192.179.257.245.552.46.854.669 1.234.815 2.762 1.345 4.387 1.663.203.042.408.078.615.112l.155.026.145.021.33.047c.453.07.853.106 1.282.155.866.085 1.752.142 2.652.188 1.804.092 3.674.126 5.611.277.967.077 1.95.173 2.944.34.248.034.497.088.746.133l.187.035.094.018.047.009c.031.007-.004-.003.081.017l.35.08.35.08c.116.026.231.052.364.091l.773.217c.994.306 1.962.667 2.911 1.093.943.435 1.86.93 2.749 1.476.882.556 1.735 1.163 2.553 1.819.811.665 1.584 1.379 2.315 2.14.721.77 1.39 1.594 1.987 2.471.599.875 1.106 1.815 1.556 2.778.452.962.807 1.972 1.084 2.999.147.511.244 1.037.348 1.557.076.528.158 1.052.188 1.583.075 1.057.066 2.121-.077 3.161-.017.13-.027.261-.05.39l-.07.386-.071.385-.036.192-.047.189c-.064.252-.127.503-.191.754l-.034.13-.027.084-.054.169-.108.337c-.085.243-.188.51-.284.761-.103.242-.209.476-.314.713-.117.23-.234.46-.351.689-.128.222-.257.444-.385.665-.535.87-1.156 1.674-1.848 2.398-.691.725-1.456 1.364-2.267 1.917-.207.132-.413.264-.619.396-.21.124-.426.24-.637.358-.214.115-.436.214-.653.32l-.082.039-.071.033-.038.016-.154.062-.307.124-.154.062-.178.061-.355.12c-.239.087-.465.138-.695.202-.228.067-.459.113-.69.159l-.345.07-.347.05c-.923.137-1.845.182-2.752.128-1.813-.11-3.553-.627-5.062-1.474-.185-.113-.369-.226-.552-.338-.025-.017.008.008-.065-.043l-.03-.022-.059-.043-.118-.086-.236-.172-.235-.171-.059-.043-.062-.053-.124-.106c-.165-.143-.328-.285-.491-.427-.158-.144-.292-.297-.438-.444l-.213-.223c-.071-.074-.131-.157-.197-.235-.128-.158-.256-.316-.383-.473-.114-.165-.227-.33-.34-.493-.055-.082-.115-.162-.165-.247l-.148-.253c-.096-.169-.201-.334-.288-.504-.172-.34-.347-.675-.488-1.013-.302-.673-.544-1.333-.768-1.972-.441-1.277-.827-2.457-1.279-3.512-.112-.264-.234-.516-.347-.768l-.021-.047c-.009-.017 0-.003-.006-.013l-.012-.024-.048-.096c-.032-.061-.065-.132-.095-.185-.06-.11-.115-.219-.182-.331-.254-.445-.538-.847-.841-1.202-.604-.717-1.298-1.213-1.982-1.527-.347-.158-.71-.281-1.057-.386-.187-.056-.347-.102-.514-.147-.166-.045-.327-.085-.483-.121-.624-.144-1.162-.24-1.601-.299-.439-.06-.779-.088-1.007-.107-.229-.016-.348-.024-.348-.024l-.013-.001c-.264-.018-.464-.248-.445-.512.017-.249.224-.441.469-.446 0 0 .126-.003.37-.007s.606 0 1.078.029c.472.031 1.055.079 1.733.199.17.029.345.062.526.1.18.037.378.081.558.124.388.094.801.205 1.244.375.891.345 1.79.956 2.551 1.784.384.413.739.876 1.058 1.385.081.124.16.261.238.398.04.07.069.127.104.192l.051.095.031.059.025.05c.13.27.269.542.397.823.513 1.123.944 2.344 1.406 3.58.236.614.468 1.241.75 1.843.133.308.292.599.446.897.078.149.17.287.254.432l.13.216c.044.072.096.137.143.207.096.137.194.275.291.413.108.129.216.259.325.39.056.064.106.134.166.194l.181.182c.122.119.24.251.365.361.126.107.253.214.38.322l.095.082.047.041.059.042.237.168.238.168.12.084.06.042.03.021c-.053-.036.002 0-.003-.004.152.09.305.18.459.271 1.253.689 2.738 1.072 4.279 1.122.771.021 1.555-.036 2.331-.184l.291-.056.288-.073c.192-.048.385-.095.573-.161.187-.062.386-.117.556-.19l.265-.102.133-.051.15-.069.301-.138.151-.069.038-.017c-.049.022.005-.004.003-.004l.066-.036c.176-.098.357-.188.53-.292.171-.108.346-.211.516-.323.166-.117.332-.235.499-.353.656-.488 1.254-1.066 1.793-1.699.538-.634 1.011-1.33 1.407-2.07.094-.187.188-.375.282-.563.083-.192.166-.385.25-.579.072-.196.144-.393.217-.59.057-.193.116-.367.175-.573l.087-.343.044-.172.022-.086c-.017.06 0-.006-.002-.003l.007-.039c.039-.21.078-.421.118-.631l.029-.158.018-.16.038-.319.038-.319c.012-.106.013-.214.019-.321.068-.854.027-1.717-.083-2.571-.046-.429-.141-.852-.223-1.277-.112-.42-.211-.842-.357-1.255-.275-.827-.611-1.641-1.033-2.417-.832-1.559-1.903-3-3.096-4.342-2.394-2.685-5.538-4.757-8.889-5.93l-.606-.199c-.095-.034-.213-.066-.33-.097l-.347-.095-.346-.095-.293-.067c-.219-.048-.435-.106-.657-.145-.88-.184-1.781-.316-2.688-.43-1.815-.226-3.667-.347-5.515-.525-.925-.09-1.849-.192-2.769-.325-.462-.073-.951-.145-1.376-.231l-.328-.062-.183-.035-.172-.037c-.229-.048-.456-.1-.683-.157-.907-.223-1.799-.503-2.659-.869-.859-.366-1.692-.807-2.451-1.366-.376-.284-.743-.582-1.072-.922-.083-.086-.166-.161-.249-.256l-.247-.286-.12-.145-.092-.124-.182-.247-.069-.094-.046-.074-.092-.147-.181-.294-.09-.147c-.028-.051-.053-.105-.079-.157l-.154-.315c-.109-.204-.183-.432-.263-.653-.088-.217-.138-.453-.191-.684-.206-.93-.15-1.928.149-2.799.3-.872.798-1.606 1.351-2.213.557-.609 1.173-1.103 1.807-1.514.633-.412 1.281-.749 1.927-1.034.648-.281 1.296-.502 1.934-.687.639-.178 1.271-.31 1.888-.406.62-.083 1.222-.146 1.811-.147.146-.007.293-.001.438.003.145.006.288.005.43.016.286.025.56.042.849.093.297.038.531.099.773.153l.045.01c-.012-.003.041.009.045.011l.024.007.096.029c.064.019.127.038.189.057.126.035.248.078.367.126.482.172.915.396 1.311.632.785.483 1.407 1.04 1.854 1.606.449.564.742 1.117.913 1.589.047.116.075.233.109.338.032.106.064.203.081.305.019.099.037.189.054.272.008.041.015.081.022.118.003.033.006.064.009.094.022.236.033.357.033.357.022.236-.152.446-.389.468-.23.021-.434-.144-.466-.37z" fill="#7dfaa2"/><path d="m266.57 82.27h12v12h-12z" fill="none" stroke="#3859f5" stroke-miterlimit="10"/><path d="m269.57 87.27 3 3.57 7-10.57" fill="none" stroke="#3859f5" stroke-miterlimit="10"/><path d="m285.57 70.27h12v12h-12z" fill="none" stroke="#3859f5" stroke-miterlimit="10"/><path d="m288.57 75.27 3 3.57 7-10.57" fill="none" stroke="#3859f5" stroke-miterlimit="10"/><path d="m210.118 163.352h-18.199l9.1-15.76 9.099-15.761 9.099 15.761 9.099 15.76z" fill="#61616b"/><circle cx="210.118" cy="124.326" fill="#a1a1ac" r="12.383"/><path d="m188.009 50.088c0-12.821-10.394-23.215-23.215-23.215-12.822 0-23.259 10.475-23.215 23.297.022 6.367 2.607 12.129 6.777 16.31 3.246 3.255 5.621 7.274 6.821 11.711l1.872 6.923h15.218l1.773-6.557c1.226-4.533 3.681-8.623 7.029-11.916 4.284-4.211 6.94-10.072 6.94-16.553z" fill="#7dfaa2"/><path d="m168.309 93.222h-7.42c-2.102 0-3.901-1.552-4.02-3.522l-.626-7.603 16.804-.108-.717 7.71c-.12 1.971-1.919 3.523-4.021 3.523z" fill="#61616b"/><path d="m171.536 85.305c-4.694.201-9.405-.04-14.098.168-.417.018-.386.627.023.64 4.697.156 9.407-.135 14.105.014.527.017.504-.845-.03-.822z" fill="#808082"/><path d="m171.536 87.344c-4.694.201-9.405-.04-14.098.168-.417.018-.386.627.023.64 4.697.156 9.407-.135 14.105.014.527.017.504-.845-.03-.822z" fill="#808082"/><g fill="#7dfaa2"><path d="m166.687 15.068c0 1.496-.795 6.874-1.777 6.874-.981 0-1.777-5.378-1.777-6.874s.795-2.709 1.777-2.709c.982.001 1.777 1.213 1.777 2.709z"/><path d="m188.825 23.329c-1.135.975-4.695 5.083-4.056 5.827s5.237-2.157 6.372-3.132 1.536-2.369.897-3.113c-.64-.744-2.079-.557-3.213.418z"/><path d="m197.453 47.329c-1.484.188-6.92.077-7.043-.896-.124-.973 5.111-2.44 6.595-2.629 1.484-.188 2.787.448 2.911 1.421.124.974-.979 1.916-2.463 2.104z"/><path d="m143.028 21.542c1.178.922 4.922 4.865 4.317 5.637-.605.773-5.33-1.917-6.507-2.84-1.178-.922-1.642-2.296-1.037-3.069.604-.772 2.049-.65 3.227.272z"/><path d="m131.786 43.484c1.484.188 6.92.077 7.043-.896.124-.973-5.111-2.44-6.596-2.629-1.484-.189-2.787.448-2.911 1.421-.123.974.979 1.916 2.464 2.104z"/></g><path d="m174.814 61.908c-.746-.546-1.326-1.26-1.748-2.064.842-1.039 1.213-2.437 1.367-3.736.094-.794.121-1.591.134-2.39.012-.77-.089-1.425-.741-1.904-.582-.428-1.358-.042-1.805.373-.515.479-.764 1.263-.963 1.915-.402 1.318-.394 2.731-.142 4.075.088.469.219.929.388 1.374-.329.258-.703.462-1.115.594-1.268.406-2.231-.325-2.818-1.406-.097-.178-.188-.366-.274-.562.1-.267.195-.534.284-.799.432-1.285.67-2.631.778-3.979.089-1.118.121-2.454-.954-3.116-.346-.213-.734-.052-.952.25-1.572 2.18-1.483 5.072-.63 7.546-.275.657-.598 1.295-.956 1.911-.394.679-1.146 1.725-2.059 1.593-.85-.124-1.529-1.19-1.951-1.85-.31-.483-.553-1-.744-1.536.108-.284.208-.571.301-.862.363-1.142.565-2.333.66-3.525.079-.996.111-2.395-.978-2.871-.317-.139-.785-.124-.953.25-.956 2.128-1.139 4.462-.536 6.717.02.076.045.152.067.228-.66 1.681-1.665 3.238-2.884 4.562-.547.594.319 1.471.889.889 1.088-1.11 1.992-2.371 2.698-3.739.21.394.445.773.705 1.132.711.985 1.603 1.907 2.882 1.976 1.195.065 2.166-.94 2.814-1.814.311-.419.582-.876.824-1.352.585.933 1.43 1.672 2.58 1.834 1.058.148 2.084-.181 2.951-.761.508.865 1.165 1.643 1.93 2.284.871.729 1.869-.565.951-1.237zm-7.996-9.682c.049.556-.08 1.243-.111 1.58-.057.616-.164 1.226-.306 1.829-.145-1.186-.048-2.402.417-3.409zm5.423 3.498c.044-.578.196-1.146.389-1.69.087-.247.199-.478.338-.7.011-.017.06-.08.109-.135.007.038.023.091.027.168.074 1.408-.042 2.929-.481 4.272-.054.167-.12.328-.194.485-.184-.789-.248-1.606-.188-2.4z" fill="#fff"/><path d="m176.134 58.493c-2.469 7.534-5.067 15.03-7.858 22.451-.334.888 1.034 1.433 1.367.545 2.782-7.432 5.365-14.931 7.682-22.521.239-.783-.932-1.264-1.191-.475z" fill="#fff"/><path d="m153.683 58.017c1.97 7.68 3.81 15.397 5.447 23.155.196.929 1.643.652 1.445-.275-1.651-7.762-3.505-15.474-5.633-23.119-.219-.789-1.466-.565-1.259.239z" fill="#fff"/><g fill="#96b3f3" opacity=".3"><path d="m258.628 45.724c-.191.225-.529.252-.754.061-.437-.371-.897-.73-1.366-1.064-.238-.169-.295-.497-.131-.737.002-.003.004-.006.006-.009.171-.24.505-.296.746-.125.494.352.978.729 1.438 1.12.21.179.248.486.095.709-.01.016-.021.031-.034.045zm-4.517-2.475c-.511-.267-1.037-.515-1.566-.738-.272-.114-.4-.428-.286-.7.116-.273.428-.4.7-.286.557.234 1.111.495 1.648.776.262.137.363.46.226.722-.01.019-.021.037-.033.054-.151.221-.447.299-.689.172zm-4.229-1.643c-.556-.147-1.125-.271-1.691-.369-.291-.051-.486-.327-.435-.618s.327-.486.618-.435c.597.104 1.196.234 1.781.389.285.075.456.368.381.653-.016.061-.042.116-.076.166-.124.18-.353.273-.578.214zm-4.49-.656c-.575-.019-1.158-.013-1.732.018-.295.016-.547-.211-.562-.505-.015-.295.211-.546.505-.562.604-.032 1.218-.038 1.823-.019.295.01.527.257.517.552-.003.106-.037.203-.093.284-.099.145-.268.238-.458.232zm-4.524.361c-.564.109-1.131.244-1.685.401-.284.08-.58-.085-.66-.369-.081-.284.085-.58.369-.66.583-.165 1.18-.307 1.773-.422.29-.056.57.133.626.423.028.146-.006.29-.084.404-.076.112-.195.195-.339.223zm-4.331 1.353c-.526.231-1.049.488-1.554.764-.259.141-.584.046-.725-.213s-.046-.584.213-.725c.531-.29 1.082-.56 1.636-.804.27-.119.586.004.705.274.077.176.052.37-.049.518-.055.078-.131.144-.226.186zm-12.422 15.485c-.291-.051-.485-.328-.434-.619.105-.596.237-1.195.392-1.781.076-.285.369-.455.654-.379s.455.369.379.654c-.148.556-.273 1.125-.372 1.691-.014.078-.043.148-.085.209-.115.168-.321.263-.534.225zm8.5-13.208c-.461.343-.914.709-1.344 1.09-.221.196-.559.175-.755-.046s-.174-.558.046-.755c.453-.401.929-.787 1.415-1.148.237-.176.572-.126.748.111.14.188.137.438.012.621-.031.048-.073.091-.122.127zm-7.298 8.706c-.272-.115-.399-.428-.285-.7.235-.557.498-1.111.78-1.648.136-.262.461-.362.722-.224.261.137.362.461.224.722-.268.51-.517 1.036-.741 1.566-.014.034-.032.065-.052.094-.14.206-.41.291-.648.19zm3.985-5.609c-.373.437-.732.896-1.067 1.364-.172.24-.506.296-.746.124-.237-.17-.294-.497-.13-.736.002-.003.004-.006.007-.009.352-.493.73-.976 1.123-1.436.192-.224.529-.251.754-.06.21.179.247.485.094.708-.011.015-.023.03-.035.045z"/><path d="m224.338 61.665c.059-.087.094-.192.093-.305-.002-.276.002-.556.011-.833.01-.295-.222-.542-.517-.552s-.543.221-.552.517c-.01.292-.014.586-.011.876.002.295.243.533.538.531.182-.002.342-.094.438-.234z"/></g><g fill="#96b3f3" opacity=".3"><path d="m230.815 76.622c.146-.213.12-.506-.074-.689-.2-.19-.399-.387-.592-.586-.206-.212-.544-.217-.756-.011-.213.207-.217.544-.011.756.203.209.413.417.624.617.214.203.553.194.756-.02.019-.022.037-.044.053-.067z"/><path d="m261.711 74.156c-.178.235-.514.281-.749.103-.235-.179-.281-.513-.103-.749.34-.448.666-.917.973-1.4.157-.248.489-.323.738-.164s.323.489.164.738c-.133.209-.269.415-.408.618-.198.29-.405.577-.615.854zm1.708-3.768c-.268-.123-.386-.441-.262-.709.237-.515.454-1.046.646-1.577.099-.278.407-.421.685-.321s.421.407.321.684c-.202.56-.431 1.118-.68 1.66-.013.028-.028.055-.045.079-.146.212-.425.294-.665.184zm-3.624 5.963c-.421.42-.866.828-1.322 1.212-.226.19-.563.161-.753-.065s-.161-.563.065-.753c.433-.365.856-.752 1.255-1.151.209-.209.547-.208.756.001.184.185.205.471.063.679-.019.027-.04.053-.064.077zm5.179-10.276c-.289-.061-.473-.345-.412-.634.118-.554.213-1.119.283-1.68.037-.293.304-.501.597-.464s.501.304.464.597c-.074.591-.175 1.186-.298 1.769-.015.07-.043.135-.081.191-.119.173-.334.267-.553.221zm-8.851 13.206c-.503.317-1.026.617-1.556.892-.262.136-.585.034-.721-.228s-.034-.585.228-.721c.503-.261 1-.546 1.477-.847.25-.158.58-.083.737.167.117.186.106.417-.011.587-.038.059-.09.11-.154.15zm-4.226 2.054c-.561.2-1.137.379-1.713.531-.286.076-.578-.094-.654-.38s.094-.578.38-.654c.547-.145 1.094-.315 1.628-.505.278-.099.584.046.683.324.06.168.031.345-.063.482-.061.091-.15.163-.261.202zm-4.573 1.084c-.592.073-1.193.122-1.788.146-.295.012-.544-.218-.555-.513-.012-.295.218-.544.513-.555.565-.022 1.136-.069 1.699-.138.293-.036.56.172.596.465.017.135-.018.264-.089.367-.084.122-.217.209-.376.228zm-4.7.061c-.593-.058-1.191-.142-1.777-.25-.29-.053-.482-.332-.429-.623.053-.29.332-.482.623-.429.556.102 1.124.182 1.687.237.294.029.509.29.48.584-.009.093-.041.178-.091.25-.106.156-.292.251-.493.231zm-4.602-.974c-.565-.187-1.129-.401-1.677-.635-.272-.116-.398-.43-.281-.702.116-.271.43-.397.702-.281.521.223 1.056.426 1.593.603.28.093.432.395.339.675-.016.049-.039.094-.066.134-.132.193-.378.283-.61.206zm-4.271-1.958c-.376-.225-.75-.464-1.111-.712-.131-.09-.26-.18-.388-.272-.24-.172-.302-.506-.123-.746.172-.24.506-.295.746-.123.122.087.245.174.369.259.343.235.698.462 1.056.676.253.152.336.48.184.733-.006.009-.012.019-.018.028-.158.232-.471.303-.715.157z"/><path d="m265.977 61.279c.06-.088.095-.194.093-.308-.004-.289-.013-.584-.029-.876-.016-.295-.268-.521-.562-.505-.295.016-.521.267-.505.562.015.277.024.557.028.832.004.295.246.531.541.528.18-.002.339-.094.434-.233z"/></g><path d="m259.423 54.873c-.03-.102-.122-.174-.228-.179l-3.038-.139c-.701-1.235-1.604-2.367-2.694-3.341l.506-2.997c.018-.105-.033-.21-.127-.261l-3.203-1.746c-.094-.051-.209-.037-.288.035l-2.245 2.048c-1.409-.389-2.85-.534-4.268-.455l-1.763-2.478c-.062-.087-.172-.125-.274-.095l-3.499 1.03c-.102.03-.174.122-.179.228l-.139 3.038c-1.235.701-2.367 1.604-3.341 2.694l-2.997-.506c-.105-.018-.21.033-.261.127l-1.746 3.203c-.051.094-.037.209.035.288l2.048 2.245c-.389 1.409-.534 2.85-.455 4.268l-2.478 1.763c-.087.062-.125.172-.095.274l1.03 3.499c.03.102.122.174.228.179l3.038.139c.701 1.235 1.604 2.367 2.694 3.341l-.506 2.997c-.018.105.033.21.127.261l3.203 1.746c.094.051.209.037.288-.035l2.245-2.048c1.409.389 2.85.534 4.268.455l1.763 2.478c.062.087.172.125.274.095l3.499-1.03c.102-.03.174-.122.179-.228l.139-3.038c1.235-.701 2.367-1.604 3.341-2.694l2.997.506c.105.018.21-.033.261-.127l1.746-3.203c.051-.094.037-.209-.035-.288l-2.048-2.245c.389-1.409.534-2.85.455-4.268l2.478-1.763c.087-.062.125-.172.095-.274z" fill="#96b3f3"/><path d="m247.265 63.634c-1.373 1.484-3.697 1.575-5.181.202-.719-.665-1.136-1.57-1.174-2.549-.038-.978.307-1.914.972-2.632 1.373-1.484 3.697-1.575 5.181-.202 1.35 1.249 1.547 3.285.538 4.76-.1.147-.212.288-.336.421zm-5.501-2.38c.029.75.349 1.444.9 1.954 1.138 1.052 2.92.983 3.973-.155s.983-2.92-.155-3.973c-1.138-1.052-2.92-.983-3.973.155-.095.103-.182.212-.26.326-.338.495-.509 1.083-.485 1.693z" fill="#bfcff6"/><path d="m251.929 66.266c.173-.253.335-.517.484-.79.047-.086.092-.173.137-.26.217-.431.4-.879.546-1.337.002-.006.004-.012.006-.019.006-.018.011-.035.016-.053.011-.035.021-.069.031-.104.027-.091-.01-.186-.084-.237-.018-.012-.038-.022-.061-.029-.113-.033-.232.032-.265.145-.172.583-.408 1.151-.701 1.689-1.456 2.672-4.135 4.262-6.967 4.455-1.575.108-3.198-.216-4.684-1.027-.261-.142-.512-.296-.754-.462-1.626-1.113-2.81-2.738-3.374-4.654-.648-2.201-.4-4.522.698-6.536 2.268-4.159 7.494-5.696 11.651-3.429.256.14.505.292.744.456 1.037.71 1.907 1.639 2.545 2.724.017.028.038.051.064.068.066.045.155.051.229.008.102-.06.136-.191.076-.293-.669-1.139-1.583-2.114-2.672-2.86-.251-.172-.512-.332-.781-.479-4.365-2.38-9.852-.764-12.232 3.6-1.153 2.114-1.413 4.551-.733 6.861.592 2.011 1.835 3.717 3.542 4.886.254.174.518.335.791.485 2.114 1.153 4.551 1.413 6.861.733 2.012-.59 3.718-1.833 4.887-3.541z" fill="#bfcff6"/><path d="m71.951 119.13h-18.198l9.099-15.76 9.099-15.761 9.099 15.761 9.1 15.76z" fill="#61616b"/><circle cx="71.951" cy="80.105" fill="#a1a1ac" r="12.383"/><path d="m114.411 142.671h-18.508l9.254-16.028 9.254-16.029 9.254 16.029 9.254 16.028z" fill="#3859f5"/><circle cx="114.411" cy="102.981" fill="#a1a1ac" r="12.594"/><path d="m78.186 176.033h-26.141l13.071-22.639 13.07-22.639 13.071 22.639 13.071 22.639z" fill="#3859f5"/><circle cx="78.186" cy="119.975" fill="#a1a1ac" r="17.788"/><path d="m273.951 160.568h-18.508l9.254-16.029 9.254-16.029 9.254 16.029 9.254 16.029z" fill="#3859f5"/><circle cx="273.951" cy="120.878" fill="#a1a1ac" r="12.594"/><path d="m249.215 199.156h-25.703l12.852-22.261 12.851-22.26 12.852 22.26 12.852 22.261z" fill="#61616b"/><circle cx="249.215" cy="144.035" fill="#a1a1ac" r="17.49"/><path d="m99.997 52.945c6.18 0 11.073 5.009 11.073 11.189s-5.067 11.189-11.247 11.189c-3.119 0-5.736-1.278-7.764-3.337l-2.989 4.053v-12.683c0-5.814 5.01-10.411 10.927-10.411z" fill="#96b3f3"/><path d="m96.298 64.34c0 .828-.672 1.5-1.5 1.5s-1.5-.672-1.5-1.5.672-1.5 1.5-1.5 1.5.672 1.5 1.5z" fill="#fff"/><path d="m101.753 64.34c0 .828-.672 1.5-1.5 1.5s-1.5-.672-1.5-1.5.672-1.5 1.5-1.5 1.5.672 1.5 1.5z" fill="#fff"/><path d="m107.208 64.34c0 .828-.672 1.5-1.5 1.5s-1.5-.672-1.5-1.5.672-1.5 1.5-1.5 1.5.672 1.5 1.5z" fill="#fff"/></svg>