<svg height="109" viewBox="0 0 112 109" width="112" xmlns="http://www.w3.org/2000/svg"><path d="m102.707064 23.1961037v-12.7490487c0-1.27515857-1.036165-2.30904042-2.316667-2.30904042h-22.3974609v-5.82897417c0-1.27515856-1.0361653-2.30904041-2.3166666-2.30904041h-64.8666667c-1.28050135 0-2.31666666 1.03388185-2.31666666 2.30904041v20.88706329c-4.76356104.5287792-8.49293614 4.5188641-8.49293614 9.4055625v10.2193079 63.6699859c0 1.275158 1.03616531 2.30904 2.31666667 2.30904h106.56666633c1.280502 0 2.316667-1.033882 2.316667-2.30904v-63.6699859-10.2193079c0-4.8866984-3.729375-8.8767833-8.492936-9.4055625zm3.859603 23.6685097v47.2060931l-36.1313184-25.9519005zm0-14.2629472v8.9013058l-3.859603 2.2704249v-15.9462467c2.203972.481144 3.859603 2.4361616 3.859603 4.774516zm-8.4929365-19.845571v33.7427979l-20.0807944 11.8125513v-20.1559047h12.5493653c1.2805014 0 2.3166667-1.0338819 2.3166667-2.3090404 0-1.2751586-1.0361653-2.3090404-2.3166667-2.3090404h-12.5493653v-6.9271213h12.5493653c1.2805014 0 2.3166667-1.0338818 2.3166667-2.3090404 0-1.2751585-1.0361653-2.3090404-2.3166667-2.3090404h-12.5493653v-9.2361616zm-84.947461-8.13801438h60.2333333v56.41885998l-7.0280517 4.134259-3.958016-2.8428933c-4.0541667-2.9088497-9.4929038-2.9088497-13.5470704 0l-3.9573089 2.8428933-31.7428863-18.6724476zm-8.49293617 42.24653258 36.13188377 21.2537699-36.13188377 25.9523232zm3.85960281-19.0374632v15.9461056l-3.85960281-2.2702838v-8.9013058c0-2.3383544 1.65563039-4.293372 3.85960281-4.774516zm-3.85960281 76.3547688v-4.4168291l46.90345067-33.6891025c2.4275228-1.7464374 5.6943847-1.7486922 8.1264323 0l46.9034507 33.6891025v4.4168291z"/><path d="m35.2036669 44.9569022c2.6445545 1.4856149 5.5670036 2.2430978 8.5258976 2.2430978 1.5511987 0 3.1137862-.208844 4.6513179-.6299187 1.2049693-.3307638 2.3757712-.7902208 3.4782382-1.3659529 1.1411901-.5949233 1.5785325-1.993614.9771867-3.1225006-.5990678-1.1300155-2.0113192-1.563508-3.1502314-.9685848-.8086278.4210748-1.6650898.757483-2.5488857 1.0001937-3.2664005.897465-6.6876932.4763902-9.6351984-1.1796866-2.9475052-1.6549479-5.06816-4.3496006-5.9701784-7.5861188-.9042964-3.2365181-.4806211-6.6265649 1.1890244-9.5481238 1.6696454-2.9215589 4.3870904-5.023546 7.6534909-5.9187531 6.7261315-1.844601 13.6964174 2.062476 15.5853034 8.7056921.4211128 2.0400395.1472045 4.7912775-1.886466 6.4823498-.3416738.2833505-.6879032.4097858-.9635198.3623726-.2642278-.058702-.4487314-.3454394-.558067-.5757321-.3393959-.7224875-.5056771-1.6481746-.6833475-2.6291771l-.0751683-.4052704c-.3485073-1.8728231-.482899-2.800768-.5945122-4.5426403-.0022779-.0857954-.0113891-.1715909-.0250561-.2573861-.013667-.089182-.0341673-.1761064-.0569457-.2607729-.5694561-2.1843958-1.9429845-3.2241006-2.9998951-3.7129083-2.9019486-1.3422463-6.3118522.0835375-7.2844833.5531544-3.3916811 1.6357568-5.7674522 4.8474396-6.2002387 8.380855-.5033993 4.1249521 1.9202062 8.938525 6.3277968 9.5311906.300673.0395109.5990678.059831.8951852.059831 1.7129242 0 3.3392909-.6716875 4.7492644-1.9699074.7289039-.6728164 1.3689727-1.4923882 1.9224842-2.3966265.7972386 1.4382017 2.05232 2.4045288 3.571629 2.7386792 1.690146.369146 3.5032943-.1140176 4.9724912-1.3332154 3.0477293-2.5354796 4.3642942-6.7755781 3.4372374-11.0653476-.0049827-.0227189-.0212122-.0389465-.0267644-.0613832-.0058369-.0238476.001566-.0469899-.0051252-.0706965-2.5534416-9.1383379-12.1339719-14.5163543-21.345495-11.9899059-4.4668143 1.2248422-8.1842241 4.0989876-10.4688823 8.0952465-2.2846582 3.996259-2.8609478 8.6348546-1.6263667 13.0612195 1.234581 4.4263648 4.1342523 8.1121802 8.1682799 10.3767268zm8.2229469-10.7402282c-.8177389.7540964-1.4555298.7665141-1.8404823.7134565-1.6901459-.2280351-2.5169963-2.7951236-2.3211033-4.3936271.2391716-1.9608761 1.6559784-3.8359571 3.6080742-4.7774487.949853-.458328 1.8473159-.6513676 2.5056073-.6513676.3211732 0 .5831231.0462842.767627.1309508.091113.0417688.2665054.1230487.403175.5113856.0478341 2.2690625-1.1138566 6.6130185-3.1228979 8.4666505z"/></svg>