<svg height="436" viewBox="0 0 580 436" width="580" xmlns="http://www.w3.org/2000/svg" xmlns:xlink="http://www.w3.org/1999/xlink"><defs><path id="a" d="m0 75.3742194c1.64183677-4.0891409 3.46088767-8.1281295 5.00282432-12.244076 1.62620024-4.3424964 3.56686868-8.5950646 4.40776709-13.1571934.55075371-2.9849259.65847209-5.9361287.82091839-8.9340249.2571342-4.7212327 1.7782221-9.3283257 3.3783615-13.87489.4386918-1.2477544.5342485-2.5914898 1.0441734-3.811574.4334797-1.0376335 1.3986017-5.866953 2.1812974-8.1073768 1.907658-5.45017025 3.9013169-9.80385676 9.2802869-14.0157843 0 1.14053222.3327109 1.9310985.4100249 2.7197.5716024 5.79085993-2.0779225 10.81272-.4100249 16.6355736.1294359.4479118-.2024063 1.0272572.4100249 1.3299004.5342485.2628671.8643532-.0570699 1.148417-.4340767 2.0588112-2.7281116 4.5615264-5.2063264 5.4962441-8.514648.9190811-3.24692838 2.2056209-6.42295175 3.4052911-9.60762207.5516224-1.46652209 1.4333495-3.7346161 3.1021159-3.30486287 2.062286.53178719 1.5503463 5.43063015 1.0160978 6.81673564-3.0769237 7.9577847-4.5169455 13.7854786-6.457614 21.9360902-1.1501544 4.8336429-1.3791005 8.3892672-5.1249206 12.2328349-.9607786.9866165-.2195689 1.0419125 1.1775774 1.8749749s4.3733843.8216103 8.070435.8216103c-1.0902144 2.2897114-2.6030752 4.4812158-4.5782858 6.2374397-1.9997858 1.7780744-5.1313945 2.8872153-5.7229769 6.444569-.7653218 4.6200634-2.0153764 9.2824969-2.9492253 13.9466597-.982496 4.9062773-1.7321813 9.8549247-3.4417764 14.6358213"/><filter id="b" height="106.3%" width="112.8%" x="-6.8%" y="-2.9%"><feMorphology in="SourceAlpha" operator="dilate" radius="1" result="shadowSpreadOuter1"/><feOffset in="shadowSpreadOuter1" result="shadowOffsetOuter1"/><feGaussianBlur in="shadowOffsetOuter1" result="shadowBlurOuter1" stdDeviation=".5"/><feComposite in="shadowBlurOuter1" in2="SourceAlpha" operator="out" result="shadowBlurOuter1"/><feColorMatrix in="shadowBlurOuter1" values="0 0 0 0 0   0 0 0 0 0   0 0 0 0 0  0 0 0 0.0954709353 0"/></filter></defs><g fill="none" fill-rule="evenodd" transform="translate(2 2)"><g transform="translate(144.393 267.37)"><path d="m136.636 88.544h-129.635c-3.866 0-7.001-3.135-7.001-7.002v-74.541c0-3.866 3.135-7.001 7.001-7.001h129.635c3.867 0 7.001 3.135 7.001 7.001v74.541c0 3.867-3.134 7.002-7.001 7.002z" stroke="#ececec" stroke-width="1.968"/><path d="m133.0106 81.6573h-122.26c-1.513 0-2.74-1.227-2.74-2.74v-69.29c0-1.514 1.227-2.741 2.74-2.741h122.26c1.513 0 2.74 1.227 2.74 2.741v69.29c0 1.513-1.227 2.74-2.74 2.74" fill="#fff"/><path d="m139.691 38.988v7.871" stroke="#fff" stroke-linecap="round" stroke-width="1.476"/><g transform="translate(98.01 23.58)"><path d="m31.202 5.421h-30.583c-.342 0-.619-.277-.619-.618v-4.184c0-.342.277-.619.619-.619h30.583c.342 0 .619.277.619.619v4.184c0 .341-.277.618-.619.618" fill="#3753ff"/><g stroke="#3753ff" stroke-width=".948"><path d="m3 32.921h25" stroke-linecap="round"/><path d="m3 24.921h25" stroke-linecap="round"/><path d="m3 28.921h25" stroke-linecap="round"/><path d="m3 17.921h25" stroke-linecap="round"/><path d="m3 9.921h25" stroke-linecap="round"/><path d="m3 13.921h25" stroke-linecap="round"/><path d="m20.3558 51.1593h-18.455c-1.049 0-1.9-.852-1.9-1.9v-47.359c0-1.05.851-1.9 1.9-1.9h28.019c1.05 0 1.901.85 1.901 1.9v37.992"/></g></g><g transform="translate(121.347 65.545)"><path d="m3.85589024.10312562c.379-.153.812.03.965.409.11.275.046.575-.142.779l.348.862c.919-.3 1.875-.289 2.746-.022l.381-.898c-.184-.207-.244-.51-.128-.782.16-.376.595-.552.972-.392.376.159.552.595.392.971-.116.272-.374.439-.651.451l-.374.88c.915.429 1.68999996 1.16 2.15899996 2.126l.862-.349c.016-.276.188-.532.462-.642.38-.154.811.029.965.409.153.379-.031.811-.41.965-.274.11-.575.045-.779-.143l-.862.349c.333 1.02.284 2.085-.076 3.029l.879.373c.208-.184.51-.243.782-.128.377.16.553.595.393.972-.16.376-.595.552-.972.392-.272-.116-.439-.375-.451-.651l-.899-.382c-.43899996.798-1.11999996 1.46899998-1.98899996 1.89199998l.348.861c.277.017.533.189.643.463.153.379-.03.81-.409.964-.38.153-.812-.029-.965-.409-.11-.275-.045-.576.142-.78l-.348-.861c-.92.3-1.875.29-2.746.021l-.381.899c.184.207.244.51.128.782-.16.376-.595.552-.971.393-.377-.16-.553-.596-.393-.972.115-.272.375-.439.651-.451l.374-.88c-.915-.429-1.69-1.15999998-2.16-2.12599998l-.861.349c-.017.276-.188.532-.462.642-.379.154-.811-.029-.965-.409-.153-.379.031-.81.41-.964.274-.111.575-.046.779.142l.862-.349c-.333-1.02-.284-2.085.076-3.029l-.88-.373c-.207.183-.509.243-.781.128-.377-.159-.553-.595-.393-.972.16-.376.595-.552.972-.393.272.117.439.375.45.652l.899.382c.44-.798 1.12-1.469 1.99-1.892l-.348-.861c-.276-.017-.533-.189-.643-.462-.153-.38.03-.812.409-.965" fill="#3753ff"/><path d="m4.359 6.82 1.164 1.164 2.561-2.54" stroke="#fff" stroke-linecap="round" stroke-linejoin="round" stroke-width=".847"/></g></g><g stroke-linecap="round" stroke-linejoin="round" transform="translate(117 313)"><use fill="#000" filter="url(#b)" xlink:href="#a"/><use fill="#3753ff" stroke="#efefef" stroke-width="2" xlink:href="#a"/></g><path d="m10.6454949 85.951523c.1368834-.9249132-.0562441-1.8902388-.026428-2.8380269.1985487-6.3257043.5488887-12.659796-1.30445773-18.8535877-1.27870742-4.2753404-2.15286353-8.6993683-4.4155048-12.636921-1.62701458-2.8296394-3.16796884-5.6966413-4.0312827-8.8114559-1.03475688-3.7347275-1.61075121-7.4991925 1.03814508-10.9830574.71762118-.9447381.9981643-2.1159389.99545374-3.3397522-.00948696-5.5982788.02778326-11.18512-.58141546-16.7780613-.35643884-3.26960215-.72033173-6.60325438-.09961313-9.91555661.15653493-.83417555.34695188-1.63785109 1.36476775-1.77738869.96834812-.13420009 1.55992818.51621285 2.03359882 1.20170081 1.36002427 1.96572632 2.12575791 4.28296537 2.55741484 6.50489186.78877342 4.05802773.19177223 8.25330553 1.33833978 12.28159573.67357451 2.3706141.64172541 2.8418394 3.02634201 2.3103766 1.7964247-.4003128 3.301464-.3423628 4.2216996 1.546351.6329162 1.3023509 1.9807429 1.5211885 3.3143392 1.5303385.989355.0068625 1.9990392-.0297375 2.9687426-.2035876 1.8940049-.3423627 3.0670004.4003128 3.8205365 2.0221513.4275911.9203382 1.1194619 1.4861135 2.2700953 1.5936261 4.5876255.4323378 8.2414625 5.7111288 6.3576222 9.7920316-2.2578978 4.8891533-4.2149233 9.7912691-5.5173481 15.0220226-1.0415333 4.1769778-1.8092999 8.254068-.282576 12.3174332.7772535 2.0717139 1.1811272 4.1365653 1.5233356 6.2647042.1863511 1.1559508.5258489 2.2890266.7203317 3.4442148.7454044 4.434703 2.2572201 8.7657059 1.8635111 13.354434" fill="#3753ff" stroke="#efefef" stroke-linecap="round" stroke-width="2" transform="translate(269 344)"/><g transform="translate(404 91)"><rect height="47.75" rx="2" stroke="#fff" stroke-linejoin="round" stroke-width="1.75" width="38.75" x="-.875" y="-.875"/><g stroke-linecap="round"><g stroke="#fd3a0e" stroke-width="1.625" transform="matrix(.70710678 .70710678 -.70710678 .70710678 18.327264 3.42607)"><path d="m4.411 0v8.275"/><path d="m4.411 0v8.275" transform="matrix(0 -1 1 0 .273 8.547)"/></g><path d="m5 22.5h27" stroke="#fff" stroke-linejoin="round" stroke-width="1.75"/><path d="m5 30.5h27" stroke="#fff" stroke-linejoin="round" stroke-width="1.75"/><path d="m5 38.5h27" stroke="#fff" stroke-linejoin="round" stroke-width="1.75"/></g></g><g transform="translate(539 15)"><rect height="47.75" rx="2" stroke="#fff" stroke-linejoin="round" stroke-width="1.75" width="38.75" x="-.875" y="-.875"/><g stroke-linecap="round"><g stroke="#fd3a0e" stroke-width="1.625" transform="matrix(.70710678 .70710678 -.70710678 .70710678 18.327264 3.42607)"><path d="m4.411 0v8.275"/><path d="m4.411 0v8.275" transform="matrix(0 -1 1 0 .273 8.547)"/></g><path d="m5 22.5h27" stroke="#fff" stroke-linejoin="round" stroke-width="1.75"/><path d="m5 30.5h27" stroke="#fff" stroke-linejoin="round" stroke-width="1.75"/><path d="m5 38.5h27" stroke="#fff" stroke-linejoin="round" stroke-width="1.75"/></g></g><g transform="translate(423)"><rect height="47.75" rx="2" stroke="#fff" stroke-linejoin="round" stroke-width="1.75" width="38.75" x="-.875" y="-.875"/><g stroke-linecap="round"><g stroke="#fd3a0e" stroke-width="1.625" transform="matrix(.70710678 .70710678 -.70710678 .70710678 18.327264 3.42607)"><path d="m4.411 0v8.275"/><path d="m4.411 0v8.275" transform="matrix(0 -1 1 0 .273 8.547)"/></g><path d="m5 22.5h27" stroke="#fff" stroke-linejoin="round" stroke-width="1.75"/><path d="m5 30.5h27" stroke="#fff" stroke-linejoin="round" stroke-width="1.75"/><path d="m5 38.5h27" stroke="#fff" stroke-linejoin="round" stroke-width="1.75"/></g></g><g transform="translate(233.405 1.228)"><rect height="47.75" rx="2" stroke="#fff" stroke-linejoin="round" stroke-width="1.75" width="38.75" x="-.875" y="-.875"/><g stroke-linecap="round"><g stroke="#fd3a0e" stroke-width="1.625" transform="matrix(.70710678 .70710678 -.70710678 .70710678 18.327264 3.42607)"><path d="m4.411 0v8.275"/><path d="m4.411 0v8.275" transform="matrix(0 -1 1 0 .273 8.547)"/></g><path d="m5 22.5h27" stroke="#fff" stroke-linejoin="round" stroke-width="1.75"/><path d="m5 30.5h27" stroke="#fff" stroke-linejoin="round" stroke-width="1.75"/><path d="m5 38.5h27" stroke="#fff" stroke-linejoin="round" stroke-width="1.75"/></g></g><g transform="translate(89)"><rect height="47.75" rx="2" stroke="#fff" stroke-linejoin="round" stroke-width="1.75" width="38.75" x="-.875" y="-.875"/><g stroke-linecap="round"><g stroke="#fd3a0e" stroke-width="1.625" transform="matrix(.70710678 .70710678 -.70710678 .70710678 18.327264 3.42607)"><path d="m4.411 0v8.275"/><path d="m4.411 0v8.275" transform="matrix(0 -1 1 0 .273 8.547)"/></g><path d="m5 22.5h27" stroke="#fff" stroke-linejoin="round" stroke-width="1.75"/><path d="m5 30.5h27" stroke="#fff" stroke-linejoin="round" stroke-width="1.75"/><path d="m5 38.5h27" stroke="#fff" stroke-linejoin="round" stroke-width="1.75"/></g></g><g transform="translate(0 19)"><rect height="47.75" rx="2" stroke="#fff" stroke-linejoin="round" stroke-width="1.75" width="38.75" x="-.875" y="-.875"/><g stroke-linecap="round"><g stroke="#fd3a0e" stroke-width="1.625" transform="matrix(.70710678 .70710678 -.70710678 .70710678 18.327264 3.42607)"><path d="m4.411 0v8.275"/><path d="m4.411 0v8.275" transform="matrix(0 -1 1 0 .273 8.547)"/></g><path d="m5 22.5h27" stroke="#fff" stroke-linejoin="round" stroke-width="1.75"/><path d="m5 30.5h27" stroke="#fff" stroke-linejoin="round" stroke-width="1.75"/><path d="m5 38.5h27" stroke="#fff" stroke-linejoin="round" stroke-width="1.75"/></g></g><g transform="translate(183 186.37)"><path d="m149.674 10.086-71.315 61.546-2 35.284-3.327-7.327-2-27.957-68.873-62.524" fill="#3753ff"/><g stroke="#fff" stroke-linecap="round" stroke-linejoin="round"><path d="m149.674 10.086-71.315 61.546-2 35.284-3.327-7.327-2-27.957-69.132-62.524" stroke-width="2"/><path d="m6.0198.9512c-3.746 1.609-5.814 3.375-5.814 5.227m146.0264-5.4604c4.099 1.671 6.373 3.519 6.373 5.46 0 7.521-34.116 13.618-76.2 13.618s-76.2-6.097-76.2-13.618" stroke-width="1.954"/></g></g><g transform="translate(182.462 90.704)"><path d="m137.003 109.489c7.75-6.966 16.94-20.412 16.94-31.654 0-15.595-9.385-28.991-22.813-34.868.207-1.61.327-3.249.327-4.915 0-21.016-17.036-38.052-38.053-38.052-12.955 0-24.391 6.479-31.264 16.369-3.898-2.684-8.617-4.262-13.708-4.262-13.374 0-24.215 10.84-24.215 24.215 0 1.996.269 3.925.723 5.779-14.556 5.346-24.94 19.327-24.94 35.734 0 12.513 6.62 24.895 15.943 31.831 0 0 18 5 57 5 44.147 0 64.06-5.177 64.06-5.177" fill="#fff"/><g transform="translate(47.538 31.296)"><path d="m17.7607275.47608167c1.7476056-.70563381 3.7369014.13859155 4.4425352 1.88535211.5095775 1.26253521.2112676 2.65014085-.6523944 3.58985916l1.6022536 3.9684507c4.236338-1.38084507 8.6374648-1.3343662 12.6464788-.09802817l1.7569014-4.14c-.8467605-.95492958-1.1214084-2.3484507-.5898591-3.60169014.7369014-1.73492958 2.7405634-2.54450704 4.4746479-1.80760563 1.7357746.73605633 2.5453521 2.73971831 1.8084507 4.47464788-.5315493 1.25323944-1.7239437 2.02309859-2.9991549 2.0771831l-1.7214085 4.05211272c4.2135211 1.9732394 7.7830986 5.3450704 9.9464789 9.7918309l3.9676056-1.6039436c.0752113-1.2735211.8661972-2.4523944 2.1287324-2.9628169 1.7476056-.7056338 3.7360563.1385915 4.4425352 1.8861972.7064789 1.7476056-.1377465 3.7369014-1.8861972 4.4425352-1.2616901.5104225-2.6501408.2112676-3.5898591-.6523944l-3.9676057 1.6022535c1.5329578 4.7011268 1.307324 9.6067606-.3523943 13.9529578l4.0529577 1.7188732c.9540845-.8467605 2.3476057-1.1205634 3.6008451-.5890141 1.7340845.7360564 2.543662 2.7397183 1.8076056 4.4746479-.7369014 1.7357747-2.7397183 2.5453521-4.4754929 1.8084507-1.2523944-.5315493-2.0230986-1.7247887-2.0771831-3l-4.139155-1.7577465c-2.0247887 3.6743662-5.1591549 6.7656338-9.1656338 8.7135212l1.6039437 3.9676056c1.2743662.0769014 2.4532394.8670423 2.9628169 2.1287324.7064789 1.7484507-.1377465 3.7369014-1.8853521 4.4433803-1.7484507.7056338-3.7369014-.1385916-4.4433803-1.8853521-.5095775-1.2633803-.2112676-2.6509859.6532394-3.5907043l-1.6030985-3.9676056c-4.235493 1.3808451-8.6366198 1.3343662-12.6456338.0980282l-1.7569015 4.140845c.8467606.9549296 1.1214085 2.3476057.5890141 3.6008451-.7360563 1.7349296-2.7397183 2.543662-4.4746479 1.8076057-1.7349295-.7360564-2.544507-2.7397184-1.8076056-4.4746479.5315493-1.2532395 1.7247887-2.0230986 3-2.0771831l1.7197183-4.0521127c-4.212676-1.9740845-7.7822535-5.3459155-9.9456338-9.791831l-3.96760562 1.6039437c-.07605634 1.2743662-.86704225 2.4523943-2.12873239 2.9628169-1.74760564.7064788-3.73690141-.1385916-4.44338028-1.8861972-.70563381-1.7476056.13859155-3.7360564 1.88619718-4.4425352 1.26169014-.5095775 2.65014084-.2112676 3.58985915.6532394l3.96760564-1.6030986c-1.53211268-4.7011267-1.30732395-9.6067605.35239432-13.9529577l-4.05211263-1.7197183c-.95408451.8476056-2.34760564 1.1214084-3.60084507.5898591-1.73492958-.7369014-2.54450704-2.7397183-1.80845071-4.4754929.73690141-1.7349296 2.74056338-2.543662 4.47549296-1.8076057 1.25323944.5315493 2.02309859 1.7247888 2.0771831 3l4.13999995 1.7577465c2.0247888-3.6743662 5.159155-6.7647887 9.1647888-8.7135211l-1.6030986-3.96760566c-1.2735211-.07605633-2.4532394-.86704225-2.9628169-2.12957746-.7064789-1.74760563.1377465-3.73690141 1.8853521-4.44253521" fill="#3753ff"/><path d="m20.076 31.413 5.36 5.363 11.8-11.701" stroke="#fff" stroke-linecap="round" stroke-linejoin="round" stroke-width="3.9"/></g></g><g transform="translate(48.687 105.203)"><path d="m136.472448 67.0562-117.972448 14.1108v-33.3301" stroke="#fff" stroke-dasharray="5" stroke-linecap="round" stroke-linejoin="round" stroke-width="2"/><g stroke-linejoin="round" stroke-width="1.75"><rect height="47.75" rx="2" stroke="#fff" width="38.75" x="-.875" y="-.875"/><g stroke-linecap="round"><path d="m14.5 10 2.537 2.538 5.585-5.538" stroke="#1cff1c"/><path d="m5 22.5h27" stroke="#fff"/><path d="m5 30.5h27" stroke="#fff"/><path d="m5 38.5h27" stroke="#fff"/></g></g><circle cx="18.313" cy="46.997" fill="#3753ff" r="3" stroke="#fff" stroke-width="2"/></g><g transform="translate(311 25)"><path d="m0 92.7309219 24.9800583-10.7968219-.0622-31.8692" stroke="#fff" stroke-dasharray="5 5" stroke-linecap="round" stroke-linejoin="round" stroke-width="2"/><g stroke-linejoin="round" stroke-width="1.75" transform="translate(6.28)"><rect height="47.75" rx="2" stroke="#fff" width="38.75" x="-.875" y="-.875"/><g stroke-linecap="round"><path d="m14.5 10 2.537 2.538 5.585-5.538" stroke="#1cff1c"/><path d="m5 22.5h27" stroke="#fff"/><path d="m5 30.5h27" stroke="#fff"/><path d="m5 38.5h27" stroke="#fff"/></g></g><circle cx="24.813" cy="46.695" fill="#3753ff" r="3" stroke="#fff" stroke-width="2"/></g><g transform="translate(329.5 93.75)"><path d="m0 70.9711 197.9647 10.3549v-31.8989" stroke="#fff" stroke-dasharray="5 5" stroke-linecap="round" stroke-linejoin="round" stroke-width="2"/><g stroke-linejoin="round" stroke-width="1.75" transform="translate(178.5)"><rect height="47.75" rx="2" stroke="#fff" width="38.75" x="-.875" y="-.875"/><g stroke-linecap="round"><path d="m14.5 10 2.537 2.538 5.585-5.538" stroke="#1cff1c"/><path d="m5 22.5h27" stroke="#fff"/><path d="m5 30.5h27" stroke="#fff"/><path d="m5 38.5h27" stroke="#fff"/></g></g><circle cx="198" cy="46.75" fill="#3753ff" r="3" stroke="#fff" stroke-width="2"/></g><g transform="translate(161 44)"><g stroke-linejoin="round" stroke-width="1.75"><rect height="47.75" rx="2" stroke="#fff" width="38.75" x="-.875" y="-.875"/><g stroke-linecap="round"><path d="m14.5 10 2.537 2.538 5.585-5.538" stroke="#1cff1c"/><path d="m5 22.5h27" stroke="#fff"/><path d="m5 30.5h27" stroke="#fff"/><path d="m5 38.5h27" stroke="#fff"/></g></g><g stroke="#fff" stroke-width="2"><path d="m39.2771406 98.6846367-20.7771406-15.1585367v-31.5261" stroke-dasharray="5 5" stroke-linecap="round" stroke-linejoin="round"/><circle cx="18.5" cy="46.5" fill="#3753ff" r="3"/></g></g></g></svg>