<svg enable-background="new 0 0 475 111.2" viewBox="0 0 475 111.2" xmlns="http://www.w3.org/2000/svg"><g fill="#3753ff"><path d="m13 105.3c-4-2-7.3-5.1-9.6-9-2.3-4.1-3.5-8.7-3.4-13.4v-24.3c-.1-4.7 1.1-9.3 3.4-13.4 2.2-3.9 5.6-7 9.6-9 4.5-2.2 9.4-3.3 14.4-3.1 4.9-.1 9.8.9 14.3 3 3.9 1.9 7.3 4.8 9.6 8.5 2.3 3.9 3.5 8.3 3.4 12.8 0 .6-.4 1-1.3 1.2l-12.3.7h-.2c-.7 0-1.1-.4-1.1-1.2.2-3.3-1.1-6.6-3.4-9-2.4-2.3-5.7-3.5-9-3.4-3.4-.2-6.6 1.1-9.1 3.4-2.3 2.4-3.6 5.7-3.4 9v25.4c-.1 3.3 1.1 6.5 3.4 8.9 2.5 2.3 5.7 3.5 9.1 3.4 3.3.1 6.6-1.1 9-3.4 2.3-2.3 3.6-5.6 3.4-8.8 0-.8.4-1.2 1.3-1.2l12.3.5c.3 0 .7.1.9.3s.4.4.4.7c.1 4.5-1.1 9-3.4 12.8-2.3 3.7-5.6 6.7-9.6 8.6-4.5 2.1-9.3 3.2-14.3 3.1-5 .2-10-.9-14.4-3.1z"/><path d="m73.3 103.8c-4.2-3.1-7.3-7.6-8.6-12.6-1-3.5-1.5-7.1-1.5-10.7 0-3.8.4-7.5 1.5-11.2 1.4-5 4.5-9.3 8.7-12.3 4.5-3 9.8-4.5 15.2-4.4 5.3-.1 10.4 1.4 14.7 4.4 4.1 3 7.2 7.3 8.6 12.2 1.1 3.6 1.7 7.3 1.7 11.1 0 3.6-.5 7.2-1.5 10.6-1.3 5.1-4.3 9.7-8.6 12.9-4.4 3.2-9.7 4.8-15.1 4.7-5.4.1-10.7-1.5-15.1-4.7zm21-10.2c1.7-1.5 2.9-3.6 3.5-5.8.6-2.4.9-4.9.8-7.4.1-2.5-.2-5-.8-7.5-.6-2.2-1.9-4.1-3.6-5.6-3.5-2.7-8.3-2.7-11.9 0-1.7 1.5-2.9 3.4-3.4 5.6-.7 2.4-.9 5-.8 7.5-.1 2.5.2 5 .7 7.4.6 2.2 1.8 4.3 3.5 5.8 1.7 1.4 3.8 2.2 6.1 2.1 2.2.1 4.3-.6 5.9-2.1z"/><path d="m225.3 83.9c0 .7-.5 1.3-1.2 1.3-.1 0-.1 0-.2 0h-32.5c-.4 0-.6.2-.4.5.2 1.4.6 2.9 1.2 4.2 1.8 3.9 5.5 5.9 11.2 5.9 4.2.1 8.2-2 10.6-5.5.2-.4.5-.6 1-.6.3 0 .6.2.7.4l7.6 7.5c.3.2.5.6.5.9-.1.3-.2.6-.4.8-2.4 2.9-5.5 5.2-9 6.7-3.8 1.6-7.9 2.4-12 2.4-6 0-11.1-1.4-15.3-4.1s-7.3-6.8-9-11.5c-1.5-3.5-2.2-8.1-2.2-13.8-.1-3.5.5-6.9 1.6-10.2 1.5-4.8 4.4-8.9 8.5-11.9 4.2-3 9.2-4.6 14.4-4.4 7 0 12.7 2 16.9 6.1s6.8 9.5 7.7 16.3c.3 3.1.4 6.1.3 9zm-33.7-12.3c-.3 1.1-.6 2.2-.7 3.4 0 .3.1.5.4.5h.1 18.2c.4 0 .6-.2.4-.5-.4-2-.5-3-.5-3-.5-2-1.7-3.7-3.3-4.9-1.7-1.2-3.8-1.8-5.8-1.7-4.5 0-7.4 2.1-8.8 6.2z"/><path d="m267.4 54.3c.6.3.8 1 .6 1.6l-2.2 12c-.1.8-.6 1.1-1.5.7-1.2-.4-2.4-.6-3.7-.5-.8 0-1.5.1-2.3.2-2.4.2-4.7 1.1-6.4 2.8-1.8 1.7-2.7 4.1-2.6 6.6v28.8c0 .7-.5 1.3-1.2 1.3h-12.3c-.7 0-1.2-.5-1.3-1.2 0 0 0 0 0-.1v-51.7c0-.7.5-1.3 1.2-1.3h12.3c.3 0 .7.1.9.4.2.2.4.6.4.9v4c0 .2.1.3.2.4s.2 0 .3-.1c0 0 0 0 0-.1 2.5-4 6.9-6.4 11.6-6.3 2.1 0 4.2.5 6 1.6z"/><path d="m276.8 45.1c-3.3-3.1-3.4-8.4-.3-11.7 1.6-1.7 3.9-2.6 6.2-2.6 4.4-.2 8.1 3.2 8.3 7.5v.7c0 4.7-3.8 8.4-8.5 8.4-2.1 0-4.1-.8-5.7-2.3zm-1.2 62.2c-.2-.2-.4-.6-.4-.9v-51.7c0-.7.5-1.2 1.2-1.3h.1 12.3c.7 0 1.3.5 1.3 1.2v51.7c0 .7-.5 1.3-1.2 1.3h-12.4c-.4 0-.7-.1-.9-.3z"/><path d="m333.3 53.8c.2.2.4.6.4.9v10c0 .7-.6 1.3-1.2 1.3h-10.2c-.3 0-.5.1-.5.4v.1 39.9c0 .7-.5 1.3-1.2 1.3h-12.3c-.7 0-1.3-.5-1.3-1.2v-40c0-.3-.1-.5-.4-.5h-.1-6.2c-.7 0-1.3-.6-1.3-1.3v-10c0-.7.5-1.3 1.2-1.3h6.2c.3 0 .5-.1.5-.4v-.1-2.3c0-4.4.7-7.7 2-10.2 1.4-2.5 3.7-4.3 6.5-5.2 3-1 7.1-1.5 12.4-1.3h4c.7 0 1.2.5 1.3 1.2v.1 8.5c0 .7-.5 1.3-1.2 1.3h-3.5c-2.5.1-4.2.6-5.1 1.5-1 1-1.4 2.7-1.4 5.2v1.2c0 .3.1.5.4.5h.1 10.2c.2 0 .5.1.7.4zm11.1-8.7c-3.3-3.3-3.3-8.7 0-12s8.7-3.3 12 0c1.6 1.6 2.4 3.8 2.3 6 0 4.7-3.8 8.4-8.5 8.4-2.2-.1-4.2-.9-5.8-2.4zm-1.3 62.2c-.2-.2-.4-.6-.4-.9v-51.7c0-.7.5-1.3 1.2-1.3h12.3c.7 0 1.2.6 1.2 1.2v51.7c0 .7-.5 1.2-1.2 1.3 0 0 0 0-.1 0h-12.1c-.3 0-.6-.1-.9-.3z"/><path d="m417.4 83.9c0 .7-.5 1.3-1.2 1.3-.1 0-.1 0-.2 0h-32.5c-.4 0-.6.2-.4.5.2 1.4.6 2.9 1.1 4.2 1.8 3.9 5.6 5.9 11.2 5.9 4.2.1 8.2-2 10.6-5.5.2-.4.5-.6 1-.6.3 0 .6.2.7.4l7.6 7.5c.3.2.5.6.5.9-.1.3-.2.6-.4.8-2.4 2.9-5.5 5.2-9 6.7-3.8 1.6-7.9 2.4-12 2.4-6 0-11.1-1.4-15.3-4.1s-7.3-6.8-9-11.5c-1.5-3.5-2.2-8.1-2.2-13.8-.1-3.5.5-6.9 1.6-10.2 1.5-4.8 4.4-8.9 8.5-11.9 4.2-3 9.2-4.6 14.4-4.4 7 0 12.7 2 16.9 6.1s6.8 9.5 7.7 16.3c.4 3.1.6 6.1.4 9zm-33.7-12.3c-.3 1.1-.6 2.2-.7 3.4 0 .3.1.5.4.5h.1 18.2c.4 0 .6-.2.4-.5-.4-2-.5-3-.5-3-.5-2-1.7-3.7-3.3-4.9-1.7-1.2-3.8-1.8-5.8-1.7-4.5 0-7.4 2.1-8.8 6.2z"/><path d="m460.6 34.3c.2-.2.6-.4.9-.4h12.3c.7 0 1.3.5 1.3 1.2v71.2c0 .7-.5 1.3-1.2 1.3h-12.4c-.7 0-1.2-.5-1.3-1.2 0 0 0 0 0-.1v-3.5c0-.2-.1-.3-.2-.4-.2 0-.3 0-.4.2-2.8 3.8-7.4 6-12.1 5.8-4.6.1-9-1.3-12.7-4.1-3.6-2.9-6.3-6.8-7.6-11.3-1.3-4.1-1.9-8.4-1.8-12.7-.1-4.4.6-8.8 1.9-13.1 1.4-4.2 4.1-8 7.6-10.7 3.7-2.7 8.3-4.1 12.9-3.9 5 0 9 1.8 11.8 5.3.1.2.3.3.4.2.2-.1.2-.2.2-.4v-22.5c0-.3.1-.7.4-.9zm-.5 46.3c0-4.7-.8-8.3-2.3-11-1.4-2.6-4.1-4.2-7-4.1-3.1-.1-5.9 1.5-7.5 4.1-1.8 2.7-2.6 6.5-2.6 11.2-.1 3.6.6 7.2 2.2 10.5 1.5 2.9 4.5 4.6 7.8 4.5 3.2 0 5.6-1.5 7.4-4.5 1.3-2.7 2-6.2 2-10.7z"/></g><path d="m123.9 54.1 22.6 48.3 35.9-93.6" fill="none" stroke="#3f9" stroke-linecap="round" stroke-linejoin="round" stroke-width="17.55"/></svg>