<svg width="137" height="105" viewBox="0 0 137 105" fill="none" xmlns="http://www.w3.org/2000/svg">
<path fill-rule="evenodd" clip-rule="evenodd" d="M83.8906 32.1227L74.4219 38.3995V25.8459L83.8906 32.1227Z" stroke="#3B55F2" stroke-width="2" stroke-linejoin="round"/>
<ellipse cx="31.4627" cy="27.4721" rx="2.45486" ry="2.51071" stroke="#3B55F2" stroke-width="2"/>
<path d="M26.5527 42.5366L31.494 36.2598L33.9173 39.3982" stroke="#3B55F2" stroke-width="2" stroke-linecap="round"/>
<path d="M32.6895 42.5365L40.7259 29.9829L48.6461 42.5365" stroke="#3B55F2" stroke-width="2" stroke-linecap="round"/>
<rect x="17.084" y="18" width="35.7708" height="26.1533" rx="3" stroke="#3B55F2" stroke-width="2"/>
<rect x="17.084" y="18" width="35.7708" height="26.1533" rx="3" stroke="#3B55F2" stroke-width="2"/>
<rect x="61.2715" y="18" width="35.7708" height="26.1533" rx="3" stroke="#3B55F2" stroke-width="2"/>
<rect x="41.2812" y="50.4302" width="35.7708" height="26.1533" rx="3" stroke="#3A57FF" stroke-width="2"/>
<path d="M48.2075 63.5067H61.7092" stroke="#3B55F2" stroke-width="2" stroke-linecap="round"/>
<path d="M48.2305 69.7836H71.1549" stroke="#3B55F2" stroke-width="2" stroke-linecap="round"/>
<ellipse cx="92.6303" cy="56.095" rx="16.9643" ry="16.72" fill="white" stroke="#3B55F2" stroke-width="2"/>
<path d="M105.354 66.5452L110.37 71.2477" stroke="#3B55F2" stroke-width="2"/>
<path fill-rule="evenodd" clip-rule="evenodd" d="M110.761 70.2236C112.356 68.3504 115.16 68.1051 117.056 69.673L131.237 81.4012C133.172 83.0011 133.423 85.8746 131.796 87.7861L131.497 88.1372C129.902 90.0105 127.098 90.2557 125.202 88.6878L111.021 76.9596C109.086 75.3597 108.835 72.4862 110.462 70.5747L110.761 70.2236Z" stroke="#3B55F2" stroke-width="2"/>
<circle cx="26.5833" cy="73.4166" r="20.5833" fill="#33FF99"/>
<path d="M29.3477 66.0435H39.1785" stroke="white" stroke-width="2" stroke-linecap="round"/>
<path d="M15.2168 66.1971L19.5178 66.1203" stroke="white" stroke-width="2" stroke-linecap="round"/>
<circle cx="22.2814" cy="66.0433" r="2.1505" stroke="white" stroke-width="2"/>
<circle cx="25.9689" cy="80.7897" r="2.1505" stroke="white" stroke-width="2"/>
<path d="M35.4902 73.4166H39.1768" stroke="white" stroke-width="2" stroke-linecap="round"/>
<path d="M15.2168 73.4934L26.8909 73.3398" stroke="white" stroke-width="2" stroke-linecap="round"/>
<circle cx="29.6544" cy="73.4166" r="2.1505" stroke="white" stroke-width="2"/>
<path d="M31.8066 80.7896H39.1798" stroke="white" stroke-width="2" stroke-linecap="round"/>
<path d="M15.2168 80.8664L23.2044 80.7128" stroke="white" stroke-width="2" stroke-linecap="round"/>
</svg>
