<svg width="137" height="105" viewBox="0 0 137 105" fill="none" xmlns="http://www.w3.org/2000/svg">
<ellipse cx="69.5" cy="72.851" rx="53.5" ry="27.5485" fill="#F7F8FC" stroke="#3B55F2" stroke-width="2"/>
<ellipse cx="69.5671" cy="72.4519" rx="35.6667" ry="18.3657" fill="#33FF99"/>
<path fill-rule="evenodd" clip-rule="evenodd" d="M84.0918 51.6372C83.9639 49.1744 84.0459 46.8325 84.0146 44.3431C84.3602 44.9231 84.412 45.4506 84.5303 45.9507C84.7717 46.975 84.9077 48.0183 85.0422 49.0626C85.1696 50.0502 84.8127 50.8321 84.0918 51.6372ZM73.5545 24.4729C73.6739 24.549 73.7613 24.6678 73.8326 24.8125C73.7613 24.6678 73.6739 24.549 73.5545 24.4729ZM55.411 47.9824C55.4672 46.4597 55.6135 44.9461 55.9813 43.4369C56.0601 45.4656 56.1389 47.4938 56.2178 49.5225C55.7523 49.104 55.3867 48.6472 55.411 47.9824ZM91.8733 47.8732C90.7906 43.4313 89.1998 39.1633 87.5761 34.9056C86.8806 33.0815 86.1479 31.2693 85.3692 29.4787C84.2374 26.8755 82.3961 25.9332 79.6233 26.4856C78.7215 26.6654 77.8305 26.9036 76.9341 27.1115C75.2456 27.5024 74.6009 27.1412 74.0388 25.4861C73.981 25.3171 73.9491 25.14 73.9054 24.9667C75.9049 23.4428 77.1464 21.3812 77.9758 19.0636C79.1594 15.7557 79.4154 12.4094 78.0012 9.09984C76.4644 5.50465 73.0614 3.53264 68.9397 3.75673C65.3364 3.9522 62.1495 6.50091 61.0598 10.1026C60.0819 13.3322 60.5592 16.4603 61.8654 19.4929C62.9351 21.9757 64.4671 24.1005 66.8462 25.511C65.959 27.1266 64.8245 27.6892 63.0048 27.4203C62.1597 27.2956 61.3249 27.132 60.502 26.8949C57.9992 26.1741 55.6432 27.0548 54.2447 29.2487C52.8737 31.3978 51.845 33.7198 50.8822 36.0708C49.5107 39.4209 48.2962 42.8201 47.4927 46.3613C47.1077 48.0563 47.3686 49.5137 48.4183 50.9246C50.684 53.9685 53.3191 56.6668 56.0185 59.3105C56.3339 59.6189 56.4834 59.9105 56.5045 60.3489C56.6606 63.5807 56.8366 66.812 57.0175 70.0427C57.0904 71.3365 57.4635 71.8106 58.7492 72.0692C61.6905 72.66 64.6809 72.7593 67.6664 72.8743C69.2162 72.9343 70.7665 72.9521 72.3162 72.9958C72.4825 73.0001 72.684 72.9186 72.7995 73.1271H74.4184C74.6317 72.876 74.9206 73.0002 75.17 72.9985C77.3057 72.9845 79.437 72.9273 81.5515 72.5962C81.7065 72.5725 81.8615 72.5444 82.0132 72.505C84.0489 71.9801 84.2919 71.6777 84.2644 69.5956C84.232 67.1025 84.1904 64.6088 84.1272 62.1157C84.1148 61.6136 84.2428 61.2372 84.59 60.8549C86.9006 58.3062 89.0821 55.656 91.0012 52.7903C92.0326 51.2497 92.3144 49.6821 91.8733 47.8732Z" fill="white"/>
<path d="M84.0146 44.3431L84.8737 43.8312L82.9679 40.6331L83.0147 44.3557L84.0146 44.3431ZM84.5303 45.9507L85.5036 45.7213L85.5035 45.7205L84.5303 45.9507ZM85.0422 49.0626L84.0504 49.1903L84.0504 49.1905L85.0422 49.0626ZM55.9813 43.4369L56.9805 43.3981L55.0097 43.2002L55.9813 43.4369ZM56.2178 49.5225L55.5492 50.2661L57.3089 51.8482L57.217 49.4836L56.2178 49.5225ZM87.5761 34.9056L86.6417 35.2618L86.6417 35.2619L87.5761 34.9056ZM85.3692 29.4787L84.4521 29.8774L84.4522 29.8775L85.3692 29.4787ZM79.6233 26.4856L79.4279 25.5049L79.4277 25.5049L79.6233 26.4856ZM76.9341 27.1115L77.1597 28.0857L77.1601 28.0856L76.9341 27.1115ZM74.0388 25.4861L74.9856 25.1645L74.985 25.1626L74.0388 25.4861ZM73.9054 24.9667L73.2993 24.1713L72.7743 24.5714L72.9358 25.2113L73.9054 24.9667ZM77.9758 19.0636L78.9173 19.4005L78.9173 19.4005L77.9758 19.0636ZM78.0012 9.09984L78.9207 8.7069L78.9207 8.70679L78.0012 9.09984ZM68.9397 3.75673L68.9939 4.75526L68.994 4.75525L68.9397 3.75673ZM61.0598 10.1026L62.0169 10.3924L62.0169 10.3922L61.0598 10.1026ZM61.8654 19.4929L60.947 19.8885L60.947 19.8885L61.8654 19.4929ZM66.8462 25.511L67.7228 25.9923L68.1885 25.1442L67.3562 24.6508L66.8462 25.511ZM63.0048 27.4203L63.151 26.4311L63.1508 26.431L63.0048 27.4203ZM60.502 26.8949L60.7788 25.934L60.7788 25.934L60.502 26.8949ZM54.2447 29.2487L55.0877 29.7865L55.0879 29.7862L54.2447 29.2487ZM50.8822 36.0708L49.9568 35.6919L49.9568 35.6919L50.8822 36.0708ZM47.4927 46.3613L48.4679 46.5828L48.468 46.5825L47.4927 46.3613ZM48.4183 50.9246L47.616 51.5215L47.6161 51.5217L48.4183 50.9246ZM56.0185 59.3105L55.3188 60.025L55.3194 60.0256L56.0185 59.3105ZM56.5045 60.3489L55.5056 60.3969L55.5057 60.3972L56.5045 60.3489ZM57.0175 70.0427L56.019 70.0986L56.0191 70.0989L57.0175 70.0427ZM58.7492 72.0692L58.552 73.0496L58.5523 73.0496L58.7492 72.0692ZM67.6664 72.8743L67.7051 71.8751L67.7049 71.8751L67.6664 72.8743ZM72.3162 72.9958L72.288 73.9954L72.2903 73.9955L72.3162 72.9958ZM72.7995 73.1271L71.9249 73.6119L72.2105 74.1271H72.7995V73.1271ZM74.4184 73.1271V74.1271H74.881L75.1805 73.7745L74.4184 73.1271ZM75.17 72.9985L75.1765 73.9985H75.1766L75.17 72.9985ZM81.5515 72.5962L81.4 71.6078L81.3969 71.6083L81.5515 72.5962ZM82.0132 72.505L81.7636 71.5367L81.7618 71.5371L82.0132 72.505ZM84.2644 69.5956L83.2645 69.6086L83.2645 69.6088L84.2644 69.5956ZM84.1272 62.1157L83.1275 62.1405L83.1276 62.1411L84.1272 62.1157ZM84.59 60.8549L85.3303 61.5272L85.3309 61.5265L84.59 60.8549ZM91.0012 52.7903L91.8321 53.3467L91.8322 53.3466L91.0012 52.7903ZM85.0905 51.5853C84.9636 49.1429 85.0467 46.8868 85.0145 44.3306L83.0147 44.3557C83.0452 46.7781 82.9641 49.2059 83.0932 51.6891L85.0905 51.5853ZM83.1556 44.855C83.3979 45.2617 83.4079 45.5497 83.5571 46.1808L85.5035 45.7205C85.4162 45.3516 85.3225 44.5844 84.8737 43.8312L83.1556 44.855ZM83.557 46.18C83.7846 47.1462 83.915 48.139 84.0504 49.1903L86.034 48.9349C85.9005 47.8975 85.7587 46.8039 85.5036 45.7213L83.557 46.18ZM84.0504 49.1905C84.1285 49.7954 83.9479 50.2988 83.3468 50.9701L84.8368 52.3043C85.6775 51.3654 86.2108 50.305 86.034 48.9346L84.0504 49.1905ZM73.0167 25.3159C72.9692 25.2857 72.9414 25.255 72.9297 25.2404C72.9195 25.2276 72.9227 25.2283 72.9355 25.2544L74.7297 24.3707C74.6161 24.14 74.4257 23.8425 74.0924 23.6298L73.0167 25.3159ZM74.7297 24.3707C74.6161 24.14 74.4257 23.8425 74.0924 23.6298L73.0167 25.3159C72.9692 25.2857 72.9414 25.255 72.9297 25.2404C72.9195 25.2276 72.9227 25.2283 72.9355 25.2544L74.7297 24.3707ZM56.4104 48.0193C56.4651 46.5342 56.6068 45.0936 56.9528 43.6736L55.0097 43.2002C54.6202 44.7986 54.4693 46.3852 54.4117 47.9456L56.4104 48.0193ZM54.982 43.4757C55.0214 44.4901 55.0608 45.5043 55.1003 46.5185C55.1397 47.5327 55.1791 48.547 55.2185 49.5613L57.217 49.4836C57.1776 48.4693 57.1382 47.4551 57.0988 46.4408C57.0593 45.4266 57.0199 44.4124 56.9805 43.3981L54.982 43.4757ZM56.8863 48.7788C56.6839 48.5968 56.5635 48.4584 56.4931 48.3385C56.4331 48.2364 56.4058 48.1425 56.4104 48.019L54.4117 47.9459C54.3706 49.0709 55.0248 49.7946 55.5492 50.2661L56.8863 48.7788ZM92.8448 47.6364C91.7455 43.1261 90.1331 38.8042 88.5105 34.5492L86.6417 35.2619C88.2665 39.5224 89.8357 43.7365 90.9017 48.11L92.8448 47.6364ZM88.5105 34.5493C87.8103 32.7128 87.0718 30.8863 86.2862 29.08L84.4522 29.8775C85.2239 31.6523 85.9509 33.4501 86.6417 35.2618L88.5105 34.5493ZM86.2863 29.08C85.6601 27.6397 84.7845 26.54 83.572 25.9111C82.3608 25.2829 80.9587 25.1999 79.4279 25.5049L79.8186 27.4663C81.0607 27.2189 81.9655 27.3309 82.6512 27.6865C83.3356 28.0415 83.9465 28.7145 84.4521 29.8774L86.2863 29.08ZM79.4277 25.5049C78.5089 25.6881 77.558 25.9402 76.7082 26.1373L77.1601 28.0856C78.1031 27.8669 78.934 27.6427 79.8188 27.4663L79.4277 25.5049ZM76.7086 26.1372C75.9027 26.3238 75.6472 26.2466 75.5534 26.194C75.4572 26.1399 75.2548 25.957 74.9856 25.1645L73.0919 25.8077C73.3849 26.6703 73.7859 27.4955 74.5747 27.9381C75.366 28.3822 76.2771 28.29 77.1597 28.0857L76.7086 26.1372ZM74.985 25.1626C74.9439 25.0424 74.9423 24.9886 74.875 24.722L72.9358 25.2113C72.956 25.2914 73.0181 25.5918 73.0925 25.8096L74.985 25.1626ZM74.5115 25.762C76.7094 24.0871 78.0446 21.8391 78.9173 19.4005L77.0343 18.7266C76.2481 20.9233 75.1005 22.7986 73.2993 24.1713L74.5115 25.762ZM78.9173 19.4005C80.1596 15.9288 80.4609 12.3113 78.9207 8.7069L77.0816 9.49278C78.3698 12.5075 78.1593 15.5825 77.0342 18.7267L78.9173 19.4005ZM78.9207 8.70679C77.2027 4.6877 73.3844 2.5136 68.8854 2.7582L68.994 4.75525C72.7384 4.55168 75.726 6.3216 77.0816 9.4929L78.9207 8.70679ZM68.8856 2.7582C64.8437 2.97746 61.3087 5.82647 60.1026 9.813L62.0169 10.3922C62.9902 7.17535 65.8292 4.92694 68.9939 4.75526L68.8856 2.7582ZM60.1027 9.81279C59.0387 13.3266 59.5747 16.7026 60.947 19.8885L62.7839 19.0973C61.5437 16.2181 61.125 13.3379 62.0169 10.3924L60.1027 9.81279ZM60.947 19.8885C62.0727 22.5012 63.7231 24.822 66.3363 26.3712L67.3562 24.6508C65.211 23.379 63.7976 21.4502 62.7838 19.0972L60.947 19.8885ZM65.9697 25.0296C65.5874 25.7258 65.2111 26.0876 64.8303 26.2768C64.4495 26.4659 63.9347 26.5469 63.151 26.4311L62.8586 28.4096C63.8946 28.5627 64.8569 28.4968 65.7201 28.0679C66.5833 27.6391 67.2178 26.9118 67.7228 25.9923L65.9697 25.0296ZM63.1508 26.431C62.3358 26.3108 61.547 26.1553 60.7788 25.934L60.2252 27.8559C61.1028 28.1087 61.9836 28.2804 62.8588 28.4096L63.1508 26.431ZM60.7788 25.934C57.8535 25.0915 55.0402 26.1404 53.4014 28.7112L55.0879 29.7862C56.2463 27.9691 58.1448 27.2566 60.2252 27.8559L60.7788 25.934ZM53.4016 28.7109C51.9802 30.939 50.9241 33.3298 49.9568 35.6919L51.8076 36.4498C52.7659 34.1097 53.7671 31.8566 55.0877 29.7865L53.4016 28.7109ZM49.9568 35.6919C48.5748 39.0675 47.3381 42.5234 46.5175 46.14L48.468 46.5825C49.2544 43.1167 50.4465 39.7742 51.8077 36.4497L49.9568 35.6919ZM46.5176 46.1398C46.0723 48.1 46.3801 49.8604 47.616 51.5215L49.2206 50.3277C48.357 49.167 48.1431 48.0125 48.4679 46.5828L46.5176 46.1398ZM47.6161 51.5217C49.9311 54.6318 52.6135 57.3754 55.3188 60.025L56.7182 58.5961C54.0248 55.9582 51.4369 53.3052 49.2204 50.3275L47.6161 51.5217ZM55.3194 60.0256C55.421 60.1249 55.4551 60.1818 55.4696 60.2121C55.4819 60.2378 55.5003 60.2858 55.5056 60.3969L57.5033 60.301C57.4876 59.9736 57.4207 59.6565 57.2741 59.3498C57.1297 59.0476 56.9313 58.8045 56.7176 58.5955L55.3194 60.0256ZM55.5057 60.3972C55.6619 63.6328 55.8381 66.8671 56.019 70.0986L58.0159 69.9868C57.8351 66.7568 57.6592 63.5286 57.5033 60.3007L55.5057 60.3972ZM56.0191 70.0989C56.0584 70.7975 56.1832 71.5175 56.6635 72.0881C57.1495 72.6655 57.8434 72.907 58.552 73.0496L58.9464 71.0889C58.3693 70.9728 58.2338 70.848 58.1936 70.8002C58.1477 70.7456 58.0494 70.5816 58.0159 69.9864L56.0191 70.0989ZM58.5523 73.0496C61.5867 73.6591 64.6611 73.7593 67.628 73.8736L67.7049 71.8751C64.7006 71.7593 61.7942 71.6608 58.9461 71.0888L58.5523 73.0496ZM67.6278 73.8736C69.1803 73.9336 70.7648 73.9524 72.288 73.9954L72.3444 71.9962C70.7682 71.9517 69.2521 71.9349 67.7051 71.8751L67.6278 73.8736ZM72.2903 73.9955C72.4012 73.9984 72.5116 73.9869 72.5311 73.9852C72.5787 73.9811 72.5503 73.9856 72.5045 73.9823C72.4482 73.9782 72.3305 73.9612 72.1995 73.8857C72.0612 73.8061 71.9732 73.699 71.9249 73.6119L73.6741 72.6422C73.5681 72.4509 73.4116 72.2759 73.1978 72.1527C72.9913 72.0338 72.7912 71.9978 72.6493 71.9875C72.5179 71.978 72.4007 71.989 72.3602 71.9925C72.2916 71.9984 72.3144 71.9954 72.3422 71.9962L72.2903 73.9955ZM72.7995 74.1271H74.4184V72.1271H72.7995V74.1271ZM75.1805 73.7745C75.1574 73.8017 75.1256 73.8327 75.0842 73.8624C75.0425 73.8922 74.9979 73.9159 74.9529 73.9334C74.8641 73.9679 74.7972 73.9692 74.7848 73.9692C74.7784 73.9693 74.7799 73.9689 74.7944 73.9701C74.8103 73.9715 74.8288 73.9735 74.8637 73.9775C74.8936 73.9809 74.9407 73.9864 74.9897 73.9906C75.0401 73.9949 75.1045 73.999 75.1765 73.9985L75.1635 71.9986C75.1724 71.9985 75.1694 71.9994 75.091 71.9905C75.0356 71.9841 74.9105 71.9687 74.7765 71.9692C74.4561 71.9706 74.0091 72.0642 73.6562 72.4796L75.1805 73.7745ZM75.1766 73.9985C77.3192 73.9844 79.5134 73.9275 81.7062 73.5842L81.3969 71.6083C79.3605 71.927 77.2921 71.9846 75.1635 71.9986L75.1766 73.9985ZM81.7031 73.5847C81.874 73.5585 82.0663 73.5244 82.2647 73.4729L81.7618 71.5371C81.6566 71.5644 81.539 71.5865 81.4 71.6078L81.7031 73.5847ZM82.2629 73.4733C82.7757 73.3411 83.24 73.2075 83.6276 73.0383C84.0264 72.8643 84.4087 72.6258 84.7023 72.2476C84.9971 71.8681 85.1325 71.4383 85.1989 71.007C85.2632 70.5891 85.2713 70.1081 85.2643 69.5823L83.2645 69.6088C83.2713 70.1241 83.2593 70.4617 83.2222 70.7026C83.1872 70.9299 83.1398 70.999 83.1227 71.0209C83.1046 71.0442 83.0461 71.1099 82.8277 71.2053C82.5981 71.3054 82.2686 71.4064 81.7636 71.5367L82.2629 73.4733ZM85.2643 69.5826C85.2319 67.0872 85.1902 64.5891 85.1269 62.0904L83.1276 62.1411C83.1906 64.6286 83.2321 67.1178 83.2645 69.6086L85.2643 69.5826ZM85.1269 62.091C85.1205 61.8313 85.1655 61.7086 85.3303 61.5272L83.8497 60.1826C83.3201 60.7658 83.1091 61.3958 83.1275 62.1405L85.1269 62.091ZM85.3309 61.5265C87.6619 58.9553 89.8772 56.2658 91.8321 53.3467L90.1703 52.2338C88.287 55.0461 86.1393 57.6571 83.8491 60.1832L85.3309 61.5265ZM91.8322 53.3466C93.0189 51.5739 93.3527 49.7187 92.8448 47.6363L90.9017 48.1101C91.2762 49.6456 91.0462 50.9255 90.1702 52.234L91.8322 53.3466Z" fill="#3B55F2"/>
</svg>
