<svg enable-background="new 0 0 43 39" viewBox="0 0 43 39" xmlns="http://www.w3.org/2000/svg"><path d="m1153.8 3189.9c3.3 0 6 1.1 8.2 3.3s3.3 4.9 3.3 8.1c0 1.9-.4 3.7-1.1 5.5s-2 3.8-4 6c-1.9 2.2-3.7 4.1-5.2 5.6-1.6 1.5-4.1 3.8-7.5 6.9l-3 2.7-3-2.6c-4.5-4-7.7-7.1-9.7-9.1s-3.8-4.4-5.5-7.1-2.5-5.4-2.5-7.9c0-3.2 1.1-5.9 3.3-8.1s4.9-3.3 8.2-3.3c3.8 0 6.9 1.5 9.4 4.4 2.2-3 5.4-4.4 9.1-4.4zm-9.1 32.4c3.1-2.8 5.4-4.9 6.9-6.3s3.1-3.1 4.9-5.1 3-3.7 3.7-5.2 1-3 1-4.4c0-2.1-.7-3.8-2.1-5.2s-3.1-2.1-5.2-2.1c-1.6 0-3.1.5-4.5 1.4s-2.4 2.1-2.9 3.5h-3.9c-.5-1.4-1.5-2.6-2.9-3.5s-2.9-1.4-4.5-1.4c-2.1 0-3.8.7-5.2 2.1s-2.1 3.1-2.1 5.2c0 1.4.3 2.9 1 4.4s1.9 3.2 3.7 5.2 3.4 3.6 4.9 5.1c1.5 1.4 3.8 3.5 6.9 6.3l.2.2z" fill="#8ef99a" transform="translate(-1123 -3190)"/></svg>