<?xml version="1.0" encoding="utf-8"?>
<!-- Generator: Adobe Illustrator 24.3.0, SVG Export Plug-In . SVG Version: 6.00 Build 0)  -->
<svg version="1.1" id="Ebene_1" xmlns="http://www.w3.org/2000/svg" xmlns:xlink="http://www.w3.org/1999/xlink" x="0px" y="0px"
	 viewBox="0 0 43 39" style="enable-background:new 0 0 43 39;" xml:space="preserve">
<style type="text/css">
	.st0{enable-background:new    ;}
	.st1{fill:#8EF99A;}
</style>
<g id="Page-1">
	<g id="Wika" transform="translate(-1123.000000, -3190.000000)">
		<g class="st0">
			<path class="st1" d="M1153.8,3189.9c3.3,0,6,1.1,8.2,3.3c2.2,2.2,3.3,4.9,3.3,8.1c0,1.9-0.4,3.7-1.1,5.5c-0.7,1.8-2,3.8-4,6
				c-1.9,2.2-3.7,4.1-5.2,5.6c-1.6,1.5-4.1,3.8-7.5,6.9l-3,2.7l-3-2.6c-4.5-4-7.7-7.1-9.7-9.1c-2-2-3.8-4.4-5.5-7.1
				c-1.7-2.7-2.5-5.4-2.5-7.9c0-3.2,1.1-5.9,3.3-8.1c2.2-2.2,4.9-3.3,8.2-3.3c3.8,0,6.9,1.5,9.4,4.4
				C1146.9,3191.3,1150.1,3189.9,1153.8,3189.9z M1144.7,3222.3c3.1-2.8,5.4-4.9,6.9-6.3c1.5-1.4,3.1-3.1,4.9-5.1s3-3.7,3.7-5.2
				c0.7-1.5,1-3,1-4.4c0-2.1-0.7-3.8-2.1-5.2c-1.4-1.4-3.1-2.1-5.2-2.1c-1.6,0-3.1,0.5-4.5,1.4c-1.4,0.9-2.4,2.1-2.9,3.5h-3.9
				c-0.5-1.4-1.5-2.6-2.9-3.5c-1.4-0.9-2.9-1.4-4.5-1.4c-2.1,0-3.8,0.7-5.2,2.1c-1.4,1.4-2.1,3.1-2.1,5.2c0,1.4,0.3,2.9,1,4.4
				c0.7,1.5,1.9,3.2,3.7,5.2s3.4,3.6,4.9,5.1c1.5,1.4,3.8,3.5,6.9,6.3l0.2,0.2L1144.7,3222.3z"/>
		</g>
	</g>
</g>
</svg>
