<?xml version="1.0" encoding="UTF-8"?>
<svg width="18px" height="18px" viewBox="0 0 18 18" version="1.1" xmlns="http://www.w3.org/2000/svg" xmlns:xlink="http://www.w3.org/1999/xlink">
    <title>Group 7</title>
    <defs>
        <filter id="filter-1">
            <feColorMatrix in="SourceGraphic" type="matrix" values="0 0 0 0 0.611765 0 0 0 0 0.611765 0 0 0 0 0.611765 0 0 0 1.000000 0"></feColorMatrix>
        </filter>
    </defs>
    <g id="CoVerified-Website-😷📲---" stroke="none" stroke-width="1" fill="none" fill-rule="evenodd">
        <g id="CV-Website-Start" transform="translate(-1090.000000, -1711.000000)">
            <g filter="url(#filter-1)" id="Group-7">
                <g transform="translate(1090.000000, 1711.000000)">
                    <path d="M17.6715,15.3683036 C17.6715,15.8797607 17.4928179,16.3158107 17.1338143,16.6748143 C16.7748107,17.0338179 16.3404,17.2125 15.8273036,17.2125 L12.5618464,17.2125 L12.5618464,10.4127429 L14.8666821,10.4127429 L15.2125714,7.79972143 L12.5618464,7.79972143 L12.5618464,6.14732143 C12.5618464,5.7375 12.6388929,5.43095357 12.7913464,5.22604286 C12.9962571,4.99490357 13.3421464,4.88015357 13.8290143,4.88015357 L15.2125714,4.88015357 L15.2125714,2.57367857 C14.6748857,2.49663214 14.0093357,2.45892857 13.2142821,2.45892857 C12.1897286,2.45892857 11.3766429,2.76055714 10.775025,3.362175 C10.1734071,3.96379286 9.87177857,4.80310714 9.87177857,5.87847857 L9.87177857,7.79972143 L7.52923929,7.79972143 L7.52923929,10.4127429 L9.87177857,10.4127429 L9.87177857,17.2125 L2.30319643,17.2125 C1.7901,17.2125 1.35568929,17.0338179 0.996685714,16.6748143 C0.637682143,16.3158107 0.459,15.8797607 0.459,15.3683036 L0.459,1.84419643 C0.459,1.3311 0.637682143,0.896689286 0.996685714,0.537685714 C1.35568929,0.178682143 1.7901,0 2.30319643,0 L15.8273036,0 C16.3404,0 16.7748107,0.178682143 17.1338143,0.537685714 C17.4928179,0.896689286 17.6715,1.3311 17.6715,1.84419643 L17.6715,15.3683036 Z" id="Fill-3" fill="#1D1D1D"></path>
                </g>
            </g>
        </g>
    </g>
</svg>