<?xml version="1.0" encoding="utf-8"?>
<!-- Generator: Adobe Illustrator 24.3.0, SVG Export Plug-In . SVG Version: 6.00 Build 0)  -->
<svg version="1.1" id="Ebene_1" xmlns="http://www.w3.org/2000/svg" xmlns:xlink="http://www.w3.org/1999/xlink" x="0px" y="0px"
	 viewBox="0 0 43 42" style="enable-background:new 0 0 43 42;" xml:space="preserve">
<style type="text/css">
	.st0{enable-background:new    ;}
	.st1{fill:#8EF99A;}
</style>
<g id="Page-1">
	<g id="Wika" transform="translate(-1498.000000, -3188.000000)">
		<g class="st0">
			<path class="st1" d="M1504.8,3193.9c4.1-4.1,9-6.1,14.7-6.1c5.7,0,10.6,2,14.7,6.1c4.1,4.1,6.1,9,6.1,14.7c0,5.7-2,10.6-6.1,14.7
				c-4.1,4.1-9,6.1-14.7,6.1c-5.7,0-10.6-2-14.7-6.1c-4.1-4.1-6.1-9-6.1-14.7C1498.7,3202.9,1500.7,3198,1504.8,3193.9z
				 M1507.7,3220.4c3.3,3.3,7.2,4.9,11.8,4.9c4.6,0,8.5-1.6,11.8-4.9c3.3-3.3,4.9-7.2,4.9-11.8c0-4.6-1.6-8.5-4.9-11.8
				c-3.3-3.3-7.2-4.9-11.8-4.9c-4.6,0-8.5,1.6-11.8,4.9c-3.3,3.3-4.9,7.2-4.9,11.8C1502.8,3213.2,1504.4,3217.1,1507.7,3220.4z
				 M1513.6,3198.6c1.6-1.6,3.6-2.4,5.9-2.4c2.3,0,4.2,0.8,5.9,2.4c1.6,1.6,2.4,3.6,2.4,5.9c0,1.8-1,3.6-3.1,5.4
				c-2.1,1.9-3.1,3.5-3.1,5h-4.1c0-1.5,0.3-2.8,1-3.9c0.6-1.1,1.4-1.9,2.1-2.3c0.8-0.5,1.5-1.1,2.1-1.8c0.7-0.7,1-1.5,1-2.4
				c0-1.1-0.4-2.1-1.3-2.9c-0.8-0.8-1.8-1.2-2.9-1.2c-1.1,0-2.1,0.4-2.9,1.2c-0.8,0.8-1.3,1.8-1.3,2.9h-4.1
				C1511.2,3202.1,1512,3200.2,1513.6,3198.6z M1517.4,3221.1v-4.2h4.1v4.2H1517.4z"/>
		</g>
	</g>
</g>
</svg>
