<svg id="Ebene_1" xmlns="http://www.w3.org/2000/svg" viewBox="0 0 43 42"><style>.st0{enable-background:new}.st1{fill:#8ef99a}</style><g id="Page-1"><g class="st0" id="Wika"><path class="st1" d="M1504.8 3193.9c4.1-4.1 9-6.1 14.7-6.1 5.7 0 10.6 2 14.7 6.1s6.1 9 6.1 14.7c0 5.7-2 10.6-6.1 14.7s-9 6.1-14.7 6.1c-5.7 0-10.6-2-14.7-6.1s-6.1-9-6.1-14.7c0-5.7 2-10.6 6.1-14.7zm2.9 26.5c3.3 3.3 7.2 4.9 11.8 4.9 4.6 0 8.5-1.6 11.8-4.9 3.3-3.3 4.9-7.2 4.9-11.8 0-4.6-1.6-8.5-4.9-11.8-3.3-3.3-7.2-4.9-11.8-4.9-4.6 0-8.5 1.6-11.8 4.9-3.3 3.3-4.9 7.2-4.9 11.8 0 4.6 1.6 8.5 4.9 11.8zm5.9-21.8c1.6-1.6 3.6-2.4 5.9-2.4 2.3 0 4.2.8 5.9 2.4 1.6 1.6 2.4 3.6 2.4 5.9 0 1.8-1 3.6-3.1 5.4-2.1 1.9-3.1 3.5-3.1 5h-4.1c0-1.5.3-2.8 1-3.9.6-1.1 1.4-1.9 2.1-2.3.8-.5 1.5-1.1 2.1-1.8.7-.7 1-1.5 1-2.4 0-1.1-.4-2.1-1.3-2.9-.8-.8-1.8-1.2-2.9-1.2-1.1 0-2.1.4-2.9 1.2-.8.8-1.3 1.8-1.3 2.9h-4.1c0-2.4.8-4.3 2.4-5.9zm3.8 22.5v-4.2h4.1v4.2h-4.1z" transform="translate(-1498 -3188)"/></g></g></svg>