<?xml version="1.0" encoding="UTF-8"?>
<svg width="63px" height="63px" viewBox="0 0 63 63" version="1.1" xmlns="http://www.w3.org/2000/svg" xmlns:xlink="http://www.w3.org/1999/xlink">
    <title>Group 8</title>
    <defs>
        <filter id="filter-1">
            <feColorMatrix in="SourceGraphic" type="matrix" values="0 0 0 0 1.000000 0 0 0 0 1.000000 0 0 0 0 1.000000 0 0 0 1.000000 0"></feColorMatrix>
        </filter>
    </defs>
    <g id="CoVerified-Website-😷📲---" stroke="none" stroke-width="1" fill="none" fill-rule="evenodd">
        <g id="CV-Website-Start" transform="translate(-1193.000000, -1087.000000)">
            <g id="Group-8" transform="translate(1193.000000, 1087.000000)">
                <g filter="url(#filter-1)" id="noun_Greedy_68433">
                    <g>
                        <path d="M31.5,63 C14.130375,63 0,48.869625 0,31.5 C0,14.130375 14.130375,0 31.5,0 C48.869625,0 63,14.130375 63,31.5 C63,48.869625 48.869625,63 31.5,63 Z M31.5,2.625 C15.579375,2.625 2.625,15.579375 2.625,31.5 C2.625,47.418 15.579375,60.375 31.5,60.375 C47.418,60.375 60.375,47.418 60.375,31.5 C60.375,15.579375 47.418,2.625 31.5,2.625 Z" id="Shape" fill="#000000" fill-rule="nonzero"></path>
                        <path d="M31.8088235,54.9705882 C18.6984412,54.9705882 8.02941176,44.4692879 8.02941176,31.5650155 C8.02941176,30.8472446 8.6212549,30.2647059 9.3504902,30.2647059 C10.0797255,30.2647059 10.6715686,30.8472446 10.6715686,31.5650155 C10.6715686,43.0363467 20.1542696,52.369969 31.8088235,52.369969 C43.4633775,52.369969 52.9460784,43.0363467 52.9460784,31.5650155 C52.9460784,30.8472446 53.5405637,30.2647059 54.2671569,30.2647059 C54.99375,30.2647059 55.5882353,30.8472446 55.5882353,31.5650155 C55.5882353,44.4692879 44.9192059,54.9705882 31.8088235,54.9705882 Z" id="Path" fill="#000000" fill-rule="nonzero"></path>
                        <path d="M41.386287,28.4117647 C38.4292002,28.4117647 36.4438027,26.6588836 36.4438027,24.0493908 C36.4438027,23.3249724 37.0346948,22.7274594 37.7568963,22.7274594 C38.4790978,22.7274594 39.0699899,23.3249724 39.0699899,24.0493908 C39.0699899,25.6013384 40.6903474,25.7679018 41.386287,25.7679018 C42.0822266,25.7679018 43.7025842,25.6013384 43.7025842,24.0493908 C43.7025842,23.1134634 43.5082463,22.9231052 41.3757823,21.8655601 L40.2333908,21.2971295 C38.1114316,20.2501598 36.4411765,19.4199868 36.4411765,16.7443975 C36.4411765,14.1586996 38.4738454,12.3529412 41.3836608,12.3529412 C44.3066072,12.3529412 46.2709953,14.1163978 46.2709953,16.7443975 C46.2709953,17.4741037 45.6801032,18.066329 44.9579017,18.066329 C44.233074,18.066329 43.6448081,17.4741037 43.6448081,16.7443975 C43.6448081,15.1660114 42.0638433,14.9968041 41.3836608,14.9968041 C40.6877212,14.9968041 39.0673637,15.1660114 39.0673637,16.7443975 C39.0673637,17.6856127 39.2643277,17.8706831 41.3915394,18.9255845 L42.5391832,19.494015 C44.6558901,20.5462724 46.3235294,21.3764454 46.3235294,24.0493908 C46.3287714,26.6588836 44.3407477,28.4117647 41.386287,28.4117647 L41.386287,28.4117647 Z" id="Path" fill="#000000" fill-rule="nonzero"></path>
                        <path d="M41.3835895,12.3529412 C41.0620915,12.3529412 40.7405935,12.2283247 40.4932874,11.9790918 C40.2979156,11.7547821 40.1470588,11.4557026 40.1470588,11.1067765 C40.1470588,10.7827737 40.2979156,10.4338475 40.518018,10.2095379 C40.9631691,9.78584191 41.7792793,9.76091862 42.2466879,10.2095379 C42.4964671,10.4637555 42.6176471,10.7827737 42.6176471,11.1067765 C42.6176471,11.4307793 42.4915209,11.7547821 42.2689454,11.9790918 C42.0265854,12.2283247 41.7050874,12.3529412 41.3835895,12.3529412 L41.3835895,12.3529412 Z" id="Path" fill="#000000" fill-rule="nonzero"></path>
                        <polygon id="Path" fill="#000000" fill-rule="nonzero" points="40.1470588 11.1176471 42.6176471 11.1176471 42.6176471 14.2058824 40.1470588 14.2058824"></polygon>
                        <path d="M41.3835895,31.5 C41.0620915,31.5 40.7405935,31.3757132 40.518018,31.1271395 C40.2682388,30.9034231 40.1470588,30.5802773 40.1470588,30.2571315 C40.1470588,29.9339857 40.2707119,29.6108399 40.518018,29.3871236 C40.9631691,28.9148336 41.7792793,28.9148336 42.2466879,29.3597805 C42.4964671,29.6133257 42.6176471,29.9315 42.6176471,30.2546458 C42.6176471,30.5777916 42.4915209,30.9009374 42.2689454,31.1246537 C42.0265854,31.3757132 41.7050874,31.5 41.3835895,31.5 L41.3835895,31.5 Z" id="Path" fill="#000000" fill-rule="nonzero"></path>
                        <polygon id="Path" fill="#000000" fill-rule="nonzero" points="40.1470588 27.1764706 42.6176471 27.1764706 42.6176471 30.2647059 40.1470588 30.2647059"></polygon>
                    </g>
                </g>
                <path d="M21.5,29 L27.125971,23.0251479 C28.4329363,21.656213 29,20.1568047 29,18.8168639 C29,16.5284024 27.5687468,15 25.3975919,15 C23.374029,15 22.6846194,15.9982249 21.5,17.447929 C20.3173226,16.0002959 19.624029,15 17.6004661,15 C15.4312532,15 14,16.5263314 14,18.8168639 C14,20.1568047 14.5670637,21.656213 15.874029,23.0251479 L21.5,29 Z" id="Path" fill="#FFFFFF"></path>
            </g>
        </g>
    </g>
</svg>