<?xml version="1.0" encoding="UTF-8"?>
<svg width="151px" height="96px" viewBox="0 0 151 96" version="1.1" xmlns="http://www.w3.org/2000/svg" xmlns:xlink="http://www.w3.org/1999/xlink">
    <title>Group 25</title>
    <g id="Page-1" stroke="none" stroke-width="1" fill="none" fill-rule="evenodd">
        <g id="Startseite-Copy-5" transform="translate(-1332.000000, -2913.000000)" stroke-width="2">
            <g id="Group-24" transform="translate(1333.000000, 2914.000000)">
                <g id="Group-11">
                    <polygon id="Triangle" stroke="#FFFFFF" stroke-linejoin="round" transform="translate(78.407895, 17.839286) rotate(-270.000000) translate(-78.407895, -17.839286) " points="78.4078947 11.8590226 86.3364662 23.8195489 70.4793233 23.8195489"></polygon>
                    <g id="Group-8" transform="translate(11.960526, 7.928571)" stroke="#FFFFFF">
                        <ellipse id="Oval" cx="6.20175439" cy="4.03636364" rx="3.10087719" ry="3.17142857"></ellipse>
                        <polyline id="Path-3" stroke-linecap="round" points="0 23.0649351 6.24164052 15.1363636 9.30263158 19.1006494"></polyline>
                        <polyline id="Path-4" stroke-linecap="round" points="7.75219298 23.0649351 17.9034701 7.20779221 27.9078947 23.0649351"></polyline>
                    </g>
                    <rect id="Rectangle" stroke="#FFFFFF" x="0" y="0" width="45.1842105" height="33.0357143" rx="3"></rect>
                    <rect id="Rectangle-Copy-8" stroke="#FFFFFF" x="0" y="0" width="45.1842105" height="33.0357143" rx="3"></rect>
                    <rect id="Rectangle-Copy-2" stroke="#FFFFFF" x="55.8157895" y="0" width="45.1842105" height="33.0357143" rx="3"></rect>
                    <rect id="Rectangle-Copy-4" stroke="#33FF99" x="30.5657895" y="40.9642857" width="45.1842105" height="33.0357143" rx="3"></rect>
                    <line x1="39.314693" y1="57.4821429" x2="56.3695175" y2="57.4821429" id="Line-2" stroke="#FFFFFF" stroke-linecap="round"></line>
                    <line x1="39.3438366" y1="65.4107143" x2="68.3009003" y2="65.4107143" id="Line-2-Copy" stroke="#FFFFFF" stroke-linecap="round"></line>
                </g>
                <g id="Group-10" transform="translate(74.000000, 27.000000)" stroke="#FFFFFF">
                    <ellipse id="Oval" fill="#3B55F2" cx="21.4285714" cy="21.12" rx="21.4285714" ry="21.12"></ellipse>
                    <line x1="37.5" y1="34.32" x2="43.8367571" y2="40.26" id="Path-5"></line>
                    <path d="M44.5958826,44.3962939 L70.2094437,44.213591 C72.6946618,44.1958638 74.7237,46.1961604 74.7414272,48.6813785 C74.74158,48.7028039 74.7415798,48.72423 74.7414266,48.7456554 L74.7203236,51.6966828 C74.702731,54.1568364 72.7126905,56.1468411 70.2525366,56.1643895 L44.6389755,56.3470924 C42.1537574,56.3648196 40.1247192,54.364523 40.106992,51.8793048 C40.1068392,51.8578795 40.1068394,51.8364534 40.1069926,51.815028 L40.1280955,48.8640006 C40.1456882,46.403847 42.1357287,44.4138423 44.5958826,44.3962939 Z" id="Rectangle" transform="translate(57.424210, 50.280342) rotate(-320.000000) translate(-57.424210, -50.280342) "></path>
                </g>
            </g>
        </g>
    </g>
</svg>