<svg width="151" height="96" xmlns="http://www.w3.org/2000/svg"><g transform="translate(1 1)" stroke-width="2" fill="none" fill-rule="evenodd"><path stroke="#FFF" stroke-linejoin="round" transform="rotate(90 78.408 17.84)" d="M78.4078947 11.8590226L86.3364662 23.8195489 70.4793233 23.8195489z"/><g transform="translate(11.96 7.929)" stroke="#FFF"><ellipse cx="6.202" cy="4.036" rx="3.101" ry="3.171"/><path stroke-linecap="round" d="M0 23.0649351L6.24164052 15.1363636 9.30263158 19.1006494"/><path stroke-linecap="round" d="M7.75219298 23.0649351L17.9034701 7.20779221 27.9078947 23.0649351"/></g><rect stroke="#FFF" width="45.184" height="33.036" rx="3"/><rect stroke="#FFF" width="45.184" height="33.036" rx="3"/><rect stroke="#FFF" x="55.816" width="45.184" height="33.036" rx="3"/><rect stroke="#3F9" x="30.566" y="40.964" width="45.184" height="33.036" rx="3"/><path stroke="#FFF" stroke-linecap="round" d="M39.315 57.482L56.37 57.482"/><path stroke="#FFF" stroke-linecap="round" d="M39.344 65.411L68.301 65.411"/><g transform="translate(74 27)" stroke="#FFF"><ellipse fill="#3B55F2" cx="21.429" cy="21.12" rx="21.429" ry="21.12"/><path d="M37.5 34.32L43.837 40.26"/><path d="M51.38 37.527l19.738 16.324a4.5 4.5 0 0 1 .558 6.385l-1.913 2.247a4.5 4.5 0 0 1-6.294.55L43.731 46.71a4.5 4.5 0 0 1-.559-6.385l1.913-2.247a4.5 4.5 0 0 1 6.294-.551z"/></g></g></svg>