<svg width="170" height="108" xmlns="http://www.w3.org/2000/svg"><g transform="translate(1 1)" stroke="#3B55F2" fill="none" fill-rule="evenodd"><path stroke-width="2" stroke-linejoin="round" transform="rotate(90 87.973 20.25)" d="M87.9732143 13.5401786L96.9732143 26.9598214 78.9732143 26.9598214z"/><ellipse stroke-width="2" cx="20.378" cy="13.582" rx="3.479" ry="3.6"/><path stroke-width="2" stroke-linecap="round" d="M13.4196429 35.1818182L20.4227282 26.1818182 23.8571429 30.6818182"/><path stroke-width="2" stroke-linecap="round" d="M22.1175595 35.1818182L33.507235 17.1818182 44.7321429 35.1818182"/><rect stroke-width="2" width="50.696" height="37.5" rx="3"/><rect stroke-width="2" width="50.696" height="37.5" rx="3"/><rect stroke-width="2" x="62.625" width="50.696" height="37.5" rx="3"/><rect stroke-width="2" x="34.295" y="46.5" width="50.696" height="37.5" rx="3"/><path stroke-width="2" stroke-linecap="round" d="M44.111 65.25L63.246 65.25"/><path stroke-width="2" stroke-linecap="round" d="M44.144 74.25L76.633 74.25"/><ellipse stroke-width="10" fill="#F7F8FC" cx="107.357" cy="54" rx="23.857" ry="24"/><path stroke-width="2" d="M125.25 69L132.305 75.75"/><path d="M140.355 72.351l22.82 19.264a4.5 4.5 0 0 1 .554 6.32l-2.861 3.43a4.5 4.5 0 0 1-6.359.557L131.69 82.66a4.5 4.5 0 0 1-.553-6.321l2.86-3.43a4.5 4.5 0 0 1 6.36-.557z" stroke-width="2"/></g></svg>