<?xml version="1.0" encoding="UTF-8"?>
<svg width="170px" height="108px" viewBox="0 0 170 108" version="1.1" xmlns="http://www.w3.org/2000/svg" xmlns:xlink="http://www.w3.org/1999/xlink">
    <title>Group 11</title>
    <g id="Page-1" stroke="none" stroke-width="1" fill="none" fill-rule="evenodd">
        <g id="Technologie" transform="translate(-1513.000000, -2661.000000)" stroke="#3B55F2">
            <g id="Group-8" transform="translate(1514.000000, 2662.000000)">
                <polygon id="Triangle" stroke-width="2" stroke-linejoin="round" transform="translate(87.973214, 20.250000) rotate(-270.000000) translate(-87.973214, -20.250000) " points="87.9732143 13.5401786 96.9732143 26.9598214 78.9732143 26.9598214"></polygon>
                <ellipse id="Oval" stroke-width="2" cx="20.3779762" cy="13.5818182" rx="3.47916667" ry="3.6"></ellipse>
                <polyline id="Path-3" stroke-width="2" stroke-linecap="round" points="13.4196429 35.1818182 20.4227282 26.1818182 23.8571429 30.6818182"></polyline>
                <polyline id="Path-4" stroke-width="2" stroke-linecap="round" points="22.1175595 35.1818182 33.507235 17.1818182 44.7321429 35.1818182"></polyline>
                <rect id="Rectangle" stroke-width="2" x="0" y="0" width="50.6964286" height="37.5" rx="3"></rect>
                <rect id="Rectangle-Copy-8" stroke-width="2" x="0" y="0" width="50.6964286" height="37.5" rx="3"></rect>
                <rect id="Rectangle-Copy-2" stroke-width="2" x="62.625" y="0" width="50.6964286" height="37.5" rx="3"></rect>
                <rect id="Rectangle-Copy-4" stroke-width="2" x="34.2946429" y="46.5" width="50.6964286" height="37.5" rx="3"></rect>
                <line x1="44.1108631" y1="65.25" x2="63.2462798" y2="65.25" id="Line-2" stroke-width="2" stroke-linecap="round"></line>
                <line x1="44.143562" y1="74.25" x2="76.6332237" y2="74.25" id="Line-2-Copy" stroke-width="2" stroke-linecap="round"></line>
                <ellipse id="Oval" stroke-width="10" fill="#F7F8FC" cx="107.357143" cy="54" rx="23.8571429" ry="24"></ellipse>
                <line x1="125.25" y1="69" x2="132.304923" y2="75.75" id="Path-5" stroke-width="2"></line>
                <path d="M132.507132,80.3595123 L162.370788,80.4473488 C164.845733,80.4546282 166.850262,82.4591628 166.857533,84.9341075 L166.870657,89.4007891 C166.87796,91.8860598 164.869169,93.9066893 162.383899,93.9139916 C162.37508,93.9140175 162.36626,93.9140175 162.357441,93.9139915 L132.493785,93.8261551 C130.01884,93.8188756 128.014312,91.8143411 128.00704,89.3393964 L127.993916,84.8727147 C127.986614,82.3874441 129.995404,80.3668145 132.480675,80.3595123 C132.489494,80.3594864 132.498313,80.3594864 132.507132,80.3595123 Z" id="Rectangle" stroke-width="2" transform="translate(147.432287, 87.136752) rotate(-320.000000) translate(-147.432287, -87.136752) "></path>
            </g>
        </g>
    </g>
</svg>