<?xml version="1.0" encoding="UTF-8"?>
<svg width="108px" height="127px" viewBox="0 0 108 127" version="1.1" xmlns="http://www.w3.org/2000/svg" xmlns:xlink="http://www.w3.org/1999/xlink">
    <title>Group 12</title>
    <g id="Page-1" stroke="none" stroke-width="1" fill="none" fill-rule="evenodd">
        <g id="Technologie" transform="translate(-283.000000, -2615.000000)" stroke-width="2">
            <g id="Group-7" transform="translate(284.000000, 2616.000000)">
                <rect id="Rectangle-Copy-8" stroke="#3B55F2" x="10" y="81" width="39" height="22" rx="3"></rect>
                <rect id="Rectangle-Copy-10" stroke="#FFFFFF" x="42" y="81" width="22" height="22" rx="3"></rect>
                <rect id="Rectangle-Copy-9" stroke="#3B55F2" x="10" y="12" width="54" height="60" rx="3"></rect>
                <rect id="Rectangle-Copy-8" stroke="#3B55F2" x="0" y="0" width="78" height="115" rx="3"></rect>
                <circle id="Oval" stroke="#3B55F2" fill="#3A57FF" cx="72.5" cy="91.5" r="33.5"></circle>
                <line x1="77" y1="79.5" x2="93" y2="79.5" id="Path-2" stroke="#FFFFFF" stroke-linecap="round"></line>
                <line x1="54" y1="79.75" x2="61" y2="79.625" id="Path-2-Copy" stroke="#FFFFFF" stroke-linecap="round"></line>
                <circle id="Oval" stroke="#FFFFFF" cx="65.5" cy="79.5" r="3.5"></circle>
                <circle id="Oval-Copy-4" stroke="#FFFFFF" cx="71.5" cy="103.5" r="3.5"></circle>
                <line x1="87" y1="91.5" x2="93" y2="91.5" id="Path-2-Copy-5" stroke="#FFFFFF" stroke-linecap="round"></line>
                <line x1="54" y1="91.625" x2="73" y2="91.375" id="Path-2-Copy-4" stroke="#FFFFFF" stroke-linecap="round"></line>
                <circle id="Oval-Copy-5" stroke="#FFFFFF" cx="77.5" cy="91.5" r="3.5"></circle>
                <line x1="81" y1="103.5" x2="93" y2="103.5" id="Path-2-Copy-3" stroke="#FFFFFF" stroke-linecap="round"></line>
                <line x1="54" y1="103.625" x2="67" y2="103.375" id="Path-2-Copy-2" stroke="#FFFFFF" stroke-linecap="round"></line>
            </g>
        </g>
    </g>
</svg>