<svg width="35" height="38" xmlns="http://www.w3.org/2000/svg" xmlns:xlink="http://www.w3.org/1999/xlink"><defs><path id="a" d="M0.00642282958 0.054672299L23.567609 0.054672299 23.567609 26.825 0.00642282958 26.825z"/><path id="c" d="M0 37L34 37 34 0 0 0z"/></defs><g fill="none" fill-rule="evenodd"><path d="M4.307 0c.745.183 1.43.473 2.023.975 1.654 1.4 1.633 4.133-.06 5.492-1.782 1.43-4.077 1.196-5.517-.565C-.6 4.248-.065 1.56 1.842.547 2.288.311 2.792.18 3.27 0h1.036z" fill="#FFF"/><g transform="translate(10.389 10.175)"><mask id="b" fill="#fff"><use xlink:href="#a"/></mask><path d="M.006.062H7.69V2.15c.325-.234.582-.416.837-.602C9.801.62 11.222.08 12.851.057c1.246-.018 2.469.12 3.662.452 2.484.69 4.48 1.987 5.747 4.168A9.425 9.425 0 0 1 23.54 9.4c.039 5.734.023 11.468.028 17.202 0 .069-.011.137-.018.223h-8.105v-.43c0-5.401.008-10.802-.012-16.203a5.329 5.329 0 0 0-.282-1.676c-.321-.944-1.083-1.507-2.09-1.736-1.178-.268-2.356-.254-3.485.212-1.148.474-1.72 1.35-1.861 2.496-.024.189-.024.38-.024.57v16.76H.005V.062z" fill="#FFF" mask="url(#b)"/></g><mask id="d" fill="#fff"><use xlink:href="#c"/></mask><path fill="#FFF" mask="url(#d)" d="M0 37L7.55555556 37 7.55555556 10.175 0 10.175z"/></g></svg>