<?xml version="1.0" encoding="UTF-8"?>
<svg width="18px" height="18px" viewBox="0 0 18 18" version="1.1" xmlns="http://www.w3.org/2000/svg" xmlns:xlink="http://www.w3.org/1999/xlink">
    <title>Group 5</title>
    <defs>
        <filter id="filter-1">
            <feColorMatrix in="SourceGraphic" type="matrix" values="0 0 0 0 0.611765 0 0 0 0 0.611765 0 0 0 0 0.611765 0 0 0 1.000000 0"></feColorMatrix>
        </filter>
    </defs>
    <g id="CoVerified-Website-😷📲---" stroke="none" stroke-width="1" fill="none" fill-rule="evenodd">
        <g id="CV-Website-Start" transform="translate(-1144.000000, -1711.000000)">
            <g filter="url(#filter-1)" id="Group-5">
                <g transform="translate(1144.000000, 1711.000000)">
                    <path d="M15.147,15.147 L15.147,10.3657276 C15.147,9.00388457 14.9613945,8.00822209 14.5884806,7.38222764 C14.0827481,6.59232379 13.2177242,6.1965 11.9934089,6.1965 C11.3821026,6.1965 10.8372057,6.34645967 10.3570153,6.64637902 C9.95855936,6.89224313 9.66567725,7.2043685 9.48007172,7.58624255 L9.43920445,7.58624255 L9.43920445,6.4005149 L6.885,6.4005149 L6.885,15.147 L9.51923619,15.147 L9.51923619,10.8156067 C9.51923619,10.1338133 9.61289035,9.61592928 9.79849588,9.2619547 C10.0658359,8.79812595 10.5034563,8.56795529 11.1164654,8.56795529 C11.7277716,8.56795529 12.1279303,8.82602542 12.3135359,9.34390941 C12.4463545,9.66998451 12.5127638,10.1878685 12.5127638,10.8958177 L12.5127638,15.147 L15.147,15.147 Z M5.46592743,15.147 L5.508,15.147 L5.508,6.885 L2.754,6.885 L2.754,15.147 L5.46592743,15.147 Z M4.11345374,5.508 C4.49489418,5.508 4.8214072,5.37068144 5.09604432,5.09604432 C5.37068144,4.8214072 5.508,4.50099723 5.508,4.13023712 C5.508,3.76100277 5.37068144,3.43906704 5.09604432,3.16595568 C4.8214072,2.89131856 4.49489418,2.754 4.11345374,2.754 C3.7320133,2.754 3.41007756,2.89131856 3.14764654,3.16595568 C2.88521551,3.43906704 2.754,3.76100277 2.754,4.13023712 C2.754,4.50099723 2.88521551,4.8214072 3.14764654,5.09604432 C3.41007756,5.37068144 3.7320133,5.508 4.11345374,5.508 L4.11345374,5.508 Z M16.6223571,0 C16.9684431,0 17.268498,0.126159429 17.5208169,0.380183143 C17.7748406,0.632502 17.901,0.932556857 17.901,1.27864286 L17.901,16.6223571 C17.901,16.9684431 17.7748406,17.268498 17.5208169,17.5208169 C17.268498,17.7748406 16.9684431,17.901 16.6223571,17.901 L1.27864286,17.901 C0.932556857,17.901 0.632502,17.7748406 0.380183143,17.5208169 C0.126159429,17.268498 0,16.9684431 0,16.6223571 L0,1.27864286 C0,0.932556857 0.126159429,0.632502 0.380183143,0.380183143 C0.632502,0.126159429 0.932556857,0 1.27864286,0 L16.6223571,0 Z" id="Fill-1" fill="#1D1D1D"></path>
                </g>
            </g>
        </g>
    </g>
</svg>