<svg xmlns="http://www.w3.org/2000/svg" width="462" height="344" viewBox="0 0 462 344">
    <g fill="none" fill-rule="evenodd">
        <path fill="#FFF" d="M462 233.506c0-46.785-28.165-86.973-68.464-104.604.62-4.83.981-9.747.981-14.745C394.517 51.108 343.39 0 280.316 0c-38.88 0-73.2 19.437-93.827 49.107-11.698-8.052-25.86-12.786-41.14-12.786-40.136 0-72.671 32.52-72.671 72.646 0 5.988.807 11.775 2.17 17.337C31.164 142.342 0 184.285 0 233.506c0 37.54 19.867 74.686 47.847 95.494 0 0 54.02 15 171.063 15 132.49 0 192.251-15.531 192.251-15.531C434.42 307.57 462 267.233 462 233.506z"/>
        <g stroke-linejoin="round" stroke-width="1.75" transform="translate(260 96)">
            <rect width="38.75" height="47.75" x="-.875" y="-.875" stroke="#027AFF" rx="2"/>
            <path stroke="#1CFF1C" stroke-linecap="round" d="M14.5 10L17.037 12.538 22.622 7"/>
            <path stroke="#027AFF" stroke-linecap="round" d="M5 22.5L32 22.5M5 30.5L32 30.5M5 38.5L32 38.5"/>
        </g>
        <g stroke-linejoin="round" stroke-width="1.75" transform="translate(387 179)">
            <rect width="38.75" height="47.75" x="-.875" y="-.875" stroke="#027AFF" rx="2"/>
            <path stroke="#1CFF1C" stroke-linecap="round" d="M14.5 10L17.037 12.538 22.622 7"/>
            <path stroke="#027AFF" stroke-linecap="round" d="M5 22.5L32 22.5M5 30.5L32 30.5M5 38.5L32 38.5"/>
        </g>
        <g stroke-linejoin="round" stroke-width="1.75" transform="translate(267 17)">
            <rect width="38.75" height="47.75" x="-.875" y="-.875" stroke="#027AFF" rx="2"/>
            <path stroke="#1CFF1C" stroke-linecap="round" d="M14.5 10L17.037 12.538 22.622 7"/>
            <path stroke="#027AFF" stroke-linecap="round" d="M5 22.5L32 22.5M5 30.5L32 30.5M5 38.5L32 38.5"/>
        </g>
        <g stroke-linejoin="round" stroke-width="1.75" transform="translate(27 194)">
            <rect width="38.75" height="47.75" x="-.875" y="-.875" stroke="#027AFF" rx="2"/>
            <path stroke="#1CFF1C" stroke-linecap="round" d="M14.5 10L17.037 12.538 22.622 7"/>
            <path stroke="#027AFF" stroke-linecap="round" d="M5 22.5L32 22.5M5 30.5L32 30.5M5 38.5L32 38.5"/>
        </g>
        <g stroke-linejoin="round" stroke-width="1.75" transform="translate(204 195)">
            <rect width="38.75" height="47.75" x="-.875" y="-.875" stroke="#027AFF" rx="2"/>
            <path stroke="#1CFF1C" stroke-linecap="round" d="M14.5 10L17.037 12.538 22.622 7"/>
            <path stroke="#027AFF" stroke-linecap="round" d="M5 22.5L32 22.5M5 30.5L32 30.5M5 38.5L32 38.5"/>
        </g>
        <g stroke-linejoin="round" stroke-width="1.75" transform="translate(116 72)">
            <rect width="38.75" height="47.75" x="-.875" y="-.875" stroke="#027AFF" rx="2"/>
            <path stroke="#1CFF1C" stroke-linecap="round" d="M14.5 10L17.037 12.538 22.622 7"/>
            <path stroke="#027AFF" stroke-linecap="round" d="M5 22.5L32 22.5M5 30.5L32 30.5M5 38.5L32 38.5"/>
        </g>
        <g stroke-linejoin="round" stroke-width="1.75" transform="translate(324 144)">
            <rect width="38.75" height="47.75" x="-.875" y="-.875" stroke="#027AFF" rx="2"/>
            <path stroke="#1CFF1C" stroke-linecap="round" d="M14.5 10L17.037 12.538 22.622 7"/>
            <path stroke="#027AFF" stroke-linecap="round" d="M5 22.5L32 22.5M5 30.5L32 30.5M5 38.5L32 38.5"/>
        </g>
        <g stroke-linejoin="round" stroke-width="1.75" transform="translate(179 110)">
            <rect width="38.75" height="47.75" x="-.875" y="-.875" stroke="#027AFF" rx="2"/>
            <path stroke="#1CFF1C" stroke-linecap="round" d="M14.5 10L17.037 12.538 22.622 7"/>
            <path stroke="#027AFF" stroke-linecap="round" d="M5 22.5L32 22.5M5 30.5L32 30.5M5 38.5L32 38.5"/>
        </g>
        <g stroke-linejoin="round" stroke-width="1.75" transform="translate(268 182)">
            <rect width="38.75" height="47.75" x="-.875" y="-.875" stroke="#027AFF" rx="2"/>
            <path stroke="#1CFF1C" stroke-linecap="round" d="M14.5 10L17.037 12.538 22.622 7"/>
            <path stroke="#027AFF" stroke-linecap="round" d="M5 22.5L32 22.5M5 30.5L32 30.5M5 38.5L32 38.5"/>
        </g>
        <g stroke-linejoin="round" stroke-width="1.75" transform="translate(142 179)">
            <rect width="38.75" height="47.75" x="-.875" y="-.875" stroke="#027AFF" rx="2"/>
            <path stroke="#1CFF1C" stroke-linecap="round" d="M14.5 10L17.037 12.538 22.622 7"/>
            <path stroke="#027AFF" stroke-linecap="round" d="M5 22.5L32 22.5M5 30.5L32 30.5M5 38.5L32 38.5"/>
        </g>
        <g stroke-linejoin="round" stroke-width="1.75" transform="translate(84 149)">
            <rect width="38.75" height="47.75" x="-.875" y="-.875" stroke="#027AFF" rx="2"/>
            <path stroke="#1CFF1C" stroke-linecap="round" d="M14.5 10L17.037 12.538 22.622 7"/>
            <path stroke="#027AFF" stroke-linecap="round" d="M5 22.5L32 22.5M5 30.5L32 30.5M5 38.5L32 38.5"/>
        </g>
        <g stroke-linejoin="round" stroke-width="1.75" transform="translate(213 35)">
            <rect width="38.75" height="47.75" x="-.875" y="-.875" stroke="#027AFF" rx="2"/>
            <path stroke="#1CFF1C" stroke-linecap="round" d="M14.5 10L17.037 12.538 22.622 7"/>
            <path stroke="#027AFF" stroke-linecap="round" d="M5 22.5L32 22.5M5 30.5L32 30.5M5 38.5L32 38.5"/>
        </g>
        <g stroke-linejoin="round" stroke-width="1.75" transform="translate(318 57)">
            <rect width="38.75" height="47.75" x="-.875" y="-.875" stroke="#027AFF" rx="2"/>
            <path stroke="#1CFF1C" stroke-linecap="round" d="M14.5 10L17.037 12.538 22.622 7"/>
            <path stroke="#027AFF" stroke-linecap="round" d="M5 22.5L32 22.5M5 30.5L32 30.5M5 38.5L32 38.5"/>
        </g>
    </g>
</svg>
