<svg xmlns="http://www.w3.org/2000/svg" xmlns:xlink="http://www.w3.org/1999/xlink" width="287" height="252" viewBox="0 0 287 252">
    <defs>
        <filter id="prefix__a" width="115.3%" height="107.5%" x="-8%" y="-3.5%" filterUnits="objectBoundingBox">
            <feMorphology in="SourceAlpha" operator="dilate" radius="1.5" result="shadowSpreadOuter1"/>
            <feOffset in="shadowSpreadOuter1" result="shadowOffsetOuter1"/>
            <feGaussianBlur in="shadowOffsetOuter1" result="shadowBlurOuter1" stdDeviation="1"/>
            <feComposite in="shadowBlurOuter1" in2="SourceAlpha" operator="out" result="shadowBlurOuter1"/>
            <feColorMatrix in="shadowBlurOuter1" values="0 0 0 0 0 0 0 0 0 0 0 0 0 0 0 0 0 0 0.0954709353 0"/>
        </filter>
        <path id="prefix__b" d="M0 181.506c2.463-6.133 5.191-12.192 7.504-18.366 2.44-6.513 5.35-12.892 6.612-19.735.826-4.478.988-8.905 1.231-13.401.386-7.082 2.668-13.993 5.068-20.813.658-1.871.801-3.887 1.566-5.717.65-1.557 2.098-8.8 3.272-12.161 2.862-8.175 5.852-14.706 13.92-21.024 0 1.71.5 2.897.615 4.08.858 8.686-3.116 16.219-.615 24.953.195.672-.303 1.54.615 1.995.802.394 1.297-.086 1.723-.651 3.088-4.092 6.842-7.81 8.244-12.772 1.38-4.87 3.309-9.635 5.108-14.412.828-2.2 2.15-5.602 4.654-4.957 3.093.798 2.325 8.146 1.524 10.225-4.616 11.937-6.776 20.678-9.687 32.904-1.725 7.25-2.068 12.584-7.687 18.35-1.441 1.48-.33 1.562 1.766 2.812 2.096 1.25 6.56 1.232 12.106 1.232-1.635 3.435-3.905 6.722-6.867 9.357-3 2.667-7.698 4.33-8.585 9.666-1.148 6.93-3.023 13.924-4.424 20.92-1.474 7.36-2.598 14.783-5.162 21.954"/>
    </defs>
    <g fill="none" fill-rule="evenodd">
        <path stroke="#ECECEC" stroke-width="2.952" d="M246.044 132.816H51.592c-5.8 0-10.502-4.703-10.502-10.503V10.502C41.09 4.702 45.793 0 51.592 0h194.452c5.8 0 10.502 4.702 10.502 10.502v111.811c0 5.8-4.701 10.503-10.502 10.503z" transform="translate(3 2)"/>
        <path fill="#FFF" d="M240.606 122.486H57.216c-2.27 0-4.11-1.84-4.11-4.11V14.441c0-2.271 1.84-4.112 4.11-4.112h183.39c2.27 0 4.11 1.84 4.11 4.112v103.935c0 2.27-1.84 4.11-4.11 4.11" transform="translate(3 2)"/>
        <path stroke="#FFF" stroke-linecap="round" stroke-width="2.214" d="M250.627 58.483L250.627 70.289" transform="translate(3 2)"/>
        <g>
            <path fill="#3753FF" d="M46.803 8.132H.929C.414 8.132 0 7.716 0 7.205V.928C0 .415.415 0 .928 0h45.875c.513 0 .928.415.928.928v6.277c0 .511-.415.927-.928.927" transform="translate(3 2) translate(188.106 35.369)"/>
            <path stroke="#3753FF" stroke-linecap="round" stroke-width="1.422" d="M4.5 49.382L42 49.382M4.5 37.382L42 37.382M4.5 43.382L42 43.382M4.5 26.881L42 26.881M4.5 14.882L42 14.882M4.5 20.881L42 20.881" transform="translate(3 2) translate(188.106 35.369)"/>
            <path stroke="#3753FF" stroke-width="1.422" d="M30.534 76.739H2.85c-1.573 0-2.85-1.278-2.85-2.85V2.85C.001 1.275 1.278 0 2.851 0H44.88c1.575 0 2.851 1.275 2.851 2.85v56.988" transform="translate(3 2) translate(188.106 35.369)"/>
        </g>
        <g>
            <path fill="#3753FF" d="M5.784.155C6.352-.075 7.002.2 7.23.768c.165.413.07.863-.213 1.169L7.54 3.23c1.379-.45 2.813-.434 4.12-.033l.57-1.347c-.275-.31-.365-.765-.191-1.173.24-.564.892-.828 1.458-.588.564.238.828.892.588 1.456-.174.408-.561.659-.977.677l-.56 1.32c1.372.643 2.534 1.74 3.238 3.189l1.293-.524c.024-.414.282-.798.693-.963.57-.23 1.216.044 1.447.614.23.568-.046 1.216-.615 1.447-.41.165-.862.068-1.168-.214l-1.293.523c.5 1.53.426 3.128-.114 4.544l1.318.56c.312-.277.765-.365 1.173-.193.566.24.83.893.59 1.458-.24.564-.893.828-1.458.588-.408-.174-.659-.562-.677-.976l-1.348-.573c-.659 1.197-1.68 2.203-2.984 2.838l.522 1.291c.416.026.8.284.965.695.23.568-.045 1.215-.614 1.446-.57.23-1.218-.044-1.447-.614-.165-.412-.068-.864.213-1.17l-.522-1.291c-1.38.45-2.813.435-4.12.031l-.57 1.349c.275.31.365.765.191 1.173-.24.564-.892.828-1.456.59-.566-.24-.83-.895-.59-1.459.173-.408.563-.658.977-.676l.56-1.32c-1.372-.644-2.534-1.74-3.24-3.19l-1.29.524c-.026.414-.283.798-.694.963-.568.231-1.216-.043-1.447-.613-.23-.569.046-1.215.615-1.446.41-.167.862-.07 1.168.213l1.293-.524c-.5-1.53-.426-3.127.114-4.543l-1.32-.56c-.31.275-.763.365-1.171.192-.566-.238-.83-.892-.59-1.458.24-.564.893-.828 1.458-.59.408.176.659.563.675.979l1.349.573c.66-1.197 1.68-2.204 2.985-2.838l-.522-1.292c-.414-.025-.8-.283-.965-.693-.23-.57.045-1.218.614-1.447" transform="translate(3 2) translate(223.11 98.318)"/>
            <path stroke="#FFF" stroke-linecap="round" stroke-linejoin="round" stroke-width="1.27" d="M6.538 10.23L8.284 11.976 12.126 8.166" transform="translate(3 2) translate(223.11 98.318)"/>
        </g>
        <g stroke-linecap="round" stroke-linejoin="round" transform="translate(3 2)">
            <use fill="#000" filter="url(#prefix__a)" xlink:href="#prefix__b"/>
            <use fill="#3753FF" stroke="#EFEFEF" stroke-width="3" xlink:href="#prefix__b"/>
        </g>
        <path fill="#3753FF" stroke="#EFEFEF" stroke-linecap="round" stroke-width="3" d="M243.968 243.872c.206-1.387-.084-2.835-.04-4.257.298-9.488.824-18.99-1.956-28.28-1.918-6.413-3.23-13.049-6.623-18.955-2.44-4.245-4.752-8.545-6.047-13.218-1.552-5.602-2.416-11.248 1.557-16.474 1.076-1.417 1.497-3.174 1.493-5.01-.014-8.397.042-16.777-.872-25.167-.535-4.904-1.08-9.905-.15-14.873.235-1.251.521-2.457 2.048-2.666 1.452-.202 2.34.774 3.05 1.802 2.04 2.949 3.189 6.425 3.836 9.758 1.183 6.087.288 12.38 2.008 18.422 1.01 3.556.962 4.263 4.54 3.466 2.694-.6 4.951-.514 6.332 2.32.95 1.953 2.97 2.28 4.971 2.295 1.484.01 2.999-.045 4.453-.306 2.841-.513 4.601.6 5.731 3.033.642 1.381 1.68 2.23 3.405 2.39 6.882.65 12.363 8.568 9.537 14.689-3.387 7.334-6.323 14.687-8.276 22.533-1.562 6.265-2.714 12.381-.424 18.476 1.166 3.108 1.772 6.205 2.285 9.397.28 1.734.789 3.434 1.08 5.166 1.119 6.653 3.386 13.15 2.796 20.032" transform="translate(3 2)"/>
    </g>
</svg>
