<svg version="1" xmlns="http://www.w3.org/2000/svg" width="933.333" height="933.333" viewBox="0 0 700.000000 700.000000"><path d="M210.1 36.6c-20 5.4-33.3 22.9-33.2 44 0 20.4 12.8 37.3 32.5 42.9 4.3 1.3 8.4 1.6 15 1.3 7.8-.3 10.1-.9 16.1-3.8 18.2-8.7 28.9-28.4 25.7-47.4-4.4-26.7-30.4-43.9-56.1-37z"/><path d="M436.5 35.6c-54.2 4-101.6 25.4-139 62.9-16.7 16.7-30.6 35.7-40.5 55.5-1.8 3.6-3.4 6.7-3.6 6.9-.2.2-4.3-1.4-9.1-3.6-11.8-5.5-25.6-9.7-38.1-11.8-12.8-2.2-41.4-1.6-53.2 1-15.3 3.4-34.3 11-47.2 19.1C78 183 55.5 212 45 243.8c-5.2 16.2-6.5 24.8-6.4 45.2 0 20 1.4 29.3 6.9 45.7 12.3 36.8 41.8 69.6 76.8 85.4 5.5 2.4 7.5 3.8 7.2 4.9-1.5 5-3.5 27.3-3.5 39.5 0 90.5 60.3 169.3 148 193.5 17.7 4.9 30.4 6.4 52.5 6.4 17.3 0 23.1-.4 33.2-2.2 42-7.6 78.8-26.6 108.3-56 38-37.9 59-88.8 59-143.6v-11.1l11.8-5.3c22-9.8 44.2-25.2 62.2-43.2 28.1-28 47.6-62.2 57-99.9 4.8-19.1 6.2-31.6 6.2-52.6s-1.4-33.5-6.2-52.6c-20.9-84.2-92.3-148.4-178.2-160.4-10.7-1.5-34.7-2.5-43.3-1.9zm20.8 152.8c6.5 3.1 14 10.8 16.9 17.3 2.6 5.8 3.4 14.8 1.9 20.7-1.6 6.5-103.9 273.5-106.1 277.1-8.8 14.1-27.6 19.8-42.9 13-12.1-5.4-11.7-4.8-49.4-85.2-24.4-52-34.1-73.7-34.9-78.1-2.1-11 3.1-24.6 12.1-31.8 15-12 38-9 49.1 6.4 1.5 2 9.6 18.4 18.1 36.5 8.4 18 15.6 32.4 16 32 .3-.5 16.9-43.6 36.9-95.8 19.9-52.3 37.3-96.9 38.6-99.1 8.2-14.4 28.2-20.3 43.7-13z"/><path d="M58.9 423.5c-20.2 6.5-29.6 29.2-19.8 47.6 3.6 6.7 8.7 11.6 15.8 15.1 6.8 3.4 20.6 3.3 27.6-.2 6.4-3.1 13.4-10.1 16.5-16.5 2.1-4.2 2.5-6.5 2.5-14 0-8.3-.3-9.5-3.4-15.3-4-7.4-8.5-11.6-16-15-6.7-3.1-16.6-3.8-23.2-1.7zM593.3 445.5c-15.5 3.4-31.5 16-38.5 30.5-4.7 9.8-6.2 16.6-6.2 27.1.3 40.2 41.8 68.1 79.3 53.2 26-10.3 41-37.3 36-64.9-4-21.8-23-41.3-44.7-45.9-8.2-1.8-17.7-1.8-25.9 0z"/></svg>