<svg width="357" height="350" viewBox="0 0 357 350" fill="none" xmlns="http://www.w3.org/2000/svg">
<path d="M210.891 26.1148C198.191 23.508 185.037 23.9614 172.564 27.5881C167.008 29.1748 161.451 31.5549 156.576 34.615C152.38 37.2217 146.71 40.7351 145.35 45.7219C141.834 58.3022 165.987 58.0756 173.131 58.7556C189.006 60.1156 204.994 59.4356 220.756 57.1689C222.344 56.9422 223.024 55.2422 223.251 53.8821C224.271 46.4019 211.571 47.422 207.376 47.3086C197.17 47.1953 186.965 47.5353 176.76 48.3287C157.596 49.9154 137.639 52.6354 119.496 59.2089C106.456 63.9691 91.3743 72.6959 90.4671 88.1097C89.56 103.75 104.981 110.664 118.135 112.137C136.618 114.29 156.235 111.684 174.605 109.19C194.222 106.47 213.612 102.277 232.549 96.6099C250.692 91.1698 269.402 85.0496 285.504 74.9627C290.833 71.6759 299.565 66.8025 300.812 60.0023C302.059 52.9754 294.235 50.142 288.906 48.442C270.196 42.5485 249.105 42.5485 229.714 41.7552C208.963 40.9618 188.212 41.1885 167.575 42.5485C132.423 44.9286 94.0957 50.7087 65.9742 73.6026C55.3152 82.3295 45.7901 94.4565 43.9758 108.624C42.0482 124.037 52.2536 134.464 66.9947 136.844C75.4992 138.204 84.2305 137.638 92.735 137.298C103.507 136.731 114.166 135.938 124.939 134.918C145.463 132.991 165.874 130.157 186.285 126.984C206.355 123.811 226.539 120.297 245.93 113.837C257.949 109.87 278.02 101.597 266.794 85.843C257.269 72.5826 238.672 68.1625 223.364 67.0291C204.994 65.5558 185.944 67.8225 168.028 71.6759C150.792 75.416 134.01 81.3095 118.475 89.3564C103.848 96.8366 88.7662 106.697 78.3341 119.504C69.8295 129.817 63.3661 147.271 76.7465 156.678C82.8698 160.985 90.5805 162.345 97.8377 163.138C107.703 164.272 117.795 164.612 127.66 164.612C167.801 164.498 209.077 158.831 248.311 150.331C265.66 146.591 282.669 141.604 298.998 134.578C306.368 131.291 315.553 127.777 321.563 122.224C327.346 116.897 324.058 111.57 317.821 108.964C310.11 105.677 301.606 104.883 293.441 104.43C283.009 103.863 272.464 103.863 262.031 104.09C241.621 104.543 221.323 106.243 201.253 109.757C185.264 112.477 165.647 115.99 154.988 129.591C151.246 134.351 148.638 141.151 150.792 147.158C153.627 154.978 162.472 155.318 169.616 155.771C179.935 156.338 190.367 156.565 200.686 156.451C205.902 156.451 211.118 156.338 216.22 156.111C219.395 155.998 224.271 156.451 226.766 154.071C232.209 148.971 224.385 143.871 220.189 141.944C212.478 138.544 203.974 137.184 195.583 136.844C178.687 136.164 160.771 138.658 145.463 146.251C134.804 151.578 118.589 164.498 125.846 178.325C129.134 184.672 136.165 187.619 142.742 189.432C151.7 192.039 161.225 193.512 170.41 194.646C189.46 197.026 209.53 197.706 228.58 194.532C233.796 193.739 240.94 191.019 239.579 184.332C238.219 177.645 230.054 176.172 224.498 175.945C206.015 175.152 185.037 178.099 167.801 185.125C163.152 187.052 158.503 191.472 162.472 196.459C167.008 202.239 176.873 205.186 183.563 206.999C187.759 208.133 189.573 201.559 185.377 200.426C181.295 199.293 177.327 197.932 173.471 196.006C172.677 195.552 170.976 194.872 170.296 194.192C168.255 192.152 168.368 192.832 171.09 191.246C173.925 189.659 177.78 189.092 180.955 188.186C185.377 187.052 189.8 186.032 194.222 185.239C201.933 183.879 209.757 183.085 217.581 182.859C221.21 182.745 225.179 182.405 228.694 183.312C230.281 183.765 233.229 184.105 231.755 186.712C230.962 188.072 225.292 188.186 224.045 188.299C208.736 189.999 193.088 189.999 177.78 188.639C170.069 187.959 162.472 186.826 154.875 185.239C148.298 183.879 139.226 182.745 134.124 177.872C121.877 166.085 146.824 152.485 155.555 149.311C168.822 144.438 183.563 142.851 197.624 143.758C201.819 143.984 205.902 144.551 209.984 145.571C213.159 146.364 216.22 148.178 219.282 148.971C222.57 149.878 220.416 149.085 219.622 149.198C217.808 149.425 215.88 149.311 214.066 149.425C209.644 149.538 205.221 149.651 200.686 149.651C192.521 149.765 184.357 149.538 176.193 149.311C168.822 149.085 153.174 150.218 157.596 138.431C162.812 124.604 182.089 120.41 194.789 117.917C210.778 114.744 226.993 112.817 243.321 111.797C259.31 110.777 275.412 110.664 291.4 111.344C298.771 111.684 306.368 112.25 313.399 114.744C318.161 116.444 317.934 117.01 313.512 119.73C310.45 121.657 307.162 123.357 303.874 124.944C278.02 137.864 249.218 144.098 220.983 148.858C188.439 154.298 155.215 158.605 122.104 158.038C114.847 157.925 107.59 157.698 100.446 156.905C93.7556 156.225 85.1377 155.318 79.6948 150.671C67.1081 139.904 84.7975 121.657 92.9618 114.517C113.94 96.3832 140.36 85.0496 166.894 78.8161C181.635 75.416 196.83 73.4893 211.911 73.376C226.653 73.2626 243.321 74.9627 255.455 84.0296C258.063 85.9563 261.011 88.563 262.372 91.5098C264.413 96.0432 261.918 98.8766 258.289 101.143C251.826 105.45 243.321 107.49 235.951 109.644C220.756 114.064 205.221 116.897 189.686 119.39C157.142 124.717 124.485 128.797 91.4877 130.384C79.5814 130.951 59.284 133.671 52.367 120.977C46.3571 110.097 53.9545 95.8165 61.2116 87.543C79.9216 65.8958 109.631 57.0556 136.732 52.7488C168.028 47.6486 200.345 47.3086 231.869 48.6687C247.63 49.3487 263.959 49.9154 279.381 53.0888C282.896 53.7688 286.298 54.6755 289.699 55.9222C295.596 58.1889 292.761 61.3623 289.019 64.1957C283.236 68.8425 276.659 72.4693 269.969 75.6427C241.961 89.0164 210.437 96.8366 180.048 101.597C164.513 104.09 148.638 105.563 132.876 105.903C121.764 106.13 100.446 106.243 97.4975 92.0764C94.4359 77.5694 112.125 68.8425 123.124 65.1024C137.866 60.1156 153.741 57.6222 169.162 55.9222C177.1 55.0155 185.151 54.4488 193.202 54.2221C195.923 54.1088 216.447 54.7888 216.561 53.7688C217.354 52.6354 218.262 51.6154 219.055 50.4821C207.376 52.1821 195.583 52.8621 183.903 52.4088C178.234 52.1821 172.564 51.8421 166.894 51.1621C163.719 50.8221 160.431 50.3687 157.369 49.6887C153.854 49.0087 152.04 47.8753 154.534 44.3619C156.689 41.1885 162.472 38.8084 165.874 37.2217C170.183 35.1817 174.832 33.7083 179.594 32.6883C189.346 30.5349 199.552 30.5349 209.303 32.5749C213.386 33.4816 215.2 27.0215 210.891 26.1148Z" fill="#FF9959"/>
<rect x="255.416" y="35.5846" width="24.3071" height="31.3708" rx="2.18141" transform="rotate(142.731 255.416 35.5846)" fill="#F7F8FA" stroke="#3752FF" stroke-width="2.28529"/>
<path d="M243.219 29.3331L233.134 37.0074" stroke="#3752FF" stroke-width="2.28529"/>
<path d="M239.568 24.5385L229.483 32.2127" stroke="#3752FF" stroke-width="2.28529"/>
<path d="M236.047 19.9093L225.962 27.5835" stroke="#3752FF" stroke-width="2.28529"/>
<rect x="233.843" y="102.583" width="30.1464" height="38.9069" rx="2.70545" transform="rotate(113.604 233.843 102.583)" fill="#F7F8FA" stroke="#3752FF" stroke-width="2.83428"/>
<path d="M216.854 103.173L210.56 117.575" stroke="#3752FF" stroke-width="2.83428"/>
<path d="M210.006 100.181L203.712 114.583" stroke="#3752FF" stroke-width="2.83428"/>
<path d="M203.396 97.2924L197.103 111.695" stroke="#3752FF" stroke-width="2.83428"/>
<rect x="195.471" y="70.6878" width="12.2587" height="15.8211" rx="1.10014" transform="rotate(90 195.471 70.6878)" fill="#F7F8FA" stroke="#3752FF" stroke-width="1.15253"/>
<path d="M189.236 73.6738L189.236 80.0651" stroke="#3752FF" stroke-width="1.15253"/>
<path d="M186.197 73.6738L186.197 80.0651" stroke="#3752FF" stroke-width="1.15253"/>
<path d="M183.262 73.6738L183.262 80.0651" stroke="#3752FF" stroke-width="1.15253"/>
<rect x="177.964" y="94.2484" width="12.2587" height="15.8211" rx="1.10014" transform="rotate(127.425 177.964 94.2484)" fill="#F7F8FA" stroke="#3752FF" stroke-width="1.15253"/>
<path d="M171.197 92.8318L167.313 97.9074" stroke="#3752FF" stroke-width="1.15253"/>
<path d="M168.783 90.9851L164.899 96.0608" stroke="#3752FF" stroke-width="1.15253"/>
<path d="M166.455 89.2024L162.571 94.278" stroke="#3752FF" stroke-width="1.15253"/>
<rect x="276.263" y="141.797" width="21.7706" height="28.0971" rx="1.95377" transform="rotate(-159.095 276.263 141.797)" fill="#F7F8FA" stroke="#3752FF" stroke-width="2.04681"/>
<path d="M275.26 129.562L264.656 125.512" stroke="#3752FF" stroke-width="2.04681"/>
<path d="M277.186 124.521L266.582 120.471" stroke="#3752FF" stroke-width="2.04681"/>
<path d="M279.045 119.654L268.442 115.604" stroke="#3752FF" stroke-width="2.04681"/>
<rect x="241.388" y="138.826" width="21.7706" height="28.0971" rx="1.95377" transform="rotate(54.4232 241.388 138.826)" fill="#F7F8FA" stroke="#3752FF" stroke-width="2.04681"/>
<path d="M235.469 149.581L242.072 158.812" stroke="#3752FF" stroke-width="2.04681"/>
<path d="M231.08 152.72L237.684 161.952" stroke="#3752FF" stroke-width="2.04681"/>
<path d="M226.842 155.751L233.445 164.983" stroke="#3752FF" stroke-width="2.04681"/>
<rect x="289.781" y="48.1113" width="24.3071" height="31.3708" rx="2.18141" transform="rotate(90 289.781 48.1113)" fill="#F7F8FA" stroke="#3752FF" stroke-width="2.28529"/>
<path d="M277.42 54.0317L277.42 66.7047" stroke="#3752FF" stroke-width="2.28529"/>
<path d="M271.395 54.0317L271.395 66.7047" stroke="#3752FF" stroke-width="2.28529"/>
<path d="M265.576 54.0317L265.576 66.7047" stroke="#3752FF" stroke-width="2.28529"/>
<rect x="221.256" y="52.1321" width="12.2587" height="15.8211" rx="1.10014" transform="rotate(54.0616 221.256 52.1321)" fill="#F7F8FA" stroke="#3752FF" stroke-width="1.15253"/>
<path d="M217.961 58.2086L221.712 63.3833" stroke="#3752FF" stroke-width="1.15253"/>
<path d="M215.502 59.9919L219.253 65.1666" stroke="#3752FF" stroke-width="1.15253"/>
<path d="M213.127 61.7139L216.878 66.8886" stroke="#3752FF" stroke-width="1.15253"/>
<rect x="114.164" y="51.1588" width="24.3071" height="31.3708" rx="2.18141" transform="rotate(142.731 114.164 51.1588)" fill="#F7F8FA" stroke="#3752FF" stroke-width="2.28529"/>
<path d="M101.967 44.9075L91.8817 52.5817" stroke="#3752FF" stroke-width="2.28529"/>
<path d="M98.3184 40.1128L88.2332 47.787" stroke="#3752FF" stroke-width="2.28529"/>
<path d="M94.7949 35.4835L84.7098 43.1578" stroke="#3752FF" stroke-width="2.28529"/>
<rect x="92.5891" y="118.157" width="30.1464" height="38.9069" rx="2.70545" transform="rotate(113.604 92.5891 118.157)" fill="#F7F8FA" stroke="#3752FF" stroke-width="2.83428"/>
<path d="M75.6016 118.747L69.3081 133.15" stroke="#3752FF" stroke-width="2.83428"/>
<path d="M68.752 115.755L62.4585 130.158" stroke="#3752FF" stroke-width="2.83428"/>
<path d="M62.1426 112.867L55.8491 127.269" stroke="#3752FF" stroke-width="2.83428"/>
<rect x="152.404" y="68.2166" width="12.2587" height="15.8211" rx="1.10014" transform="rotate(90 152.404 68.2166)" fill="#F7F8FA" stroke="#3752FF" stroke-width="1.15253"/>
<path d="M146.168 71.2028L146.168 77.594" stroke="#3752FF" stroke-width="1.15253"/>
<path d="M143.133 71.2028L143.133 77.594" stroke="#3752FF" stroke-width="1.15253"/>
<path d="M140.197 71.2028L140.197 77.594" stroke="#3752FF" stroke-width="1.15253"/>
<rect x="212.245" y="164.835" width="12.2587" height="15.8211" rx="1.10014" transform="rotate(127.425 212.245 164.835)" fill="#F7F8FA" stroke="#3752FF" stroke-width="1.15253"/>
<path d="M205.479 163.418L201.594 168.494" stroke="#3752FF" stroke-width="1.15253"/>
<path d="M203.064 161.571L199.18 166.647" stroke="#3752FF" stroke-width="1.15253"/>
<path d="M200.734 159.788L196.85 164.864" stroke="#3752FF" stroke-width="1.15253"/>
<rect x="183.165" y="57.7368" width="21.7706" height="28.0971" rx="1.95377" transform="rotate(-159.095 183.165 57.7368)" fill="#F7F8FA" stroke="#3752FF" stroke-width="2.04681"/>
<path d="M182.162 45.5018L171.559 41.4518" stroke="#3752FF" stroke-width="2.04681"/>
<path d="M184.088 40.4608L173.485 36.4107" stroke="#3752FF" stroke-width="2.04681"/>
<path d="M185.947 35.5939L175.344 31.5438" stroke="#3752FF" stroke-width="2.04681"/>
<rect x="151.25" y="180.767" width="15.686" height="20.2444" rx="1.40772" transform="rotate(116.424 151.25 180.767)" fill="#F7F8FA" stroke="#3752FF" stroke-width="1.47476"/>
<path d="M142.406 180.64L138.767 187.963" stroke="#3752FF" stroke-width="1.47476"/>
<path d="M138.924 178.909L135.284 186.233" stroke="#3752FF" stroke-width="1.47476"/>
<path d="M135.562 177.238L131.923 184.562" stroke="#3752FF" stroke-width="1.47476"/>
<rect x="139.228" y="92.5154" width="24.3071" height="31.3708" rx="2.18141" transform="rotate(90 139.228 92.5154)" fill="#F7F8FA" stroke="#3752FF" stroke-width="2.28529"/>
<path d="M126.867 98.4359L126.867 111.109" stroke="#3752FF" stroke-width="2.28529"/>
<path d="M120.842 98.4359L120.842 111.109" stroke="#3752FF" stroke-width="2.28529"/>
<path d="M115.025 98.4359L115.025 111.109" stroke="#3752FF" stroke-width="2.28529"/>
<rect x="185.77" y="164.859" width="12.2587" height="15.8211" rx="1.10014" transform="rotate(54.0616 185.77 164.859)" fill="#F7F8FA" stroke="#3752FF" stroke-width="1.15253"/>
<path d="M182.477 170.935L186.228 176.11" stroke="#3752FF" stroke-width="1.15253"/>
<path d="M180.016 172.718L183.767 177.893" stroke="#3752FF" stroke-width="1.15253"/>
<path d="M177.641 174.44L181.392 179.615" stroke="#3752FF" stroke-width="1.15253"/>
<rect x="181.227" y="136.547" width="30.1464" height="38.9069" rx="2.70545" transform="rotate(90 181.227 136.547)" fill="#F7F8FA" stroke="#3752FF" stroke-width="2.83428"/>
<path d="M165.896 143.89L165.896 159.608" stroke="#3752FF" stroke-width="2.83428"/>
<path d="M158.424 143.89L158.424 159.608" stroke="#3752FF" stroke-width="2.83428"/>
<path d="M151.211 143.89L151.211 159.608" stroke="#3752FF" stroke-width="2.83428"/>
<rect x="164.928" y="10.7235" width="30.1464" height="38.9069" rx="2.70545" transform="rotate(52.1657 164.928 10.7235)" fill="#F7F8FA" stroke="#3752FF" stroke-width="2.83428"/>
<path d="M157.322 25.9269L166.963 38.3403" stroke="#3752FF" stroke-width="2.83428"/>
<path d="M151.422 30.5103L161.063 42.9236" stroke="#3752FF" stroke-width="2.83428"/>
<path d="M145.723 34.9353L155.363 47.3487" stroke="#3752FF" stroke-width="2.83428"/>
<g clip-path="url(#clip0)">
<path d="M166.615 268.253C165.754 268.253 165.18 268.828 165.18 269.69C165.18 270.553 165.754 271.128 166.615 271.128C168.337 271.128 169.916 271.128 171.639 271.128C180.394 270.984 188.719 270.984 196.04 276.159C196.757 276.59 197.619 276.447 198.049 275.872C198.48 275.297 198.336 274.29 197.762 273.859C189.581 268.109 180.538 268.109 171.639 268.253C169.916 268.396 168.337 268.396 166.615 268.253Z" fill="#3752FF"/>
<path d="M148.817 226.563C149.104 226.563 149.391 226.419 149.678 226.276C159.295 219.519 164.032 219.519 170.921 226.132C171.495 226.707 172.357 226.707 172.931 226.132C173.505 225.557 173.505 224.694 172.931 224.119C165.036 216.5 158.721 216.356 147.956 223.975C147.238 224.407 147.095 225.269 147.669 225.988C147.956 226.419 148.386 226.563 148.817 226.563Z" fill="#3752FF"/>
<path d="M195.033 230.157C195.177 230.157 195.32 230.157 195.464 230.157C199.77 229.151 204.076 228.863 208.525 229.294C211.253 229.438 213.836 229.438 216.563 229.294C217.425 229.294 217.999 228.576 217.855 227.713C217.855 226.851 217.137 226.276 216.276 226.419C213.693 226.563 211.109 226.563 208.525 226.419C203.932 225.988 199.196 226.276 194.603 227.426C193.885 227.569 193.454 228.432 193.598 229.151C193.885 229.726 194.459 230.157 195.033 230.157Z" fill="#3752FF"/>
<path d="M233.789 233.895C233.502 233.176 232.641 232.889 231.923 233.176C231.205 233.464 230.918 234.326 231.205 235.045C242.688 261.784 230.344 292.691 203.647 304.048C197.044 306.923 190.011 308.361 182.978 308.361C182.117 308.361 181.255 308.361 180.394 308.217C180.394 307.929 180.394 307.498 180.394 307.211C180.394 306.348 180.538 305.486 180.681 304.623C180.968 303.329 180.968 301.892 180.681 300.454C180.251 299.016 179.677 297.579 178.959 296.141L194.891 291.11C195.178 290.966 195.465 290.822 195.609 290.535C196.47 289.241 196.757 287.66 196.183 286.078C195.322 284.641 193.886 283.491 192.164 283.203C192.021 283.203 191.733 283.203 191.59 283.203C161.591 291.11 157.716 288.091 157.429 287.803C157.429 287.803 157.429 287.803 157.429 287.66C156.137 271.559 152.118 269.978 150.826 269.978H150.539C149.391 269.978 148.242 270.553 147.525 271.415C146.664 272.853 146.52 274.578 147.094 276.159C148.099 279.753 146.089 288.091 145.372 290.966C145.228 291.254 145.228 291.541 145.085 291.829C129.726 276.303 126.138 252.583 135.755 232.745C136.042 232.026 135.755 231.163 135.037 230.876C134.32 230.588 133.458 230.876 133.171 231.595C122.837 252.871 127.143 278.459 143.936 295.135C138.913 311.811 147.668 317.274 148.099 317.417C153.266 320.724 159.151 322.593 165.323 322.736C170.06 322.88 174.653 321.442 178.385 318.567C178.528 318.424 178.528 318.424 178.672 318.28C179.102 317.417 179.389 316.411 179.533 315.405C179.533 314.973 179.677 314.542 179.677 314.111C179.964 313.105 180.107 312.242 180.251 311.236C181.255 311.236 182.117 311.38 183.121 311.38C213.694 311.38 238.526 286.51 238.382 255.89C238.239 248.27 236.66 240.795 233.789 233.895ZM176.949 315.261C176.949 315.836 176.806 316.411 176.519 316.986C175.083 317.992 165.036 324.749 149.391 315.405C149.247 315.405 140.492 310.086 147.668 292.116C147.668 291.685 150.826 280.759 149.391 275.872C149.104 275.009 149.104 274.147 149.391 273.284C149.678 272.997 149.965 272.853 150.395 272.709C150.97 272.997 153.697 275.153 154.702 288.091C154.702 288.81 154.989 289.385 155.563 289.816C158.72 292.835 170.921 291.397 191.733 285.935C192.595 286.078 193.312 286.653 193.743 287.372C193.886 287.947 193.886 288.666 193.456 289.097L176.662 294.56C176.088 294.704 175.658 295.423 175.801 296.141C175.801 296.285 175.945 296.429 175.945 296.429C176.949 298.01 177.667 299.591 178.098 301.46C178.241 302.467 178.241 303.617 178.098 304.623C177.954 305.629 177.811 306.492 177.811 307.498C177.811 309.511 177.667 311.523 177.236 313.536C177.093 313.967 176.949 314.542 176.949 315.261Z" fill="#3752FF"/>
<path d="M169.916 238.495C170.203 236.482 169.916 234.326 169.055 232.601C167.763 229.726 164.319 228.432 161.448 229.726C160.73 230.013 160.156 230.445 159.582 231.02C156.711 234.038 155.993 238.495 157.716 242.376C158.577 244.101 160.156 245.251 162.022 245.683C162.309 245.683 162.596 245.683 162.883 245.683C166.328 245.683 169.342 242.664 169.916 238.495ZM162.596 243.239C161.448 242.951 160.587 242.233 160.012 241.226C158.721 238.351 159.151 235.045 161.304 232.888C162.022 232.17 162.883 231.738 163.888 231.738C164.031 231.738 164.175 231.738 164.319 231.738C165.467 232.026 166.328 232.745 166.902 233.751C167.62 235.045 167.763 236.626 167.476 238.207C167.046 241.226 164.893 243.526 162.596 243.239Z" fill="#3752FF"/>
<path d="M198.623 251.433C198.91 251.433 199.197 251.433 199.484 251.433C202.785 251.433 205.799 248.414 206.374 244.245C206.661 242.233 206.374 240.076 205.512 238.351C204.651 236.626 203.072 235.476 201.206 235.045C197.618 234.47 194.173 237.632 193.455 242.233C192.738 246.833 195.034 250.858 198.623 251.433ZM195.896 242.664C196.326 239.645 198.336 237.489 200.345 237.489C200.489 237.489 200.632 237.489 200.776 237.489C201.924 237.776 202.785 238.495 203.359 239.501C204.077 240.795 204.221 242.376 203.933 243.958C203.359 247.12 201.206 249.42 198.91 249.133C196.613 248.845 195.465 245.826 195.896 242.664Z" fill="#3752FF"/>
</g>
<defs>
<clipPath id="clip0">
<rect width="110.665" height="104.367" fill="white" transform="translate(127.574 218.369)"/>
</clipPath>
</defs>
</svg>
