<svg xmlns="http://www.w3.org/2000/svg" width="15" height="15"><g fill="none" fill-rule="evenodd"><circle cx="7.5" cy="7.5" r="7.5" fill="#767676"/><g fill="#FFF" stroke="#FFF"><path stroke-width=".3" d="M9.275 8.035v2.31a.382.382 0 0 1-.385.385H4.655a.383.383 0 0 1-.385-.385V6.11a.384.384 0 0 1 .385-.385h2.31a.385.385 0 0 0 0-.77h-2.31A1.156 1.156 0 0 0 3.5 6.11v4.235A1.156 1.156 0 0 0 4.655 11.5H8.89a1.152 1.152 0 0 0 1.155-1.155v-2.31a.385.385 0 1 0-.77 0z"/><path stroke-width=".4" d="M7.078 8.476l3.639-3.639v1.404a.392.392 0 1 0 .783 0v-2.35a.386.386 0 0 0-.114-.276h-.001a.347.347 0 0 0-.127-.085.372.372 0 0 0-.15-.03h-2.35a.39.39 0 0 0 0 .783h1.405l-3.64 3.64a.392.392 0 0 0 .555.553z"/></g></g></svg>