<svg xmlns="http://www.w3.org/2000/svg" width="15" height="15" viewBox="0 0 15 15">
    <g fill="none" fill-rule="evenodd">
        <circle cx="7.5" cy="7.5" r="7.5" fill="#767676"/>
        <g fill="#FFF" stroke="#FFF">
            <path stroke-width=".3" d="M5.775 4.535v2.31c0 .106-.042.202-.112.272s-.166.113-.273.113H1.155c-.106 0-.202-.043-.272-.113S.77 6.951.77 6.845V2.61c0-.107.043-.203.113-.273s.166-.112.272-.112h2.31c.213 0 .385-.173.385-.385 0-.213-.172-.385-.385-.385h-2.31c-.319 0-.608.13-.817.338C.13 2.002 0 2.291 0 2.61v4.235c0 .319.13.608.338.817.21.208.498.338.817.338H5.39c.32 0 .609-.13.817-.338.208-.21.338-.498.338-.817v-2.31c0-.213-.172-.385-.385-.385-.212 0-.385.172-.385.385z" transform="translate(3.5 3.5)"/>
            <path stroke-width=".4" d="M3.578 4.976l3.639-3.639v1.404c0 .216.175.392.391.392.217 0 .392-.176.392-.392V.391c0-.053-.01-.103-.03-.15-.019-.046-.047-.089-.084-.126h-.001C7.849.077 7.805.048 7.758.03 7.712.01 7.662 0 7.608 0h-2.35c-.215 0-.39.175-.39.392 0 .216.175.391.39.391h1.405l-3.64 3.64c-.152.153-.152.4 0 .553.154.153.402.153.555 0z" transform="translate(3.5 3.5)"/>
        </g>
    </g>
</svg>
