<svg xmlns="http://www.w3.org/2000/svg" width="186.41" height="131.72"><defs><linearGradient id="a" x1=".5" y1="50.29" x2="185.91" y2="50.29" gradientUnits="userSpaceOnUse"><stop offset="0" stop-color="#036"/><stop offset=".09" stop-color="#0b3a85"/><stop offset=".29" stop-color="#2347c7"/><stop offset=".44" stop-color="#3150ef"/><stop offset=".52" stop-color="#3753ff"/><stop offset=".58" stop-color="#3351f5"/><stop offset=".68" stop-color="#294bd9"/><stop offset=".82" stop-color="#1942ab"/><stop offset=".98" stop-color="#03356d"/><stop offset="1" stop-color="#036"/></linearGradient></defs><g data-name="Ebene 2"><path fill="none" stroke="#3f9" stroke-linecap="round" stroke-linejoin="round" stroke-width="5" d="M21.64 17.82L26.31 27.76 33.68 8.5"/><path fill="none" stroke="#3f9" stroke-linecap="round" stroke-linejoin="round" stroke-width="5" d="M104.64 11.82L109.31 21.76 116.68 2.5"/><path d="M92.91 64.89c28.31.13 60.47-4 93-16.74l-12 66s-33 17-81 17h.59c-48-.05-81-17-81-17l-12-66C33 60.9 65.19 65 93.5 64.89" fill="#fff"/><path d="M92.91 64.89c28.31.13 60.47-4 93-16.74 0 0-39.32-11.82-93-12.46h.59c-53.68.64-93 12.46-93 12.46C33 60.9 65.19 65 93.5 64.89" fill="url(#a)"/><path d="M44.56 82.79h.69v-.14c0-.88-.28-1.36-1.24-1.36a6.06 6.06 0 0 0-1.55.19.66.66 0 0 1-.91-.5l-.1-.35a.75.75 0 0 1 .58-.94 6.88 6.88 0 0 1 2-.29c2.28 0 3.48 1.34 3.48 3.17v4.61a.69.69 0 0 1-.72.77h-.45c-.47 0-.72-.13-.78-.63v-.13a2.39 2.39 0 0 1-2 1 2.56 2.56 0 0 1-2.79-2.73c-.04-1.98 1.66-2.67 3.79-2.67zM44 86.27a1.7 1.7 0 0 0 1.3-.63v-1.25h-.52c-.91 0-1.72.12-1.72 1-.06.61.27.88.94.88zm5.28-5.89a.72.72 0 0 1 .76-.77h.71a.72.72 0 0 1 .77.77v4.67c0 .9.27 1.22.91 1.22a2 2 0 0 0 1.47-.72v-5.17a.72.72 0 0 1 .77-.77h.71a.72.72 0 0 1 .76.77v6.8a.72.72 0 0 1-.76.77H55c-.52 0-.81-.12-.86-.58v-.14a3.24 3.24 0 0 1-2.19.92c-1.71 0-2.67-1-2.67-2.84zm9.34.83l-.56-.08c-.54-.08-.77-.21-.77-.67v-.23c0-.46.31-.62.77-.62h.56v-1.78a.72.72 0 0 1 .77-.77h.7a.72.72 0 0 1 .77.77v1.78H62c.46 0 .76.21.76.67v.26c0 .46-.3.67-.76.67h-1.14v4.11c0 .63.31 1 .87 1a3.55 3.55 0 0 0 .57 0c.42-.08.71 0 .8.48l.1.48a.71.71 0 0 1-.61.88 5.31 5.31 0 0 1-1 .09c-2 0-3-1-3-2.59zm5.59 1.98a3.67 3.67 0 1 1 7.33 0v1.15a3.67 3.67 0 1 1-7.33 0zm5.05 1v-.88c0-1.3-.27-2-1.39-2s-1.39.75-1.39 2v.88c0 1.34.29 2 1.39 2s1.39-.63 1.39-1.97zm3.99-3.81a.72.72 0 0 1 .76-.77h.44a.68.68 0 0 1 .78.61v.11a3 3 0 0 1 2.08-.93 2.42 2.42 0 0 1 2.21 1 3.43 3.43 0 0 1 2.3-1c1.71 0 2.67 1 2.67 2.85v4.93a.72.72 0 0 1-.76.77H83a.73.73 0 0 1-.77-.77V82.5c0-.89-.27-1.21-.91-1.21A2 2 0 0 0 80 82v5.22a.72.72 0 0 1-.77.77h-.7a.72.72 0 0 1-.77-.77V82.5c0-.89-.27-1.21-.91-1.21a1.94 1.94 0 0 0-1.36.72v5.17a.73.73 0 0 1-.77.77H74a.72.72 0 0 1-.76-.77zm16.62 2.41h.69v-.14c0-.88-.27-1.36-1.23-1.36a6.18 6.18 0 0 0-1.56.19.66.66 0 0 1-.91-.5l-.1-.35a.75.75 0 0 1 .58-.94 6.9 6.9 0 0 1 2-.29c2.27 0 3.47 1.34 3.47 3.17v4.61a.69.69 0 0 1-.72.77h-.45c-.46 0-.72-.13-.78-.63v-.13a2.39 2.39 0 0 1-2 1A2.57 2.57 0 0 1 86 85.42c0-1.94 1.74-2.63 3.87-2.63zm-.61 3.48a1.7 1.7 0 0 0 1.3-.63v-1.25h-.51c-.92 0-1.73.12-1.73 1 0 .61.32.88.94.88zm5.94-5.06l-.56-.08c-.55-.08-.77-.21-.77-.67v-.23c0-.46.3-.62.77-.62h.56v-1.78a.72.72 0 0 1 .76-.77h.71a.73.73 0 0 1 .77.77v1.78h1.1c.47 0 .77.21.77.67v.26c0 .46-.3.67-.77.67h-1.1v4.11c0 .63.3 1 .86 1a3.58 3.58 0 0 0 .58 0c.41-.08.7 0 .8.48l.09.48a.7.7 0 0 1-.6.88 5.43 5.43 0 0 1-1 .09c-2 0-3-1-3-2.59zm5.68-3.94a1.27 1.27 0 1 1 1.26 1.22 1.22 1.22 0 0 1-1.26-1.22zm.14 3.11a.72.72 0 0 1 .77-.77h.7a.72.72 0 0 1 .77.77v6.8a.72.72 0 0 1-.77.77h-.7a.72.72 0 0 1-.77-.77zm4.03 6.48l.1-.35A.62.62 0 0 1 106 86a4.9 4.9 0 0 0 1.45.24c.72 0 .94-.29.94-.72 0-1.3-3.35-.55-3.35-3.64 0-1.53 1.41-2.51 3.14-2.51a5.61 5.61 0 0 1 1.52.21.69.69 0 0 1 .5.94l-.1.32a.71.71 0 0 1-.91.53 3.56 3.56 0 0 0-.94-.13c-.6 0-.85.29-.85.64 0 1.15 3.34.69 3.34 3.64 0 1.56-1.37 2.6-3.25 2.6a6.45 6.45 0 0 1-2-.32.75.75 0 0 1-.44-.94zm7.22-9.59a1.27 1.27 0 1 1 1.26 1.22 1.22 1.22 0 0 1-1.26-1.22zm.14 3.11a.72.72 0 0 1 .77-.77h.7a.72.72 0 0 1 .77.77v6.8a.72.72 0 0 1-.77.77h-.7a.73.73 0 0 1-.77-.77zm3.95 2.54a3.41 3.41 0 0 1 3.52-3.52 3.45 3.45 0 0 1 3.54 3.52v1.15a.41.41 0 0 1-.41.42h-4.41v.13c0 .69.15 1.65 1.56 1.65a7 7 0 0 0 1.61-.21c.48-.11.84 0 1 .51l.08.3a.72.72 0 0 1-.52.95 8.08 8.08 0 0 1-2.12.33c-2.72 0-3.81-1.76-3.81-3.53zm4.82 0v-.21c0-.73-.29-1.45-1.28-1.45s-1.3.73-1.3 1.45V83zm3.87-2.54a.72.72 0 0 1 .77-.77h.42c.46 0 .7.3.78.75v.26a2.62 2.62 0 0 1 2-1.22c.26 0 .85 0 .67 1.06s-.4.84-.78.84a2.66 2.66 0 0 0-1.7 1v4.84a.72.72 0 0 1-.77.77h-.7a.73.73 0 0 1-.77-.77zm6.56.83l-.56-.08c-.54-.08-.77-.21-.77-.67v-.23c0-.46.31-.62.77-.62h.56v-1.78a.73.73 0 0 1 .77-.77h.7a.72.72 0 0 1 .77.77v1.78H135c.46 0 .77.21.77.67v.26c0 .46-.31.67-.77.67h-1.11v4.11c0 .63.31 1 .87 1a3.55 3.55 0 0 0 .57 0c.42-.08.71 0 .8.48l.1.48a.7.7 0 0 1-.61.88 5.31 5.31 0 0 1-1 .09c-2 0-3-1-3-2.59zm5.59 1.71a3.4 3.4 0 0 1 3.52-3.52 3.45 3.45 0 0 1 3.53 3.52v1.15a.41.41 0 0 1-.41.42h-4.4v.13c0 .69.14 1.65 1.55 1.65a7.2 7.2 0 0 0 1.62-.21c.47-.11.83 0 1 .51l.08.3a.74.74 0 0 1-.53.95 8.08 8.08 0 0 1-2.12.33c-2.72 0-3.8-1.76-3.8-3.53zm4.8.08v-.21c0-.73-.29-1.45-1.28-1.45s-1.29.73-1.29 1.45V83zM23.33 106l.09-.42a.63.63 0 0 1 .9-.49 7.76 7.76 0 0 0 2.16.36c1.09 0 1.53-.57 1.53-1.34 0-2.18-4.62-1.36-4.62-5.19 0-2 1.66-3.13 3.86-3.13a6.55 6.55 0 0 1 2.13.35.72.72 0 0 1 .51 1l-.11.36a.73.73 0 0 1-1 .48 4.88 4.88 0 0 0-1.55-.24c-1 0-1.44.48-1.44 1.21 0 1.88 4.62 1.4 4.62 5.19 0 2-1.6 3.26-3.95 3.26a8.49 8.49 0 0 1-2.59-.43.7.7 0 0 1-.54-.97zM32 99.58a.72.72 0 0 1 .77-.77h.4c.46 0 .78.17.83.57v.12a2.79 2.79 0 0 1 2-.9c1.89 0 3.06 1.26 3.06 3.47v1.81c0 2.19-1.17 3.47-3.06 3.47a2.75 2.75 0 0 1-1.79-.72v3a.72.72 0 0 1-.77.76h-.7a.72.72 0 0 1-.77-.76zm3.66 5.89c.85 0 1.16-.56 1.16-1.84v-1.3c0-1.28-.31-1.84-1.16-1.84a2.1 2.1 0 0 0-1.42.73v3.54a2.25 2.25 0 0 0 1.42.71zm5.14-5.89a.72.72 0 0 1 .77-.77H42c.47 0 .71.3.79.75v.26a2.63 2.63 0 0 1 2-1.22c.25 0 .85.05.67 1.06s-.4.84-.79.84a2.66 2.66 0 0 0-1.69 1v4.84a.73.73 0 0 1-.77.77h-.7a.72.72 0 0 1-.77-.77zm9.52 2.42H51v-.14c0-.88-.28-1.36-1.24-1.36a6.06 6.06 0 0 0-1.55.19.66.66 0 0 1-.91-.5l-.1-.35a.74.74 0 0 1 .58-.94 6.88 6.88 0 0 1 2-.29c2.28 0 3.48 1.34 3.48 3.17v4.61a.69.69 0 0 1-.72.77h-.45c-.47 0-.72-.13-.79-.63v-.13a2.39 2.39 0 0 1-2 1 2.56 2.56 0 0 1-2.79-2.73c-.02-1.99 1.68-2.67 3.81-2.67zm-.61 3.48a1.7 1.7 0 0 0 1.3-.63v-1.25h-.52c-.91 0-1.72.12-1.72 1 0 .55.32.87.94.87zm5.17-3.04c0-2.16 1.18-3.84 3.71-3.84a7.37 7.37 0 0 1 2 .26.7.7 0 0 1 .57.91l-.11.41a.75.75 0 0 1-1 .45 5.38 5.38 0 0 0-1.3-.14c-1.21 0-1.58.89-1.58 2.11v.74c0 1.23.37 2.13 1.58 2.13a4.91 4.91 0 0 0 1.38-.18.66.66 0 0 1 .91.46l.1.36a.72.72 0 0 1-.56 1 7.09 7.09 0 0 1-2 .27c-2.53 0-3.71-1.69-3.71-3.85zm8-6.15a.71.71 0 0 1 .76-.76h.71a.72.72 0 0 1 .77.76v3a3.07 3.07 0 0 1 1.95-.74c1.71 0 2.67 1 2.67 2.85v4.93a.72.72 0 0 1-.77.77h-.7a.73.73 0 0 1-.77-.77v-4.63c0-.89-.27-1.21-.91-1.21a2 2 0 0 0-1.47.72v5.17a.73.73 0 0 1-.77.77h-.71a.72.72 0 0 1-.76-.77zm8.49 5.83a3.41 3.41 0 0 1 3.52-3.52 3.45 3.45 0 0 1 3.54 3.52v1.15a.42.42 0 0 1-.42.42h-4.4v.13c0 .69.15 1.65 1.56 1.65a7.09 7.09 0 0 0 1.61-.21c.48-.11.84 0 1 .51l.08.3a.73.73 0 0 1-.53 1 8 8 0 0 1-2.11.33c-2.72 0-3.81-1.76-3.81-3.53zm4.82 0v-.21c0-.73-.29-1.45-1.28-1.45s-1.3.73-1.3 1.45v.21zm3.87-2.54a.72.72 0 0 1 .77-.77h.38c.47 0 .79.16.83.61v.11a3.23 3.23 0 0 1 2.19-.93c1.72 0 2.68 1 2.68 2.85v4.93a.73.73 0 0 1-.77.77h-.71a.72.72 0 0 1-.76-.77v-4.68c0-.89-.28-1.21-.92-1.21a2 2 0 0 0-1.47.72v5.17a.72.72 0 0 1-.77.77h-.7a.72.72 0 0 1-.77-.77zm8.5 2.54a3.4 3.4 0 0 1 3.52-3.52 3.45 3.45 0 0 1 3.53 3.52v1.15a.41.41 0 0 1-.41.42h-4.4v.13c0 .69.14 1.65 1.55 1.65a7.2 7.2 0 0 0 1.62-.21c.48-.11.83 0 1 .51l.08.3a.74.74 0 0 1-.53 1 8.06 8.06 0 0 1-2.11.33c-2.73 0-3.81-1.76-3.81-3.53zm4.81 0v-.21c0-.73-.28-1.45-1.28-1.45s-1.29.73-1.29 1.45v.21zm3.87-2.54a.72.72 0 0 1 .77-.77h.42c.46 0 .7.3.78.75l.05.26a2.62 2.62 0 0 1 2-1.22c.26 0 .85.05.68 1.06s-.4.84-.79.84a2.66 2.66 0 0 0-1.7 1v4.84a.72.72 0 0 1-.76.77H98a.73.73 0 0 1-.77-.77zm6.04-3.29a.71.71 0 0 1 .76-.76h.71a.72.72 0 0 1 .77.76v5.43l.64-.19a.69.69 0 0 0 .46-.45l.72-1.71a.85.85 0 0 1 .91-.56h.84c.49 0 .68.36.49.8l-1 2.33a2 2 0 0 1-.74 1l1.94 3.38c.24.42.06.87-.43.87h-.84a1 1 0 0 1-1-.56l-1.6-3-.38.1v2.69a.73.73 0 0 1-.77.77H104a.72.72 0 0 1-.76-.77zm7.64 5.83a3.41 3.41 0 0 1 3.53-3.52 3.45 3.45 0 0 1 3.53 3.52v1.15a.41.41 0 0 1-.41.42h-4.41v.13c0 .69.15 1.65 1.56 1.65a7 7 0 0 0 1.61-.21c.48-.11.84 0 1 .51l.08.3a.72.72 0 0 1-.52 1 8.08 8.08 0 0 1-2.12.33c-2.72 0-3.81-1.76-3.81-3.53zm4.82 0v-.21c0-.73-.29-1.45-1.28-1.45s-1.3.73-1.3 1.45v.21zm3.87-2.54a.72.72 0 0 1 .77-.77h.38c.47 0 .79.16.84.61v.11a3.25 3.25 0 0 1 2.2-.93c1.71 0 2.67 1 2.67 2.85v4.93a.73.73 0 0 1-.77.77h-.7a.72.72 0 0 1-.77-.77v-4.68c0-.89-.27-1.21-.91-1.21a2 2 0 0 0-1.48.72v5.17a.72.72 0 0 1-.77.77h-.7a.73.73 0 0 1-.77-.77zm8.74 0a.72.72 0 0 1 .77-.77h.38c.46 0 .79.16.83.61v.11a3.23 3.23 0 0 1 2.19-.93c1.71 0 2.67 1 2.67 2.85v4.93a.72.72 0 0 1-.76.77h-.71a.73.73 0 0 1-.77-.77v-4.68c0-.89-.27-1.21-.91-1.21a2 2 0 0 0-1.47.72v5.17a.72.72 0 0 1-.77.77h-.7a.72.72 0 0 1-.77-.77zm8.65 0a.72.72 0 0 1 .77-.77h.71a.72.72 0 0 1 .76.77v4.67c0 .9.28 1.22.92 1.22a2 2 0 0 0 1.47-.72v-5.17a.72.72 0 0 1 .77-.77h.7a.72.72 0 0 1 .77.77v6.8a.72.72 0 0 1-.77.77h-.35c-.53 0-.82-.12-.86-.58v-.14a3.26 3.26 0 0 1-2.19.92 2.51 2.51 0 0 1-2.68-2.84zm8.82 0a.72.72 0 0 1 .77-.77h.41c.47 0 .79.16.83.61v.11a3.23 3.23 0 0 1 2.17-.93c1.72 0 2.68 1 2.68 2.85v4.93a.73.73 0 0 1-.77.77h-.71a.72.72 0 0 1-.76-.77v-4.68c0-.89-.28-1.21-.92-1.21a2 2 0 0 0-1.47.72v5.17a.72.72 0 0 1-.77.77h-.7a.72.72 0 0 1-.77-.77zm10.54 8.93h1.93a.88.88 0 0 0 .88-1v-1.09a2.61 2.61 0 0 1-1.8.69c-1.89 0-3.05-1.27-3.05-3.48v-1.6c0-2.21 1.16-3.47 3.05-3.47a2.79 2.79 0 0 1 2 .9v-.23c.05-.33.29-.46.75-.46h.53a.67.67 0 0 1 .71.77v7.9c0 1.76-1.09 2.88-3.12 2.88h-1.75a.75.75 0 0 1-.85-.73v-.29a.67.67 0 0 1 .72-.79zm2.81-3.92v-3.37a2.14 2.14 0 0 0-1.43-.73c-.85 0-1.15.56-1.15 1.84v1.09c0 1.29.3 1.84 1.15 1.84a2.27 2.27 0 0 0 1.43-.67z" fill="#036"/><path d="M92.91 64.89c28.31.13 60.47-4 93-16.74l-12 66s-33 17-81 17h.59c-48-.05-81-17-81-17l-12-66C33 60.9 65.19 65 93.5 64.89" fill="none" stroke="#fff" stroke-linecap="round" stroke-linejoin="round"/><path d="M92.91 64.89c28.31.13 60.47-4 93-16.74 0 0-39.32-11.82-93-12.46h.59c-53.68.64-93 12.46-93 12.46C33 60.9 65.19 65 93.5 64.89" fill="none" stroke="#fff" stroke-linecap="round" stroke-linejoin="round"/><path fill="none" stroke="#3f9" stroke-linecap="round" stroke-linejoin="round" stroke-width="5" d="M70.45 50.12L75.12 60.06 82.49 40.8"/><path fill="none" stroke="#3f9" stroke-linecap="round" stroke-linejoin="round" stroke-width="5" d="M148.64 23.82L153.31 33.76 160.68 14.5"/></g></svg>