<svg xmlns="http://www.w3.org/2000/svg" width="182.47" height="215.27"><g data-name="Ebene 2"><path fill="none" stroke="#3f9" stroke-linecap="round" stroke-linejoin="round" stroke-width="5" d="M100.44 11.82L105.11 21.76 112.48 2.5"/><circle cx="54.08" cy="45.83" r="13.1" fill="#fff"/><circle cx="42.86" cy="106.21" r="42.01" fill="#fff"/><circle cx="120.06" cy="95.21" r="62.38" fill="#fff"/><circle cx="84.44" cy="157.13" r="58.14" fill="#fff"/><circle cx="165.6" cy="168.07" r="16.87" fill="#fff"/><circle cx="9.72" cy="154.62" r="9.72" fill="#fff"/><path fill="none" stroke="#3f9" stroke-linecap="round" stroke-linejoin="round" stroke-width="5" d="M72.25 45.12L76.92 55.06 84.29 35.8"/><path d="M83.56 97.93a.72.72 0 0 1 .77-.76h3.43c2.88 0 4.24 1.33 4.24 4.16v2.85c0 2.83-1.36 4.16-4.24 4.16h-3.43a.72.72 0 0 1-.77-.77zm4.13 8.49c1.76 0 1.94-.93 1.94-2.4v-2.52c0-1.45-.18-2.41-1.94-2.41h-1.82v7.33zm9.6-3.24H98V103c0-.88-.27-1.36-1.23-1.36a6 6 0 0 0-1.55.19.67.67 0 0 1-.92-.49l-.09-.36a.73.73 0 0 1 .57-.94 6.9 6.9 0 0 1 2-.29c2.27 0 3.47 1.35 3.47 3.17v4.61a.68.68 0 0 1-.72.77h-.45c-.46 0-.72-.13-.78-.62v-.13a2.38 2.38 0 0 1-2 1 2.57 2.57 0 0 1-2.78-2.74c-.05-1.94 1.64-2.63 3.77-2.63zm-.61 3.48A1.7 1.7 0 0 0 98 106v-1.24h-.51c-.91 0-1.73.11-1.73 1-.02.58.3.9.92.9zm5.94-5.06l-.56-.08c-.54-.08-.77-.21-.77-.67v-.23c0-.46.3-.62.77-.62h.56v-1.78a.72.72 0 0 1 .77-.77h.7a.72.72 0 0 1 .77.77V100H106c.47 0 .77.21.77.67v.26c0 .46-.3.67-.77.67h-1.1v4.11c0 .63.3 1 .86 1a3.58 3.58 0 0 0 .58 0c.42-.08.71 0 .8.48l.1.48a.71.71 0 0 1-.61.88 5.31 5.31 0 0 1-1 .1c-2 0-3-1-3-2.6zm5.58 1.71a3.41 3.41 0 0 1 3.52-3.52 3.45 3.45 0 0 1 3.54 3.52v1.16a.41.41 0 0 1-.41.41h-4.41v.12c0 .69.15 1.65 1.56 1.65a7.09 7.09 0 0 0 1.61-.21c.48-.11.83 0 1 .51l.08.31a.71.71 0 0 1-.53.94 7.49 7.49 0 0 1-2.11.34c-2.72 0-3.81-1.76-3.81-3.54zm4.82 0v-.2c0-.74-.29-1.46-1.28-1.46s-1.3.74-1.3 1.46v.2zm3.87-2.54a.72.72 0 0 1 .77-.77h.34c.47 0 .79.16.84.61v.11a3.28 3.28 0 0 1 2.19-.93c1.72 0 2.68 1 2.68 2.85v4.93a.72.72 0 0 1-.77.77h-.71a.72.72 0 0 1-.76-.77v-4.67c0-.9-.28-1.22-.92-1.22a2 2 0 0 0-1.47.72v5.17a.72.72 0 0 1-.77.77h-.7a.72.72 0 0 1-.77-.77zm8.74-3.28a.72.72 0 0 1 .76-.77h.71a.72.72 0 0 1 .77.77v3a2.64 2.64 0 0 1 1.79-.71c1.89 0 3.06 1.27 3.06 3.47v1.81c0 2.2-1.17 3.48-3.06 3.48a2.79 2.79 0 0 1-2-.9v.15c0 .41-.32.54-.79.54h-.49a.68.68 0 0 1-.72-.77zm3.66 9.17c.85 0 1.15-.56 1.15-1.84v-1.3c0-1.28-.3-1.84-1.15-1.84a2.19 2.19 0 0 0-1.42.72v3.54a2 2 0 0 0 1.42.72zm8.63-3.48h.68V103c0-.88-.27-1.36-1.23-1.36a6 6 0 0 0-1.55.19.66.66 0 0 1-.91-.49l-.1-.36a.73.73 0 0 1 .58-.94 6.81 6.81 0 0 1 2-.29c2.27 0 3.48 1.35 3.48 3.17v4.61a.69.69 0 0 1-.73.77h-.44c-.47 0-.72-.13-.79-.62v-.13a2.41 2.41 0 0 1-2 1 2.57 2.57 0 0 1-2.78-2.74c-.04-1.94 1.66-2.63 3.79-2.63zm-.61 3.48a1.68 1.68 0 0 0 1.29-.63v-1.24h-.51c-.91 0-1.73.11-1.73 1 0 .55.32.87.95.87zm5.4-5.89a.72.72 0 0 1 .77-.77h.39c.46 0 .78.16.83.61v.11a3.3 3.3 0 0 1 2.2-.93c1.71 0 2.67 1 2.67 2.85v4.93a.72.72 0 0 1-.77.77h-.7a.72.72 0 0 1-.77-.77v-4.67c0-.9-.27-1.22-.91-1.22a2 2 0 0 0-1.48.72v5.17a.72.72 0 0 1-.76.77h-.71a.72.72 0 0 1-.77-.77zm8.74-3.28a.72.72 0 0 1 .77-.77h.7a.72.72 0 0 1 .77.77v5.42l.64-.19a.65.65 0 0 0 .46-.45l.73-1.71a.84.84 0 0 1 .91-.56h.83c.5 0 .69.37.5.8l-1 2.34a2 2 0 0 1-.73 1l1.93 3.37c.24.42.07.87-.43.87h-.83a1 1 0 0 1-1-.56l-1.61-3-.38.09v2.69a.72.72 0 0 1-.77.77h-.7a.72.72 0 0 1-.77-.77z" fill="#036"/><path d="M134.87 82.31c0 2.37-7.88 4.65-14.77 4.65-7.38 0-14.76-3.42-14.76-5.79V60.56l29.53 1.32z" fill="#fff"/><path d="M120.1 66.39c6.89 0 14.77-2.28 14.77-4.65S127.48 56 120.1 56c-6.89 0-14.76 2.27-14.76 4.64s7.38 5.75 14.76 5.75z" fill="#fff" stroke="#036" stroke-linecap="round" stroke-linejoin="round" stroke-width="1.59"/><path d="M105.34 67.57c0 2.36 7.38 5.78 14.76 5.78 6.89 0 14.77-2.28 14.77-4.64m-29.53 6.16c0 2.36 7.38 5.78 14.76 5.78 6.89 0 14.77-2.28 14.77-4.64" fill="none" stroke="#036" stroke-linecap="round" stroke-linejoin="round" stroke-width="1.59"/><path d="M134.87 61.88v20.43c0 2.37-7.88 4.65-14.77 4.65-7.38 0-14.76-3.42-14.76-5.79V60.56" fill="none" stroke="#036" stroke-linecap="round" stroke-linejoin="round" stroke-width="1.59"/><path fill="none" stroke="#3f9" stroke-linecap="round" stroke-linejoin="round" stroke-width="5" d="M26.25 30.12L30.92 40.06 38.29 20.8"/><path d="M24.92 112.71l6.59-4.39a.64.64 0 0 0 .17-.87.62.62 0 0 0-.87-.17l-6.58 4.39a2 2 0 0 0 0 3.36l6.58 4.39a.66.66 0 0 0 .35.11.63.63 0 0 0 .52-.28.64.64 0 0 0-.17-.87L24.92 114a.77.77 0 0 1 0-1.28zm24.66-1.04L43 107.28a.62.62 0 0 0-.86.17.63.63 0 0 0 .17.87l6.58 4.39a.77.77 0 0 1 0 1.28l-6.58 4.39a.63.63 0 0 0 .35 1.15.66.66 0 0 0 .35-.11l6.57-4.42a2 2 0 0 0 0-3.36zM39.94 104a.62.62 0 0 0-.79.4l-5.69 17.84a.62.62 0 0 0 .41.78.58.58 0 0 0 .19 0 .62.62 0 0 0 .59-.43l5.69-17.84a.61.61 0 0 0-.4-.75z" fill="#036" stroke="#036" stroke-miterlimit="10" stroke-width=".71"/><path d="M27.2 87.32a2.42 2.42 0 0 1 2.4-2 2.47 2.47 0 0 1 2.38 2l2.26 8.57a.64.64 0 0 1-.63.85h-.76A.92.92 0 0 1 32 96l-.53-2.1h-3.7l-.51 2.1c-.13.51-.4.79-.86.79h-.82a.64.64 0 0 1-.61-.87zM31 92l-1.13-4.4c0-.16-.13-.28-.27-.28s-.24.12-.28.28L28.24 92zm5.15-5.67a.73.73 0 0 1 .77-.77h2.48c2.61 0 4.05 1.7 4.05 3.67S42 92.89 39.4 92.89h-.94V96a.72.72 0 0 1-.77.77h-.77a.73.73 0 0 1-.77-.77zM39.32 91a1.76 1.76 0 0 0 0-3.51h-.85V91zm5.84-4.67a.73.73 0 0 1 .77-.77h.77a.73.73 0 0 1 .77.77V96a.73.73 0 0 1-.77.77h-.77a.73.73 0 0 1-.77-.77z" fill="#036"/><rect x="64.47" y="177.2" width="39" height="27.27" rx="2.52" stroke-width="1.59" stroke="#036" stroke-linecap="round" stroke-linejoin="round" fill="#fff"/><path fill="#fff" stroke="#036" stroke-linecap="round" stroke-linejoin="round" stroke-width="1.59" d="M68.91 185.13L99.35 185.13"/><circle cx="92.69" cy="185.45" r="2.22" fill="#036" stroke="#fff" stroke-miterlimit="10" stroke-width=".63"/><path fill="#fff" stroke="#036" stroke-linecap="round" stroke-linejoin="round" stroke-width="1.59" d="M68.91 191.47L99.35 191.47"/><circle cx="78.74" cy="191.79" r="2.22" fill="#036" stroke="#fff" stroke-miterlimit="10" stroke-width=".63"/><path fill="#fff" stroke="#036" stroke-linecap="round" stroke-linejoin="round" stroke-width="1.59" d="M68.91 197.81L99.35 197.81"/><circle cx="92.69" cy="198.13" r="2.22" fill="#036" stroke="#fff" stroke-miterlimit="10" stroke-width=".63"/><path d="M38 138.05c-.16-.52.08-.88.59-.88h.79a.87.87 0 0 1 .91.65l1.71 5.56c.19.64.4 1.57.58 2.43.19-.86.4-1.79.59-2.43l1.62-5.51a.92.92 0 0 1 .93-.7h.78c.51 0 .75.36.58.91l-3 9.43a1.09 1.09 0 0 1-1 .83H42a1.1 1.1 0 0 1-1-.83zm9.65 5.26a3.4 3.4 0 0 1 3.52-3.52 3.46 3.46 0 0 1 3.54 3.52v1.16a.41.41 0 0 1-.42.41h-4.4v.12c0 .69.14 1.65 1.55 1.65a7.2 7.2 0 0 0 1.62-.21c.48-.11.83 0 1 .51l.08.31a.73.73 0 0 1-.53.94 7.56 7.56 0 0 1-2.11.34c-2.72 0-3.81-1.76-3.81-3.54zm4.81 0v-.2c0-.74-.28-1.46-1.27-1.46s-1.3.74-1.3 1.46v.2zm3.88-2.54a.72.72 0 0 1 .76-.77h.42c.46 0 .7.3.78.75l.05.26a2.65 2.65 0 0 1 2-1.22c.26 0 .85.05.68 1.06s-.4.85-.79.85a2.57 2.57 0 0 0-1.69 1v4.83a.72.72 0 0 1-.77.77h-.68a.72.72 0 0 1-.76-.77zm5.53.06a.6.6 0 0 1 .59-.83h.82a.87.87 0 0 1 .91.7l.47 2.24c.14.74.32 1.75.46 2.69.18-.94.39-1.95.58-2.67l.48-1.82a1 1 0 0 1 1-.74h.8a1 1 0 0 1 1 .74l.48 1.82c.19.72.38 1.73.56 2.67.16-.94.33-1.95.48-2.69l.46-2.24a.87.87 0 0 1 .92-.7h.81a.61.61 0 0 1 .59.85l-1.8 6.7a1 1 0 0 1-1 .79h-.88a.93.93 0 0 1-.93-.75l-1.07-4.18-1.07 4.18a1 1 0 0 1-.93.75h-.88a1 1 0 0 1-1-.79zM78 143.18h.69V143c0-.88-.27-1.36-1.23-1.36a6 6 0 0 0-1.55.19.66.66 0 0 1-.91-.49l-.1-.36a.73.73 0 0 1 .58-.94 6.75 6.75 0 0 1 2-.29c2.27 0 3.47 1.35 3.47 3.17v4.61a.68.68 0 0 1-.72.77h-.44c-.47 0-.73-.13-.79-.62v-.13a2.38 2.38 0 0 1-2 1 2.57 2.57 0 0 1-2.78-2.74c-.06-1.94 1.64-2.63 3.78-2.63zm-.6 3.48a1.68 1.68 0 0 0 1.29-.63v-1.24h-.51c-.91 0-1.73.11-1.73 1-.02.55.3.87.93.87zm5.4-9.17a.72.72 0 0 1 .77-.77h.7a.72.72 0 0 1 .77.77v8.72c0 .29 0 .43.15.51a.62.62 0 0 1 .22.72l-.14.53c-.08.32-.28.59-.85.5a1.85 1.85 0 0 1-1.62-2zm4.77 4.11l-.56-.08c-.55-.08-.77-.21-.77-.67v-.23c0-.46.3-.62.77-.62h.56v-1.78a.72.72 0 0 1 .77-.77H89a.73.73 0 0 1 .77.77V140h1.1c.47 0 .77.21.77.67v.26c0 .46-.3.67-.77.67h-1.1v4.11c0 .63.3.95.86.95a3.58 3.58 0 0 0 .58 0c.42-.08.7 0 .8.48l.1.48a.71.71 0 0 1-.61.88 5.34 5.34 0 0 1-1 .1c-2 0-3-1-3-2.6zm5.74-.83a.72.72 0 0 1 .77-.77h.7a.72.72 0 0 1 .77.77v4.67c0 .9.27 1.22.91 1.22a2 2 0 0 0 1.48-.72v-5.17a.72.72 0 0 1 .76-.77h.71a.72.72 0 0 1 .77.77v6.8a.72.72 0 0 1-.77.77h-.35c-.53 0-.82-.11-.87-.58v-.14a3.3 3.3 0 0 1-2.2.93c-1.71 0-2.67-1-2.67-2.85zm8.82 0a.72.72 0 0 1 .77-.77h.38c.46 0 .78.16.83.61v.11a3.26 3.26 0 0 1 2.19-.93c1.71 0 2.67 1 2.67 2.85v4.93a.72.72 0 0 1-.76.77h-.71a.72.72 0 0 1-.77-.77v-4.67c0-.9-.27-1.22-.91-1.22a2 2 0 0 0-1.47.72v5.17a.72.72 0 0 1-.77.77h-.7a.72.72 0 0 1-.77-.77zm10.54 8.93h1.92a.87.87 0 0 0 .88-1v-1.09a2.57 2.57 0 0 1-1.79.69c-1.89 0-3.06-1.27-3.06-3.47v-1.61c0-2.2 1.17-3.47 3.06-3.47a2.79 2.79 0 0 1 2 .9v-.23c0-.33.29-.46.75-.46h.57c.46 0 .7.3.7.77v7.91c0 1.76-1.09 2.88-3.12 2.88h-1.74a.75.75 0 0 1-.85-.74v-.29a.67.67 0 0 1 .68-.79zm2.8-3.92v-3.36a2.07 2.07 0 0 0-1.42-.74c-.85 0-1.15.56-1.15 1.84v1.09c0 1.3.3 1.84 1.15 1.84a2.23 2.23 0 0 0 1.42-.67zm4.03 1.47l.1-.35a.63.63 0 0 1 .89-.48 4.9 4.9 0 0 0 1.45.24c.72 0 .94-.29.94-.72 0-1.3-3.35-.55-3.35-3.64 0-1.53 1.41-2.51 3.14-2.51a5.61 5.61 0 0 1 1.52.21.69.69 0 0 1 .5.94l-.1.32a.71.71 0 0 1-.91.53 3.56 3.56 0 0 0-.94-.13c-.6 0-.85.29-.85.64 0 1.16 3.34.69 3.34 3.64 0 1.57-1.37 2.61-3.25 2.61a6.77 6.77 0 0 1-2-.32.77.77 0 0 1-.48-.98zm7.5-3.18v-.24a.72.72 0 0 1 .76-.77h4.13a.72.72 0 0 1 .77.77v.24a.72.72 0 0 1-.77.76h-4.13a.71.71 0 0 1-.76-.76zm-78.22 18.72a3.67 3.67 0 1 1 7.33 0v1.15a3.67 3.67 0 1 1-7.33 0zm5.06 1v-.88c0-1.3-.27-2.05-1.39-2.05s-1.39.75-1.39 2.05v.88c0 1.34.28 2.05 1.39 2.05s1.39-.69 1.39-2.03zm3.98-7.1a.72.72 0 0 1 .77-.77h.71a.72.72 0 0 1 .76.77v3a2.68 2.68 0 0 1 1.8-.71c1.89 0 3 1.27 3 3.48v1.8c0 2.2-1.16 3.48-3 3.48a2.79 2.79 0 0 1-2-.9v.15c0 .41-.32.54-.78.54h-.5a.69.69 0 0 1-.72-.77zm3.67 9.17c.85 0 1.15-.56 1.15-1.84v-1.3c0-1.28-.3-1.84-1.15-1.84a2.21 2.21 0 0 0-1.43.72v3.54a2 2 0 0 0 1.43.72zm4.89-3.35A3.41 3.41 0 0 1 69.9 159a3.45 3.45 0 0 1 3.54 3.52v1.16a.41.41 0 0 1-.42.41h-4.4v.13c0 .69.15 1.65 1.56 1.65a7.09 7.09 0 0 0 1.61-.21c.48-.11.83 0 1 .51l.08.31a.72.72 0 0 1-.53.94 7.49 7.49 0 0 1-2.11.34c-2.72 0-3.81-1.76-3.81-3.54zm4.82 0v-.21c0-.74-.29-1.46-1.28-1.46s-1.3.74-1.3 1.46v.21zm3.87-2.51a.72.72 0 0 1 .77-.77h.42c.46 0 .7.3.78.75v.26a2.65 2.65 0 0 1 2-1.22c.26 0 .85 0 .67 1.06s-.4.85-.78.85a2.62 2.62 0 0 0-1.7 1v4.83a.72.72 0 0 1-.77.77h-.7a.72.72 0 0 1-.77-.77zm6.56.8l-.56-.08c-.45-.06-.77-.24-.77-.7v-.21c0-.47.31-.61.77-.61h.56v-.61c0-1.71 1.2-2.88 3.27-2.88a7.41 7.41 0 0 1 1.71.21h1.47a.72.72 0 0 1 .77.77v8.72c0 .29.05.43.14.51a.61.61 0 0 1 .23.72l-.15.53c-.08.32-.27.59-.84.5a1.85 1.85 0 0 1-1.62-2v-7.87a7.17 7.17 0 0 0-1.55-.18c-.87 0-1.19.32-1.19 1.07v.53h.8c.47 0 .77.21.77.67v.27c0 .47-.3.66-.77.66h-.8v6a.72.72 0 0 1-.77.77h-.7a.72.72 0 0 1-.77-.77zm12.71 1.59H95v-.15c0-.88-.27-1.36-1.23-1.36a6 6 0 0 0-1.55.19.66.66 0 0 1-.91-.49l-.1-.36a.73.73 0 0 1 .58-.94 6.81 6.81 0 0 1 2-.29c2.27 0 3.48 1.35 3.48 3.17v4.61a.69.69 0 0 1-.72.77h-.45c-.47 0-.72-.13-.79-.62v-.13a2.4 2.4 0 0 1-2 1 2.57 2.57 0 0 1-2.8-2.79c0-1.93 1.7-2.61 3.83-2.61zm-2.92-5.51a1.1 1.1 0 0 1 1.06-1.07 1.09 1.09 0 0 1 1 1.07 1.06 1.06 0 0 1-1 1 1.08 1.08 0 0 1-1.06-1zm2.31 9a1.65 1.65 0 0 0 1.29-.63V164h-.51c-.91 0-1.73.11-1.73 1 0 .54.32.86.95.86zm.57-9a1.06 1.06 0 1 1 2.12 0 1.06 1.06 0 0 1-2.12 0zm4.6 5.95c0-2.16 1.18-3.84 3.71-3.84a7.8 7.8 0 0 1 2 .26.7.7 0 0 1 .57.91l-.11.42a.74.74 0 0 1-1 .44 5.38 5.38 0 0 0-1.3-.14c-1.21 0-1.58.9-1.58 2.11v.74c0 1.23.37 2.13 1.58 2.13a4.91 4.91 0 0 0 1.38-.18.66.66 0 0 1 .91.47l.1.35a.71.71 0 0 1-.56 1 7 7 0 0 1-2 .28c-2.53 0-3.71-1.7-3.71-3.86zm8-6.14a.72.72 0 0 1 .76-.77h.71a.72.72 0 0 1 .77.77v3a3.05 3.05 0 0 1 2-.74c1.71 0 2.67 1 2.67 2.85v4.93a.72.72 0 0 1-.77.77h-.7a.72.72 0 0 1-.77-.77v-4.63c0-.9-.27-1.22-.91-1.22a2 2 0 0 0-1.47.72v5.17a.72.72 0 0 1-.77.77h-.71a.72.72 0 0 1-.76-.77zm8.49 5.82a3.41 3.41 0 0 1 3.52-3.52 3.45 3.45 0 0 1 3.54 3.52v1.16a.41.41 0 0 1-.42.41h-4.4v.13c0 .69.14 1.65 1.55 1.65a7.11 7.11 0 0 0 1.62-.21c.48-.11.83 0 1 .51l.08.31a.72.72 0 0 1-.53.94 7.49 7.49 0 0 1-2.11.34c-2.72 0-3.81-1.76-3.81-3.54zm4.82 0v-.21c0-.74-.29-1.46-1.28-1.46s-1.3.74-1.3 1.46v.21z" fill="#036"/></g></svg>