<svg xmlns="http://www.w3.org/2000/svg" width="296.28" height="205.2"><defs><linearGradient id="a" x1="6.37" y1="112.08" x2="295.78" y2="112.08" gradientUnits="userSpaceOnUse"><stop offset="0" stop-color="#036"/><stop offset=".09" stop-color="#0b3a85"/><stop offset=".29" stop-color="#2347c7"/><stop offset=".44" stop-color="#3150ef"/><stop offset=".52" stop-color="#3753ff"/><stop offset=".58" stop-color="#3351f5"/><stop offset=".68" stop-color="#294bd9"/><stop offset=".82" stop-color="#1942ab"/><stop offset=".98" stop-color="#03356d"/><stop offset="1" stop-color="#036"/></linearGradient></defs><g data-name="Ebene 2"><path d="M19.37 182.2c46 17.22 91.51 22.73 131.5 22.5h.41c40 .23 85.48-5.28 131.5-22.5l13-73.24c-50.62 18.94-100.66 24.83-144.5 24.42h-.41C107 133.79 57 127.9 6.37 109z" fill="#fff"/><path d="M151.28 90.75c84.5 0 144.5 18.21 144.5 18.21-50.62 18.94-100.66 24.83-144.5 24.42h-.41C107 133.79 57 127.9 6.37 109c0 0 60-18.21 144.5-18.21" fill="url(#a)"/><path d="M92 162.65l.09-.36a.63.63 0 0 1 .9-.48 4.81 4.81 0 0 0 1.44.24c.72 0 .94-.28.94-.72 0-1.29-3.34-.54-3.34-3.63 0-1.54 1.41-2.51 3.14-2.51a5.75 5.75 0 0 1 1.52.21.68.68 0 0 1 .49.94l-.09.32a.71.71 0 0 1-.92.53 3.5 3.5 0 0 0-.94-.13c-.59 0-.85.29-.85.64 0 1.15 3.35.69 3.35 3.63 0 1.57-1.38 2.61-3.25 2.61a6.53 6.53 0 0 1-2-.32.74.74 0 0 1-.48-.97zm7.15-3.94a3.39 3.39 0 0 1 3.52-3.52 3.45 3.45 0 0 1 3.54 3.52v1.15a.42.42 0 0 1-.42.42h-4.4v.13c0 .68.14 1.64 1.55 1.64a7.36 7.36 0 0 0 1.62-.2c.48-.12.83 0 1 .51l.08.3a.74.74 0 0 1-.53 1 8.06 8.06 0 0 1-2.11.33c-2.73 0-3.81-1.76-3.81-3.53zm4.81 0v-.21c0-.73-.28-1.45-1.28-1.45s-1.29.73-1.29 1.45v.21zm3.88-2.55a.71.71 0 0 1 .76-.76h.4c.46 0 .7.3.78.75v.25a2.64 2.64 0 0 1 2-1.21c.26 0 .85.05.68 1.05s-.4.85-.79.85a2.61 2.61 0 0 0-1.69 1V163a.72.72 0 0 1-.77.76h-.71a.71.71 0 0 1-.76-.76zm5.88-3.1a1.27 1.27 0 0 1 2.53 0 1.27 1.27 0 0 1-2.53 0zm.15 3.1a.72.72 0 0 1 .77-.76h.7a.72.72 0 0 1 .77.76V163a.72.72 0 0 1-.77.76h-.7a.72.72 0 0 1-.77-.76zm3.95 2.84a3.67 3.67 0 1 1 7.33 0v1.15a3.67 3.67 0 1 1-7.33 0zm1.17-5.91a1 1 0 1 1 2.09 0 1 1 0 0 1-2.09 0zm3.89 6.94v-.89c0-1.29-.28-2-1.4-2s-1.39.75-1.39 2v.86c0 1.34.29 2 1.39 2s1.4-.65 1.4-2zm-1-6.94a1.1 1.1 0 0 1 1.06-1.07 1.11 1.11 0 0 1 1 1.07 1.07 1.07 0 0 1-1 1 1.06 1.06 0 0 1-1.07-1.02zm4.82 9.56l.1-.36a.63.63 0 0 1 .89-.48 4.88 4.88 0 0 0 1.44.24c.72 0 1-.28 1-.72 0-1.29-3.35-.54-3.35-3.63 0-1.54 1.41-2.51 3.14-2.51a5.75 5.75 0 0 1 1.52.21.69.69 0 0 1 .5.94l-.1.32a.71.71 0 0 1-.91.53 3.57 3.57 0 0 0-.95-.13c-.59 0-.85.29-.85.64 0 1.15 3.35.69 3.35 3.63 0 1.57-1.38 2.61-3.25 2.61a6.53 6.53 0 0 1-2-.32.76.76 0 0 1-.53-.97zm7.12-3.94a3.39 3.39 0 0 1 3.52-3.52 3.45 3.45 0 0 1 3.54 3.52v1.15a.42.42 0 0 1-.42.42h-4.4v.13c0 .68.14 1.64 1.55 1.64a7.36 7.36 0 0 0 1.62-.2c.48-.12.83 0 1 .51l.08.3a.73.73 0 0 1-.53 1 8 8 0 0 1-2.11.33c-2.72 0-3.81-1.76-3.81-3.53zm4.82 0v-.21c0-.73-.29-1.45-1.28-1.45s-1.3.73-1.3 1.45v.21zm7.24-1.59c0-2.75 1.65-4.77 4.5-4.77s4.5 2 4.5 4.77v2a4.61 4.61 0 0 1-2.2 4.23l.73 1.95a.67.67 0 0 1-.4 1l-.52.18a.77.77 0 0 1-1-.48l-.78-2.08h-.34c-2.85 0-4.5-2-4.5-4.77zm6.63 1.88v-1.7c0-1.62-.43-3-2.13-3s-2.13 1.41-2.13 3v1.7c0 1.63.45 3 2.13 3s2.13-1.37 2.13-3zm4.09-2.84a.72.72 0 0 1 .77-.76h.7a.72.72 0 0 1 .77.76v4.68c0 .89.27 1.21.92 1.21a2 2 0 0 0 1.47-.72v-5.17a.72.72 0 0 1 .77-.76h.7a.72.72 0 0 1 .77.76V163a.72.72 0 0 1-.77.76h-.35c-.53 0-.82-.11-.87-.57V163a3.23 3.23 0 0 1-2.2.93c-1.71 0-2.67-1-2.67-2.85zm8.58 2.55a3.39 3.39 0 0 1 3.52-3.52 3.45 3.45 0 0 1 3.54 3.52v1.15a.42.42 0 0 1-.42.42h-4.4v.13c0 .68.14 1.64 1.55 1.64a7.36 7.36 0 0 0 1.62-.2c.48-.12.83 0 1 .51l.08.3a.74.74 0 0 1-.53 1 8 8 0 0 1-2.11.33c-2.72 0-3.81-1.76-3.81-3.53zm4.82 0v-.21c0-.73-.29-1.45-1.28-1.45s-1.3.73-1.3 1.45v.21zm3.88-5.83a.73.73 0 0 1 .77-.77h.7a.72.72 0 0 1 .77.77v8.73c0 .28 0 .43.15.51a.62.62 0 0 1 .22.72l-.14.53c-.08.32-.28.59-.85.49a1.85 1.85 0 0 1-1.62-2zm4.26 0a.72.72 0 0 1 .77-.77h.7a.73.73 0 0 1 .77.77v8.73c0 .28.05.43.14.51a.61.61 0 0 1 .23.72l-.15.53c-.08.32-.27.59-.85.49a1.84 1.84 0 0 1-1.61-2zm4 5.83a3.39 3.39 0 0 1 3.52-3.52 3.45 3.45 0 0 1 3.54 3.52v1.15a.42.42 0 0 1-.42.42h-4.4v.13c0 .68.14 1.64 1.55 1.64a7.36 7.36 0 0 0 1.62-.2c.48-.12.83 0 1 .51l.08.3a.74.74 0 0 1-.53 1 8 8 0 0 1-2.11.33c-2.72 0-3.81-1.76-3.81-3.53zm4.82 0v-.21c0-.73-.29-1.45-1.28-1.45s-1.3.73-1.3 1.45v.21zm3.87-2.55a.71.71 0 0 1 .76-.76h.41c.46 0 .78.16.83.6v.12a3.21 3.21 0 0 1 2.19-.93c1.71 0 2.67 1 2.67 2.85V163a.72.72 0 0 1-.77.76h-.7a.72.72 0 0 1-.77-.76v-4.68c0-.89-.27-1.21-.91-1.21a2 2 0 0 0-1.47.72V163a.72.72 0 0 1-.77.76h-.71a.71.71 0 0 1-.76-.76zm15.5-3.55a1 1 0 0 1 .95-.74h.56a.56.56 0 0 1 .56.79l-3.11 10.93a1 1 0 0 1-.94.74h-.55a.56.56 0 0 1-.56-.79zM93 184.3h2a.87.87 0 0 0 .88-1v-1.09a2.61 2.61 0 0 1-1.8.69c-1.89 0-3.05-1.27-3.05-3.48v-1.6c0-2.21 1.16-3.47 3.05-3.47a2.81 2.81 0 0 1 2 .89v-.22c0-.34.29-.46.76-.46h.52a.67.67 0 0 1 .71.76v7.91c0 1.76-1.09 2.88-3.12 2.88h-1.74a.75.75 0 0 1-.85-.73v-.29a.67.67 0 0 1 .64-.79zm2.8-3.93V177a2.14 2.14 0 0 0-1.43-.73c-.85 0-1.15.56-1.15 1.84v1.09c0 1.29.3 1.84 1.15 1.84a2.24 2.24 0 0 0 1.47-.67zm3.99-2.46a3.39 3.39 0 0 1 3.52-3.52 3.45 3.45 0 0 1 3.54 3.52v1.15a.42.42 0 0 1-.42.42H102v.13c0 .68.14 1.64 1.55 1.64a7.36 7.36 0 0 0 1.62-.2c.48-.12.83 0 1 .51l.08.3a.74.74 0 0 1-.53.95 8.06 8.06 0 0 1-2.11.33c-2.73 0-3.81-1.76-3.81-3.53zm4.81 0v-.21c0-.73-.28-1.45-1.28-1.45s-1.32.75-1.32 1.48v.21zm3.71 3.94l.1-.36a.63.63 0 0 1 .9-.48 4.81 4.81 0 0 0 1.44.24c.72 0 .94-.28.94-.72 0-1.29-3.34-.54-3.34-3.63 0-1.54 1.41-2.51 3.13-2.51a5.61 5.61 0 0 1 1.52.21.69.69 0 0 1 .5.94l-.1.32a.7.7 0 0 1-.91.53 3.5 3.5 0 0 0-.94-.13c-.59 0-.85.29-.85.64 0 1.15 3.35.69 3.35 3.63 0 1.57-1.38 2.61-3.25 2.61a6.47 6.47 0 0 1-2-.32.75.75 0 0 1-.49-.97zm7.22-9.59a1.27 1.27 0 1 1 1.27 1.22 1.22 1.22 0 0 1-1.27-1.22zm.15 3.1a.71.71 0 0 1 .76-.76h.71a.72.72 0 0 1 .77.76v6.81a.73.73 0 0 1-.77.77h-.71a.72.72 0 0 1-.76-.77zm3.95 2.87c0-2.16 1.18-3.84 3.71-3.84a7.89 7.89 0 0 1 2 .25.72.72 0 0 1 .58.92l-.12.41a.75.75 0 0 1-1 .45 4.93 4.93 0 0 0-1.3-.14c-1.21 0-1.58.89-1.58 2.11v.74c0 1.23.37 2.12 1.58 2.12a5 5 0 0 0 1.38-.17.65.65 0 0 1 .91.46l.1.36a.72.72 0 0 1-.56 1 7.09 7.09 0 0 1-2 .27c-2.53 0-3.71-1.69-3.71-3.85zm8-6.15a.72.72 0 0 1 .76-.77h.71a.73.73 0 0 1 .77.77v3a3.12 3.12 0 0 1 1.95-.73c1.71 0 2.67 1 2.67 2.85v4.93a.72.72 0 0 1-.76.77H133a.73.73 0 0 1-.77-.77v-4.68c0-.89-.27-1.21-.91-1.21a2 2 0 0 0-1.47.72v5.17a.73.73 0 0 1-.77.77h-.71a.72.72 0 0 1-.76-.77zm8.49 5.83a3.4 3.4 0 0 1 3.52-3.52 3.44 3.44 0 0 1 3.54 3.52v1.15a.41.41 0 0 1-.41.42h-4.41v.13c0 .68.15 1.64 1.56 1.64a7.25 7.25 0 0 0 1.61-.2c.48-.12.83 0 1 .51l.08.3a.73.73 0 0 1-.53.95 8 8 0 0 1-2.11.33c-2.72 0-3.81-1.76-3.81-3.53zm4.82 0v-.21c0-.73-.29-1.45-1.28-1.45s-1.3.73-1.3 1.45v.21zm3.87-2.55a.72.72 0 0 1 .77-.76h.42c.47 0 .71.3.79.75l.05.25a2.64 2.64 0 0 1 2-1.21c.26 0 .85.05.67 1.05s-.4.85-.78.85a2.66 2.66 0 0 0-1.7 1v4.84a.72.72 0 0 1-.77.77h-.7a.72.72 0 0 1-.77-.77zm6.56.84l-.56-.08c-.54-.08-.77-.21-.77-.68v-.22c0-.46.31-.62.77-.62h.56v-1.78a.73.73 0 0 1 .77-.77h.7a.72.72 0 0 1 .77.77v1.78h1.11c.46 0 .76.2.76.67v.25c0 .47-.3.68-.76.68h-1.11v4.11c0 .62.31.94.87.94a3.56 3.56 0 0 0 .57 0c.42-.08.71 0 .8.48l.1.48a.7.7 0 0 1-.61.88 5.31 5.31 0 0 1-1 .09c-2 0-3-1-3-2.59zm5.63 1.71a3.4 3.4 0 0 1 3.53-3.52 3.44 3.44 0 0 1 3.53 3.52v1.15a.41.41 0 0 1-.41.42h-4.41v.13c0 .68.15 1.64 1.56 1.64a7.16 7.16 0 0 0 1.61-.2c.48-.12.84 0 1 .51l.08.3a.73.73 0 0 1-.52.95 8.08 8.08 0 0 1-2.12.33c-2.72 0-3.81-1.76-3.81-3.53zm4.82 0v-.21c0-.73-.29-1.45-1.28-1.45s-1.3.73-1.3 1.45v.21zm7.58-5.38a.73.73 0 0 1 .77-.77h3.43c2.88 0 4.24 1.33 4.24 4.16v2.85c0 2.84-1.36 4.17-4.24 4.17h-3.43a.73.73 0 0 1-.77-.77zm4.13 8.48c1.76 0 1.94-.92 1.94-2.4v-2.51c0-1.46-.18-2.42-1.94-2.42h-1.82V181zm9.6-3.23h.69v-.14c0-.88-.27-1.36-1.23-1.36a6.18 6.18 0 0 0-1.56.19.66.66 0 0 1-.91-.5l-.09-.35a.73.73 0 0 1 .57-.94 6.9 6.9 0 0 1 2-.29c2.27 0 3.47 1.34 3.47 3.17v4.61a.69.69 0 0 1-.72.77h-.45c-.46 0-.72-.13-.78-.63v-.13a2.38 2.38 0 0 1-2 1 2.57 2.57 0 0 1-2.78-2.73c-.03-1.98 1.66-2.67 3.79-2.67zm-.61 3.47a1.69 1.69 0 0 0 1.3-.62v-1.25h-.51c-.92 0-1.73.11-1.73 1 0 .55.32.87.94.87zm5.94-5.05l-.56-.08c-.55-.08-.77-.21-.77-.68v-.22c0-.46.3-.62.77-.62h.56v-1.78a.72.72 0 0 1 .77-.77h.7a.73.73 0 0 1 .77.77v1.78h1.1c.47 0 .77.2.77.67v.25c0 .47-.3.68-.77.68h-1.1v4.11c0 .62.3.94.86.94a3.6 3.6 0 0 0 .58 0c.42-.08.7 0 .8.48l.1.48a.71.71 0 0 1-.61.88 5.43 5.43 0 0 1-1 .09c-2 0-3-1-3-2.59zm5.54 1.71a3.4 3.4 0 0 1 3.52-3.52 3.44 3.44 0 0 1 3.54 3.52v1.15a.42.42 0 0 1-.42.42h-4.4v.13c0 .68.15 1.64 1.55 1.64a7.27 7.27 0 0 0 1.62-.2c.48-.12.83 0 1 .51l.08.3a.73.73 0 0 1-.53.95 8 8 0 0 1-2.11.33c-2.72 0-3.81-1.76-3.81-3.53zm4.82 0v-.21c0-.73-.29-1.45-1.28-1.45s-1.3.73-1.3 1.45v.21zm3.91-2.55a.72.72 0 0 1 .77-.76h.38c.47 0 .79.16.83.6v.12a3.23 3.23 0 0 1 2.19-.93c1.72 0 2.68 1 2.68 2.85v4.93a.73.73 0 0 1-.77.77h-.71a.73.73 0 0 1-.77-.77v-4.68c0-.89-.27-1.21-.91-1.21a2 2 0 0 0-1.42.72v5.17a.72.72 0 0 1-.77.77h-.7a.72.72 0 0 1-.77-.77z" fill="#036"/><path d="M19.37 182.2c46 17.22 91.51 22.73 131.5 22.5h.41c40 .23 85.48-5.28 131.5-22.5l13-73.24c-50.62 18.94-100.66 24.83-144.5 24.42h-.41C107 133.79 57 127.9 6.37 109z" fill="none" stroke="#fff" stroke-linecap="round" stroke-linejoin="round"/><path d="M151.28 90.75c84.5 0 144.5 18.21 144.5 18.21-50.62 18.94-100.66 24.83-144.5 24.42h-.41C107 133.79 57 127.9 6.37 109c0 0 60-18.21 144.5-18.21" fill="none" stroke="#fff" stroke-linecap="round" stroke-linejoin="round"/><path d="M180.43 16.37a440.42 440.42 0 0 0-81.32 5.09c-15 2.39-30.3 6-40.21 12.53-49 32.47-4 58.47 35.43 57.79A525.15 525.15 0 0 0 219 74c16.51-4.38 82.38-31.1 49.87-49.58-8.62-4.9-26.87-10.2-37.53-11a865.45 865.45 0 0 0-94.08-1.44C107.9 13.23 78.08 16 52.3 23.8S5.19 45.12 1.06 61.1c-1.65 6.36.08 13.62 9 17.78 8.25 3.84 20.15 4 31 3.68 36.6-.94 72.88-4.27 108.7-8.49 23.67-2.79 47.42-6 69.1-11.94 7.38-2 15.2-4.87 16.69-9.31.92-2.75-.88-5.59-3.5-8-6.05-5.52-16.5-9.35-27.7-11.32s-23.2-2.23-34.95-1.83c-45.79 1.58-90.14 13.41-120.65 32.2-10.57 6.5-19.82 14.24-21.07 22.93a9.75 9.75 0 0 0 3.12 9c5.64 5.17 17.8 6.78 28.72 7.45 36.42 2.24 196.22-15.56 230-30.85 2.82-1.28 5.83-3.16 4.54-5-.61-.89-2.07-1.51-3.53-2-8.9-3.08-19.85-3.66-30.35-3.94-32.93-.88-119.58 10-129.7 12-95.61 19.54-43.61 48.47-20.9 51.34 27 3.4 55.21 5.55 82.76 3.17 4.31-.37 9.34-1.16 10.72-3.42 1.18-2-1.17-4.12-4.42-5.12s-7.15-1.12-10.88-1.11a226.38 226.38 0 0 0-55.35 6.79c-3.09.79-6.61 2.12-6.21 4 .21 1 1.55 1.79 2.89 2.48" fill="none" stroke="#036" stroke-linecap="round" stroke-linejoin="round"/><path d="M130.27 45.2c-.18-.88.25-1.38 1-1.38h1.33a1.27 1.27 0 0 1 1.3 1.18l1.07 6.32c.23 1.35.45 3.25.65 5 .2-1.78.43-3.68.73-5l.72-3.4a3.48 3.48 0 0 1 6.9 0l.73 3.4c.27 1.38.52 3.33.72 5.15.2-1.82.45-3.77.68-5.15l1.04-6.32a1.32 1.32 0 0 1 1.35-1.18h1.25c.72 0 1.17.5 1 1.38l-3 14.82a1.48 1.48 0 0 1-1.45 1.25h-1.63a1.46 1.46 0 0 1-1.44-1.27l-2.6-11.72c0-.1-.08-.15-.13-.15s-.1 0-.12.15L137.77 60a1.48 1.48 0 0 1-1.48 1.23h-1.6a1.48 1.48 0 0 1-1.45-1.23zm22.8 3.42c0-2.9 1.85-4.8 5.52-4.8h3.63a1.13 1.13 0 0 1 1.2 1.2v.6a1.13 1.13 0 0 1-1.2 1.2h-3.58c-1.5 0-2 .68-2 2.08v2h4.8a1.13 1.13 0 0 1 1.2 1.2v.57a1.13 1.13 0 0 1-1.2 1.2h-4.8v2.4c0 1.43.47 2.05 2 2.05h3.68a1.13 1.13 0 0 1 1.2 1.2v.6a1.13 1.13 0 0 1-1.2 1.2h-3.73c-3.65 0-5.52-1.9-5.52-4.77zm13.52-2.75a1.74 1.74 0 0 1 1.23-1.62 13.35 13.35 0 0 1 4.07-.75c3.65 0 5.88 2.3 5.88 5.1a3.72 3.72 0 0 1-1.83 3.4 4.27 4.27 0 0 1 2.73 4c0 2.87-2.38 5.27-6.43 5.27h-4.45a1.13 1.13 0 0 1-1.2-1.2zm5.23 5a2.1 2.1 0 0 0 2.25-2.22 2 2 0 0 0-2.23-2.1 4.4 4.4 0 0 0-1.65.3v4zm.3 7.45c1.72 0 2.77-.92 2.77-2.27s-.8-2.4-2.77-2.4h-1.93v4.67z" fill="#fff"/><path fill="none" stroke="#fb8559" stroke-linecap="round" stroke-miterlimit="10" stroke-width="5" d="M119.54 17.56L133.54 31.64"/><path fill="none" stroke="#fb8559" stroke-linecap="round" stroke-miterlimit="10" stroke-width="5" d="M133.58 17.6L119.5 31.6"/><path fill="none" stroke="#3f9" stroke-linecap="round" stroke-linejoin="round" stroke-width="5" d="M85.97 65.43L90.64 75.37 98.01 56.11"/><path fill="none" stroke="#fb8559" stroke-linecap="round" stroke-miterlimit="10" stroke-width="5" d="M66.34 17.96L80.34 32.04"/><path fill="none" stroke="#fb8559" stroke-linecap="round" stroke-miterlimit="10" stroke-width="5" d="M80.38 18L66.3 32.01"/><path fill="none" stroke="#3f9" stroke-linecap="round" stroke-linejoin="round" stroke-width="5" d="M194.78 58.83L199.44 68.77 206.81 49.51"/><path fill="none" stroke="#3f9" stroke-linecap="round" stroke-linejoin="round" stroke-width="5" d="M248.78 84.83L253.44 94.77 260.81 75.51"/><path fill="none" stroke="#fb8559" stroke-linecap="round" stroke-miterlimit="10" stroke-width="5" d="M211.4 102.39L225.41 116.47"/><path fill="none" stroke="#fb8559" stroke-linecap="round" stroke-miterlimit="10" stroke-width="5" d="M225.45 102.43L211.37 116.43"/><path fill="none" stroke="#3f9" stroke-linecap="round" stroke-linejoin="round" stroke-width="5" d="M10.39 48.12L15.05 58.06 22.42 38.8"/><path fill="none" stroke="#fb8559" stroke-linecap="round" stroke-miterlimit="10" stroke-width="5" d="M274.4 45.39L288.41 59.47"/><path fill="none" stroke="#fb8559" stroke-linecap="round" stroke-miterlimit="10" stroke-width="5" d="M288.45 45.43L274.37 59.43"/><path fill="none" stroke="#fb8559" stroke-linecap="round" stroke-miterlimit="10" stroke-width="5" d="M144.4 99.39L158.41 113.47"/><path fill="none" stroke="#fb8559" stroke-linecap="round" stroke-miterlimit="10" stroke-width="5" d="M158.45 99.43L144.37 113.43"/><path fill="none" stroke="#3f9" stroke-linecap="round" stroke-linejoin="round" stroke-width="5" d="M175.58 11.82L180.25 21.76 187.62 2.5"/><path fill="none" stroke="#3f9" stroke-linecap="round" stroke-linejoin="round" stroke-width="5" d="M53.58 106.82L58.24 116.76 65.61 97.5"/></g></svg>