<svg xmlns="http://www.w3.org/2000/svg" xmlns:xlink="http://www.w3.org/1999/xlink" width="238" height="142.09" viewBox="0 0 238 142.09"><defs><linearGradient id="bde4dea1-5bf2-4e65-8890-4de58f5f4ea9" x1="0.5" y1="51.3" x2="237.5" y2="51.3" gradientUnits="userSpaceOnUse"><stop offset="0" stop-color="#036"/><stop offset="0.09" stop-color="#0b3a85"/><stop offset="0.29" stop-color="#2347c7"/><stop offset="0.44" stop-color="#3150ef"/><stop offset="0.52" stop-color="#3753ff"/><stop offset="0.58" stop-color="#3351f5"/><stop offset="0.68" stop-color="#294bd9"/><stop offset="0.82" stop-color="#1942ab"/><stop offset="0.98" stop-color="#03356d"/><stop offset="1" stop-color="#036"/></linearGradient></defs><g id="a6d17e44-4c00-4f46-b8ca-c8e7ca99339e" data-name="Ebene 2"><g id="e8283459-4a95-437c-b0a8-9ac6a7100a28" data-name="Ebene 2"><polyline points="108.55 12.56 113.22 22.5 120.59 3.24" fill="none" stroke="#3f9" stroke-linecap="round" stroke-linejoin="round" stroke-width="5"/><polyline points="196.94 13.27 201.6 23.21 208.97 3.95" fill="none" stroke="#3f9" stroke-linecap="round" stroke-linejoin="round" stroke-width="5"/><polyline points="15.64 11.82 20.31 21.76 27.68 2.5" fill="none" stroke="#3f9" stroke-linecap="round" stroke-linejoin="round" stroke-width="5"/><path d="M224.91,122.9c-37,14.48-73.49,19-105.5,18.68H119c-32,.31-68.54-4.2-105.5-18.68L.5,48.67C42,64.1,83.07,69.19,119.29,69.14h-.58c36.22,0,77.27-5,118.79-20.47Z" fill="#fff"/><path d="M118.7,33.46c68.64.93,118.8,15.21,118.8,15.21C196,64.1,154.93,69.19,118.71,69.14h.58C83.07,69.19,42,64.1.5,48.67c0,0,50.16-14.28,118.8-15.21" fill="url(#bde4dea1-5bf2-4e65-8890-4de58f5f4ea9)"/><path d="M64.78,90.69H63a.72.72,0,0,1-.77-.76v-.39a.72.72,0,0,1,.77-.77h5.95a.72.72,0,0,1,.77.77v.39a.72.72,0,0,1-.77.76H67.09v8.49a.73.73,0,0,1-.77.77h-.77a.73.73,0,0,1-.77-.77Z" fill="#036"/><path d="M71.07,89.09a.72.72,0,0,1,.77-.76h.7a.72.72,0,0,1,.77.76v3a3.14,3.14,0,0,1,2-.73c1.72,0,2.68,1,2.68,2.85v4.93a.73.73,0,0,1-.77.77h-.71a.73.73,0,0,1-.77-.77V94.5c0-.89-.27-1.21-.91-1.21a2,2,0,0,0-1.47.72v5.17a.72.72,0,0,1-.77.77h-.7a.72.72,0,0,1-.77-.77Z" fill="#036"/><path d="M79.56,94.92a3.41,3.41,0,0,1,3.53-3.52,3.45,3.45,0,0,1,3.53,3.52v1.15a.41.41,0,0,1-.41.42h-4.4v.13c0,.69.14,1.65,1.55,1.65A7,7,0,0,0,85,98.06c.49-.11.84,0,1,.51l.08.3a.74.74,0,0,1-.53.95,8.08,8.08,0,0,1-2.12.33c-2.72,0-3.81-1.76-3.81-3.53Zm4.82,0v-.21c0-.73-.29-1.45-1.28-1.45s-1.29.73-1.29,1.45V95Z" fill="#036"/><path d="M88.25,92.38a.72.72,0,0,1,.77-.77h.43c.47,0,.74.21.79.61v.11a3,3,0,0,1,2.08-.93,2.4,2.4,0,0,1,2.21,1,3.48,3.48,0,0,1,2.31-1c1.71,0,2.67,1,2.67,2.85v4.93a.72.72,0,0,1-.77.77h-.7a.72.72,0,0,1-.77-.77V94.5c0-.89-.27-1.21-.91-1.21A2,2,0,0,0,95,94c0,.11,0,.24,0,.35v4.87a.73.73,0,0,1-.77.77h-.71a.72.72,0,0,1-.76-.77V94.5c0-.89-.28-1.21-.92-1.21a2,2,0,0,0-1.36.72v5.17a.72.72,0,0,1-.76.77H89a.73.73,0,0,1-.77-.77Z" fill="#036"/><path d="M101.15,94.92a3.4,3.4,0,0,1,3.52-3.52,3.46,3.46,0,0,1,3.54,3.52v1.15a.42.42,0,0,1-.42.42h-4.4v.13c0,.69.14,1.65,1.55,1.65a7.2,7.2,0,0,0,1.62-.21c.48-.11.83,0,1,.51l.08.3a.73.73,0,0,1-.53.95,8,8,0,0,1-2.11.33c-2.72,0-3.81-1.76-3.81-3.53ZM106,95v-.21c0-.73-.29-1.45-1.28-1.45s-1.3.73-1.3,1.45V95Z" fill="#036"/><path d="M109.84,92.38a.72.72,0,0,1,.76-.77H111c.46,0,.78.16.83.61l0,.11A3.21,3.21,0,0,1,114,91.4c1.71,0,2.67,1,2.67,2.85v4.93a.72.72,0,0,1-.77.77h-.7a.73.73,0,0,1-.77-.77V94.5c0-.89-.27-1.21-.91-1.21a2,2,0,0,0-1.47.72v5.17a.73.73,0,0,1-.77.77h-.71a.72.72,0,0,1-.76-.77Z" fill="#036"/><path d="M122.06,94.79h.69v-.14c0-.88-.27-1.36-1.23-1.36a6.18,6.18,0,0,0-1.56.19.66.66,0,0,1-.91-.5l-.09-.35a.73.73,0,0,1,.57-.94,6.9,6.9,0,0,1,2-.29c2.27,0,3.47,1.34,3.47,3.17v4.61a.69.69,0,0,1-.72.77h-.45c-.46,0-.72-.13-.78-.63l0-.13a2.38,2.38,0,0,1-2,1,2.56,2.56,0,0,1-2.78-2.73C118.24,95.48,119.93,94.79,122.06,94.79Zm-.61,3.48a1.7,1.7,0,0,0,1.3-.63V96.39h-.51c-.91,0-1.73.12-1.73,1C120.51,98,120.83,98.27,121.45,98.27Z" fill="#036"/><path d="M126.78,92.38a.72.72,0,0,1,.77-.77h.7a.72.72,0,0,1,.77.77v4.67c0,.9.27,1.22.91,1.22a2,2,0,0,0,1.48-.72V92.38a.72.72,0,0,1,.76-.77h.71a.72.72,0,0,1,.77.77v6.8a.73.73,0,0,1-.77.77h-.35c-.53,0-.82-.12-.87-.58v-.14a3.29,3.29,0,0,1-2.2.92c-1.71,0-2.67-1-2.67-2.84Z" fill="#036"/><path d="M135.44,98.86l.09-.35a.63.63,0,0,1,.9-.48,4.81,4.81,0,0,0,1.44.24c.72,0,.94-.29.94-.72,0-1.3-3.34-.55-3.34-3.64,0-1.53,1.41-2.51,3.14-2.51a5.75,5.75,0,0,1,1.52.21.68.68,0,0,1,.49.94l-.09.32a.71.71,0,0,1-.92.53,3.5,3.5,0,0,0-.94-.13c-.59,0-.85.29-.85.64,0,1.15,3.35.69,3.35,3.64,0,1.56-1.38,2.6-3.25,2.6a6.47,6.47,0,0,1-2-.32A.74.74,0,0,1,135.44,98.86Z" fill="#036"/><path d="M142.3,92.44a.6.6,0,0,1,.59-.83h.82a.87.87,0,0,1,.91.7l.46,2.24c.15.74.32,1.75.47,2.69.17-.94.38-1.95.57-2.67l.49-1.83a1,1,0,0,1,1-.73h.8a1,1,0,0,1,1,.73l.48,1.83c.19.72.38,1.73.56,2.67.16-.94.33-1.95.48-2.69l.46-2.24a.86.86,0,0,1,.91-.7H153a.61.61,0,0,1,.59.85l-1.81,6.7a1,1,0,0,1-1,.79H150a.94.94,0,0,1-.93-.76L148,95l-1.08,4.17a1,1,0,0,1-.93.76h-.88a1,1,0,0,1-1-.79Z" fill="#036"/><path d="M158.41,94.79h.69v-.14c0-.88-.27-1.36-1.23-1.36a6,6,0,0,0-1.55.19.67.67,0,0,1-.92-.5l-.09-.35a.73.73,0,0,1,.57-.94,6.9,6.9,0,0,1,2-.29c2.27,0,3.47,1.34,3.47,3.17v4.61a.69.69,0,0,1-.72.77h-.45c-.46,0-.72-.13-.78-.63l0-.13a2.38,2.38,0,0,1-2,1,2.56,2.56,0,0,1-2.78-2.73C154.59,95.48,156.28,94.79,158.41,94.79Zm-.61,3.48a1.68,1.68,0,0,0,1.3-.63V96.39h-.51c-.91,0-1.73.12-1.73,1C156.86,98,157.18,98.27,157.8,98.27Z" fill="#036"/><path d="M163.21,89.09a.72.72,0,0,1,.77-.76h.7a.72.72,0,0,1,.77.76v3a3.14,3.14,0,0,1,2-.73c1.71,0,2.67,1,2.67,2.85v4.93a.73.73,0,0,1-.77.77h-.7a.72.72,0,0,1-.77-.77V94.5c0-.89-.27-1.21-.92-1.21a2,2,0,0,0-1.47.72v5.17a.72.72,0,0,1-.77.77H164a.73.73,0,0,1-.77-.77Z" fill="#036"/><path d="M172,89.09a.72.72,0,0,1,.77-.76h.71a.72.72,0,0,1,.77.76v8.73c0,.29,0,.43.14.51a.62.62,0,0,1,.22.72l-.14.53c-.08.32-.27.59-.85.49a1.85,1.85,0,0,1-1.62-2Z" fill="#036"/><path d="M87.24,109.85c0-2.69,1.47-3.46,3.15-3.56.42,0,.5.26.5.68v.51c0,.41,0,.65-.45.72-.58.08-1,.3-1,1.65v9.52c0,1.35.4,1.55,1,1.65s.47.3.47.72v.51c0,.42-.08.71-.5.67-1.71-.11-3.15-.86-3.15-3.55Z" fill="#036"/><path d="M94.26,109.89H92.44a.72.72,0,0,1-.77-.76v-.39a.72.72,0,0,1,.77-.77h6a.72.72,0,0,1,.77.77v.39a.72.72,0,0,1-.77.76H96.57v8.49a.73.73,0,0,1-.77.77H95a.73.73,0,0,1-.77-.77Z" fill="#036"/><path d="M102.6,114h.69v-.14c0-.88-.28-1.36-1.24-1.36a6.06,6.06,0,0,0-1.55.19.66.66,0,0,1-.91-.5l-.1-.35a.75.75,0,0,1,.58-.94,6.88,6.88,0,0,1,2-.29c2.28,0,3.48,1.34,3.48,3.17v4.61a.69.69,0,0,1-.72.77h-.45c-.47,0-.72-.13-.78-.63l0-.13a2.39,2.39,0,0,1-2,1,2.56,2.56,0,0,1-2.79-2.73C98.77,114.68,100.47,114,102.6,114Zm-.61,3.48a1.7,1.7,0,0,0,1.3-.63v-1.25h-.52c-.91,0-1.72.12-1.72,1C101.05,117.15,101.37,117.47,102,117.47Z" fill="#036"/><path d="M109.21,120.51h1.92a.87.87,0,0,0,.88-1v-1.09a2.61,2.61,0,0,1-1.8.69c-1.88,0-3-1.27-3-3.48v-1.6c0-2.21,1.17-3.47,3-3.47a2.79,2.79,0,0,1,2,.9l0-.23c0-.33.29-.46.75-.46h.53a.67.67,0,0,1,.71.77v7.9c0,1.76-1.09,2.88-3.12,2.88h-1.75a.75.75,0,0,1-.85-.73l0-.29A.67.67,0,0,1,109.21,120.51Zm2.8-3.92v-3.37a2.14,2.14,0,0,0-1.43-.73c-.85,0-1.15.56-1.15,1.84v1.09c0,1.29.3,1.84,1.15,1.84A2.27,2.27,0,0,0,112,116.59Z" fill="#036"/><path d="M118,120.51h1.93a.87.87,0,0,0,.88-1v-1.09a2.61,2.61,0,0,1-1.8.69c-1.89,0-3.05-1.27-3.05-3.48v-1.6c0-2.21,1.16-3.47,3.05-3.47a2.79,2.79,0,0,1,2,.9l0-.23c0-.33.29-.46.75-.46h.53a.67.67,0,0,1,.71.77v7.9c0,1.76-1.09,2.88-3.12,2.88h-1.75a.75.75,0,0,1-.85-.73l0-.29A.67.67,0,0,1,118,120.51Zm2.81-3.92v-3.37a2.14,2.14,0,0,0-1.43-.73c-.85,0-1.15.56-1.15,1.84v1.09c0,1.29.3,1.84,1.15,1.84A2.27,2.27,0,0,0,120.81,116.59Z" fill="#036"/><path d="M124.85,108.47a1.27,1.27,0,1,1,1.27,1.22A1.22,1.22,0,0,1,124.85,108.47Zm.15,3.11a.72.72,0,0,1,.76-.77h.71a.72.72,0,0,1,.77.77v6.8a.73.73,0,0,1-.77.77h-.71a.72.72,0,0,1-.76-.77Z" fill="#036"/><path d="M129.19,111.58a.72.72,0,0,1,.77-.77h.38c.46,0,.78.16.83.61l0,.11a3.23,3.23,0,0,1,2.19-.93c1.71,0,2.67,1,2.67,2.85v4.93a.72.72,0,0,1-.76.77h-.71a.73.73,0,0,1-.77-.77V113.7c0-.89-.27-1.21-.91-1.21a2,2,0,0,0-1.47.72v5.17a.73.73,0,0,1-.77.77H130a.72.72,0,0,1-.77-.77Z" fill="#036"/><path d="M139.73,120.51h1.92a.87.87,0,0,0,.88-1v-1.09a2.57,2.57,0,0,1-1.79.69c-1.89,0-3.06-1.27-3.06-3.48v-1.6c0-2.21,1.17-3.47,3.06-3.47a2.79,2.79,0,0,1,2,.9l0-.23c.05-.33.29-.46.75-.46h.53c.46,0,.7.3.7.77v7.9c0,1.76-1.08,2.88-3.12,2.88h-1.74a.74.74,0,0,1-.85-.73l0-.29A.67.67,0,0,1,139.73,120.51Zm2.8-3.92v-3.37a2.09,2.09,0,0,0-1.42-.73c-.85,0-1.15.56-1.15,1.84v1.09c0,1.29.3,1.84,1.15,1.84A2.23,2.23,0,0,0,142.53,116.59Z" fill="#036"/><path d="M147.54,109.85c0-1.35-.4-1.57-1-1.65-.41-.07-.44-.31-.44-.72V107c0-.42.08-.69.49-.68,1.68.1,3.15.87,3.15,3.56v9.52c0,2.69-1.44,3.44-3.15,3.55-.41,0-.49-.25-.49-.67v-.51c0-.42,0-.66.46-.72s1-.3,1-1.65Z" fill="#036"/><path d="M224.91,122.9c-37,14.48-73.49,19-105.5,18.68H119c-32,.31-68.54-4.2-105.5-18.68L.5,48.67C42,64.1,83.07,69.19,119.29,69.14h-.58c36.22,0,77.27-5,118.79-20.47Z" fill="none" stroke="#fff" stroke-linecap="round" stroke-linejoin="round"/><path d="M118.7,33.46c68.64.93,118.8,15.21,118.8,15.21C196,64.1,154.93,69.19,118.71,69.14h.58C83.07,69.19,42,64.1.5,48.67c0,0,50.16-14.28,118.8-15.21" fill="none" stroke="#fff" stroke-linecap="round" stroke-linejoin="round"/><polyline points="63.74 38.26 68.41 48.2 75.78 28.94" fill="none" stroke="#3f9" stroke-linecap="round" stroke-linejoin="round" stroke-width="5"/><polyline points="141.74 48.26 146.41 58.2 153.78 38.94" fill="none" stroke="#3f9" stroke-linecap="round" stroke-linejoin="round" stroke-width="5"/></g></g></svg>