<svg id="Ebene_1" xmlns="http://www.w3.org/2000/svg" viewBox="0 0 557 134"><style>.st0,.st1{fill-rule:evenodd;clip-rule:evenodd}.st1{fill:#036}.st2{enable-background:new}.st3{fill:#fff}.st4{fill-rule:evenodd;clip-rule:evenodd;fill:#f0f0f0}</style><path id="path-1" class="st0" d="M31 3h220c14.4 0 26 11.6 26 26s-11.6 26-26 26H31C16.6 55 5 43.4 5 29S16.6 3 31 3z"/><path id="path-1_1_" class="st1" d="M31 3h220c14.4 0 26 11.6 26 26s-11.6 26-26 26H31C16.6 55 5 43.4 5 29S16.6 3 31 3z"/><g class="st2"><path class="st3" d="M44.1 26.6c0-3.2 1.8-4.9 4.8-4.9 1.3 0 2.4.2 3.2.4.3.1.4.3.4.6l-.1.5c-.1.3-.3.4-.7.3-.6-.2-1.6-.4-2.7-.4-2.3 0-3.1 1.4-3.1 3.6v3.5c0 2.2.8 3.6 3.1 3.6 1.2 0 2.1-.2 2.7-.4.3-.1.6 0 .6.3l.1.5c.1.3 0 .6-.4.6-.6.2-1.8.4-3.2.4-3 0-4.8-1.7-4.8-4.9v-3.7zm10.7 2.9c0-2.6 1.5-4.3 4.1-4.3 2.6 0 4.1 1.7 4.1 4.3v1.6c0 2.7-1.5 4.3-4.1 4.3-2.6 0-4.1-1.7-4.1-4.3v-1.6zm4 4.4c1.7 0 2.3-1.1 2.3-3v-1.3c0-1.8-.6-3-2.3-3-1.7 0-2.3 1.2-2.3 3V31c0 1.8.6 2.9 2.3 2.9zm6.7-7.9c0-.4.2-.6.6-.6h.3c.4 0 .5.2.6.6l.1.8c.6-.8 1.6-1.6 2.6-1.6.4 0 .9 0 .8.8-.1.8-.4.7-.9.7-.8 0-1.8.9-2.3 1.6v6.3c0 .4-.2.6-.6.6h-.6c-.4 0-.6-.2-.6-.6V26zm6.7 3.5c0-2.6 1.5-4.3 4.1-4.3 2.6 0 4.1 1.7 4.1 4.3v1.6c0 2.7-1.5 4.3-4.1 4.3-2.6 0-4.1-1.7-4.1-4.3v-1.6zm4 4.4c1.7 0 2.3-1.1 2.3-3v-1.3c0-1.8-.6-3-2.3-3-1.7 0-2.3 1.2-2.3 3V31c0 1.8.6 2.9 2.3 2.9zm6.7-7.9c0-.4.2-.6.6-.6h.3c.4 0 .6.2.6.5l.1.5c.9-.8 1.9-1.2 2.9-1.2 2.1 0 3.2 1.3 3.2 3.3v6.1c0 .4-.2.6-.6.6h-.6c-.4 0-.6-.2-.6-.6v-5.8c0-1.4-.4-2.1-1.8-2.1-.9 0-1.6.5-2.4 1.1v6.8c0 .4-.2.6-.6.6h-.6c-.4 0-.6-.2-.6-.6V26zm14.3 3.6h1.5v-.7c0-1.5-.5-2.2-2.1-2.2-1 0-1.7.2-2.1.3-.4.1-.6 0-.7-.4l-.1-.3c-.1-.4.1-.6.4-.7.5-.1 1.4-.4 2.5-.4 2.6 0 3.8 1.5 3.8 3.5v5.9c0 .4-.2.6-.6.6h-.3c-.4 0-.6-.1-.6-.5l-.1-.5c-.7.7-1.7 1.2-2.8 1.2-2 0-3.2-1.2-3.2-3 .1-2 1.9-2.8 4.4-2.8zm-.9 4.3c.8 0 1.7-.4 2.3-1v-2h-1.3c-1.5 0-2.6.3-2.6 1.6 0 .9.5 1.4 1.6 1.4zm6-7.8c-.1-.4.1-.7.4-.7h.6c.4 0 .6.2.7.6l1.6 4.8c.2.8.6 1.9.8 2.8.2-.9.5-2.1.8-2.8l1.6-4.7c.1-.4.3-.6.7-.6h.6c.4 0 .5.3.4.7l-2.9 8.5c-.1.4-.4.6-.8.6h-.8c-.4 0-.6-.2-.8-.6l-2.9-8.6zm10.3-3.4c0-.6.5-1 1.1-1s1.1.4 1.1 1-.5 1-1.1 1-1.1-.4-1.1-1zm.2 3.3c0-.4.2-.6.6-.6h.6c.4 0 .6.2.6.6v8.6c0 .4-.2.6-.6.6h-.6c-.4 0-.6-.2-.6-.6V26zm4.7 0c0-.4.2-.6.6-.6h.3c.4 0 .5.2.6.6l.1.8c.6-.8 1.6-1.6 2.6-1.6.4 0 .9 0 .8.8-.1.8-.4.7-.9.7-.8 0-1.8.9-2.3 1.6v6.3c0 .4-.2.6-.6.6h-.6c-.4 0-.6-.2-.6-.6V26zm6.9 0c0-.4.2-.6.6-.6h.6c.4 0 .6.2.6.6v5.8c0 1.4.4 2.1 1.7 2.1.9 0 1.6-.4 2.4-1.1V26c0-.4.2-.6.6-.6h.6c.4 0 .6.2.6.6v8.6c0 .4-.2.6-.6.6h-.3c-.4 0-.6-.1-.6-.5l-.1-.5c-.9.8-1.9 1.2-2.9 1.2-2.1 0-3.2-1.3-3.2-3.3V26zm10.2 8c.1-.4.4-.5.7-.4.4.1 1.2.3 2 .3 1.2 0 1.7-.6 1.7-1.4 0-1.9-4.4-1.3-4.4-4.6 0-1.7 1.4-2.8 3.4-2.8.8 0 1.5.2 1.9.3.4.1.5.4.4.7l-.1.3c-.1.3-.4.5-.8.4-.4-.1-.8-.2-1.4-.2-1 0-1.6.5-1.6 1.3 0 1.8 4.4 1.4 4.4 4.6 0 1.7-1.4 2.9-3.5 2.9-1 0-1.9-.2-2.4-.4-.3-.1-.5-.4-.4-.8l.1-.2zm11.8-4v-.4c0-.3.2-.6.6-.6h8.4c.3 0 .6.2.6.6v.4c0 .3-.2.6-.6.6H147c-.4-.1-.6-.3-.6-.6zm15.5-7.5c0-.4.2-.6.6-.6h.6c.4 0 .6.2.6.6v8.1c0 1.6.9 3.2 3 3.2s3.1-1.6 3.1-3.2v-8.1c0-.4.2-.6.6-.6h.6c.4 0 .6.2.6.6v7.8c0 3.2-1.7 5.1-4.8 5.1-3.1 0-4.8-1.9-4.8-5.1v-7.8zm2.2-2.9c0-.5.5-1 1-1s1 .5 1 1-.5 1-1 1-1-.5-1-1zm3.3 0c0-.5.5-1 1-1s1 .5 1 1-.5 1-1 1c-.6 0-1-.5-1-1zm7.1 2.4c0-.4.2-.6.6-.6h.6c.4 0 .6.2.6.6v4.2c.9-.7 1.7-1 2.6-1 2.2 0 3.6 1.5 3.6 4v2.4c0 2.5-1.3 4-3.6 4-1 0-1.8-.4-2.8-1.2l-.1.5c0 .3-.2.5-.6.5h-.3c-.4 0-.6-.2-.6-.6V22zm4.1 11.9c1.4 0 2-.9 2-2.7v-1.8c0-1.9-.6-2.7-2-2.7-.9 0-1.6.5-2.3 1.1v5.1c.7.5 1.4 1 2.3 1zm6.1-4.7c0-2.1 1.4-4 3.9-4s4 2 4 4v1.2c0 .2-.2.4-.4.4h-5.7v.7c0 1.1.5 2.5 2.4 2.5 1 0 1.8-.2 2.3-.3.4-.1.7 0 .8.4l.1.3c.1.3-.1.6-.4.7-.6.2-1.6.4-2.7.4-2.8 0-4.1-2-4.1-4v-2.3zm6.1.2V29c0-1.1-.6-2.4-2.2-2.4s-2.2 1.3-2.2 2.4v.4h4.4zM195 26c0-.4.2-.6.6-.6h.3c.4 0 .5.2.6.6l.1.8c.6-.8 1.6-1.6 2.6-1.6.4 0 .9 0 .8.8-.1.8-.4.7-.9.7-.8 0-1.8.9-2.3 1.6v6.3c0 .4-.2.6-.6.6h-.6c-.4 0-.6-.2-.6-.6V26zm7-4c0-.4.2-.6.6-.6h.6c.4 0 .6.2.6.6v4.2c.9-.7 1.7-1 2.6-1 2.2 0 3.6 1.5 3.6 4v2.4c0 2.5-1.3 4-3.6 4-1 0-1.8-.4-2.8-1.2l-.1.5c0 .3-.2.5-.6.5h-.3c-.4 0-.6-.2-.6-.6V22zm4.1 11.9c1.4 0 2-.9 2-2.7v-1.8c0-1.9-.6-2.7-2-2.7-.9 0-1.6.5-2.3 1.1v5.1c.7.5 1.4 1 2.3 1zm6.4-11.9c0-.4.2-.6.6-.6h.6c.4 0 .6.2.6.6v11.2c0 .5.1.6.2.7.2.1.3.3.2.6l-.1.4c-.1.3-.2.5-.7.4-.6-.2-1.4-.5-1.4-2V22zm4.6.7c0-.6.5-1 1.1-1 .6 0 1.1.4 1.1 1s-.5 1-1.1 1c-.6 0-1.1-.4-1.1-1zm.2 3.3c0-.4.2-.6.6-.6h.6c.4 0 .6.2.6.6v8.6c0 .4-.2.6-.6.6h-.6c-.4 0-.6-.2-.6-.6V26zm4.3 3.5c0-2.6 1.4-4.4 4-4.4 1 0 1.8.2 2.5.3.4.1.6.4.5.7l-.1.4c-.1.3-.4.5-.8.4-.5-.1-1.2-.3-2-.3-1.8 0-2.4 1.3-2.4 3v1.2c0 1.8.6 3 2.4 3 .9 0 1.5-.2 2-.3.4-.1.6 0 .7.4l.1.3c.1.4-.1.6-.5.8-.6.2-1.4.3-2.5.3-2.7 0-4-1.8-4-4.4v-1.4zm9.6-7.5c0-.4.2-.6.6-.6h.6c.4 0 .6.2.6.6v7.4l1.6-.4c.5-.1.7-.5.8-.8l.9-2.3c.1-.3.4-.5.7-.5h.6c.4 0 .6.3.4.6l-1.2 2.8c-.2.6-.6 1-1.2 1.3l2.5 4.4c.2.3 0 .7-.3.7h-.7c-.4 0-.6-.1-.8-.5l-2.3-4.1-1.3.3v3.7c0 .4-.2.6-.6.6h-.6c-.4 0-.6-.2-.6-.6V22z"/></g><path id="path-3" class="st0" d="M34 75h60c14.4 0 26 11.6 26 26s-11.6 26-26 26H34c-14.4 0-26-11.6-26-26s11.6-26 26-26z"/><path id="path-3_1_" class="st4" d="M34 75h60c14.4 0 26 11.6 26 26s-11.6 26-26 26H34c-14.4 0-26-11.6-26-26s11.6-26 26-26z"/><g class="st2"><path d="M32.4 103.4v-2h-.8c-.4 0-.6-.2-.6-.6v-.4c0-.4.2-.6.6-.6h.8v-2h-.8c-.4 0-.6-.2-.6-.6v-.4c0-.4.2-.6.6-.6h.8v-2c0-.4.2-.6.6-.6h.4c.4 0 .6.2.6.6v2h1.9v-2c0-.4.2-.6.6-.6h.4c.4 0 .6.2.6.6v2h.8c.4 0 .6.2.6.6v.4c0 .4-.2.6-.6.6h-.8v2h.8c.4 0 .6.2.6.6v.4c0 .4-.2.6-.6.6h-.8v2c0 .4-.2.6-.6.6h-.4c-.4 0-.6-.2-.6-.6v-2H34v2c0 .4-.2.6-.6.6H33c-.3 0-.6-.2-.6-.6zm3.5-3.5v-2H34v2h1.9zm5.5-2.7c0-2.1 1.3-3.4 3.9-3.4h2.9c.4 0 .6.2.6.6v.3c0 .4-.2.6-.6.6h-2.9c-1.6 0-2.1.7-2.1 2v2.2h4.4c.4 0 .6.2.6.6v.3c0 .4-.2.6-.6.6h-4.4v2.5c0 1.2.5 2 2.1 2h3c.4 0 .6.2.6.6v.4c0 .4-.2.6-.6.6h-3c-2.6 0-3.9-1.3-3.9-3.4v-6.5zm10 .6c0-.4.2-.6.6-.6h.6c.4 0 .6.2.6.6v5.8c0 1.4.4 2.1 1.7 2.1.9 0 1.6-.4 2.4-1.1v-6.8c0-.4.2-.6.6-.6h.6c.4 0 .6.2.6.6v8.6c0 .4-.2.6-.6.6h-.3c-.4 0-.6-.1-.6-.5l-.1-.5c-.9.8-1.9 1.2-2.9 1.2-2.1 0-3.2-1.3-3.2-3.3v-6.1zm10.6 0c0-.4.2-.6.6-.6h.3c.4 0 .5.2.6.6l.1.8c.6-.8 1.6-1.6 2.6-1.6.4 0 .9 0 .8.8-.1.8-.4.7-.9.7-.8 0-1.8.9-2.3 1.6v6.3c0 .4-.2.6-.6.6h-.6c-.4 0-.6-.2-.6-.6v-8.6zm6.6 3.5c0-2.6 1.5-4.3 4.1-4.3 2.6 0 4.1 1.7 4.1 4.3v1.6c0 2.7-1.5 4.3-4.1 4.3-2.6 0-4.1-1.7-4.1-4.3v-1.6zm4.1 4.4c1.7 0 2.3-1.1 2.3-3v-1.3c0-1.8-.6-3-2.3-3-1.7 0-2.3 1.2-2.3 3v1.3c0 1.9.6 3 2.3 3zm8.4 4.5c0 .4-.2.6-.6.6H80c-.4 0-.6-.2-.6-.6V97.8c0-.4.2-.6.6-.6h.3c.4 0 .6.2.6.5l.1.5c.9-.8 1.8-1.2 2.8-1.2 2.2 0 3.6 1.5 3.6 4v2.4c0 2.5-1.3 4-3.6 4-.9 0-1.7-.4-2.6-1.1v3.9zm2.4-4.5c1.4 0 2-.9 2-2.7v-1.7c0-1.9-.6-2.8-2-2.8-.9 0-1.6.5-2.3 1.1v5.1c.7.6 1.4 1 2.3 1zm10.1-4.3H95v-.7c0-1.5-.5-2.2-2.1-2.2-1 0-1.7.2-2.1.3-.4.1-.6 0-.7-.4l-.1-.3c-.1-.4.1-.6.4-.7.6-.2 1.5-.4 2.6-.4 2.6 0 3.8 1.5 3.8 3.5v5.9c0 .4-.2.6-.6.6h-.3c-.4 0-.6-.1-.6-.5l-.1-.5c-.7.7-1.7 1.2-2.8 1.2-2 0-3.2-1.2-3.2-3 .1-2 1.9-2.8 4.4-2.8zm-.9 4.3c.8 0 1.7-.4 2.3-1v-2h-1.3c-1.5 0-2.6.3-2.6 1.6 0 .9.5 1.4 1.6 1.4z"/></g><path id="path-5" class="st0" d="M155 75h96c14.4 0 26 11.6 26 26s-11.6 26-26 26h-96c-14.4 0-26-11.6-26-26s11.6-26 26-26z"/><path id="path-5_1_" class="st4" d="M155 75h96c14.4 0 26 11.6 26 26s-11.6 26-26 26h-96c-14.4 0-26-11.6-26-26s11.6-26 26-26z"/><g class="st2"><path d="M153.7 103.4v-2h-.8c-.4 0-.6-.2-.6-.6v-.4c0-.4.2-.6.6-.6h.8v-2h-.8c-.4 0-.6-.2-.6-.6v-.4c0-.4.2-.6.6-.6h.8v-2c0-.4.2-.6.6-.6h.4c.4 0 .6.2.6.6v2h1.9v-2c0-.4.2-.6.6-.6h.4c.4 0 .6.2.6.6v2h.8c.4 0 .6.2.6.6v.4c0 .4-.2.6-.6.6h-.8v2h.8c.4 0 .6.2.6.6v.4c0 .4-.2.6-.6.6h-.8v2c0 .4-.2.6-.6.6h-.4c-.4 0-.6-.2-.6-.6v-2h-1.9v2c0 .4-.2.6-.6.6h-.4c-.3 0-.6-.2-.6-.6zm3.5-3.5v-2h-1.9v2h1.9zm5.2-5.5c-.1-.4.1-.7.5-.7h.6c.4 0 .6.2.7.6l1.4 7.2c.2.8.3 2 .4 3 .2-1 .3-2.2.5-3l1.1-4.8c.3-1.3.9-2.1 2.2-2.1s1.9.9 2.2 2.1l1.1 4.8c.2.8.4 2 .5 3.1.1-1.1.3-2.3.4-3.1l1.4-7.2c.1-.4.3-.6.7-.6h.6c.4 0 .6.2.5.7l-2.5 12c-.1.4-.4.6-.7.6h-.9c-.4 0-.6-.2-.7-.6l-2.1-9.4c-.1-.5-.2-.7-.6-.7-.3 0-.5.2-.6.7l-2.2 9.4c-.1.4-.4.6-.7.6h-.9c-.4 0-.6-.2-.7-.6l-2.2-12zm20.5 7h1.5v-.7c0-1.5-.5-2.2-2.1-2.2-1 0-1.7.2-2.1.3-.4.1-.6 0-.7-.4l-.1-.3c-.1-.4.1-.6.4-.7.5-.1 1.4-.4 2.5-.4 2.6 0 3.8 1.5 3.8 3.5v5.9c0 .4-.2.6-.6.6h-.3c-.4 0-.6-.1-.6-.5l-.1-.5c-.7.7-1.7 1.2-2.8 1.2-2 0-3.2-1.2-3.2-3 .1-2 1.9-2.8 4.4-2.8zm-.9 4.3c.8 0 1.7-.4 2.3-1v-2H183c-1.5 0-2.6.3-2.6 1.6 0 .9.5 1.4 1.6 1.4zm7-11.9c0-.4.2-.6.6-.6h.6c.4 0 .6.2.6.6V98c.9-.7 1.7-1.1 2.7-1.1 2.1 0 3.2 1.3 3.2 3.3v6.1c0 .4-.2.6-.6.6h-.6c-.4 0-.6-.2-.6-.6v-5.8c0-1.4-.4-2.1-1.8-2.1-.9 0-1.6.4-2.4 1.1v6.8c0 .4-.2.6-.6.6h-.6c-.4 0-.6-.2-.6-.6V93.8zm10.5 0c0-.4.2-.6.6-.6h.6c.4 0 .6.2.6.6V105c0 .5.1.6.2.7.2.1.3.3.2.6l-.1.4c-.1.3-.2.5-.7.4-.6-.2-1.4-.5-1.4-2V93.8zm4.8 0c0-.4.2-.6.6-.6h.6c.4 0 .6.2.6.6v7.4l1.6-.4c.5-.1.7-.5.8-.8l.9-2.3c.1-.3.4-.5.7-.5h.6c.4 0 .6.3.4.6l-1.2 2.8c-.2.6-.6 1-1.2 1.3l2.5 4.4c.2.3 0 .7-.3.7h-.7c-.4 0-.6-.1-.8-.5l-2.3-4.1-1.3.3v3.7c0 .4-.2.6-.6.6h-.6c-.4 0-.6-.2-.6-.6V93.8zm12.9 7.6h1.5v-.7c0-1.5-.5-2.2-2.1-2.2-1 0-1.7.2-2.1.3-.4.1-.6 0-.7-.4l-.1-.3c-.1-.4.1-.6.4-.7.5-.1 1.4-.4 2.5-.4 2.6 0 3.8 1.5 3.8 3.5v5.9c0 .4-.2.6-.6.6h-.3c-.4 0-.6-.1-.6-.5l-.1-.5c-.7.7-1.7 1.2-2.8 1.2-2 0-3.2-1.2-3.2-3 .1-2 1.9-2.8 4.4-2.8zm-.9 4.3c.8 0 1.7-.4 2.3-1v-2h-1.3c-1.5 0-2.6.3-2.6 1.6 0 .9.5 1.4 1.6 1.4zm7-7.9c0-.4.2-.6.6-.6h.3c.4 0 .6.2.6.5l.1.5c.7-.6 1.7-1.2 2.7-1.2 1.3 0 2.2.5 2.7 1.4.8-.7 1.8-1.4 3-1.4 2.1 0 3.2 1.3 3.2 3.3v6.1c0 .4-.2.6-.6.6h-.6c-.4 0-.6-.2-.6-.6v-5.8c0-1.4-.4-2.1-1.7-2.1-.8 0-1.6.5-2.3 1.1.1.2.1.5.1.7v6.1c0 .4-.2.6-.6.6h-.6c-.4 0-.6-.2-.6-.6v-5.8c0-1.4-.4-2.1-1.7-2.1-.9 0-1.6.5-2.2 1.1v6.8c0 .4-.2.6-.6.6h-.6c-.4 0-.6-.2-.6-.6v-8.6zm17.8 12.4c0 .4-.2.6-.6.6h-.6c-.4 0-.6-.2-.6-.6V97.8c0-.4.2-.6.6-.6h.3c.4 0 .6.2.6.5l.1.5c.9-.8 1.8-1.2 2.8-1.2 2.2 0 3.6 1.5 3.6 4v2.4c0 2.5-1.3 4-3.6 4-.9 0-1.7-.4-2.6-1.1v3.9zm2.3-4.5c1.4 0 2-.9 2-2.7v-1.7c0-1.9-.6-2.8-2-2.8-.9 0-1.6.5-2.3 1.1v5.1c.7.6 1.4 1 2.3 1zm6.8-7.2l-1-.1c-.4 0-.6-.2-.6-.6v-.2c0-.4.2-.5.6-.5h1V96c0-1.8 1.2-3 3.1-3 .5 0 .8.1 1.1.1.4.1.5.3.5.7l-.1.3c-.1.3-.3.5-.7.5-.2 0-.4-.1-.8-.1-.8 0-1.4.4-1.4 1.6v1.2h1.6c.4 0 .6.2.6.6v.1c0 .4-.2.5-.6.5h-1.6v7.9c0 .4-.2.6-.6.6h-.6c-.4 0-.6-.2-.6-.6v-7.9z"/></g><path id="path-7" class="st0" d="M321 75h128c14.4 0 26 11.6 26 26s-11.6 26-26 26H321c-14.4 0-26-11.6-26-26s11.6-26 26-26z"/><path id="path-7_1_" class="st4" d="M321 75h128c14.4 0 26 11.6 26 26s-11.6 26-26 26H321c-14.4 0-26-11.6-26-26s11.6-26 26-26z"/><g class="st2"><path d="M322.4 103.4v-2h-.8c-.4 0-.6-.2-.6-.6v-.4c0-.4.2-.6.6-.6h.8v-2h-.8c-.4 0-.6-.2-.6-.6v-.4c0-.4.2-.6.6-.6h.8v-2c0-.4.2-.6.6-.6h.4c.4 0 .6.2.6.6v2h1.9v-2c0-.4.2-.6.6-.6h.4c.4 0 .6.2.6.6v2h.8c.4 0 .6.2.6.6v.4c0 .4-.2.6-.6.6h-.8v2h.8c.4 0 .6.2.6.6v.4c0 .4-.2.6-.6.6h-.8v2c0 .4-.2.6-.6.6h-.4c-.4 0-.6-.2-.6-.6v-2H324v2c0 .4-.2.6-.6.6h-.4c-.4 0-.6-.2-.6-.6zm3.5-3.5v-2H324v2h1.9zm5.9-5.5c0-.4.2-.6.6-.6h4c3.3 0 4.8 1.5 4.8 4.8v3.7c0 3.3-1.6 4.8-4.8 4.8h-4c-.4 0-.6-.2-.6-.6V94.4zm4.6 11.1c2.5 0 3-1.3 3-3.4v-3.3c0-2.1-.5-3.4-3-3.4h-2.8v10.2h2.8zm7.4-11c0-.6.5-1 1.1-1 .6 0 1.1.4 1.1 1s-.5 1-1.1 1c-.7 0-1.1-.4-1.1-1zm.2 3.3c0-.4.2-.6.6-.6h.6c.4 0 .6.2.6.6v8.6c0 .4-.2.6-.6.6h-.6c-.4 0-.6-.2-.6-.6v-8.6zm4.3 3.2c0-2.5 1.3-4 3.6-4 1 0 1.9.4 2.8 1.2l.1-.5c0-.3.2-.4.6-.4h.4c.4 0 .6.2.6.6v9.8c0 2-1.2 3.2-3.3 3.2H351c-.4 0-.6-.2-.7-.6l-.1-.3c-.1-.4.2-.6.5-.6h2.3c1 0 1.6-.7 1.6-1.6V106c-.9.7-1.7 1-2.6 1-2.2 0-3.6-1.5-3.6-4v-2zm3.8 4.5c.9 0 1.5-.4 2.3-1v-4.9c-.7-.6-1.5-1.1-2.3-1.1-1.4 0-2.1.9-2.1 2.7v1.5c.1 1.9.7 2.8 2.1 2.8zm6.9-11c0-.6.5-1 1.1-1 .6 0 1.1.4 1.1 1s-.5 1-1.1 1c-.6 0-1.1-.4-1.1-1zm.2 3.3c0-.4.2-.6.6-.6h.6c.4 0 .6.2.6.6v8.6c0 .4-.2.6-.6.6h-.6c-.4 0-.6-.2-.6-.6v-8.6zm5.1.7l-1-.1c-.4-.1-.6-.2-.6-.6v-.2c0-.4.2-.5.6-.5h1v-2.5c0-.4.2-.6.6-.6h.6c.4 0 .6.2.6.6v2.5h1.7c.4 0 .6.2.6.6v.3c0 .4-.2.5-.6.5H366v5.6c0 1.2.6 1.6 1.4 1.6.3 0 .6 0 .8-.1.4-.1.6 0 .7.4l.1.4c.1.3-.1.6-.5.7-.3.1-.7.1-1.1.1-1.9 0-3.1-1.1-3.1-2.9v-5.8zm10.3 2.9h1.5v-.7c0-1.5-.5-2.2-2.1-2.2-1 0-1.7.2-2.1.3-.4.1-.6 0-.7-.4l-.1-.3c-.1-.4.1-.6.4-.7.5-.1 1.4-.4 2.5-.4 2.6 0 3.8 1.5 3.8 3.5v5.9c0 .4-.2.6-.6.6h-.3c-.4 0-.6-.1-.6-.5l-.1-.5c-.7.7-1.7 1.2-2.8 1.2-2 0-3.2-1.2-3.2-3 .1-2 1.9-2.8 4.4-2.8zm-.9 4.3c.8 0 1.7-.4 2.3-1v-2h-1.3c-1.5 0-2.6.3-2.6 1.6 0 .9.5 1.4 1.6 1.4zm7-11.9c0-.4.2-.6.6-.6h.6c.4 0 .6.2.6.6V105c0 .5.1.6.2.7.2.1.3.3.2.6l-.1.4c-.1.3-.2.5-.7.4-.6-.2-1.4-.5-1.4-2V93.8zm4.6.7c0-.6.5-1 1.1-1 .6 0 1.1.4 1.1 1s-.5 1-1.1 1c-.7 0-1.1-.4-1.1-1zm.1 3.3c0-.4.2-.6.6-.6h.6c.4 0 .6.2.6.6v8.6c0 .4-.2.6-.6.6h-.6c-.4 0-.6-.2-.6-.6v-8.6zm4.4 8c.1-.4.4-.5.7-.4.4.1 1.2.3 2 .3 1.2 0 1.7-.6 1.7-1.4 0-1.9-4.4-1.3-4.4-4.6 0-1.7 1.4-2.8 3.4-2.8.8 0 1.5.2 1.9.3.4.1.5.4.4.7l-.1.3c-.1.3-.4.5-.8.4-.4-.1-.8-.2-1.4-.2-1 0-1.6.5-1.6 1.3 0 1.8 4.4 1.4 4.4 4.6 0 1.7-1.4 2.9-3.5 2.9-1 0-1.9-.2-2.4-.4-.3-.1-.5-.4-.4-.8l.1-.2zm8.5-11.3c0-.6.5-1 1.1-1 .6 0 1.1.4 1.1 1s-.5 1-1.1 1c-.7 0-1.1-.4-1.1-1zm.1 3.3c0-.4.2-.6.6-.6h.6c.4 0 .6.2.6.6v8.6c0 .4-.2.6-.6.6h-.6c-.4 0-.6-.2-.6-.6v-8.6zm4.4 3.2c0-2.1 1.4-4 3.9-4s4 2 4 4v1.2c0 .2-.2.4-.4.4h-5.7v.7c0 1.1.5 2.5 2.4 2.5 1 0 1.8-.2 2.3-.3.4-.1.7 0 .8.4l.1.3c.1.3-.1.6-.4.7-.6.2-1.6.4-2.7.4-2.8 0-4.1-2-4.1-4V101zm6.1.3v-.4c0-1.1-.6-2.4-2.2-2.4s-2.2 1.3-2.2 2.4v.4h4.4zm4.3-3.5c0-.4.2-.6.6-.6h.3c.4 0 .5.2.6.6l.1.8c.6-.8 1.6-1.6 2.6-1.6.4 0 .9 0 .8.8-.1.8-.4.7-.9.7-.8 0-1.8.9-2.3 1.6v6.3c0 .4-.2.6-.6.6h-.6c-.4 0-.6-.2-.6-.6v-8.6zm6.9 0c0-.4.2-.6.6-.6h.6c.4 0 .6.2.6.6v5.8c0 1.4.4 2.1 1.7 2.1.9 0 1.6-.4 2.4-1.1v-6.8c0-.4.2-.6.6-.6h.6c.4 0 .6.2.6.6v8.6c0 .4-.2.6-.6.6h-.3c-.4 0-.6-.1-.6-.5l-.1-.5c-.9.8-1.9 1.2-2.9 1.2-2.1 0-3.2-1.3-3.2-3.3v-6.1zm10.6 0c0-.4.2-.6.6-.6h.3c.4 0 .6.2.6.5l.1.5c.9-.8 1.9-1.2 2.9-1.2 2.1 0 3.2 1.3 3.2 3.3v6.1c0 .4-.2.6-.6.6h-.6c-.4 0-.6-.2-.6-.6v-5.8c0-1.4-.4-2.1-1.8-2.1-.9 0-1.6.5-2.4 1.1v6.8c0 .4-.2.6-.6.6h-.6c-.4 0-.6-.2-.6-.6v-8.6zm10.1 3.2c0-2.5 1.3-4 3.6-4 1 0 1.9.4 2.8 1.2l.1-.5c0-.3.2-.4.6-.4h.4c.4 0 .6.2.6.6v9.8c0 2-1.2 3.2-3.3 3.2h-2.1c-.4 0-.6-.2-.7-.6l-.1-.3c-.1-.4.2-.6.5-.6h2.3c1 0 1.6-.7 1.6-1.6V106c-.9.7-1.7 1-2.6 1-2.2 0-3.6-1.5-3.6-4v-2zm3.8 4.5c.9 0 1.5-.4 2.3-1v-4.9c-.7-.6-1.5-1.1-2.3-1.1-1.4 0-2.1.9-2.1 2.7v1.5c.1 1.9.7 2.8 2.1 2.8z"/></g><path id="path-9" class="st0" d="M312.5 4h66C392.6 4 404 15.4 404 29.5S392.6 55 378.5 55h-66C298.4 55 287 43.6 287 29.5S298.4 4 312.5 4z"/><path id="path-9_1_" class="st4" d="M312.5 4h66C392.6 4 404 15.4 404 29.5S392.6 55 378.5 55h-66C298.4 55 287 43.6 287 29.5S298.4 4 312.5 4z"/><g class="st2"><path d="M315.6 31.9v-2h-.8c-.4 0-.6-.2-.6-.6V29c0-.4.2-.6.6-.6h.8v-2h-.8c-.4 0-.6-.2-.6-.6v-.4c0-.4.2-.6.6-.6h.8v-2c0-.4.2-.6.6-.6h.4c.4 0 .6.2.6.6v2h1.9v-2c0-.4.2-.6.6-.6h.4c.4 0 .6.2.6.6v2h.8c.4 0 .6.2.6.6v.4c0 .4-.2.6-.6.6h-.8v2h.8c.4 0 .6.2.6.6v.4c0 .4-.2.6-.6.6h-.8v2c0 .4-.2.6-.6.6h-.4c-.4 0-.6-.2-.6-.6v-2h-1.9v2c0 .4-.2.6-.6.6h-.4c-.3-.1-.6-.3-.6-.7zm3.5-3.5v-2h-1.9v2h1.9zm5.9-5.5c0-.4.2-.6.6-.6h3.1c2.9 0 4.5 1.9 4.5 4.2 0 2.3-1.6 4.2-4.5 4.2h-1.9V35c0 .4-.2.6-.6.6h-.6c-.4 0-.6-.2-.6-.6V22.9zm3.6 6.2c1.9 0 2.7-1.3 2.7-2.6s-.8-2.6-2.7-2.6h-1.8v5.2h1.8zm6.9-6.8c0-.4.2-.6.6-.6h.6c.4 0 .6.2.6.6v11.2c0 .5.1.6.2.7.2.1.3.3.2.6l-.1.4c-.1.3-.2.5-.7.4-.6-.2-1.4-.5-1.4-2V22.3zm8.5 7.6h1.5v-.7c0-1.5-.5-2.2-2.1-2.2-1 0-1.7.2-2.1.3-.4.1-.6 0-.7-.4l-.1-.3c-.1-.4.1-.6.4-.7.5-.1 1.4-.4 2.5-.4 2.6 0 3.8 1.5 3.8 3.5v5.9c0 .4-.2.6-.6.6h-.3c-.4 0-.6-.1-.6-.5l-.1-.5c-.7.7-1.7 1.2-2.8 1.2-2 0-3.2-1.2-3.2-3 .1-2 1.9-2.8 4.4-2.8zm-.9 4.3c.8 0 1.7-.4 2.3-1v-2h-1.3c-1.5 0-2.6.3-2.6 1.6 0 .9.5 1.4 1.6 1.4zm6.6.1c.1-.4.4-.5.7-.4.4.1 1.2.3 2 .3 1.2 0 1.7-.6 1.7-1.4 0-1.9-4.4-1.3-4.4-4.6 0-1.7 1.4-2.8 3.4-2.8.8 0 1.5.2 1.9.3.4.1.5.4.4.7l-.1.3c-.1.3-.4.5-.8.4-.4-.1-.8-.2-1.4-.2-1 0-1.6.5-1.6 1.3 0 1.8 4.4 1.4 4.4 4.6 0 1.7-1.4 2.9-3.5 2.9-1 0-1.9-.2-2.4-.4-.3-.1-.5-.4-.4-.8l.1-.2zm9-7.3l-1-.1c-.4-.1-.6-.2-.6-.6v-.2c0-.4.2-.5.6-.5h1v-2.5c0-.4.2-.6.6-.6h.6c.4 0 .6.2.6.6v2.5h1.7c.4 0 .6.2.6.6v.2c0 .4-.2.5-.6.5h-1.7v5.6c0 1.2.6 1.6 1.4 1.6.3 0 .6 0 .8-.1.4-.1.6 0 .7.4l.1.4c.1.3-.1.6-.5.7-.3.1-.7.1-1.1.1-1.9 0-3.1-1.1-3.1-2.9V27zm6.4-4c0-.6.5-1 1.1-1 .6 0 1.1.4 1.1 1s-.5 1-1.1 1c-.6 0-1.1-.4-1.1-1zm.2 3.3c0-.4.2-.6.6-.6h.6c.4 0 .6.2.6.6v8.6c0 .4-.2.6-.6.6h-.6c-.4 0-.6-.2-.6-.6v-8.6zm4.7-4c0-.4.2-.6.6-.6h.6c.4 0 .6.2.6.6v7.4l1.6-.4c.5-.1.7-.5.8-.8l.9-2.3c.1-.3.4-.5.7-.5h.6c.4 0 .6.3.4.6l-1.2 2.8c-.2.6-.6 1-1.2 1.3l2.5 4.4c.2.3 0 .7-.3.7h-.7c-.4 0-.6-.1-.8-.5l-2.3-4.1-1.3.3v3.7c0 .4-.2.6-.6.6h-.6c-.4 0-.6-.2-.6-.6V22.3z"/></g><path id="path-11" class="st0" d="M442.5 4h84C540.6 4 552 15.4 552 29.5S540.6 55 526.5 55h-84C428.4 55 417 43.6 417 29.5S428.4 4 442.5 4z"/><path id="path-11_1_" class="st4" d="M442.5 4h84C540.6 4 552 15.4 552 29.5S540.6 55 526.5 55h-84C428.4 55 417 43.6 417 29.5S428.4 4 442.5 4z"/><g class="st2"><path d="M449.9 31.9v-2h-.9c-.4 0-.6-.2-.6-.6V29c0-.4.2-.6.6-.6h.8v-2h-.8c-.4 0-.6-.2-.6-.6v-.4c0-.4.2-.6.6-.6h.8v-2c0-.4.2-.6.6-.6h.4c.4 0 .6.2.6.6v2h1.9v-2c0-.4.2-.6.6-.6h.4c.4 0 .6.2.6.6v2h.8c.4 0 .6.2.6.6v.4c0 .4-.2.6-.6.6h-.8v2h.8c.4 0 .6.2.6.6v.4c0 .4-.2.6-.6.6h-.8v2c0 .4-.2.6-.6.6h-.4c-.4 0-.6-.2-.6-.6v-2h-1.9v2c0 .4-.2.6-.6.6h-.4c-.3-.1-.5-.3-.5-.7zm3.5-3.5v-2h-1.9v2h1.9zm5.6-5.5c0-.4.2-.6.6-.6h.6c.4 0 .6.2.6.6V31c0 1.6.9 3.2 3 3.2s3.1-1.6 3.1-3.2v-8.1c0-.4.2-.6.6-.6h.6c.4 0 .6.2.6.6v7.8c0 3.2-1.7 5.1-4.8 5.1-3.1 0-4.8-1.9-4.8-5.1v-7.8zm12.6 3.4c0-.4.2-.6.6-.6h.3c.4 0 .6.2.6.5l.1.5c.7-.6 1.7-1.2 2.7-1.2 1.3 0 2.2.5 2.7 1.4.8-.7 1.8-1.4 3-1.4 2.1 0 3.2 1.3 3.2 3.3v6.1c0 .4-.2.6-.6.6h-.6c-.4 0-.6-.2-.6-.6v-5.8c0-1.4-.4-2.1-1.7-2.1-.8 0-1.6.5-2.3 1.1.1.2.1.5.1.7v6.1c0 .4-.2.6-.6.6h-.6c-.4 0-.6-.2-.6-.6v-5.8c0-1.4-.4-2.1-1.7-2.1-.9 0-1.6.5-2.2 1.1v6.8c0 .4-.2.6-.6.6h-.6c-.4 0-.6-.2-.6-.6v-8.6zm15.3.1c-.1-.4.1-.6.5-.6h.6c.4 0 .6.2.7.6l1.1 4.6c.2.7.3 1.7.5 2.6.2-.9.4-1.9.6-2.6l1.1-4c.1-.4.4-.6.7-.6h.7c.4 0 .6.2.7.6l1.1 4c.2.7.4 1.7.6 2.6.2-.9.4-1.9.5-2.6l1.1-4.6c.1-.4.3-.6.7-.6h.6c.4 0 .6.3.5.7L497 35c-.1.4-.4.6-.8.6h-.8c-.4 0-.6-.2-.7-.6l-1.8-6.3-1.8 6.3c-.1.4-.4.6-.7.6h-.8c-.4 0-.7-.2-.8-.6l-1.9-8.6zm14.2 3.1c0-2.1 1.4-4 3.9-4s4 2 4 4v1.2c0 .2-.2.4-.4.4h-5.7v.7c0 1.1.5 2.5 2.4 2.5 1 0 1.8-.2 2.3-.3.4-.1.7 0 .8.4l.1.3c.1.3-.1.6-.4.7-.6.2-1.6.4-2.7.4-2.8 0-4.1-2-4.1-4v-2.3zm6.1.3v-.4c0-1.1-.6-2.4-2.2-2.4s-2.2 1.3-2.2 2.4v.4h4.4zm4.3-7.5c0-.4.2-.6.6-.6h.6c.4 0 .6.2.6.6v11.2c0 .5.1.6.2.7.2.1.3.3.2.6l-.1.4c-.1.3-.2.5-.7.4-.6-.2-1.4-.5-1.4-2V22.3zm5.1 4.7l-1-.1c-.4-.1-.6-.2-.6-.6v-.2c0-.4.2-.5.6-.5h1v-2.5c0-.4.2-.6.6-.6h.6c.4 0 .6.2.6.6v2.5h1.7c.4 0 .6.2.6.6v.2c0 .4-.2.5-.6.5h-1.7v5.6c0 1.2.6 1.6 1.4 1.6.3 0 .6 0 .8-.1.4-.1.6 0 .7.4l.1.4c.1.3-.1.6-.5.7-.3.1-.7.1-1.1.1-1.9 0-3.1-1.1-3.1-2.9V27z"/></g><path id="path-13" class="st0" d="M514 75h12c14.4 0 26 11.6 26 26s-11.6 26-26 26h-12c-14.4 0-26-11.6-26-26s11.6-26 26-26z"/><path id="path-13_1_" class="st4" d="M514 75h12c14.4 0 26 11.6 26 26s-11.6 26-26 26h-12c-14.4 0-26-11.6-26-26s11.6-26 26-26z"/><path d="M515 104.4c.5 0 .9.4.9.9s-.4.9-.9.9-.9-.4-.9-.9.4-.9.9-.9zm5 0c.5 0 .9.4.9.9s-.4.9-.9.9-.9-.4-.9-.9.4-.9.9-.9zm4.9 0c.5 0 .9.4.9.9s-.4.9-.9.9-.9-.4-.9-.9.4-.9.9-.9z" class=""/></svg>