<svg width="61" height="51" xmlns="http://www.w3.org/2000/svg" xmlns:xlink="http://www.w3.org/1999/xlink"><defs><path id="a" d="M0.857142857 0L60.8571429 0 60.8571429 51 0.857142857 51z"/></defs><g fill="none" fill-rule="evenodd"><mask id="b" fill="#fff"><use xlink:href="#a"/></mask><path d="M.857 45.648v-.22c.27-.026.542-.083.81-.072 4.768.184 9.273-.78 13.468-3.092.527-.29 1.05-.617 1.498-1.016.498-.443.434-.978-.131-1.335a5.3 5.3 0 0 0-1.25-.555c-3.036-.946-5.42-2.767-7.123-5.44-.386-.607-.55-1.39-.678-2.118-.094-.529.177-.688.73-.693a77.48 77.48 0 0 0 2.53-.068c.176-.007.348-.093.523-.142l.04-.195c-.65-.361-1.289-.742-1.948-1.08-2.996-1.54-5.074-3.904-6.29-7.036-.558-1.435-.804-2.93-.75-4.557.276.122.482.237.702.306.957.3 1.907.634 2.882.855.463.105.674-.252.462-.697-.156-.327-.409-.607-.613-.911-.718-1.066-1.554-2.071-2.126-3.21-1.429-2.85-1.61-5.865-.815-8.937.35-1.356 1.533-1.845 2.748-1.152.36.206.682.5.978.797 1.722 1.726 3.58 3.284 5.61 4.632 4.57 3.034 9.556 4.994 14.982 5.792.84.123 1.69.126 2.49-.247.504-.235.71-.595.679-1.188-.05-.954-.054-1.919.036-2.868C30.869 5.198 36.831-1.221 45.274.2c1.675.282 3.185.959 4.661 1.766.77.42 1.585.766 2.406 1.077 1.548.585 3.062.362 4.556-.267.554-.233 1.134-.44 1.722-.54.69-.118 1.07.362.816 1.015-.19.49-.46.968-.779 1.386-.513.67-1.116 1.272-1.642 1.935-.166.21-.206.523-.304.789.286.072.568.159.857.208.12.02.253-.032.378-.063.587-.146 1.17-.309 1.76-.442.423-.094.845-.12 1.152.286v.443c-.432.543-.83 1.119-1.303 1.623-1.083 1.153-2.222 2.253-3.292 3.418-.23.252-.342.682-.371 1.04-.148 1.818-.145 3.653-.387 5.456-.795 5.93-2.967 11.336-6.365 16.246-2.495 3.605-5.449 6.782-9.066 9.265-5.123 3.516-10.843 5.446-17.008 5.991-6.734.596-13.228-.367-19.343-3.374-1.008-.495-1.912-1.201-2.865-1.81" fill="#FFF" mask="url(#b)"/></g></svg>