<?xml version="1.0" encoding="UTF-8"?>
<svg width="20px" height="16px" viewBox="0 0 20 16" version="1.1" xmlns="http://www.w3.org/2000/svg" xmlns:xlink="http://www.w3.org/1999/xlink">
    <title>Group 6</title>
    <defs>
        <filter id="filter-1">
            <feColorMatrix in="SourceGraphic" type="matrix" values="0 0 0 0 0.611765 0 0 0 0 0.611765 0 0 0 0 0.611765 0 0 0 1.000000 0"></feColorMatrix>
        </filter>
    </defs>
    <g id="CoVerified-Website-😷📲---" stroke="none" stroke-width="1" fill="none" fill-rule="evenodd">
        <g id="CV-Website-Start" transform="translate(-1034.000000, -1712.000000)">
            <g filter="url(#filter-1)" id="Group-6">
                <g transform="translate(1034.000000, 1712.000000)">
                    <path d="M17.9382364,4.45342985 C17.9382364,6.28060292 17.4839985,8.044434 16.5738589,9.74492308 C15.6370973,11.5461097 14.3242999,12.9802375 12.6338029,14.0456825 C10.7885655,15.2394355 8.67045263,15.8355 6.27780038,15.8355 C3.98997225,15.8355 1.8968175,15.2394355 0,14.0456825 C0.2861865,14.0716689 0.610642125,14.0846622 0.97503075,14.0846622 C2.87184825,14.0846622 4.57565625,13.51296 6.083127,12.3711798 C5.17298737,12.3711798 4.37432737,12.1113152 3.68548312,11.591586 C2.99663888,11.0702326 2.52077063,10.4173228 2.26120613,9.63123231 C2.52077063,9.65559462 2.768688,9.66858785 3.0016305,9.66858785 C3.36601912,9.66858785 3.73040775,9.63123231 4.09479638,9.55489708 C3.15803475,9.35187785 2.37767738,8.88249738 1.75372425,8.14513154 C1.12977113,7.40938985 0.8186265,6.57295062 0.8186265,5.63418969 L0.8186265,5.55785446 C1.3909995,5.88755769 2.00164163,6.06459046 2.65055288,6.09057692 C2.10480188,5.70890077 1.663875,5.22815123 1.32610838,4.64345585 C0.986677875,4.06038462 0.8186265,3.41884385 0.8186265,2.72208185 C0.8186265,2.02369569 1.01329987,1.35779262 1.40264662,0.722748462 C2.41761038,1.96685031 3.65886113,2.95596 5.12806275,3.69170169 C6.59726438,4.42744338 8.16297075,4.83348185 9.82684575,4.90981708 C9.77526563,4.60610031 9.74864363,4.30075938 9.74864363,3.99704262 C9.74864363,3.28566323 9.93166988,2.61976015 10.2943946,1.99770923 C10.6587833,1.37565831 11.1529541,0.888412154 11.7769072,0.532722462 C12.4008604,0.177032769 13.0763936,0 13.8051709,0 C14.402502,0 14.9549085,0.113690769 15.4623904,0.342696462 C15.9682084,0.570078 16.4174546,0.875418923 16.8068014,1.25547092 C17.743563,1.07843815 18.6137696,0.761728154 19.420749,0.303716769 C19.1079405,1.24247769 18.5106094,1.97984354 17.6270918,2.512566 C18.4057853,2.41024431 19.1861426,2.19423185 19.9665,1.86452862 C19.394127,2.67660554 18.7052828,3.37499169 17.8999673,3.95806292 C17.9249254,4.06038462 17.9382364,4.22442415 17.9382364,4.45342985" id="Fill-1" fill="#1D1D1D"></path>
                </g>
            </g>
        </g>
    </g>
</svg>