<?xml version="1.0" encoding="UTF-8"?>
<svg width="261px" height="202px" viewBox="0 0 261 202" version="1.1" xmlns="http://www.w3.org/2000/svg" xmlns:xlink="http://www.w3.org/1999/xlink">
    <title>Group</title>
    <defs>
        <path d="M99.8479101,15.128 C100.569583,15.128 101.204755,14.976 101.753424,14.672 C102.302093,14.368 102.727189,13.936 103.02871,13.376 C103.330231,12.816 103.480991,12.1733333 103.480991,11.448 L103.480991,11.448 L103.480991,3.96 C103.480991,3.85333333 103.431562,3.8 103.332702,3.8 L103.332702,3.8 L102.205706,3.8 C102.106846,3.8 102.057417,3.85333333 102.057417,3.96 L102.057417,3.96 L102.057417,11.48 C102.057417,12.1733333 101.854755,12.7333333 101.449432,13.16 C101.044108,13.5866667 100.510268,13.8 99.8479101,13.8 C99.1855524,13.8 98.6492404,13.5866667 98.2389741,13.16 C97.8287078,12.7333333 97.6235747,12.1733333 97.6235747,11.48 L97.6235747,11.48 L97.6235747,3.96 C97.6235747,3.85333333 97.574145,3.8 97.4752856,3.8 L97.4752856,3.8 L96.348289,3.8 C96.2494297,3.8 96.2,3.85333333 96.2,3.96 L96.2,3.96 L96.2,11.448 C96.2,12.1733333 96.353232,12.816 96.659696,13.376 C96.96616,13.936 97.3937267,14.368 97.9423961,14.672 C98.4910655,14.976 99.1262368,15.128 99.8479101,15.128 Z M107.084415,15 C107.183274,15 107.232704,14.9466667 107.232704,14.84 L107.232704,14.84 L107.217875,6.728 C107.217875,6.696 107.227761,6.67733333 107.247532,6.672 C107.267304,6.66666667 107.282133,6.68 107.292019,6.712 L107.292019,6.712 L111.933466,14.888 C111.982895,14.9626667 112.042211,15 112.111413,15 L112.111413,15 L113.193922,15 C113.292782,15 113.342212,14.9466667 113.342212,14.84 L113.342212,14.84 L113.342212,3.96 C113.342212,3.85333333 113.292782,3.8 113.193922,3.8 L113.193922,3.8 L112.066926,3.8 C111.968067,3.8 111.918637,3.85333333 111.918637,3.96 L111.918637,3.96 L111.933466,12.072 C111.933466,12.104 111.92358,12.1226667 111.903808,12.128 C111.884036,12.1333333 111.869207,12.12 111.859321,12.088 L111.859321,12.088 L107.232704,3.912 C107.183274,3.83733333 107.123958,3.8 107.054757,3.8 L107.054757,3.8 L105.957418,3.8 C105.858559,3.8 105.809129,3.85333333 105.809129,3.96 L105.809129,3.96 L105.809129,14.84 C105.809129,14.9466667 105.858559,15 105.957418,15 L105.957418,15 L107.084415,15 Z M119.333088,15 C119.431948,15 119.481377,14.9466667 119.481377,14.84 L119.481377,14.84 L119.481377,5.208 C119.481377,5.16533333 119.501149,5.144 119.540693,5.144 L119.540693,5.144 L122.387842,5.144 C122.486701,5.144 122.536131,5.09066667 122.536131,4.984 L122.536131,4.984 L122.536131,3.96 C122.536131,3.85333333 122.486701,3.8 122.387842,3.8 L122.387842,3.8 L115.284798,3.8 C115.185938,3.8 115.136509,3.85333333 115.136509,3.96 L115.136509,3.96 L115.136509,4.984 C115.136509,5.09066667 115.185938,5.144 115.284798,5.144 L115.284798,5.144 L117.998487,5.144 C118.038031,5.144 118.057803,5.16533333 118.057803,5.208 L118.057803,5.208 L118.057803,14.84 C118.057803,14.9466667 118.107232,15 118.206092,15 L118.206092,15 L119.333088,15 Z M131.047921,15 C131.146781,15 131.19621,14.9466667 131.19621,14.84 L131.19621,14.84 L131.19621,13.832 C131.19621,13.7253333 131.146781,13.672 131.047921,13.672 L131.047921,13.672 L125.783661,13.672 C125.744117,13.672 125.724345,13.6506667 125.724345,13.608 L125.724345,13.608 L125.724345,10.088 C125.724345,10.0453333 125.744117,10.024 125.783661,10.024 L125.783661,10.024 L129.401913,10.024 C129.500772,10.024 129.550202,9.97066667 129.550202,9.864 L129.550202,9.864 L129.550202,8.856 C129.550202,8.74933333 129.500772,8.696 129.401913,8.696 L129.401913,8.696 L125.783661,8.696 C125.744117,8.696 125.724345,8.67466667 125.724345,8.632 L125.724345,8.632 L125.724345,5.192 C125.724345,5.14933333 125.744117,5.128 125.783661,5.128 L125.783661,5.128 L131.047921,5.128 C131.146781,5.128 131.19621,5.07466667 131.19621,4.968 L131.19621,4.968 L131.19621,3.96 C131.19621,3.85333333 131.146781,3.8 131.047921,3.8 L131.047921,3.8 L124.44906,3.8 C124.3502,3.8 124.300771,3.85333333 124.300771,3.96 L124.300771,3.96 L124.300771,14.84 C124.300771,14.9466667 124.3502,15 124.44906,15 L124.44906,15 L131.047921,15 Z M134.44374,15 C134.542599,15 134.592029,14.9466667 134.592029,14.84 L134.592029,14.84 L134.592029,10.12 C134.592029,10.0773333 134.611801,10.056 134.651345,10.056 L134.651345,10.056 L136.786707,10.056 C136.816364,10.056 136.836136,10.072 136.846022,10.104 L136.846022,10.104 L138.922069,14.888 C138.951726,14.9626667 139.006099,15 139.085187,15 L139.085187,15 L140.25667,15 C140.335757,15 140.375301,14.9626667 140.375301,14.888 C140.375301,14.856 140.370358,14.8293333 140.360472,14.808 L140.360472,14.808 L138.210281,10.008 C138.190509,9.976 138.200395,9.94933333 138.239939,9.928 C138.882525,9.74666667 139.384236,9.39733333 139.745073,8.88 C140.105909,8.36266667 140.286328,7.73066667 140.286328,6.984 C140.286328,6.35466667 140.162753,5.8 139.915605,5.32 C139.668454,4.84 139.319978,4.46666667 138.870167,4.2 C138.420357,3.93333333 137.898874,3.8 137.305718,3.8 L137.305718,3.8 L133.316743,3.8 C133.217884,3.8 133.168454,3.85333333 133.168454,3.96 L133.168454,3.96 L133.168454,14.84 C133.168454,14.9466667 133.217884,15 133.316743,15 L133.316743,15 L134.44374,15 Z M137.127771,8.84 L134.651345,8.84 C134.611801,8.84 134.592029,8.81866667 134.592029,8.776 L134.592029,8.776 L134.592029,5.192 C134.592029,5.14933333 134.611801,5.128 134.651345,5.128 L134.651345,5.128 L137.127771,5.128 C137.651726,5.128 138.071878,5.29866667 138.388228,5.64 C138.704578,5.98133333 138.862753,6.43466667 138.862753,7 C138.862753,7.55466667 138.704578,8 138.388228,8.336 C138.071878,8.672 137.651726,8.84 137.127771,8.84 L137.127771,8.84 Z M145.461615,15.128 C146.578725,15.128 147.456102,14.8533333 148.093745,14.304 C148.731388,13.7546667 149.050209,13.0106667 149.050209,12.072 C149.050209,11.464 148.906863,10.9546667 148.620171,10.544 C148.333479,10.1333333 147.972642,9.80266667 147.537661,9.552 C147.10268,9.30133333 146.534239,9.02666667 145.832337,8.728 C145.150208,8.45066667 144.643554,8.224 144.312375,8.048 C143.981196,7.872 143.731576,7.672 143.563515,7.448 C143.395454,7.224 143.311424,6.936 143.311424,6.584 C143.311424,6.072 143.479485,5.68 143.815607,5.408 C144.151728,5.136 144.626253,5 145.239181,5 C145.960854,5 146.526824,5.184 146.937091,5.552 C147.347357,5.92 147.55249,6.38133333 147.55249,6.936 L147.55249,6.936 L147.55249,7.176 C147.55249,7.28266667 147.60192,7.336 147.700779,7.336 L147.700779,7.336 L148.812947,7.336 C148.911806,7.336 148.961236,7.28266667 148.961236,7.176 L148.961236,7.176 L148.961236,6.856 C148.961236,6.22666667 148.810475,5.672 148.508954,5.192 C148.207433,4.712 147.779866,4.33866667 147.226254,4.072 C146.672642,3.80533333 146.030056,3.672 145.298497,3.672 C144.260474,3.672 143.437469,3.93333333 142.829484,4.456 C142.221499,4.97866667 141.917507,5.69866667 141.917507,6.616 C141.917507,7.224 142.05591,7.728 142.332716,8.128 C142.609522,8.528 142.958002,8.85066667 143.378154,9.096 C143.798306,9.34133333 144.369219,9.61333333 145.090892,9.912 C145.743364,10.1893333 146.240132,10.4266667 146.581197,10.624 C146.922262,10.8213333 147.181767,11.0373333 147.359714,11.272 C147.537661,11.5066667 147.626635,11.7893333 147.626635,12.12 C147.626635,12.6213333 147.453631,13.0266667 147.107623,13.336 C146.761615,13.6453333 146.247547,13.8 145.565417,13.8 C144.8042,13.8 144.206101,13.624 143.77112,13.272 C143.336139,12.92 143.118648,12.472 143.118648,11.928 L143.118648,11.928 L143.118648,11.544 C143.118648,11.4373333 143.069218,11.384 142.970359,11.384 L142.970359,11.384 L141.887849,11.384 C141.78899,11.384 141.73956,11.4373333 141.73956,11.544 L141.73956,11.544 L141.73956,12.008 C141.73956,12.6373333 141.890321,13.1866667 142.191842,13.656 C142.493363,14.1253333 142.923401,14.488 143.481956,14.744 C144.040512,15 144.700398,15.128 145.461615,15.128 Z M154.522074,15 C154.620934,15 154.670363,14.9466667 154.670363,14.84 L154.670363,14.84 L154.670363,5.208 C154.670363,5.16533333 154.690135,5.144 154.729679,5.144 L154.729679,5.144 L157.576828,5.144 C157.675688,5.144 157.725117,5.09066667 157.725117,4.984 L157.725117,4.984 L157.725117,3.96 C157.725117,3.85333333 157.675688,3.8 157.576828,3.8 L157.576828,3.8 L150.473784,3.8 C150.374924,3.8 150.325495,3.85333333 150.325495,3.96 L150.325495,3.96 L150.325495,4.984 C150.325495,5.09066667 150.374924,5.144 150.473784,5.144 L150.473784,5.144 L153.187473,5.144 C153.227017,5.144 153.246789,5.16533333 153.246789,5.208 L153.246789,5.208 L153.246789,14.84 C153.246789,14.9466667 153.296218,15 153.395078,15 L153.395078,15 L154.522074,15 Z M164.368466,2.456 C164.645272,2.456 164.872648,2.36 165.050595,2.168 C165.228542,1.976 165.317515,1.73066667 165.317515,1.432 C165.317515,1.13333333 165.228542,0.888 165.050595,0.696 C164.872648,0.504 164.645272,0.408 164.368466,0.408 C164.091659,0.408 163.864283,0.504 163.686336,0.696 C163.508389,0.888 163.419416,1.13333333 163.419416,1.432 C163.419416,1.73066667 163.508389,1.976 163.686336,2.168 C163.864283,2.36 164.091659,2.456 164.368466,2.456 Z M161.669605,2.456 C161.946412,2.456 162.173788,2.36 162.351735,2.168 C162.529682,1.976 162.618655,1.73066667 162.618655,1.432 C162.618655,1.13333333 162.529682,0.888 162.351735,0.696 C162.173788,0.504 161.946412,0.408 161.669605,0.408 C161.392799,0.408 161.165423,0.504 160.987476,0.696 C160.809529,0.888 160.720556,1.13333333 160.720556,1.432 C160.720556,1.73066667 160.809529,1.976 160.987476,2.168 C161.165423,2.36 161.392799,2.456 161.669605,2.456 Z M163.033864,15.128 C163.755538,15.128 164.390709,14.976 164.939378,14.672 C165.488048,14.368 165.913143,13.936 166.214664,13.376 C166.516185,12.816 166.666946,12.1733333 166.666946,11.448 L166.666946,11.448 L166.666946,3.96 C166.666946,3.85333333 166.617516,3.8 166.518657,3.8 L166.518657,3.8 L165.39166,3.8 C165.292801,3.8 165.243371,3.85333333 165.243371,3.96 L165.243371,3.96 L165.243371,11.48 C165.243371,12.1733333 165.040709,12.7333333 164.635386,13.16 C164.230063,13.5866667 163.696222,13.8 163.033864,13.8 C162.371507,13.8 161.835195,13.5866667 161.424928,13.16 C161.014662,12.7333333 160.809529,12.1733333 160.809529,11.48 L160.809529,11.48 L160.809529,3.96 C160.809529,3.85333333 160.760099,3.8 160.66124,3.8 L160.66124,3.8 L159.534243,3.8 C159.435384,3.8 159.385954,3.85333333 159.385954,3.96 L159.385954,3.96 L159.385954,11.448 C159.385954,12.1733333 159.539186,12.816 159.84565,13.376 C160.152114,13.936 160.579681,14.368 161.12835,14.672 C161.67702,14.976 162.312191,15.128 163.033864,15.128 Z M172.539191,15 C172.63805,15 172.68748,14.9466667 172.68748,14.84 L172.68748,14.84 L172.68748,5.208 C172.68748,5.16533333 172.707252,5.144 172.746796,5.144 L172.746796,5.144 L175.593945,5.144 C175.692804,5.144 175.742234,5.09066667 175.742234,4.984 L175.742234,4.984 L175.742234,3.96 C175.742234,3.85333333 175.692804,3.8 175.593945,3.8 L175.593945,3.8 L168.490901,3.8 C168.392041,3.8 168.342612,3.85333333 168.342612,3.96 L168.342612,3.96 L168.342612,4.984 C168.342612,5.09066667 168.392041,5.144 168.490901,5.144 L168.490901,5.144 L171.20459,5.144 C171.244134,5.144 171.263905,5.16533333 171.263905,5.208 L171.263905,5.208 L171.263905,14.84 C171.263905,14.9466667 171.313335,15 171.412194,15 L171.412194,15 L172.539191,15 Z M183.63121,15 C183.73007,15 183.779499,14.9466667 183.779499,14.84 L183.779499,14.84 L183.779499,13.832 C183.779499,13.7253333 183.73007,13.672 183.63121,13.672 L183.63121,13.672 L178.544897,13.672 C178.525125,13.672 178.510296,13.6613333 178.50041,13.64 C178.490524,13.6186667 178.490524,13.6026667 178.50041,13.592 L178.50041,13.592 L183.720184,5.288 C183.759727,5.23466667 183.779499,5.16533333 183.779499,5.08 L183.779499,5.08 L183.779499,3.96 C183.779499,3.85333333 183.73007,3.8 183.63121,3.8 L183.63121,3.8 L177.047177,3.8 C176.948318,3.8 176.898888,3.85333333 176.898888,3.96 L176.898888,3.96 L176.898888,4.968 C176.898888,5.07466667 176.948318,5.128 177.047177,5.128 L177.047177,5.128 L182.103833,5.128 C182.123605,5.128 182.138434,5.13866667 182.14832,5.16 C182.158206,5.18133333 182.158206,5.19733333 182.14832,5.208 L182.14832,5.208 L176.958204,13.512 C176.91866,13.5653333 176.898888,13.6346667 176.898888,13.72 L176.898888,13.72 L176.898888,14.84 C176.898888,14.9466667 176.948318,15 177.047177,15 L177.047177,15 L183.63121,15 Z M189.221707,15 C189.320566,15 189.369996,14.9466667 189.369996,14.84 L189.369996,14.84 L189.369996,5.208 C189.369996,5.16533333 189.389767,5.144 189.429311,5.144 L189.429311,5.144 L192.27646,5.144 C192.37532,5.144 192.42475,5.09066667 192.42475,4.984 L192.42475,4.984 L192.42475,3.96 C192.42475,3.85333333 192.37532,3.8 192.27646,3.8 L192.27646,3.8 L185.173416,3.8 C185.074557,3.8 185.025127,3.85333333 185.025127,3.96 L185.025127,3.96 L185.025127,4.984 C185.025127,5.09066667 185.074557,5.144 185.173416,5.144 L185.173416,5.144 L187.887105,5.144 C187.926649,5.144 187.946421,5.16533333 187.946421,5.208 L187.946421,5.208 L187.946421,14.84 C187.946421,14.9466667 187.995851,15 188.09471,15 L188.09471,15 L189.221707,15 Z M200.981026,15 C201.07,15 201.129315,14.9573333 201.158973,14.872 L201.158973,14.872 L204.362016,3.976 C204.391674,3.85866667 204.35213,3.8 204.243385,3.8 L204.243385,3.8 L203.071902,3.8 C202.992814,3.8 202.938442,3.84266667 202.908784,3.928 L202.908784,3.928 L200.462015,12.776 C200.452129,12.7973333 200.4373,12.808 200.417528,12.808 C200.397756,12.808 200.382927,12.7973333 200.373041,12.776 L200.373041,12.776 L197.926272,3.928 C197.896615,3.84266667 197.837299,3.8 197.748326,3.8 L197.748326,3.8 L196.547184,3.8 C196.458211,3.8 196.413724,3.83733333 196.413724,3.912 L196.413724,3.912 L196.428553,3.976 L199.601938,14.872 C199.631596,14.9573333 199.690912,15 199.779885,15 L199.779885,15 L200.981026,15 Z M209.44833,15.144 C210.179889,15.144 210.822475,14.984 211.376087,14.664 C211.929699,14.344 212.359738,13.8933333 212.666202,13.312 C212.972666,12.7306667 213.125898,12.0613333 213.125898,11.304 L213.125898,11.304 L213.125898,7.496 C213.125898,6.73866667 212.972666,6.072 212.666202,5.496 C212.359738,4.92 211.929699,4.472 211.376087,4.152 C210.822475,3.832 210.179889,3.672 209.44833,3.672 C208.726657,3.672 208.089014,3.832 207.535401,4.152 C206.981789,4.472 206.551751,4.92 206.245287,5.496 C205.938823,6.072 205.785591,6.73866667 205.785591,7.496 L205.785591,7.496 L205.785591,11.304 C205.785591,12.0613333 205.938823,12.7306667 206.245287,13.312 C206.551751,13.8933333 206.981789,14.344 207.535401,14.664 C208.089014,14.984 208.726657,15.144 209.44833,15.144 Z M209.44833,13.816 C208.776086,13.816 208.234831,13.592 207.824565,13.144 C207.414299,12.696 207.209165,12.104 207.209165,11.368 L207.209165,11.368 L207.209165,7.48 C207.209165,6.73333333 207.414299,6.13333333 207.824565,5.68 C208.234831,5.22666667 208.776086,5 209.44833,5 C210.120573,5 210.6643,5.22666667 211.079509,5.68 C211.494718,6.13333333 211.702323,6.73333333 211.702323,7.48 L211.702323,7.48 L211.702323,11.368 C211.702323,12.104 211.494718,12.696 211.079509,13.144 C210.6643,13.592 210.120573,13.816 209.44833,13.816 Z M216.566203,15 C216.665062,15 216.714492,14.9466667 216.714492,14.84 L216.714492,14.84 L216.699663,6.728 C216.699663,6.696 216.709549,6.67733333 216.729321,6.672 C216.749093,6.66666667 216.763922,6.68 216.773808,6.712 L216.773808,6.712 L221.415254,14.888 C221.464684,14.9626667 221.524,15 221.593201,15 L221.593201,15 L222.675711,15 C222.77457,15 222.824,14.9466667 222.824,14.84 L222.824,14.84 L222.824,3.96 C222.824,3.85333333 222.77457,3.8 222.675711,3.8 L222.675711,3.8 L221.548714,3.8 C221.449855,3.8 221.400425,3.85333333 221.400425,3.96 L221.400425,3.96 L221.415254,12.072 C221.415254,12.104 221.405368,12.1226667 221.385596,12.128 C221.365825,12.1333333 221.350996,12.12 221.34111,12.088 L221.34111,12.088 L216.714492,3.912 C216.665062,3.83733333 216.605747,3.8 216.536545,3.8 L216.536545,3.8 L215.439206,3.8 C215.340347,3.8 215.290917,3.85333333 215.290917,3.96 L215.290917,3.96 L215.290917,14.84 C215.290917,14.9466667 215.340347,15 215.439206,15 L215.439206,15 L216.566203,15 Z" id="path-1"></path>
    </defs>
    <g id="CoVerified-Website-😷📲---" stroke="none" stroke-width="1" fill="none" fill-rule="evenodd">
        <g id="CV-Website-Kontakt" transform="translate(-552.000000, -883.000000)">
            <g id="Group" transform="translate(552.000000, 883.000000)">
                <g id="UNTERSTÜTZTVON" fill-rule="nonzero">
                    <use fill="#FFFFFF" xlink:href="#path-1"></use>
                    <use fill="#000000" xlink:href="#path-1"></use>
                </g>
                <g id="BReg_2017_DTP_CMYK_de" transform="translate(0.000000, 59.000000)">
                    <path d="M95,20.8787852 L95,1.58736512 L98.6195805,1.58736512 C100.180188,1.58736512 101.539578,1.75417682 102.69775,2.09014967 C103.858262,2.42612252 104.824576,2.95710059 105.594351,3.68543334 C106.364126,4.41141664 106.935023,5.35589976 107.307042,6.52123216 C107.679061,7.68656457 107.8639,9.09859032 107.8639,10.7573094 C107.8639,12.5288026 107.641625,14.051253 107.194734,15.3293596 C106.750183,16.6051166 106.118453,17.6553254 105.301883,18.4752872 C104.485313,19.2952489 103.488583,19.9014097 102.309353,20.2914201 C101.130123,20.68378 99.8081694,20.8787852 98.3411513,20.8787852 L95,20.8787852 Z M97.4216327,3.51627219 L97.4216327,18.8652976 L98.3411513,18.8652976 C99.4548684,18.8652976 100.4399,18.7219805 101.293905,18.4329969 C102.145571,18.1440132 102.870891,17.6764706 103.465186,17.0350679 C104.05948,16.3913157 104.508711,15.5525583 104.815217,14.5187957 C105.121723,13.4826836 105.273806,12.2304212 105.273806,10.7573094 C105.273806,9.39697181 105.126402,8.25513401 104.829255,7.33179603 C104.532108,6.41080752 104.099256,5.66367908 103.535378,5.09510964 C102.966821,4.5265402 102.271917,4.122433 101.445989,3.88043857 C100.62006,3.63844414 99.6771438,3.51627219 98.6195805,3.51627219 L97.4216327,3.51627219 Z M110.898545,20.8787852 L113.154056,20.8787852 L113.154056,7.4586669 L110.898545,7.4586669 L110.898545,20.8787852 Z M112.040339,4.21641142 C111.577071,4.21641142 111.205052,4.06604595 110.926622,3.76766446 C110.648193,3.46928298 110.507809,3.07927254 110.507809,2.59293422 C110.507809,2.12774104 110.648193,1.74477898 110.926622,1.44639749 C111.205052,1.15036547 111.577071,1 112.040339,1 C112.48489,1 112.84755,1.15036547 113.12598,1.44639749 C113.404409,1.74477898 113.544793,2.12774104 113.544793,2.59293422 C113.544793,3.07927254 113.404409,3.46928298 113.12598,3.76766446 C112.84755,4.06604595 112.48489,4.21641142 112.040339,4.21641142 Z M125.182669,11.9884267 C125.182669,12.566394 125.163951,13.0644796 125.126515,13.4826836 C125.089079,13.903237 125.051643,14.2721023 125.014208,14.5892795 L118.19386,14.5892795 C118.266392,16.1728159 118.605655,17.3381483 119.209308,18.0829273 C119.812962,18.8277062 120.681006,19.2012704 121.813441,19.2012704 C122.201838,19.2012704 122.555139,19.1542812 122.871004,19.0626523 C123.186869,18.9686739 123.460619,18.8558998 123.692253,18.7266794 C123.923888,18.5951096 124.118086,18.4658893 124.277189,18.3343195 C124.433952,18.2050992 124.550939,18.1017229 124.62581,18.0265402 L125.461098,19.6218239 C125.367509,19.7134528 125.227124,19.8497215 125.042284,20.0259311 C124.857445,20.2021406 124.607093,20.3806996 124.291227,20.5569092 C123.975362,20.7331187 123.584625,20.8881831 123.121356,21.0197529 C122.658088,21.1489732 122.110588,21.2147581 121.478858,21.2147581 C120.64357,21.2147581 119.887833,21.0737905 119.209308,20.7942047 C118.533123,20.5146189 117.957546,20.0823181 117.482579,19.494953 C117.009951,18.9075879 116.642611,18.1628089 116.3829,17.2582666 C116.123189,16.3537243 115.994503,15.2682736 115.994503,14.0019144 C115.994503,12.8083884 116.127868,11.7793247 116.396939,10.9123738 C116.666009,10.0454229 117.033348,9.33118691 117.496617,8.77201532 C117.962226,8.21284372 118.500366,7.79933867 119.111039,7.52915071 C119.724051,7.25896276 120.383859,7.12269405 121.088121,7.12269405 C122.370299,7.12269405 123.371709,7.52915071 124.097029,8.33971458 C124.820009,9.15027845 125.182669,10.367299 125.182669,11.9884267 Z M120.950076,8.96937 C120.152224,8.96937 119.511135,9.30299339 119.029148,9.97493909 C118.547161,10.6468848 118.266392,11.6148625 118.19386,12.8835712 L123.065203,12.8835712 C123.083921,12.7895928 123.097959,12.6533241 123.107318,12.4771145 C123.116677,12.300905 123.121356,12.1082492 123.121356,11.9038462 C123.121356,10.9711103 122.936517,10.249826 122.564498,9.73764358 C122.192479,9.22546119 121.654338,8.96937 120.950076,8.96937 Z M105.079608,34.7006613 C105.079608,35.372607 104.995377,35.9599722 104.829255,36.4627567 C104.660794,36.9655412 104.433839,37.4001914 104.146051,37.7620084 C103.858262,38.1261747 103.526019,38.4198573 103.144641,38.643056 C102.763263,38.8686042 102.370187,39.0354159 101.960732,39.1458406 L101.960732,39.2022276 C102.461437,39.2962061 102.931725,39.4724156 103.366917,39.7332057 C103.802109,39.9939958 104.183486,40.3205708 104.508711,40.7129307 C104.833935,41.1052906 105.093646,41.5657849 105.287845,42.096763 C105.484383,42.627741 105.580312,43.2104072 105.580312,43.8447616 C105.580312,44.6083362 105.451627,45.306126 105.191915,45.9404803 C104.929864,46.5748347 104.527429,47.1246084 103.979929,47.5898016 C103.432429,48.0573442 102.739866,48.4191612 101.904578,48.6799513 C101.06929,48.9407414 100.07724,49.0723112 98.9260867,49.0723112 L95,49.0723112 L95,29.7808911 L98.7038112,29.7808911 C99.8362463,29.7808911 100.804899,29.8983641 101.61211,30.1309607 C102.421661,30.3635573 103.083808,30.6948312 103.603231,31.122433 C104.122653,31.5523843 104.499352,32.0692656 104.730986,32.6754264 C104.962621,33.2815872 105.079608,33.9558824 105.079608,34.7006613 Z M102.629898,34.7852419 C102.629898,33.8900975 102.314033,33.1547163 101.682303,32.576749 C101.050572,31.9987818 100.058522,31.7097981 98.7038112,31.7097981 L97.4216327,31.7097981 L97.4216327,38.3634702 L98.6757343,38.3634702 C99.974291,38.3634702 100.959322,38.0462931 101.626149,37.4142882 C102.295315,36.7799339 102.629898,35.9035851 102.629898,34.7852419 Z M102.990218,43.6756004 C102.990218,42.63244 102.653295,41.8077793 101.97477,41.2016185 C101.298585,40.5954577 100.327592,40.2923773 99.0641315,40.2923773 L97.4216327,40.2923773 L97.4216327,47.0588235 L98.9260867,47.0588235 C100.355669,47.0588235 101.389835,46.7745388 102.030924,46.2059694 C102.672013,45.6373999 102.990218,44.7939436 102.990218,43.6756004 Z M117.915431,49.0723112 L115.854119,49.0723112 L115.854119,47.5616081 L115.797965,47.5616081 C115.744151,47.6743822 115.622484,47.836495 115.437644,48.0526453 C115.250465,48.2664462 115.014151,48.4708493 114.726363,48.6658545 C114.438575,48.8632092 114.092293,49.0347198 113.682838,49.1850853 C113.275723,49.3331013 112.819473,49.408284 112.318769,49.408284 C111.724474,49.408284 111.191013,49.3190045 110.718385,49.142795 C110.243418,48.964236 109.840982,48.6799513 109.506399,48.2899408 C109.171816,47.8975809 108.916784,47.3900975 108.741303,46.765141 C108.563483,46.1401845 108.476913,45.3719109 108.476913,44.4579708 L108.476913,35.6521928 L110.732424,35.6521928 L110.732424,44.2911591 C110.732424,45.4095023 110.912584,46.2059694 111.275244,46.6829099 C111.635564,47.1575009 112.197102,47.3947964 112.959858,47.3947964 C113.607966,47.3947964 114.155466,47.2326836 114.602357,46.9061086 C115.046908,46.5795336 115.400209,46.2576575 115.65992,45.9404803 L115.65992,35.6521928 L117.915431,35.6521928 L117.915431,49.0723112 Z M128.661865,49.0723112 L128.661865,40.4333449 C128.661865,39.2962061 128.472346,38.4809433 128.090968,37.9875566 C127.71193,37.4918204 127.131674,37.245127 126.35254,37.245127 C125.683374,37.245127 125.126515,37.4142882 124.681964,37.7479116 C124.235074,38.0838844 123.881773,38.4104595 123.622061,38.7276366 L123.622061,49.0723112 L121.36655,49.0723112 L121.36655,35.6521928 L123.427863,35.6521928 L123.427863,37.1628959 L123.484016,37.1628959 C123.54017,37.0501218 123.659497,36.888009 123.846676,36.6718587 C124.031516,36.4580578 124.272509,36.2536547 124.569657,36.0586495 C124.866804,35.8612948 125.220105,35.6897842 125.62722,35.5394187 C126.036675,35.3914027 126.499944,35.31622 127.019366,35.31622 C127.613661,35.31622 128.151801,35.4054995 128.633788,35.581709 C129.118115,35.760268 129.52523,36.0445527 129.859813,36.4345632 C130.194396,36.8269231 130.454107,37.3344065 130.638947,37.959363 C130.823786,38.5843195 130.917376,39.3525931 130.917376,40.2665332 L130.917376,49.0723112 L128.661865,49.0723112 Z M133.673592,42.5572572 C133.673592,41.1969196 133.851412,40.0597807 134.202374,39.1458406 C134.555675,38.2342499 135.009584,37.4965193 135.566443,36.9373477 C136.123302,36.3781761 136.755032,35.9834668 137.461634,35.7508702 C138.165896,35.5159241 138.870158,35.4008006 139.57676,35.4008006 C140.002593,35.4008006 140.374612,35.433693 140.690478,35.4994779 C141.006343,35.5629133 141.266054,35.642795 141.469612,35.7367734 L141.469612,29.3063 L143.725123,29.0549078 L143.725123,49.0723112 L141.66381,49.0723112 L141.66381,47.6461887 L141.609996,47.6461887 C141.553842,47.7589628 141.450894,47.9116777 141.30349,48.1066829 C141.153746,48.3040376 140.950189,48.4990428 140.690478,48.694048 C140.430766,48.8914027 140.105542,49.0582144 139.714805,49.199182 C139.326408,49.3378002 138.870158,49.408284 138.350736,49.408284 C137.721345,49.408284 137.122371,49.2814132 136.556154,49.0300209 C135.989936,48.7786286 135.493911,48.3768709 135.065738,47.8270971 C134.639905,47.2773234 134.300643,46.5701357 134.05029,45.7031848 C133.799938,44.8362339 133.673592,43.7883745 133.673592,42.5572572 Z M138.963748,47.3947964 C139.317049,47.3947964 139.632914,47.3478072 139.911344,47.2561782 C140.189773,47.1621998 140.430766,47.0447268 140.634324,46.9061086 C140.840221,46.765141 141.011022,46.6218239 141.149067,46.4714584 C141.289451,46.3234424 141.39708,46.1918726 141.469612,46.081448 L141.469612,37.8042986 C141.266054,37.6750783 141.02974,37.5623042 140.76067,37.4706753 C140.491599,37.3766968 140.152337,37.3297076 139.742882,37.3297076 C139.223459,37.3297076 138.736793,37.4189871 138.282883,37.5951967 C137.826634,37.7714062 137.433557,38.0650888 137.098974,38.4762443 C136.764391,38.8850505 136.5,39.418378 136.305801,40.0691786 C136.109263,40.7223286 136.013334,41.5234946 136.013334,42.4750261 C136.013334,43.4054125 136.092885,44.1854333 136.249648,44.8080404 C136.40641,45.4329969 136.626346,45.9357814 136.904775,46.3187435 C137.183205,46.6993561 137.49907,46.974243 137.850031,47.1434041 C138.203332,47.3102158 138.575351,47.3947964 138.963748,47.3947964 Z M155.753735,40.1819527 C155.753735,40.7599199 155.735017,41.2580056 155.697581,41.6762095 C155.660145,42.096763 155.62271,42.4656283 155.587613,42.7828054 L148.764926,42.7828054 C148.839798,44.3663418 149.176721,45.5316742 149.780374,46.2764532 C150.384028,47.0212322 151.252072,47.3947964 152.384507,47.3947964 C152.775244,47.3947964 153.126205,47.3478072 153.44207,47.2561782 C153.757935,47.1621998 154.031685,47.0494257 154.26332,46.9202054 C154.494954,46.7886356 154.691492,46.6594152 154.848255,46.5278455 C155.007358,46.3986251 155.122005,46.2952489 155.196877,46.2200661 L156.032164,47.8153498 C155.938575,47.9069788 155.80053,48.0432475 155.613351,48.219457 C155.428511,48.3956666 155.178159,48.5742255 154.862294,48.7504351 C154.546428,48.9266446 154.158031,49.081709 153.692423,49.2132788 C153.229154,49.3424991 152.681654,49.408284 152.049924,49.408284 C151.214636,49.408284 150.458899,49.2673164 149.780374,48.9877306 C149.104189,48.7081448 148.528613,48.2758441 148.055985,47.6884789 C147.581017,47.1011138 147.216017,46.3563348 146.956306,45.4517926 C146.694255,44.5472503 146.565569,43.4617995 146.565569,42.1954403 C146.565569,41.0019144 146.698934,39.9728507 146.968005,39.1058998 C147.239415,38.2389488 147.604415,37.5247128 148.067683,36.9655412 C148.533292,36.4063696 149.071433,35.9928646 149.684445,35.7226766 C150.297457,35.4524887 150.954925,35.31622 151.661527,35.31622 C152.941366,35.31622 153.942775,35.7226766 154.668095,36.5332405 C155.391075,37.3438044 155.753735,38.5608249 155.753735,40.1819527 Z M151.521142,37.1628959 C150.72329,37.1628959 150.082201,37.4965193 149.600214,38.168465 C149.118227,38.8404107 148.839798,39.8083884 148.764926,41.0770971 L153.638609,41.0770971 C153.654987,40.9831187 153.669025,40.84685 153.678384,40.6706404 C153.687743,40.4944309 153.692423,40.3017751 153.692423,40.0973721 C153.692423,39.1646363 153.507583,38.4433519 153.135564,37.9311695 C152.765885,37.4189871 152.227744,37.1628959 151.521142,37.1628959 Z M164.523087,38.3634702 C164.375684,38.1966585 164.106613,37.9687609 163.715876,37.6797772 C163.327479,37.3907936 162.815076,37.245127 162.185685,37.245127 C161.591391,37.245127 161.137481,37.3860947 160.821616,37.6656805 C160.505751,37.9452663 160.346648,38.2812391 160.346648,38.6712496 C160.346648,39.1740341 160.491712,39.5898886 160.7795,39.9164636 C161.067289,40.2430386 161.50716,40.5907588 162.101455,40.964323 L162.936742,41.4671076 C163.846902,42.0074835 164.560523,42.5901497 165.079946,43.2151062 C165.601708,43.8400627 165.86142,44.6459276 165.86142,45.632701 C165.86142,46.6946572 165.49408,47.5898016 164.761741,48.3181344 C164.027062,49.0441176 162.974178,49.408284 161.60075,49.408284 C161.062609,49.408284 160.589981,49.351897 160.180527,49.2391229 C159.771072,49.1286982 159.415431,48.9971284 159.108925,48.8491124 C158.802419,48.698747 158.547387,48.5366342 158.343829,48.3604246 C158.137932,48.1818656 157.97181,48.0197529 157.840785,47.8693874 L158.926425,46.081448 C159.038733,46.1918726 159.174438,46.3234424 159.3312,46.4714584 C159.490303,46.6218239 159.679822,46.765141 159.902097,46.9061086 C160.124373,47.0447268 160.374725,47.1621998 160.653154,47.2561782 C160.931584,47.3478072 161.256808,47.3947964 161.628827,47.3947964 C162.295653,47.3947964 162.808057,47.2444309 163.159018,46.9483989 C163.512319,46.6500174 163.6878,46.285851 163.6878,45.8582492 C163.6878,45.5410721 163.648024,45.2661852 163.563793,45.0312391 C163.479562,44.7986425 163.355556,44.5895405 163.187095,44.4039332 C163.020973,44.2159763 162.815076,44.0397668 162.574082,43.8729551 C162.333089,43.7037939 162.05466,43.5181866 161.738795,43.3137835 L160.903507,42.7828054 C160.068219,42.2400801 159.415431,41.6738601 158.942803,41.0770971 C158.467836,40.4803341 158.231522,39.7167595 158.231522,38.7840237 C158.231522,38.2812391 158.329791,37.8183954 158.523989,37.4001914 C158.718188,36.979638 158.991938,36.6178211 159.345239,36.3100418 C159.69854,36.0022624 160.110334,35.760268 160.585302,35.581709 C161.05793,35.4054995 161.563314,35.31622 162.101455,35.31622 C162.620877,35.31622 163.067768,35.3679081 163.437447,35.4712844 C163.809466,35.5723112 164.130011,35.703881 164.399081,35.8612948 C164.668151,36.0210581 164.890427,36.178472 165.065907,36.3358858 C165.243728,36.4956491 165.386452,36.6295684 165.49876,36.7423425 L164.523087,38.3634702 Z M174.380419,37.6374869 C174.324266,37.5998956 174.204939,37.5529064 174.017759,37.4965193 C173.83292,37.4424817 173.582568,37.4142882 173.266702,37.4142882 C172.56244,37.4142882 172.010261,37.6045945 171.610165,37.9875566 C171.210069,38.3681692 170.926961,38.7840237 170.760839,39.2304212 L170.760839,49.0723112 L168.505328,49.0723112 L168.505328,35.6521928 L170.56664,35.6521928 L170.56664,37.4706753 L170.620454,37.4706753 C170.714044,37.2075357 170.835711,36.9514445 170.983114,36.7000522 C171.132858,36.4486599 171.317697,36.2254612 171.539973,36.030456 C171.762248,35.8331013 172.026639,35.6803864 172.333145,35.5676123 C172.639652,35.4571876 173.006991,35.4008006 173.432824,35.4008006 C173.748689,35.4008006 174.003721,35.4289941 174.200259,35.4853811 C174.394458,35.5394187 174.546541,35.5864079 174.658849,35.6239993 L174.380419,37.6374869 Z M184.848424,40.1819527 C184.848424,40.7599199 184.832046,41.2580056 184.79461,41.6762095 C184.757174,42.096763 184.719738,42.4656283 184.682303,42.7828054 L177.859615,42.7828054 C177.934487,44.3663418 178.27375,45.5316742 178.877403,46.2764532 C179.481057,47.0212322 180.349101,47.3947964 181.481536,47.3947964 C181.869933,47.3947964 182.223234,47.3478072 182.539099,47.2561782 C182.854964,47.1621998 183.128714,47.0494257 183.360348,46.9202054 C183.591983,46.7886356 183.786181,46.6594152 183.945284,46.5278455 C184.102047,46.3986251 184.219034,46.2952489 184.291566,46.2200661 L185.126853,47.8153498 C185.035604,47.9069788 184.895219,48.0432475 184.710379,48.219457 C184.52554,48.3956666 184.272848,48.5742255 183.959322,48.7504351 C183.643457,48.9266446 183.25272,49.081709 182.789451,49.2132788 C182.323843,49.3424991 181.776343,49.408284 181.146953,49.408284 C180.311665,49.408284 179.553589,49.2673164 178.877403,48.9877306 C178.198878,48.7081448 177.623302,48.2758441 177.150674,47.6884789 C176.678046,47.1011138 176.310706,46.3563348 176.050995,45.4517926 C175.791284,44.5472503 175.660258,43.4617995 175.660258,42.1954403 C175.660258,41.0019144 175.795963,39.9728507 176.065034,39.1058998 C176.334104,38.2389488 176.701443,37.5247128 177.164712,36.9655412 C177.627981,36.4063696 178.166122,35.9928646 178.779134,35.7226766 C179.392146,35.4524887 180.051954,35.31622 180.756216,35.31622 C182.038394,35.31622 183.039804,35.7226766 183.762784,36.5332405 C184.488104,37.3438044 184.848424,38.5608249 184.848424,40.1819527 Z M180.618171,37.1628959 C179.817979,37.1628959 179.17923,37.4965193 178.697243,38.168465 C178.212917,38.8404107 177.934487,39.8083884 177.859615,41.0770971 L182.733298,41.0770971 C182.752016,40.9831187 182.766054,40.84685 182.775413,40.6706404 C182.784772,40.4944309 182.789451,40.3017751 182.789451,40.0973721 C182.789451,39.1646363 182.604612,38.4433519 182.232593,37.9311695 C181.860574,37.4189871 181.322433,37.1628959 180.618171,37.1628959 Z M197.433895,37.4142882 L195.76332,37.4142882 C196.191492,38.1214758 196.404409,38.9226418 196.404409,39.8177863 C196.404409,40.5273234 196.287422,41.1640271 196.055787,41.7325966 C195.824153,42.301166 195.498929,42.7828054 195.082455,43.1728159 C194.663641,43.5651758 194.172295,43.8635573 193.606078,44.0679603 C193.03986,44.2723634 192.431527,44.3757396 191.781079,44.3757396 C191.652393,44.3757396 191.530727,44.3757396 191.420759,44.3757396 C191.308451,44.3757396 191.189124,44.3663418 191.058099,44.3475461 C190.835823,44.4415245 190.604189,44.5895405 190.363196,44.7939436 C190.119862,45.0006961 190.000536,45.2708841 190.000536,45.6045075 C190.000536,45.8840933 190.108164,46.1143404 190.32108,46.2905499 C190.533997,46.4667595 190.882618,46.556039 191.364605,46.556039 L193.063258,46.556039 C193.694988,46.556039 194.277584,46.6218239 194.818064,46.7510442 C195.356205,46.882614 195.824153,47.091716 196.224249,47.3806996 C196.622005,47.6696833 196.933191,48.0385486 197.155466,48.484946 C197.377741,48.9313435 197.490049,49.4740689 197.490049,50.1060738 C197.490049,50.8344065 197.337966,51.4946049 197.03146,52.0913679 C196.724953,52.6881309 196.292101,53.2003133 195.735243,53.6302645 C195.178384,54.0578663 194.502199,54.3938392 193.704347,54.6358336 C192.906495,54.8778281 192.015053,55 191.030022,55 C189.60044,55 188.5148,54.6875218 187.773101,54.0625653 C187.031403,53.4376088 186.659384,52.5401149 186.659384,51.3653846 C186.659384,50.8626001 186.748295,50.4279499 186.923775,50.066133 C187.099256,49.7019666 187.309833,49.3847894 187.550826,49.1146015 C187.791819,48.8444135 188.037492,48.6306126 188.287845,48.4708493 C188.538197,48.3134354 188.737075,48.1865646 188.886819,48.0949356 L188.886819,48.0385486 C188.311242,47.6085973 188.023454,46.9859903 188.023454,46.1636791 C188.023454,45.81126 188.093646,45.5034807 188.231691,45.2426906 C188.372075,44.9819005 188.528838,44.7657501 188.706658,44.5989384 C188.882139,44.4321267 189.05762,44.295858 189.23544,44.1924817 C189.410921,44.0914549 189.546626,44.0209711 189.637876,43.9833797 L189.637876,43.9269927 C188.952331,43.6098155 188.400152,43.1117299 187.981338,42.4327358 C187.564864,41.7513923 187.354288,40.8797424 187.354288,39.8177863 C187.354288,39.0730073 187.475954,38.4151584 187.716948,37.8465889 C187.957941,37.2780195 188.283165,36.8081274 188.69262,36.4345632 C189.099735,36.0633484 189.577042,35.7814132 190.124542,35.5958058 C190.672041,35.4101984 191.261656,35.31622 191.893387,35.31622 C192.525117,35.31622 193.119411,35.4289941 193.67627,35.6521928 L197.740401,35.6521928 L197.433895,37.4142882 Z M191.224221,48.6517577 C190.835823,48.6517577 190.491881,48.6259137 190.194734,48.5695266 C190.028613,48.663505 189.864831,48.7739297 189.708068,48.9054995 C189.551305,49.0347198 189.406241,49.1944831 189.275216,49.3800905 C189.14653,49.5656979 189.038902,49.7841977 188.957011,50.0379394 C188.87278,50.2893317 188.830665,50.5830143 188.830665,50.9166377 C188.830665,52.352158 189.619158,53.0710929 191.198483,53.0710929 C192.553194,53.0710929 193.554603,52.8056039 194.205052,52.2746258 C194.85316,51.7436478 195.178384,51.132788 195.178384,50.4420466 C195.178384,49.7888966 194.974827,49.3284024 194.565372,49.0582144 C194.158257,48.7880265 193.610757,48.6517577 192.922873,48.6517577 L191.224221,48.6517577 Z M194.205052,39.8177863 C194.205052,38.8498086 193.978097,38.1590672 193.521847,37.7479116 C193.067937,37.3391055 192.534476,37.1347024 191.921464,37.1347024 C191.271015,37.1347024 190.714157,37.3391055 190.250888,37.7479116 C189.787619,38.1590672 189.555985,38.8498086 189.555985,39.8177863 C189.555985,40.7881135 189.787619,41.4765054 190.250888,41.887661 C190.714157,42.2964671 191.252297,42.5008702 191.86531,42.5008702 C192.515758,42.5008702 193.067937,42.2964671 193.521847,41.887661 C193.978097,41.4765054 194.205052,40.7881135 194.205052,39.8177863 Z M199.995912,49.0723112 L202.251424,49.0723112 L202.251424,35.6521928 L199.995912,35.6521928 L199.995912,49.0723112 Z M201.137706,32.4099373 C200.674438,32.4099373 200.302419,32.2595719 200.023989,31.9611904 C199.74556,31.6628089 199.605176,31.2727985 199.605176,30.7864601 C199.605176,30.321267 199.74556,29.9383049 200.023989,29.6399234 C200.302419,29.3438914 200.674438,29.1935259 201.137706,29.1935259 C201.582257,29.1935259 201.944917,29.3438914 202.223347,29.6399234 C202.501776,29.9383049 202.64216,30.321267 202.64216,30.7864601 C202.64216,31.2727985 202.501776,31.6628089 202.223347,31.9611904 C201.944917,32.2595719 201.582257,32.4099373 201.137706,32.4099373 Z M214.280036,40.1819527 C214.280036,40.7599199 214.261318,41.2580056 214.223882,41.6762095 C214.186446,42.096763 214.149011,42.4656283 214.111575,42.7828054 L207.291227,42.7828054 C207.366099,44.3663418 207.703022,45.5316742 208.306675,46.2764532 C208.910329,47.0212322 209.778373,47.3947964 210.910808,47.3947964 C211.299205,47.3947964 211.652506,47.3478072 211.968371,47.2561782 C212.284236,47.1621998 212.557986,47.0494257 212.789621,46.9202054 C213.021255,46.7886356 213.215454,46.6594152 213.374556,46.5278455 C213.531319,46.3986251 213.648306,46.2952489 213.723178,46.2200661 L214.558465,47.8153498 C214.464876,47.9069788 214.324491,48.0432475 214.139652,48.219457 C213.954812,48.3956666 213.70446,48.5742255 213.388594,48.7504351 C213.072729,48.9266446 212.681992,49.081709 212.218724,49.2132788 C211.755455,49.3424991 211.207955,49.408284 210.576225,49.408284 C209.740937,49.408284 208.9852,49.2673164 208.306675,48.9877306 C207.63049,48.7081448 207.054913,48.2758441 206.579946,47.6884789 C206.107318,47.1011138 205.739979,46.3563348 205.480267,45.4517926 C205.220556,44.5472503 205.09187,43.4617995 205.09187,42.1954403 C205.09187,41.0019144 205.225235,39.9728507 205.494306,39.1058998 C205.763376,38.2389488 206.130715,37.5247128 206.593984,36.9655412 C207.059593,36.4063696 207.597734,35.9928646 208.210746,35.7226766 C208.821419,35.4524887 209.481226,35.31622 210.185488,35.31622 C211.467666,35.31622 212.469076,35.7226766 213.194396,36.5332405 C213.917376,37.3438044 214.280036,38.5608249 214.280036,40.1819527 Z M210.047443,37.1628959 C209.249591,37.1628959 208.608502,37.4965193 208.126515,38.168465 C207.644528,38.8404107 207.366099,39.8083884 207.291227,41.0770971 L212.16257,41.0770971 C212.181288,40.9831187 212.195326,40.84685 212.204685,40.6706404 C212.214044,40.4944309 212.218724,40.3017751 212.218724,40.0973721 C212.218724,39.1646363 212.033884,38.4433519 211.661865,37.9311695 C211.289846,37.4189871 210.751705,37.1628959 210.047443,37.1628959 Z M223.161696,37.6374869 C223.105542,37.5998956 222.983876,37.5529064 222.799036,37.4965193 C222.614196,37.4424817 222.363844,37.4142882 222.047979,37.4142882 C221.341377,37.4142882 220.789198,37.6045945 220.391442,37.9875566 C219.991346,38.3681692 219.708237,38.7840237 219.542115,39.2304212 L219.542115,49.0723112 L217.286604,49.0723112 L217.286604,35.6521928 L219.347917,35.6521928 L219.347917,37.4706753 L219.401731,37.4706753 C219.495321,37.2075357 219.616987,36.9514445 219.764391,36.7000522 C219.911795,36.4486599 220.098974,36.2254612 220.321249,36.030456 C220.543525,35.8331013 220.807916,35.6803864 221.114422,35.5676123 C221.420928,35.4571876 221.788267,35.4008006 222.2141,35.4008006 C222.529966,35.4008006 222.784997,35.4289941 222.979196,35.4853811 C223.175734,35.5394187 223.327818,35.5864079 223.440125,35.6239993 L223.161696,37.6374869 Z M234.743418,49.0723112 L232.684445,49.0723112 L232.684445,47.5616081 L232.628291,47.5616081 C232.572137,47.6743822 232.450471,47.836495 232.265631,48.0526453 C232.080792,48.2664462 231.844478,48.4708493 231.556689,48.6658545 C231.268901,48.8632092 230.92028,49.0347198 230.510825,49.1850853 C230.10371,49.3331013 229.6498,49.408284 229.146755,49.408284 C228.552461,49.408284 228.019,49.3190045 227.546372,49.142795 C227.073744,48.964236 226.668969,48.6799513 226.334386,48.2899408 C226.002142,47.8975809 225.744771,47.3900975 225.56929,46.765141 C225.39381,46.1401845 225.304899,45.3719109 225.304899,44.4579708 L225.304899,35.6521928 L227.56041,35.6521928 L227.56041,44.2911591 C227.56041,45.4095023 227.740571,46.2059694 228.103231,46.6829099 C228.465891,47.1575009 229.027429,47.3947964 229.787845,47.3947964 C230.438293,47.3947964 230.985792,47.2326836 231.430343,46.9061086 C231.874894,46.5795336 232.228195,46.2576575 232.487907,45.9404803 L232.487907,35.6521928 L234.743418,35.6521928 L234.743418,49.0723112 Z M245.492191,49.0723112 L245.492191,40.4333449 C245.492191,39.2962061 245.300333,38.4809433 244.921294,37.9875566 C244.539917,37.4918204 243.959661,37.245127 243.180527,37.245127 C242.51136,37.245127 241.954502,37.4142882 241.509951,37.7479116 C241.06306,38.0838844 240.712099,38.4104595 240.452388,38.7276366 L240.452388,49.0723112 L238.196877,49.0723112 L238.196877,35.6521928 L240.255849,35.6521928 L240.255849,37.1628959 L240.312003,37.1628959 C240.368157,37.0501218 240.489824,36.888009 240.674663,36.6718587 C240.859503,36.4580578 241.100496,36.2536547 241.397643,36.0586495 C241.694791,35.8612948 242.048092,35.6897842 242.457546,35.5394187 C242.864661,35.3914027 243.32793,35.31622 243.849693,35.31622 C244.441647,35.31622 244.979788,35.4054995 245.464115,35.581709 C245.946101,35.760268 246.353216,36.0445527 246.6878,36.4345632 C247.022383,36.8269231 247.282094,37.3344065 247.469273,37.959363 C247.654113,38.5843195 247.747703,39.3525931 247.747703,40.2665332 L247.747703,49.0723112 L245.492191,49.0723112 Z M260.693494,37.4142882 L259.022918,37.4142882 C259.448751,38.1214758 259.664007,38.9226418 259.664007,39.8177863 C259.664007,40.5273234 259.54702,41.1640271 259.315386,41.7325966 C259.083751,42.301166 258.758527,42.7828054 258.339714,43.1728159 C257.92324,43.5651758 257.431894,43.8635573 256.865676,44.0679603 C256.299459,44.2723634 255.691126,44.3757396 255.040678,44.3757396 C254.911992,44.3757396 254.790325,44.3757396 254.680357,44.3757396 C254.56805,44.3757396 254.446383,44.3663418 254.317697,44.3475461 C254.095422,44.4415245 253.861448,44.5895405 253.620454,44.7939436 C253.379461,45.0006961 253.260134,45.2708841 253.260134,45.6045075 C253.260134,45.8840933 253.365423,46.1143404 253.580679,46.2905499 C253.793595,46.4667595 254.142217,46.556039 254.624204,46.556039 L256.322856,46.556039 C256.952247,46.556039 257.537182,46.6218239 258.075323,46.7510442 C258.613463,46.882614 259.083751,47.091716 259.481508,47.3806996 C259.881603,47.6696833 260.192789,48.0385486 260.415065,48.484946 C260.63734,48.9313435 260.749648,49.4740689 260.749648,50.1060738 C260.749648,50.8344065 260.595225,51.4946049 260.291058,52.0913679 C259.984552,52.6881309 259.5517,53.2003133 258.994841,53.6302645 C258.437983,54.0578663 257.759458,54.3938392 256.961606,54.6358336 C256.163754,54.8778281 255.274652,55 254.289621,55 C252.860038,55 251.774398,54.6875218 251.0327,54.0625653 C250.288662,53.4376088 249.918983,52.5401149 249.918983,51.3653846 C249.918983,50.8626001 250.005553,50.4279499 250.183374,50.066133 C250.358854,49.7019666 250.567091,49.3847894 250.810425,49.1146015 C251.051418,48.8444135 251.297091,48.6306126 251.547443,48.4708493 C251.797796,48.3134354 251.996674,48.1865646 252.146417,48.0949356 L252.146417,48.0385486 C251.570841,47.6085973 251.283052,46.9859903 251.283052,46.1636791 C251.283052,45.81126 251.353245,45.5034807 251.491289,45.2426906 C251.631674,44.9819005 251.788437,44.7657501 251.963917,44.5989384 C252.141738,44.4321267 252.317218,44.295858 252.495039,44.1924817 C252.670519,44.0914549 252.803885,44.0209711 252.897474,43.9833797 L252.897474,43.9269927 C252.21193,43.6098155 251.657411,43.1117299 251.240937,42.4327358 C250.822123,41.7513923 250.613886,40.8797424 250.613886,39.8177863 C250.613886,39.0730073 250.735553,38.4151584 250.976546,37.8465889 C251.21754,37.2780195 251.542764,36.8081274 251.949879,36.4345632 C252.359334,36.0633484 252.836641,35.7814132 253.38414,35.5958058 C253.93164,35.4101984 254.521255,35.31622 255.152985,35.31622 C255.784716,35.31622 256.37901,35.4289941 256.933529,35.6521928 L261,35.6521928 L260.693494,37.4142882 Z M254.483819,48.6517577 C254.095422,48.6517577 253.75148,48.6259137 253.454333,48.5695266 C253.288211,48.663505 253.124429,48.7739297 252.967666,48.9054995 C252.808564,49.0347198 252.66584,49.1944831 252.534814,49.3800905 C252.406128,49.5656979 252.2985,49.7841977 252.21427,50.0379394 C252.132379,50.2893317 252.090263,50.5830143 252.090263,50.9166377 C252.090263,52.352158 252.878756,53.0710929 254.455742,53.0710929 C255.812792,53.0710929 256.814202,52.8056039 257.46465,52.2746258 C258.112759,51.7436478 258.437983,51.132788 258.437983,50.4420466 C258.437983,49.7888966 258.234425,49.3284024 257.82497,49.0582144 C257.417855,48.7880265 256.870356,48.6517577 256.182472,48.6517577 L254.483819,48.6517577 Z M257.46465,39.8177863 C257.46465,38.8498086 257.235355,38.1590672 256.781446,37.7479116 C256.327536,37.3391055 255.794075,37.1347024 255.181062,37.1347024 C254.530614,37.1347024 253.973755,37.3391055 253.510487,37.7479116 C253.044878,38.1590672 252.813244,38.8498086 252.813244,39.8177863 C252.813244,40.7881135 253.044878,41.4765054 253.510487,41.887661 C253.973755,42.2964671 254.511896,42.5008702 255.124908,42.5008702 C255.775357,42.5008702 256.327536,42.2964671 256.781446,41.887661 C257.235355,41.4765054 257.46465,40.7881135 257.46465,39.8177863 L257.46465,39.8177863 Z" id="Fill-2" fill="#1A1919"></path>
                    <polyline id="Fill-3" fill="#F1CC1F" points="73.5714286 96 77 96 77 143 69 143 69 96 73.5714286 96"></polyline>
                    <polyline id="Fill-4" fill="#D8232A" points="73.5714286 49 77 49 77 96 69 96 69 49 73.5714286 49"></polyline>
                    <path d="M47.8524022,18.6052607 C50.2639805,22.3956115 52.1503811,22.3323999 55,22.3323999 C52.642588,20.534383 51.0835403,18.2353562 50.3393423,17.06009 L45.9353858,10.0553158 C45.5067654,7.89207675 44.3786932,5.86930775 42.6948274,4.36393683 C43.2600411,4.15089056 43.7334076,3.92613845 44.0160144,3.71309218 C41.1404899,3.71309218 38.2908709,2.26156812 36.722403,2.26156812 C35.7144386,2.26156812 35.0644429,2.86090709 35.0644429,3.65222181 C35.1303845,4.53250092 36.0441466,5.43150936 37.7327224,5.43150936 C38.1142417,5.43150936 38.6040935,5.38234484 39.1410465,5.29338046 C40.0548086,6.55995226 40.7919414,7.70478333 40.7919414,9.33891847 C40.7919414,12.4058483 37.1039222,14.7961807 33.3805772,14.7961807 C33.1686221,14.7961807 32.9684422,14.786816 32.7588422,14.772769 C32.419714,14.0118895 31.2987069,12.7336118 31.2987069,11.2844289 C31.2987069,8.84727323 32.8977905,6.85728057 32.8977905,4.44119537 C32.8977905,2.94284796 32.1606577,2.01340433 31.8780509,1.62711164 C32.337287,1.20570143 32.836559,0.685962174 32.9519568,0.332445832 C32.6881905,0.444821888 32.3726128,0.461210062 31.9133767,0.461210062 C30.1282436,0.461210062 28.6728184,0 27.2550741,0 C26.4449345,0 26.2259142,0.24816379 26.2259142,0.484621741 C26.2259142,0.57124495 26.2400445,0.660209328 26.2635951,0.702350349 C25.9621478,0.585291957 25.679541,0.508033419 25.3404128,0.444821888 C24.9235677,0.367563349 24.4713968,0.327763496 23.9933202,0.327763496 C22.2694185,0.327763496 21.6571037,1.04650202 21.6571037,1.65988799 C21.6571037,2.18196842 22.0692387,3.13248256 22.537895,3.85590342 C23.2090862,3.52111642 24.0168708,3.29402314 24.3842597,3.29402314 C25.2980218,3.29402314 26.1128715,4.16025523 26.5438469,5.18568674 C25.929177,5.25826295 25.8114242,5.28635696 25.1896891,5.28635696 C23.5105335,5.28635696 22.3683309,4.68935916 22.1328252,4.68935916 C22.1092746,4.68935916 22.0645286,4.701065 22.0645286,4.73618252 C22.0645286,4.97264047 22.5426051,5.59070878 23.4799178,5.93017811 C24.7139676,6.37968234 26.5673974,6.56697576 26.8759099,6.61848145 C26.8759099,6.67232831 26.5626873,7.25293794 26.2117838,7.36297282 C26.136422,7.38872567 26.0799007,7.39106684 25.9927636,7.3723375 C24.7021923,7.11949137 24.3418686,7.01179765 22.7051041,6.39138817 C22.6532928,6.375 22.6250321,6.40543518 22.6250321,6.45694087 C22.6250321,7.10076203 24.3018327,8.5218509 25.804359,9.06500184 C24.5491136,10.6593371 22.9830008,12.2887899 22.2435129,14.772769 C22.0339128,14.786816 21.8313779,14.7961807 21.6217779,14.7961807 C17.8984328,14.7961807 14.2080586,12.4058483 14.2080586,9.33891847 C14.2080586,7.70478333 14.9475465,6.55995226 15.8613086,5.29338046 C16.3982615,5.38234484 16.8857583,5.43150936 17.2696326,5.43150936 C18.9582084,5.43150936 19.8719705,4.53250092 19.9379121,3.65222181 C19.9379121,2.86090709 19.2902715,2.26156812 18.277597,2.26156812 C16.7114841,2.26156812 13.8618652,3.71309218 10.9839856,3.71309218 C11.2689475,3.92613845 11.7399589,4.15089056 12.3051726,4.36393683 C10.6213068,5.86930775 9.49558962,7.89207675 9.0646142,10.0553158 L4.66301276,17.06009 C3.92116982,18.2353562 2.35741201,20.534383 0,22.3323999 C2.84961891,22.3323999 4.73837458,22.3956115 7.1499529,18.6052607 L9.40609746,15.0139093 C9.57566156,15.4798017 9.78055151,15.9339882 10.0231224,16.3788101 L5.53202877,23.5217132 C4.78312066,24.7063441 3.23584825,26.9866416 0.869016014,28.7940231 C3.71863492,28.7940231 5.6073906,28.8595758 8.01661386,25.0715663 L11.8836174,18.9189772 C12.1732894,19.2256702 12.4770917,19.5253397 12.7973795,19.8109622 L7.34306757,28.4920125 C6.59415946,29.6789846 5.05395221,31.9522585 2.68005481,33.7596401 C5.52967372,33.7596401 7.42078445,33.827534 9.83000771,30.0371833 L15.1477263,21.5738615 C15.4986298,21.7939313 15.8565984,22.0069776 16.2263424,22.208318 L9.73580543,32.5328682 C8.98689732,33.7221814 7.44669007,35.990773 5.07514773,37.8004958 C7.92476664,37.8004958 9.81352231,37.8683896 12.2251006,34.0803801 L18.9087522,23.4444546 C19.3044018,23.5942894 19.7047615,23.7394418 20.1121863,23.868206 L12.5595187,35.8854205 C11.8223859,37.0560044 10.2468528,39.3643959 7.90121607,41.1530481 C10.7484799,41.1530481 12.6395906,41.2162596 15.0488139,37.4305913 L23.0983986,24.6244032 C23.1808256,24.6361091 23.2608975,24.6501561 23.3409694,24.6665443 C23.5599897,25.3595299 23.7130684,26.0033511 23.7130684,26.6495134 C23.7130684,30.6739809 21.0565642,34.2278737 17.8678171,36.9717224 C18.072707,37.0606867 18.4259656,37.0911219 18.7556735,37.0911219 C19.4127344,37.0911219 19.8389997,37.0560044 20.138092,37.0044987 C19.3986041,38.6737514 17.8112957,40.8276258 17.0105763,41.9443628 C15.9649311,41.7570694 14.4482744,41.6095758 13.4544404,41.6095758 C12.4135052,41.6095758 12.2957523,42.2159383 12.2957523,42.7567481 C12.2957523,43.6955564 12.736148,44.4423889 13.2519055,44.8591168 C13.4450201,44.3791774 13.8336045,43.7376974 15.755331,43.7376974 C15.7930119,43.7376974 15.8589535,43.7423797 15.9484457,43.7470621 C15.3855871,44.3698127 13.6263595,45.7838781 13.6263595,46.9216856 C13.6263595,47.6755417 14.4600497,48.8063257 15.5551512,48.8063257 C15.4892096,48.5628443 15.4986298,48.3380922 15.4986298,48.1718693 C15.4986298,47.2494491 16.3205447,46.1701708 17.0152865,45.4163147 C16.9940909,45.6410668 17.0058662,45.6176552 17.0058662,45.879866 C17.0058662,48.0594932 17.203691,49.061513 18.5955297,49.061513 C19.2784962,49.061513 19.7495076,48.6892674 19.9120065,48.5768913 C19.0076646,47.7504591 18.9605635,47.0996144 18.9605635,45.8775248 C18.9629186,45.559126 18.9629186,45.2477506 18.9676287,44.8193169 C18.9723388,44.5383768 18.9676287,44.1684723 18.9205275,43.9015791 C19.4197996,43.8336853 19.6223345,43.8336853 20.0038537,43.8336853 C20.0038537,43.8336853 21.9821016,43.676827 22.4578231,44.6999174 C22.9947761,44.2106133 23.7742999,43.5199688 23.7742999,42.7590892 C23.7742999,42.2557382 23.5340841,41.6868344 22.5166995,41.6868344 C22.1304702,41.6868344 20.9176158,41.9209512 19.9025863,41.9209512 C20.1757729,41.3169299 21.3886272,39.5516893 22.4413377,38.2734117 C22.5991265,38.7697393 22.8487625,39.3058667 23.3998459,39.7460062 C23.4775627,38.9219152 23.9627045,36.3161954 25.2579858,34.7920951 C25.4087094,35.822209 25.6112443,36.8780757 25.6112443,39.1045263 C25.6112443,44.5196474 24.3018327,48.5230444 21.5205104,49.2862651 C21.8831892,49.911357 22.6462276,50.4755784 23.4422369,50.4755784 C24.4572664,50.4755784 25.0130599,49.3307473 25.5782735,48.251469 C25.8726556,49.047466 26.6851503,51 27.5,51 C28.3148497,51 29.1273444,49.047466 29.4217265,48.251469 C29.9869401,49.3307473 30.5427336,50.4755784 31.5601182,50.4755784 C32.3537724,50.4755784 33.1191659,49.911357 33.4818447,49.2862651 C30.7005224,48.5230444 29.3887557,44.5196474 29.3887557,39.1045263 C29.3887557,36.8780757 29.5912906,35.822209 29.7420142,34.7920951 C31.0372955,36.3161954 31.5247923,38.9219152 31.6001541,39.7460062 C32.1535925,39.3058667 32.4032286,38.7697393 32.5610174,38.2734117 C33.6113728,39.5516893 34.8265822,41.3169299 35.0997688,41.9209512 C34.0823842,41.9209512 32.8695298,41.6868344 32.4856556,41.6868344 C31.468271,41.6868344 31.2280552,42.2557382 31.2280552,42.7590892 C31.2280552,43.5199688 32.007579,44.2106133 32.544532,44.6999174 C33.0178984,43.676827 34.9985013,43.8336853 34.9985013,43.8336853 C35.3800206,43.8336853 35.5825555,43.8336853 36.0818275,43.9015791 C36.0347264,44.1684723 36.0323713,44.5383768 36.0347264,44.8193169 C36.0370814,45.2477506 36.0394365,45.559126 36.0394365,45.8775248 C36.0394365,47.0996144 35.9946904,47.7504591 35.0903485,48.5768913 C35.2528475,48.6892674 35.7238589,49.061513 36.4068254,49.061513 C37.798664,49.061513 37.9988439,48.0594932 37.9988439,45.879866 C37.9988439,45.6176552 38.0059091,45.6410668 37.9870686,45.4163147 C38.6818104,46.1701708 39.5037253,47.2494491 39.5037253,48.1718693 C39.5037253,48.3380922 39.5131455,48.5628443 39.4448488,48.8063257 C40.5423054,48.8063257 41.3759955,47.6755417 41.3759955,46.9216856 C41.3759955,45.7838781 39.616768,44.3698127 39.0515543,43.7470621 C39.1434016,43.7423797 39.2093432,43.7376974 39.244669,43.7376974 C41.1687505,43.7376974 41.5573349,44.3791774 41.7504496,44.8591168 C42.263852,44.4423889 42.7066027,43.6955564 42.7066027,42.7567481 C42.7066027,42.2159383 42.5888499,41.6095758 41.5479147,41.6095758 C40.5540807,41.6095758 39.0350689,41.7570694 37.9917787,41.9443628 C37.1887043,40.8276258 35.603751,38.6737514 34.8642631,37.0044987 C35.1610003,37.0560044 35.5896206,37.0911219 36.2443265,37.0911219 C36.5763895,37.0911219 36.929648,37.0606867 37.134538,36.9717224 C33.9457909,34.2278737 31.2869316,30.6739809 31.2869316,26.6495134 C31.2869316,26.0033511 31.4423653,25.3595299 31.6613856,24.6665443 C31.7391025,24.6501561 31.8215295,24.6361091 31.9039565,24.6244032 L39.9535411,37.4305913 C42.3627644,41.2162596 44.2538751,41.1530481 47.101139,41.1530481 C44.7555023,39.3643959 43.1799692,37.0560044 42.4428363,35.8854205 L34.8878137,23.868206 C35.2975936,23.7394418 35.6979532,23.5942894 36.0936028,23.4444546 L42.7772544,34.0803801 C45.1888327,37.8683896 47.0775884,37.8004958 49.9272073,37.8004958 C47.555665,35.990773 46.0154577,33.7221814 45.2665496,32.5328682 L38.7760127,22.208318 C39.1434016,22.0069776 39.5037253,21.7939313 39.8522737,21.5738615 L45.1723473,30.0371833 C47.5839257,33.827534 49.4703263,33.7596401 52.3199452,33.7596401 C49.9484028,31.9522585 48.4081956,29.6789846 47.6592875,28.4920125 L42.2049756,19.8109622 C42.5252633,19.5253397 42.8314207,19.2256702 43.1163826,18.9189772 L46.9833861,25.0715663 C49.3949645,28.8595758 51.2837201,28.7940231 54.133339,28.7940231 C51.7641518,26.9866416 50.2192344,24.7063441 49.4703263,23.5217132 L44.9792327,16.3788101 C45.2218035,15.9339882 45.4266935,15.4798017 45.5962576,15.0139093 L47.8524022,18.6052607 Z M11.8059005,10.3807382 C11.8059005,7.71180683 13.7582427,5.60241462 14.4459193,5.00775799 C14.6107733,5.04755784 14.7756273,5.08501653 14.9404813,5.12013404 C14.2080586,6.00509548 12.9198424,7.49173705 12.9198424,9.45831803 C12.9198424,13.363386 17.1165539,16.753397 21.8690588,16.753397 C21.8384431,17.088184 21.8219577,17.4393592 21.8219577,17.799899 C21.8219577,18.3781675 21.8549285,18.9142949 21.9114499,19.4199871 C16.5372099,19.3872108 11.8059005,15.051368 11.8059005,10.3807382 Z M19.0877366,42.3915259 L19.0571208,42.4828314 L19.1513231,42.4828314 C20.6585596,42.4828314 21.3933373,42.3774789 21.8808341,42.3049027 C22.1351803,42.2744675 22.3188747,42.2463735 22.5166995,42.2463735 C22.9052839,42.2463735 23.2043761,42.281491 23.2043761,42.7590892 C23.2043761,43.0798292 22.827567,43.5878627 22.4601781,43.8828498 C21.9043847,43.3607694 21.1342811,43.257758 20.0038537,43.257758 C19.476321,43.257758 18.7839342,43.3537459 18.4141903,43.4052516 L18.3553139,43.4122751 L18.2893723,43.4216397 L18.3105678,43.5972273 C18.3553139,43.9086026 18.4094802,44.2948953 18.4094802,44.8169758 L18.402415,45.2898917 L18.3953498,45.8775248 C18.3953498,47.1511201 18.5719791,47.8768821 19.0194399,48.4270566 C18.9040421,48.4691976 18.7179926,48.5043151 18.5955297,48.5043151 C17.7995204,48.5043151 17.5687248,48.1578223 17.5687248,45.879866 C17.5687248,45.4209971 17.5428192,44.9925633 17.5286889,44.7069409 L17.5051383,44.2831895 L17.4038709,44.360448 C16.2216323,45.2571153 15.0040678,46.8584741 14.9310611,48.0548109 C14.5754475,47.8277176 14.1892181,47.3150018 14.1892181,46.9216856 C14.1892181,46.2684998 15.178342,45.2875505 16.3205447,44.1497429 L16.9799606,43.4965571 L17.0623876,43.4122751 L16.8480774,43.3584282 C16.6007964,43.2952167 16.1439154,43.1804994 15.755331,43.1804994 C14.471825,43.1804994 13.6687505,43.4216397 13.1741886,43.9577672 C12.9952042,43.7025799 12.8468357,43.1055821 12.8468357,42.7567481 C12.8468357,42.5296548 12.8915817,42.3704554 12.9810739,42.2791498 C13.0941166,42.1714561 13.2683909,42.1714561 13.4214696,42.1714561 L13.4544404,42.1714561 C14.8674745,42.1714561 16.5584054,42.4243022 17.2178214,42.5296548 L17.2555023,42.5390195 L17.2814079,42.5062431 C17.3944506,42.3540672 20.0909908,38.7837863 20.7904428,36.8921227 C20.9529417,36.8312523 21.09189,36.7867701 21.3721418,36.7867701 C21.9043847,36.7867701 22.0527533,37.1426276 22.2034769,37.6881197 C20.5196112,39.7225946 19.4692558,41.305224 19.0877366,42.3915259 Z M33.6278582,36.7867701 C33.910465,36.7867701 34.0470583,36.8312523 34.2119123,36.8921227 C34.9113642,38.7837863 37.6079044,42.3540672 37.7185921,42.5062431 L37.7444977,42.5390195 L37.7845337,42.5296548 C38.4439496,42.4243022 40.1348805,42.1714561 41.5479147,42.1714561 L41.5808855,42.1714561 C41.7339642,42.1714561 41.9082384,42.1714561 42.0189261,42.2791498 C42.1107733,42.3704554 42.1555194,42.5296548 42.1555194,42.7567481 C42.1555194,43.1055821 42.0071508,43.7025799 41.8281665,43.9577672 C41.3336045,43.4216397 40.5305301,43.1804994 39.244669,43.1804994 C38.8584397,43.1804994 38.4015586,43.2952167 38.1542776,43.3584282 L38.0530102,43.3818399 L37.9376124,43.4122751 L38.6794553,44.1497429 C39.824013,45.2875505 40.8131369,46.2684998 40.8131369,46.9216856 C40.8131369,47.3150018 40.4269076,47.8277176 40.071294,48.0548109 C39.9959322,46.8584741 38.7807228,45.2571153 37.5961291,44.360448 L37.4948617,44.2855307 L37.4760212,44.7069409 C37.4595358,44.9925633 37.4336302,45.4209971 37.4336302,45.879866 C37.4336302,48.1578223 37.2004796,48.5043151 36.4068254,48.5043151 C36.2843624,48.5043151 36.0983129,48.4691976 35.9829151,48.4270566 C36.430376,47.8768821 36.6070052,47.1511201 36.6070052,45.8775248 L36.5999401,45.2898917 L36.5928749,44.8169758 C36.5928749,44.2948953 36.6470412,43.9086026 36.6894322,43.5972273 L36.7129828,43.4216397 L36.5881648,43.4052516 C36.2160658,43.3537459 35.5260341,43.257758 34.9985013,43.257758 C33.8657189,43.257758 33.0979704,43.3607694 32.5421769,43.8828498 C32.174788,43.5878627 31.7979789,43.0798292 31.7979789,42.7590892 C31.7979789,42.281491 32.0947161,42.2463735 32.4856556,42.2463735 C32.6834803,42.2463735 32.8671748,42.2744675 33.1215209,42.3049027 C33.6090177,42.3774789 34.3414404,42.4828314 35.8510319,42.4828314 L35.9428792,42.4828314 L35.9146185,42.3915259 C35.5330993,41.305224 34.4827439,39.7225946 32.7988781,37.6881197 C32.9496018,37.1426276 33.0979704,36.7867701 33.6278582,36.7867701 Z M27.3869573,5.6468968 C27.2173932,4.9562523 26.8617796,4.24219611 26.4072536,3.70606867 C25.9927636,3.22144693 25.307442,2.64317848 24.3842597,2.64317848 C23.9627045,2.64317848 23.2561874,2.83983658 22.8063715,3.02713 C22.6391625,2.72511935 22.3094545,1.99233382 22.3094545,1.65988799 C22.3094545,1.32041866 22.8887985,0.976266985 23.9933202,0.976266985 C26.4213839,0.976266985 27.8744541,2.06959236 27.8744541,3.9003856 C27.8744541,4.54186559 27.6177528,5.12949871 27.3869573,5.6468968 Z M28.4773486,3.26592912 C28.3902115,2.7508722 28.1923867,2.28263863 27.8909395,1.87995777 C27.9050698,1.40704187 28.1005395,0.955196474 28.8682881,1.32744216 C28.4537981,1.74885237 28.7740858,2.49334374 28.7740858,2.49334374 C28.7740858,2.49334374 29.6195513,2.10236871 29.445277,1.54751194 C30.7028775,1.84718142 29.7985356,3.52579875 28.4773486,3.26592912 Z M33.206303,19.4199871 C33.2698895,18.8955656 33.3075704,18.3547558 33.3075704,17.799899 C33.3075704,17.5002295 33.3099255,17.1490544 33.2722446,16.7510558 C37.9658731,16.6855031 42.0825126,13.3235861 42.0825126,9.45831803 C42.0825126,7.49173705 40.7919414,6.00509548 40.0618738,5.12013404 C40.2267278,5.08501653 40.3915817,5.04755784 40.5564357,5.00775799 C41.2441124,5.60241462 43.1964546,7.71180683 43.1964546,10.3807382 C43.1964546,15.0185916 38.5334418,19.3239993 33.206303,19.4199871 L33.206303,19.4199871 Z" id="Fill-5" fill="#1A1919"></path>
                    <polygon id="Fill-6" fill="#1A1919" points="69 50 77 50 77 3 69 3"></polygon>
                </g>
            </g>
        </g>
    </g>
</svg>