<svg width="261" height="202" xmlns="http://www.w3.org/2000/svg" xmlns:xlink="http://www.w3.org/1999/xlink"><defs><path d="M99.848 15.128c.722 0 1.357-.152 1.905-.456a3.165 3.165 0 0 0 1.276-1.296c.301-.56.452-1.203.452-1.928V3.96c0-.107-.05-.16-.148-.16h-1.127c-.1 0-.149.053-.149.16v7.52c0 .693-.202 1.253-.608 1.68-.405.427-.939.64-1.601.64s-1.199-.213-1.609-.64c-.41-.427-.615-.987-.615-1.68V3.96c0-.107-.05-.16-.149-.16h-1.127c-.099 0-.148.053-.148.16v7.488c0 .725.153 1.368.46 1.928.306.56.734.992 1.282 1.296.55.304 1.184.456 1.906.456zm7.236-.128c.1 0 .149-.053.149-.16l-.015-8.112c0-.032.01-.05.03-.056.02-.005.034.008.044.04l4.641 8.176c.05.075.11.112.178.112h1.083c.099 0 .148-.053.148-.16V3.96c0-.107-.05-.16-.148-.16h-1.127c-.099 0-.148.053-.148.16l.014 8.112c0 .032-.01.05-.03.056-.019.005-.034-.008-.044-.04l-4.626-8.176c-.05-.075-.109-.112-.178-.112h-1.098c-.098 0-.148.053-.148.16v10.88c0 .107.05.16.148.16h1.127zm12.25 0c.098 0 .147-.053.147-.16V5.208c0-.043.02-.064.06-.064h2.847c.099 0 .148-.053.148-.16V3.96c0-.107-.05-.16-.148-.16h-7.103c-.1 0-.148.053-.148.16v1.024c0 .107.049.16.148.16h2.713c.04 0 .06.021.06.064v9.632c0 .107.05.16.148.16h1.127zm11.714 0c.099 0 .148-.053.148-.16v-1.008c0-.107-.05-.16-.148-.16h-5.264c-.04 0-.06-.021-.06-.064v-3.52c0-.043.02-.064.06-.064h3.618c.099 0 .148-.053.148-.16V8.856c0-.107-.05-.16-.148-.16h-3.618c-.04 0-.06-.021-.06-.064v-3.44c0-.043.02-.064.06-.064h5.264c.099 0 .148-.053.148-.16V3.96c0-.107-.05-.16-.148-.16h-6.599c-.099 0-.148.053-.148.16v10.88c0 .107.05.16.148.16h6.599zm3.396 0c.099 0 .148-.053.148-.16v-4.72c0-.043.02-.064.06-.064h2.135c.03 0 .05.016.059.048l2.076 4.784c.03.075.084.112.163.112h1.172c.079 0 .118-.037.118-.112a.19.19 0 0 0-.015-.08l-2.15-4.8c-.02-.032-.01-.059.03-.08.643-.181 1.144-.53 1.505-1.048.36-.517.541-1.15.541-1.896 0-.63-.123-1.184-.37-1.664a2.719 2.719 0 0 0-1.046-1.12c-.45-.267-.971-.4-1.564-.4h-3.99c-.098 0-.148.053-.148.16v10.88c0 .107.05.16.149.16h1.127zm2.684-6.16h-2.477c-.04 0-.059-.021-.059-.064V5.192c0-.043.02-.064.06-.064h2.476c.524 0 .944.17 1.26.512.317.341.475.795.475 1.36 0 .555-.158 1-.475 1.336-.316.336-.736.504-1.26.504zm8.334 6.288c1.117 0 1.994-.275 2.632-.824.637-.55.956-1.293.956-2.232 0-.608-.143-1.117-.43-1.528a3.335 3.335 0 0 0-1.082-.992 16.238 16.238 0 0 0-1.706-.824 17.713 17.713 0 0 1-1.52-.68c-.33-.176-.58-.376-.748-.6-.169-.224-.253-.512-.253-.864 0-.512.168-.904.505-1.176.336-.272.81-.408 1.423-.408.722 0 1.288.184 1.698.552.41.368.615.83.615 1.384v.24c0 .107.05.16.149.16h1.112c.099 0 .148-.053.148-.16v-.32c0-.63-.15-1.184-.452-1.664a3.02 3.02 0 0 0-1.283-1.12c-.553-.267-1.196-.4-1.928-.4-1.038 0-1.86.261-2.469.784-.608.523-.911 1.243-.911 2.16 0 .608.138 1.112.415 1.512.277.4.625.723 1.045.968.42.245.991.517 1.713.816.652.277 1.15.515 1.49.712.341.197.6.413.779.648.178.235.267.517.267.848 0 .501-.173.907-.52 1.216-.345.31-.86.464-1.542.464-.76 0-1.359-.176-1.794-.528-.435-.352-.652-.8-.652-1.344v-.384c0-.107-.05-.16-.149-.16h-1.082c-.099 0-.148.053-.148.16v.464c0 .63.15 1.179.452 1.648.301.47.731.832 1.29 1.088.559.256 1.218.384 1.98.384zm9.06-.128c.099 0 .148-.053.148-.16V5.208c0-.043.02-.064.06-.064h2.847c.099 0 .148-.053.148-.16V3.96c0-.107-.05-.16-.148-.16h-7.103c-.1 0-.149.053-.149.16v1.024c0 .107.05.16.149.16h2.713c.04 0 .06.021.06.064v9.632c0 .107.05.16.148.16h1.127zm9.846-12.544a.889.889 0 0 0 .683-.288c.178-.192.267-.437.267-.736s-.09-.544-.267-.736a.889.889 0 0 0-.683-.288.889.889 0 0 0-.682.288c-.178.192-.267.437-.267.736s.09.544.267.736a.889.889 0 0 0 .682.288zm-2.698 0a.889.889 0 0 0 .682-.288c.178-.192.267-.437.267-.736s-.09-.544-.267-.736a.889.889 0 0 0-.682-.288.889.889 0 0 0-.683.288c-.177.192-.266.437-.266.736s.089.544.266.736a.889.889 0 0 0 .683.288zm1.364 12.672c.722 0 1.357-.152 1.905-.456a3.165 3.165 0 0 0 1.276-1.296c.301-.56.452-1.203.452-1.928V3.96c0-.107-.05-.16-.148-.16h-1.127c-.1 0-.149.053-.149.16v7.52c0 .693-.202 1.253-.608 1.68-.405.427-.939.64-1.601.64s-1.199-.213-1.61-.64c-.41-.427-.614-.987-.614-1.68V3.96c0-.107-.05-.16-.149-.16h-1.127c-.099 0-.148.053-.148.16v7.488c0 .725.153 1.368.46 1.928.306.56.734.992 1.282 1.296.549.304 1.184.456 1.906.456zm9.505-.128c.1 0 .148-.053.148-.16V5.208c0-.043.02-.064.06-.064h2.847c.099 0 .148-.053.148-.16V3.96c0-.107-.05-.16-.148-.16h-7.103c-.099 0-.148.053-.148.16v1.024c0 .107.049.16.148.16h2.714c.04 0 .059.021.059.064v9.632c0 .107.05.16.148.16h1.127zm11.092 0c.1 0 .148-.053.148-.16v-1.008c0-.107-.049-.16-.148-.16h-5.086c-.02 0-.035-.01-.045-.032-.01-.021-.01-.037 0-.048l5.22-8.304a.34.34 0 0 0 .06-.208V3.96c0-.107-.05-.16-.149-.16h-6.584c-.099 0-.148.053-.148.16v1.008c0 .107.05.16.148.16h5.057c.02 0 .034.01.044.032.01.021.01.037 0 .048l-5.19 8.304a.34.34 0 0 0-.06.208v1.12c0 .107.05.16.15.16h6.583zm5.59 0c.1 0 .149-.053.149-.16V5.208c0-.043.02-.064.06-.064h2.846c.1 0 .149-.053.149-.16V3.96c0-.107-.05-.16-.149-.16h-7.103c-.098 0-.148.053-.148.16v1.024c0 .107.05.16.148.16h2.714c.04 0 .06.021.06.064v9.632c0 .107.049.16.148.16h1.127zm11.76 0c.089 0 .148-.043.178-.128l3.203-10.896c.03-.117-.01-.176-.119-.176h-1.171c-.08 0-.134.043-.163.128l-2.447 8.848c-.01.021-.025.032-.044.032-.02 0-.035-.01-.045-.032l-2.447-8.848c-.03-.085-.089-.128-.178-.128h-1.2c-.09 0-.134.037-.134.112l.015.064 3.173 10.896c.03.085.089.128.178.128h1.201zm8.467.144c.732 0 1.374-.16 1.928-.48.554-.32.984-.77 1.29-1.352.307-.581.46-1.25.46-2.008V7.496c0-.757-.153-1.424-.46-2a3.32 3.32 0 0 0-1.29-1.344c-.554-.32-1.196-.48-1.928-.48-.721 0-1.359.16-1.913.48a3.32 3.32 0 0 0-1.29 1.344c-.306.576-.46 1.243-.46 2v3.808c0 .757.154 1.427.46 2.008a3.308 3.308 0 0 0 1.29 1.352c.554.32 1.192.48 1.913.48zm0-1.328c-.672 0-1.213-.224-1.623-.672-.41-.448-.616-1.04-.616-1.776V7.48c0-.747.205-1.347.616-1.8.41-.453.951-.68 1.623-.68.673 0 1.216.227 1.632.68.415.453.622 1.053.622 1.8v3.888c0 .736-.207 1.328-.622 1.776-.416.448-.96.672-1.632.672zM216.566 15c.1 0 .148-.053.148-.16l-.014-8.112c0-.032.01-.05.03-.056.02-.005.034.008.044.04l4.641 8.176c.05.075.109.112.178.112h1.083c.099 0 .148-.053.148-.16V3.96c0-.107-.05-.16-.148-.16h-1.127c-.1 0-.149.053-.149.16l.015 8.112c0 .032-.01.05-.03.056-.02.005-.034-.008-.044-.04l-4.627-8.176c-.049-.075-.108-.112-.177-.112h-1.098c-.099 0-.148.053-.148.16v10.88c0 .107.05.16.148.16h1.127z" id="a"/></defs><g fill="none" fill-rule="evenodd"><g fill-rule="nonzero"><use fill="#FFF" xlink:href="#a"/><use fill="#000" xlink:href="#a"/></g><g transform="translate(0 59)"><path d="M95 20.879V1.587h3.62c1.56 0 2.92.167 4.078.503 1.16.336 2.127.867 2.896 1.595.77.726 1.341 1.67 1.713 2.836.372 1.166.557 2.578.557 4.236 0 1.772-.222 3.294-.67 4.572-.444 1.276-1.076 2.326-1.892 3.146-.817.82-1.813 1.426-2.993 1.816-1.179.393-2.5.588-3.968.588H95zm2.422-17.363v15.35h.92c1.113 0 2.098-.144 2.952-.433a5.184 5.184 0 0 0 2.171-1.398c.594-.644 1.044-1.482 1.35-2.516.307-1.036.459-2.289.459-3.762 0-1.36-.148-2.502-.445-3.425-.297-.921-.73-1.668-1.294-2.237-.568-.568-1.263-.973-2.089-1.215-.826-.242-1.769-.364-2.826-.364h-1.198zm13.477 17.363h2.255V7.459H110.9v13.42zm1.141-16.663c-.463 0-.835-.15-1.113-.448-.279-.299-.42-.689-.42-1.175 0-.465.141-.848.42-1.147.278-.296.65-.446 1.113-.446.445 0 .808.15 1.086.446.278.299.419.682.419 1.147 0 .486-.14.876-.419 1.175-.278.298-.641.448-1.086.448zm13.143 7.772c0 .578-.019 1.076-.056 1.495-.038.42-.075.79-.113 1.106h-6.82c.072 1.584.412 2.75 1.015 3.494.604.745 1.472 1.118 2.604 1.118a3.794 3.794 0 0 0 1.88-.474c.23-.132.425-.261.584-.393a5.14 5.14 0 0 0 .349-.307l.835 1.595c-.093.091-.234.228-.419.404a3.714 3.714 0 0 1-.75.53 5.5 5.5 0 0 1-1.17.464c-.464.129-1.011.195-1.643.195-.835 0-1.591-.141-2.27-.42a4.31 4.31 0 0 1-1.726-1.3c-.473-.587-.84-1.332-1.1-2.237-.26-.904-.388-1.99-.388-3.256 0-1.194.133-2.223.402-3.09s.636-1.58 1.1-2.14a4.416 4.416 0 0 1 1.614-1.243 4.85 4.85 0 0 1 1.977-.406c1.282 0 2.284.406 3.009 1.217.723.81 1.086 2.027 1.086 3.648zM120.95 8.97c-.798 0-1.439.334-1.92 1.006-.483.672-.764 1.64-.836 2.909h4.871c.019-.094.033-.23.042-.407.01-.176.014-.369.014-.573 0-.933-.184-1.654-.557-2.166-.372-.513-.91-.769-1.614-.769zm-15.87 25.732c0 .672-.085 1.259-.25 1.762a4.222 4.222 0 0 1-.684 1.299c-.288.364-.62.658-1.001.881a4.737 4.737 0 0 1-1.184.503v.056c.5.094.97.27 1.406.531.435.261.816.588 1.142.98.325.392.585.853.779 1.384a5 5 0 0 1 .292 1.748c0 .763-.128 1.461-.388 2.095a4.29 4.29 0 0 1-1.212 1.65c-.548.467-1.24.83-2.075 1.09-.836.26-1.828.392-2.979.392H95V29.781h3.704c1.132 0 2.1.117 2.908.35.81.233 1.472.564 1.991.991.52.43.896.947 1.128 1.553.232.607.349 1.28.349 2.026zm-2.45.084c0-.895-.316-1.63-.948-2.208-.631-.578-1.623-.867-2.978-.867h-1.282v6.653h1.254c1.298 0 2.283-.317 2.95-.949.67-.634 1.004-1.51 1.004-2.629zm.36 8.89c0-1.043-.337-1.867-1.015-2.473-.676-.607-1.647-.91-2.91-.91h-1.643v6.767h1.504c1.43 0 2.464-.284 3.105-.853s.96-1.412.96-2.53zm14.925 5.397h-2.06v-1.51h-.057c-.054.112-.176.274-.36.49a3.683 3.683 0 0 1-.712.614 4.707 4.707 0 0 1-1.043.52 3.976 3.976 0 0 1-1.364.222c-.595 0-1.128-.089-1.6-.265a2.933 2.933 0 0 1-1.213-.853c-.334-.392-.59-.9-.765-1.525-.178-.625-.264-1.393-.264-2.307v-8.806h2.255v8.64c0 1.118.18 1.914.543 2.39.36.476.922.713 1.685.713.648 0 1.195-.162 1.642-.489.445-.326.798-.648 1.058-.966V35.652h2.255v13.42zm10.747 0v-8.639c0-1.137-.19-1.952-.571-2.445-.38-.496-.96-.743-1.738-.743-.67 0-1.226.17-1.671.503-.447.336-.8.662-1.06.98v10.344h-2.255v-13.42h2.06v1.51h.057c.056-.112.175-.274.363-.49.185-.214.426-.418.723-.613.297-.198.65-.37 1.057-.52.41-.148.873-.223 1.392-.223.595 0 1.133.09 1.615.266.484.178.891.463 1.226.853.334.392.594.9.779 1.524.185.625.278 1.394.278 2.308v8.805h-2.255zm5.012-6.515c0-1.36.177-2.497.528-3.411.354-.912.808-1.65 1.364-2.209a4.743 4.743 0 0 1 1.896-1.186 6.641 6.641 0 0 1 2.115-.35c.426 0 .798.033 1.113.098.316.064.576.144.78.238v-6.43l2.255-.252v20.017h-2.061v-1.426h-.054c-.056.113-.16.266-.307.46a3.09 3.09 0 0 1-.613.588c-.26.197-.584.364-.975.505-.389.139-.845.21-1.364.21-.63 0-1.229-.128-1.795-.379-.566-.251-1.062-.653-1.49-1.203-.426-.55-.765-1.257-1.016-2.124-.25-.867-.376-1.915-.376-3.146zm5.29 4.838c.353 0 .669-.047.947-.139a2.962 2.962 0 0 0 1.238-.785c.14-.148.248-.28.32-.39v-8.277a3.311 3.311 0 0 0-.708-.333c-.27-.094-.609-.141-1.018-.141a4 4 0 0 0-1.46.265c-.456.176-.85.47-1.184.881-.335.41-.599.942-.793 1.593-.197.653-.293 1.454-.293 2.406 0 .93.08 1.71.237 2.333.156.625.376 1.128.655 1.51.278.381.594.656.945.825.353.167.725.252 1.114.252zm16.79-7.213c0 .578-.019 1.076-.056 1.494-.038.42-.075.79-.11 1.107h-6.823c.075 1.583.412 2.749 1.015 3.493.604.745 1.472 1.119 2.605 1.119a3.782 3.782 0 0 0 1.878-.475c.232-.131.428-.26.585-.392.16-.13.274-.233.349-.308l.835 1.595c-.093.092-.231.228-.419.404a3.714 3.714 0 0 1-.75.531 5.45 5.45 0 0 1-1.17.463c-.464.13-1.011.195-1.643.195-.835 0-1.591-.14-2.27-.42a4.288 4.288 0 0 1-1.724-1.3c-.475-.587-.84-1.332-1.1-2.236-.262-.905-.39-1.99-.39-3.257 0-1.193.133-2.222.402-3.09.271-.866.636-1.58 1.1-2.14a4.404 4.404 0 0 1 1.616-1.242 4.842 4.842 0 0 1 1.978-.407c1.28 0 2.28.407 3.006 1.217.723.81 1.086 2.028 1.086 3.649zm-4.233-3.02c-.798 0-1.439.335-1.92 1.006-.483.672-.761 1.64-.836 2.91h4.874c.016-.095.03-.231.04-.407.009-.177.013-.37.013-.574 0-.932-.184-1.654-.556-2.166-.37-.512-.908-.768-1.615-.768zm13.002 1.201c-.147-.166-.416-.394-.807-.683-.389-.29-.9-.435-1.53-.435-.595 0-1.049.141-1.364.42-.316.28-.475.616-.475 1.006 0 .503.145.919.433 1.245.287.327.727.675 1.321 1.048l.836.503c.91.54 1.624 1.123 2.143 1.748.522.625.781 1.43.781 2.418 0 1.062-.367 1.957-1.1 2.685-.734.726-1.787 1.09-3.16 1.09-.538 0-1.011-.056-1.42-.169a6.14 6.14 0 0 1-1.072-.39 3.56 3.56 0 0 1-.765-.489 5.102 5.102 0 0 1-.503-.49l1.085-1.789c.113.11.248.242.405.39a3.575 3.575 0 0 0 1.322.785c.279.092.604.139.976.139.667 0 1.18-.15 1.53-.447.353-.298.529-.662.529-1.09 0-.317-.04-.592-.124-.827a1.87 1.87 0 0 0-.377-.627 3.38 3.38 0 0 0-.613-.531c-.24-.17-.52-.355-.835-.56l-.835-.53c-.836-.543-1.489-1.11-1.961-1.706-.475-.597-.711-1.36-.711-2.293 0-.503.098-.966.292-1.384.194-.42.468-.782.821-1.09.354-.308.765-.55 1.24-.728a4.305 4.305 0 0 1 1.516-.266c.52 0 .967.052 1.336.155a3.953 3.953 0 0 1 1.629.865c.178.16.32.294.433.406l-.976 1.621zm9.857-.726a1.587 1.587 0 0 0-.362-.14 2.77 2.77 0 0 0-.751-.083c-.705 0-1.257.19-1.657.574-.4.38-.683.796-.85 1.242v9.842h-2.255v-13.42h2.062v1.819h.053c.094-.263.216-.52.363-.77a2.77 2.77 0 0 1 .557-.67c.222-.198.487-.35.793-.463.307-.11.674-.167 1.1-.167.316 0 .57.028.767.084.194.054.347.101.459.139l-.279 2.013zm10.468 2.545c0 .578-.016 1.076-.053 1.494-.038.42-.075.79-.113 1.107h-6.822c.074 1.583.414 2.749 1.017 3.493.604.745 1.472 1.119 2.605 1.119a3.794 3.794 0 0 0 1.878-.475c.232-.131.426-.26.585-.392.157-.13.274-.233.347-.308l.835 1.595c-.091.092-.232.228-.417.404a3.782 3.782 0 0 1-.75.531 5.5 5.5 0 0 1-1.17.463c-.466.13-1.014.195-1.643.195-.835 0-1.593-.14-2.27-.42a4.28 4.28 0 0 1-1.726-1.3c-.473-.587-.84-1.332-1.1-2.236-.26-.905-.39-1.99-.39-3.257 0-1.193.135-2.222.404-3.09.27-.866.636-1.58 1.1-2.14a4.378 4.378 0 0 1 1.614-1.242 4.85 4.85 0 0 1 1.977-.407c1.282 0 2.284.407 3.007 1.217.725.81 1.085 2.028 1.085 3.649zm-4.23-3.02c-.8 0-1.439.335-1.92 1.006-.485.672-.764 1.64-.838 2.91h4.873c.019-.095.033-.231.042-.407.01-.177.014-.37.014-.574 0-.932-.184-1.654-.556-2.166-.372-.512-.91-.768-1.615-.768zm16.816.252h-1.67c.427.707.64 1.509.64 2.404 0 .71-.117 1.346-.348 1.915a4.025 4.025 0 0 1-.974 1.44c-.418.392-.91.69-1.476.895a5.335 5.335 0 0 1-1.825.308h-.36a2.55 2.55 0 0 1-.363-.028 2.75 2.75 0 0 0-.695.446 1.01 1.01 0 0 0-.362.81c0 .28.107.51.32.687.213.176.562.265 1.044.265h1.698a7.52 7.52 0 0 1 1.755.195c.538.132 1.006.34 1.406.63.398.289.71.658.931 1.104.223.446.335.99.335 1.621 0 .728-.152 1.389-.459 1.985a4.57 4.57 0 0 1-1.296 1.54c-.557.427-1.233.763-2.03 1.005-.799.242-1.69.364-2.675.364-1.43 0-2.515-.312-3.257-.937s-1.114-1.523-1.114-2.698c0-.502.09-.937.265-1.299.175-.364.386-.681.627-.951.24-.27.486-.484.737-.644.25-.158.45-.284.599-.376v-.056c-.576-.43-.864-1.053-.864-1.875 0-.353.07-.66.209-.921.14-.261.297-.477.475-.644.175-.167.35-.303.528-.407.176-.1.312-.171.403-.209v-.056c-.686-.317-1.238-.815-1.657-1.494-.416-.682-.627-1.553-.627-2.615 0-.745.122-1.403.363-1.971a3.98 3.98 0 0 1 .976-1.412 4.015 4.015 0 0 1 1.432-.84 5.475 5.475 0 0 1 1.768-.279c.632 0 1.226.113 1.783.336h4.064l-.306 1.762zm-6.21 11.238c-.388 0-.732-.026-1.03-.082-.165.094-.33.204-.486.335-.157.13-.302.29-.433.475a2.489 2.489 0 0 0-.318.658 2.771 2.771 0 0 0-.126.879c0 1.435.788 2.154 2.367 2.154 1.355 0 2.357-.265 3.007-.796.648-.531.973-1.142.973-1.833 0-.653-.203-1.114-.613-1.384-.407-.27-.954-.406-1.642-.406h-1.699zm2.981-8.834c0-.968-.227-1.659-.683-2.07a2.314 2.314 0 0 0-1.6-.613c-.651 0-1.208.204-1.671.613-.463.411-.695 1.102-.695 2.07 0 .97.232 1.659.695 2.07a2.365 2.365 0 0 0 1.614.613c.65 0 1.203-.205 1.657-.613.456-.411.683-1.1.683-2.07zm5.79 9.254h2.256v-13.42h-2.255v13.42zm1.143-16.662c-.464 0-.836-.15-1.114-.449-.278-.298-.419-.688-.419-1.175 0-.465.14-.848.419-1.146.278-.296.65-.446 1.114-.446.444 0 .807.15 1.085.446.279.298.42.681.42 1.146 0 .487-.141.877-.42 1.175-.278.299-.64.449-1.085.449zm13.142 7.772c0 .578-.019 1.076-.056 1.494-.038.42-.075.79-.112 1.107h-6.82c.074 1.583.411 2.749 1.015 3.493.603.745 1.471 1.119 2.604 1.119a3.794 3.794 0 0 0 1.879-.475c.231-.131.425-.26.585-.392a5.14 5.14 0 0 0 .348-.308l.835 1.595a44.11 44.11 0 0 1-.418.404 3.714 3.714 0 0 1-.751.531 5.5 5.5 0 0 1-1.17.463c-.464.13-1.011.195-1.643.195-.835 0-1.59-.14-2.27-.42a4.31 4.31 0 0 1-1.726-1.3c-.473-.587-.84-1.332-1.1-2.236-.26-.905-.388-1.99-.388-3.257 0-1.193.133-2.222.402-3.09.27-.866.637-1.58 1.1-2.14a4.404 4.404 0 0 1 1.617-1.242c.61-.27 1.27-.407 1.974-.407 1.283 0 2.284.407 3.01 1.217.722.81 1.085 2.028 1.085 3.649zm-4.233-3.02c-.797 0-1.438.335-1.92 1.006-.482.672-.76 1.64-.836 2.91h4.872c.018-.095.032-.231.042-.407.009-.177.014-.37.014-.574 0-.932-.185-1.654-.557-2.166-.372-.512-.91-.768-1.615-.768zm13.115.475a1.637 1.637 0 0 0-.363-.14 2.77 2.77 0 0 0-.751-.083c-.707 0-1.259.19-1.657.574-.4.38-.683.796-.849 1.242v9.842h-2.255v-13.42h2.06v1.819h.055c.093-.263.215-.52.362-.77.148-.252.335-.476.557-.67.223-.198.487-.35.793-.463.307-.11.674-.167 1.1-.167.316 0 .571.028.765.084.197.054.349.101.461.139l-.278 2.013zm11.581 11.435h-2.059v-1.51h-.056c-.056.112-.178.274-.362.49a3.596 3.596 0 0 1-.71.614 4.728 4.728 0 0 1-1.045.52 3.966 3.966 0 0 1-1.364.222c-.595 0-1.128-.089-1.6-.265a2.948 2.948 0 0 1-1.213-.853c-.332-.392-.59-.9-.765-1.525-.175-.625-.264-1.393-.264-2.307v-8.806h2.255v8.64c0 1.118.18 1.914.543 2.39.363.476.924.713 1.685.713.65 0 1.198-.162 1.642-.489.445-.326.798-.648 1.058-.966V35.652h2.255v13.42zm10.75 0v-8.639c0-1.137-.193-1.952-.572-2.445-.381-.496-.961-.743-1.74-.743-.67 0-1.226.17-1.671.503a6.092 6.092 0 0 0-1.058.98v10.344h-2.255v-13.42h2.059v1.51h.056a3.449 3.449 0 0 1 1.086-1.104c.297-.197.65-.368 1.06-.519.407-.148.87-.223 1.392-.223.592 0 1.13.09 1.614.266.482.178.89.463 1.224.853.334.392.594.9.781 1.524.185.625.279 1.394.279 2.308v8.805h-2.256zm15.2-11.658h-1.67c.426.707.641 1.509.641 2.404 0 .71-.117 1.346-.349 1.915a4 4 0 0 1-.975 1.44c-.417.392-.908.69-1.474.895a5.335 5.335 0 0 1-1.825.308h-.36c-.113 0-.235-.01-.363-.028a2.759 2.759 0 0 0-.698.446c-.24.207-.36.477-.36.81 0 .28.105.51.32.687.214.176.562.265 1.044.265h1.699a7.5 7.5 0 0 1 1.752.195 3.97 3.97 0 0 1 1.407.63c.4.289.71.658.933 1.104.222.446.335.99.335 1.621 0 .728-.155 1.389-.459 1.985a4.57 4.57 0 0 1-1.296 1.54c-.557.427-1.236.763-2.033 1.005-.798.242-1.687.364-2.672.364-1.43 0-2.516-.312-3.257-.937-.744-.625-1.114-1.523-1.114-2.698 0-.502.087-.937.264-1.299.176-.364.384-.681.627-.951.241-.27.487-.484.737-.644.25-.158.45-.284.6-.376v-.056c-.576-.43-.864-1.053-.864-1.875 0-.353.07-.66.208-.921.14-.261.297-.477.473-.644.178-.167.353-.303.531-.407.176-.1.309-.171.402-.209v-.056a3.78 3.78 0 0 1-1.656-1.494c-.419-.682-.627-1.553-.627-2.615 0-.745.122-1.403.363-1.971a4.005 4.005 0 0 1 .973-1.412c.41-.372.887-.654 1.434-.84a5.475 5.475 0 0 1 1.769-.279c.632 0 1.226.113 1.78.336H261l-.307 1.762zm-6.21 11.238c-.388 0-.732-.026-1.029-.082-.166.094-.33.204-.486.335a2.35 2.35 0 0 0-.433.475 2.565 2.565 0 0 0-.32.658 2.843 2.843 0 0 0-.125.879c0 1.435.789 2.154 2.366 2.154 1.357 0 2.358-.265 3.009-.796.648-.531.973-1.142.973-1.833 0-.653-.204-1.114-.613-1.384-.407-.27-.955-.406-1.643-.406h-1.698zm2.982-8.834c0-.968-.23-1.659-.684-2.07a2.314 2.314 0 0 0-1.6-.613c-.65 0-1.207.204-1.67.613-.466.411-.698 1.102-.698 2.07 0 .97.232 1.659.697 2.07a2.365 2.365 0 0 0 1.615.613c.65 0 1.203-.205 1.656-.613.454-.411.684-1.1.684-2.07z" fill="#1A1919"/><path fill="#F1CC1F" d="M73.5714286 96L77 96 77 143 69 143 69 96 73.5714286 96"/><path fill="#D8232A" d="M73.5714286 49L77 49 77 96 69 96 69 49 73.5714286 49"/><path d="M47.852 18.605c2.412 3.79 4.298 3.727 7.148 3.727-2.357-1.798-3.916-4.097-4.66-5.272l-4.405-7.005a10.36 10.36 0 0 0-3.24-5.691c.565-.213 1.038-.438 1.321-.65-2.876 0-5.725-1.452-7.294-1.452-1.008 0-1.658.599-1.658 1.39.066.88.98 1.78 2.669 1.78.381 0 .871-.05 1.408-.139.914 1.267 1.65 2.412 1.65 4.046 0 3.067-3.687 5.457-7.41 5.457-.212 0-.413-.01-.622-.023-.34-.761-1.46-2.04-1.46-3.489 0-2.437 1.599-4.427 1.599-6.843 0-1.498-.737-2.428-1.02-2.814.46-.421.959-.941 1.074-1.295-.264.113-.58.13-1.039.13-1.785 0-3.24-.462-4.658-.462-.81 0-1.03.248-1.03.485 0 .086.015.175.039.217a4.95 4.95 0 0 0-.924-.257 7.417 7.417 0 0 0-1.347-.117c-1.724 0-2.336.719-2.336 1.332 0 .522.412 1.472.88 2.196.672-.335 1.48-.562 1.847-.562.914 0 1.729.866 2.16 1.892-.615.072-.733.1-1.354.1-1.68 0-2.822-.597-3.057-.597-.024 0-.068.012-.068.047 0 .237.478.855 1.415 1.194 1.234.45 3.087.637 3.396.688 0 .054-.313.635-.664.745a.364.364 0 0 1-.22.01c-1.29-.254-1.65-.361-3.287-.982-.052-.016-.08.014-.08.066 0 .644 1.677 2.065 3.18 2.608-1.256 1.594-2.822 3.224-3.561 5.708-.21.014-.413.023-.622.023-3.724 0-7.414-2.39-7.414-5.457 0-1.634.74-2.779 1.653-4.046a9.017 9.017 0 0 0 1.409.139c1.688 0 2.602-.9 2.668-1.78 0-.791-.648-1.39-1.66-1.39-1.567 0-4.416 1.451-7.294 1.451.285.213.756.438 1.321.65a10.374 10.374 0 0 0-3.24 5.692L4.663 17.06C3.921 18.235 2.357 20.534 0 22.332c2.85 0 4.738.064 7.15-3.727l2.256-3.591c.17.466.375.92.617 1.365l-4.491 7.143c-.749 1.184-2.296 3.465-4.663 5.272 2.85 0 4.738.066 7.148-3.722l3.867-6.153c.29.307.593.606.913.892l-5.454 8.681c-.749 1.187-2.289 3.46-4.663 5.268 2.85 0 4.74.068 7.15-3.723l5.318-8.463c.35.22.709.433 1.078.634l-6.49 10.325c-.75 1.19-2.29 3.458-4.66 5.267 2.849 0 4.738.068 7.15-3.72l6.683-10.636c.395.15.796.295 1.203.424L12.56 35.885c-.738 1.171-2.313 3.48-4.659 5.268 2.847 0 4.739.063 7.148-3.722l8.05-12.807c.082.012.162.026.242.043.219.693.372 1.336.372 1.983 0 4.024-2.656 7.578-5.845 10.322.205.089.558.12.888.12.657 0 1.083-.036 1.382-.088-.74 1.67-2.327 3.824-3.127 4.94-1.046-.187-2.563-.334-3.557-.334-1.04 0-1.158.606-1.158 1.147 0 .939.44 1.685.956 2.102.193-.48.582-1.121 2.503-1.121.038 0 .104.004.193.01-.562.622-2.322 2.036-2.322 3.174 0 .754.834 1.884 1.93 1.884-.067-.243-.057-.468-.057-.634 0-.923.822-2.002 1.516-2.756-.02.225-.01.202-.01.464 0 2.18.199 3.182 1.59 3.182.683 0 1.155-.373 1.317-.485-.904-.827-.951-1.477-.951-2.7.002-.318.002-.63.007-1.058.004-.28 0-.65-.047-.917.499-.068.701-.068 1.083-.068 0 0 1.978-.157 2.454.866.537-.49 1.316-1.18 1.316-1.94 0-.504-.24-1.073-1.257-1.073-.387 0-1.6.234-2.614.234.273-.604 1.486-2.37 2.538-3.648.158.497.408 1.033.959 1.473.078-.824.563-3.43 1.858-4.954.15 1.03.353 2.086.353 4.313 0 5.415-1.31 9.418-4.09 10.181.362.625 1.125 1.19 1.921 1.19 1.015 0 1.571-1.145 2.136-2.225.295.796 1.107 2.749 1.922 2.749s1.627-1.953 1.922-2.749c.565 1.08 1.12 2.225 2.138 2.225.794 0 1.56-.565 1.922-1.19-2.781-.763-4.093-4.766-4.093-10.181 0-2.227.202-3.283.353-4.313 1.295 1.524 1.783 4.13 1.858 4.954.554-.44.803-.976.961-1.473 1.05 1.279 2.266 3.044 2.539 3.648-1.018 0-2.23-.234-2.614-.234-1.018 0-1.258.569-1.258 1.072 0 .761.78 1.452 1.317 1.94.473-1.022 2.454-.865 2.454-.865.381 0 .584 0 1.083.068-.047.266-.05.636-.047.917.002.429.004.74.004 1.059 0 1.222-.044 1.872-.949 2.699.163.112.634.485 1.317.485 1.392 0 1.592-1.003 1.592-3.182 0-.262.007-.239-.012-.464.695.754 1.517 1.833 1.517 2.756 0 .166.01.39-.06.634 1.098 0 1.932-1.13 1.932-1.884 0-1.138-1.76-2.552-2.324-3.175.091-.005.157-.01.193-.01 1.924 0 2.312.642 2.505 1.122.514-.417.957-1.163.957-2.102 0-.541-.118-1.147-1.16-1.147-.993 0-2.512.147-3.555.334-.803-1.116-2.388-3.27-3.128-4.94.297.052.726.087 1.38.087.332 0 .686-.03.89-.12-3.188-2.743-5.847-6.297-5.847-10.321 0-.647.155-1.29.374-1.983.078-.017.16-.03.243-.043l8.05 12.807c2.409 3.785 4.3 3.722 7.147 3.722-2.345-1.789-3.921-4.097-4.658-5.268l-7.555-12.017c.41-.129.81-.274 1.206-.424l6.683 10.636c2.412 3.788 4.3 3.72 7.15 3.72-2.371-1.81-3.912-4.078-4.66-5.267l-6.491-10.325c.367-.201.728-.414 1.076-.634l5.32 8.463c2.412 3.79 4.298 3.723 7.148 3.723-2.372-1.808-3.912-4.081-4.66-5.268l-5.455-8.681c.32-.286.626-.585.911-.892l3.867 6.153c2.412 3.788 4.3 3.722 7.15 3.722-2.369-1.807-3.914-4.088-4.663-5.272l-4.49-7.143c.242-.445.447-.9.616-1.365l2.256 3.591zm-36.046-8.224c0-2.67 1.952-4.779 2.64-5.373.165.04.33.077.494.112-.732.885-2.02 2.372-2.02 4.338 0 3.905 4.197 7.295 8.95 7.295-.032.335-.048.686-.048 1.047 0 .578.033 1.114.09 1.62-5.375-.033-10.106-4.369-10.106-9.04zm7.282 32.01l-.03.092h.093c1.508 0 2.242-.106 2.73-.178.254-.03.438-.059.636-.059.388 0 .687.035.687.513 0 .32-.376.829-.744 1.124-.556-.522-1.326-.625-2.456-.625-.528 0-1.22.096-1.59.147l-.059.007-.066.01.022.175c.044.312.098.698.098 1.22l-.007.473-.007.588c0 1.273.177 1.999.624 2.55a1.457 1.457 0 0 1-.423.076c-.796 0-1.027-.346-1.027-2.624 0-.459-.026-.887-.04-1.173l-.024-.424-.101.077c-1.182.897-2.4 2.498-2.473 3.695-.356-.227-.742-.74-.742-1.133 0-.654.99-1.634 2.132-2.772l.659-.653.082-.085-.214-.054c-.247-.063-.704-.178-1.093-.178-1.283 0-2.086.242-2.58.778-.18-.255-.328-.852-.328-1.201 0-.227.045-.387.134-.478.113-.108.287-.108.44-.108h.033c1.413 0 3.104.253 3.764.359l.038.009.025-.033c.113-.152 2.81-3.722 3.51-5.614a1.43 1.43 0 0 1 .581-.105c.532 0 .68.356.831.901-1.683 2.035-2.734 3.617-3.115 4.704zm14.54-5.604c.282 0 .42.044.584.105.7 1.892 3.396 5.462 3.507 5.614l.025.033.04-.01c.66-.105 2.35-.358 3.764-.358h.033c.153 0 .327 0 .438.108.092.091.137.25.137.478 0 .349-.149.946-.328 1.2-.494-.535-1.297-.777-2.583-.777-.387 0-.843.115-1.09.178l-.102.024-.115.03.741.738c1.145 1.138 2.134 2.118 2.134 2.772 0 .393-.386.906-.742 1.133-.075-1.197-1.29-2.798-2.475-3.695l-.101-.074-.019.42c-.016.287-.042.715-.042 1.174 0 2.278-.234 2.624-1.027 2.624-.123 0-.309-.035-.424-.077.447-.55.624-1.276.624-2.55l-.007-.587-.007-.473c0-.522.054-.908.096-1.22l.024-.175-.125-.017c-.372-.051-1.062-.147-1.59-.147-1.132 0-1.9.103-2.456.625-.367-.295-.744-.803-.744-1.124 0-.478.297-.513.688-.513.197 0 .381.028.636.059.487.072 1.22.178 2.729.178h.092l-.028-.091c-.382-1.087-1.432-2.67-3.116-4.704.15-.545.299-.901.829-.901zm-6.241-31.14a4.923 4.923 0 0 0-.98-1.94c-.414-.486-1.1-1.064-2.023-1.064-.421 0-1.128.197-1.578.384-.167-.302-.497-1.035-.497-1.367 0-.34.58-.684 1.684-.684 2.428 0 3.881 1.094 3.881 2.924 0 .642-.256 1.23-.487 1.747zm1.09-2.381a3.175 3.175 0 0 0-.586-1.386c.014-.473.21-.925.977-.553-.414.422-.094 1.166-.094 1.166s.846-.39.671-.945c1.258.3.354 1.978-.968 1.718zm4.73 16.154c.063-.524.1-1.065.1-1.62 0-.3.003-.65-.035-1.049 4.694-.065 8.81-3.427 8.81-7.293 0-1.966-1.29-3.453-2.02-4.338.165-.035.33-.072.494-.112.688.594 2.64 2.704 2.64 5.373 0 4.638-4.663 8.943-9.99 9.039z" fill="#1A1919"/><path fill="#1A1919" d="M69 50L77 50 77 3 69 3z"/></g></g></svg>