<svg width="35" height="39" xmlns="http://www.w3.org/2000/svg" xmlns:xlink="http://www.w3.org/1999/xlink"><defs><path id="a" d="M0.0340817442 0.0509361328L20.7757695 0.0509361328 20.7757695 39 0.0340817442 39z"/></defs><g fill="none" fill-rule="evenodd"><g transform="translate(13.222)"><mask id="b" fill="#fff"><use xlink:href="#a"/></mask><path d="M20.239.05c.632.45.686.741.267 1.472-4.085 7.129-8.168 14.259-12.262 21.382-.162.281-.149.478.004.752 2.555 4.593 5.084 9.201 7.657 13.784.576 1.026.155 1.595-.926 1.558a84.634 84.634 0 0 0-4.97-.003c-.971.024-1.594-.386-2.036-1.203-.974-1.796-1.973-3.58-2.961-5.37-1.627-2.944-3.252-5.89-4.886-8.83-.126-.227-.121-.394.006-.617 4.126-7.207 8.246-14.418 12.363-21.63.336-.587.72-1.109 1.424-1.294h6.32z" fill="#FFF" mask="url(#b)"/></g><path d="M0 25.867C2.01 22.38 4.017 18.89 6.038 15.41c.124-.214.049-.345-.047-.509-1.168-1.98-2.306-3.976-3.513-5.933-.631-1.023-.143-1.573.91-1.538 1.704.056 3.412.027 5.118.01.736-.008 1.289.268 1.679.87.158.243.31.49.457.74 1.144 1.95 2.283 3.902 3.432 5.848.115.195.128.341.01.545-1.971 3.41-3.938 6.823-5.893 10.243-.483.846-1.144 1.273-2.174 1.24-1.628-.05-3.258-.023-4.888-.007-.508.005-.9-.13-1.129-.6v-.452z" fill="#FFF"/></g></svg>